<svg width="73" height="49" viewBox="0 0 73 49" fill="none" xmlns="http://www.w3.org/2000/svg">
<g clip-path="url(#clip0)">
<path d="M46.892 37.7456C46.892 38.0869 46.892 38.3258 46.892 38.3941C46.2094 45.0832 34.8106 48.5642 23.4801 48.5301C12.1154 48.496 0.682525 44.6395 0.477756 38.0528C0.477756 37.6774 0.307116 34.3328 0.341244 33.9574C0.341244 33.6503 0.341244 33.4114 0.341244 33.309C0.341244 33.0701 0.341244 32.8994 0.341244 32.8312C0.341244 32.6606 0.341244 32.524 0.341244 32.4217C0.341244 32.2851 0.341244 32.1828 0.341244 32.1145C0.341244 31.8756 0.341244 31.6708 0.341244 31.5685C0.341244 31.3296 0.341244 31.1248 0.341244 31.0565C0.341244 30.7153 0.341244 30.4422 0.341244 30.3398" stroke="#02AB56" stroke-miterlimit="10"/>
<path d="M41.5 37.8139C40.7833 38.2234 39.9984 38.633 39.1452 39.0084C34.7427 40.9196 28.8044 42.0458 22.4224 41.8752C16.0063 41.7386 10.3411 40.3394 6.34809 38.2234C2.3551 36.1075 0.0685198 33.2749 0.375673 30.2033C0.512185 28.8382 1.16062 27.5413 2.25272 26.3469" stroke="#02AB56" stroke-miterlimit="10"/>
<path d="M45.9023 35.3226C41.6704 38.8036 33.5479 40.5783 25.4254 40.5442C13.9925 40.51 2.59372 36.6194 2.38895 30.0668C2.38895 29.6914 2.21831 26.3469 2.25244 25.9715C2.25244 25.6643 2.25244 25.4254 2.25244 25.323C2.25244 25.0841 2.25244 24.9135 2.25244 24.8452C2.25244 24.6746 2.25244 24.5381 2.25244 24.4357C2.25244 24.2992 2.25244 24.1968 2.25244 24.1285C2.25244 23.8896 2.25244 23.6849 2.25244 23.5825C2.25244 23.3436 2.25244 23.1388 2.25244 23.0706C2.25244 22.7293 2.25244 22.4563 2.25244 22.3539" stroke="#02AB56" stroke-miterlimit="10"/>
<path d="M43.7524 29.6232C42.9334 30.1351 42.0119 30.5788 41.0222 31.0224C36.6197 32.9336 30.6814 34.0598 24.2994 33.8892C17.8834 33.7527 12.2181 32.3534 8.2251 30.2375C4.26624 28.1215 1.94553 25.2889 2.28681 22.2174C2.59397 19.1458 5.49485 16.4156 9.89738 14.5044C14.2999 12.5932 20.2382 11.467 26.6201 11.6377C32.4219 11.7742 37.6094 12.9345 41.5 14.7092" stroke="#02AB56" stroke-miterlimit="10"/>
<path d="M42.6942 25.596C39.4862 28.4969 32.524 30.4081 24.6746 30.2375C14.2314 29.9986 6.17715 26.1421 6.68907 21.603C7.23512 17.064 16.1084 13.5829 26.5857 13.8218C32.9336 13.9584 38.3599 15.4259 41.568 17.5759" stroke="#02AB56" stroke-miterlimit="10"/>
<path d="M66.8229 45.2197C66.6181 45.288 62.7275 46.4825 62.5227 46.5507H62.4545C62.1132 46.6531 61.8743 46.7214 61.8402 46.7214H61.806C61.6013 46.7896 61.4306 46.8237 61.3965 46.8237H61.3624C61.1235 46.892 60.987 46.9261 60.8846 46.9603C60.7822 46.9944 60.7481 46.9944 60.7139 46.9944H60.6798C60.4068 47.0626 60.2361 47.1309 60.1679 47.1309H60.1337C59.8949 47.1992 59.7583 47.2333 59.7242 47.2333C59.6901 47.2333 59.6901 47.2333 59.656 47.2333C59.3147 47.3357 59.0758 47.4039 59.0417 47.4039C52.4208 48.496 46.073 38.3941 43.138 27.439C40.2029 16.4156 40.9538 4.36839 47.2675 2.49134C47.4722 2.42309 48.5985 2.0818 49.6223 1.74052M49.6223 1.84291C50.3731 1.60401 51.0216 1.43337 51.1922 1.39924C51.4652 1.33099 51.7041 1.26273 51.8065 1.2286C52.0113 1.16035 52.1819 1.12622 52.2843 1.09209C52.4549 1.05796 52.5914 1.02383 52.6938 0.989705C52.8303 0.955577 52.9327 0.921449 52.9669 0.921449C53.2057 0.853192 53.3764 0.819064 53.4788 0.784936C53.7177 0.71668 53.8883 0.682552 53.9566 0.648424C54.2978 0.546039 54.5367 0.477783 54.6391 0.477783L49.6223 1.84291Z" stroke="#02AB56" stroke-miterlimit="10"/>
<path d="M54.8098 0.409569C57.8472 -0.0682242 61.2258 1.97946 64.2291 5.73355C67.2324 9.48764 69.8261 14.914 71.3619 21.1253C72.8976 27.3366 73.0342 33.1725 72.0103 37.5751C71.0206 41.9776 68.8705 44.9467 65.799 45.4245C62.7616 45.9023 59.3829 43.8546 56.3796 40.1005C53.3764 36.3465 50.7826 30.9201 49.2469 24.7088C47.7111 18.4975 47.5746 12.6616 48.5984 8.25903C49.6223 3.89064 51.7724 0.921491 54.8098 0.409569Z" stroke="#02AB56" stroke-miterlimit="10"/>
<path fill-rule="evenodd" clip-rule="evenodd" d="M56.5503 4.53908C61.0552 3.85652 66.7546 11.5353 69.2801 21.7055C71.7715 31.8416 70.1674 40.6466 65.6284 41.3292C61.1235 42.0117 55.4241 34.3329 52.8986 24.1627C50.4072 13.9926 52.0454 5.22165 56.5503 4.53908Z" stroke="#02AB56" stroke-miterlimit="10"/>
<path d="M32.0804 16.6886C32.1487 16.7569 32.763 17.4394 32.8654 18.5998C32.8995 19.0093 32.8654 19.4189 32.763 19.9308C32.5923 20.6475 32.3876 21.6031 32.5923 23.0364C32.3193 22.9341 32.0463 22.8317 31.7391 22.7293C30.1351 22.2515 28.7017 22.1491 27.4731 22.1832L27.2342 18.9411L24.1968 18.7022V22.3539C23.7873 22.388 23.3436 22.4563 22.8658 22.5586C22.2174 22.6952 21.8079 22.7975 21.5007 22.8658C21.1594 22.9682 21.0229 23.0023 20.6816 23.0364C20.238 23.0706 19.18 23.173 18.0538 22.7975C16.9617 22.4221 16.4839 21.842 16.3132 21.6031C15.5624 20.6133 16.1767 19.0776 17.3371 18.395C18.4292 17.7466 19.7943 17.5418 20.3404 17.5077L19.7943 15.5283C18.7022 15.5624 16.518 15.8013 14.7433 16.8934C13.1393 17.849 11.1258 20.4086 12.5933 22.8317C12.9687 23.4801 13.9925 24.7087 16.2109 25.4254C18.4292 26.1421 20.4769 25.9032 21.1253 25.8008C21.9102 25.6984 22.3539 25.5619 22.7976 25.4254C23.0706 25.323 23.3778 25.2548 23.8897 25.1183C23.9921 25.0841 24.0944 25.0841 24.1968 25.05V28.1215H27.8485L27.6438 24.7087C28.77 24.6746 29.8621 24.6746 31.0907 25.05C32.4217 25.4595 33.3432 26.108 33.7868 26.4151C34.367 26.8247 34.8789 27.2683 35.3226 27.7802L36.4488 27.0636L37.5409 26.381C37.0973 25.9373 35.8345 24.5722 35.5615 23.4118C35.2885 22.1832 35.3908 21.4324 35.4932 20.7157C35.5956 20.1014 35.6639 19.5212 35.4932 18.8046C35.2543 17.9172 34.9131 16.9958 34.0257 16.3132L32.0804 16.6886Z" stroke="#02AB56" stroke-miterlimit="10"/>
<path d="M68.0856 27.3025C68.0514 27.3707 67.6078 28.1898 66.5157 28.5652C66.1061 28.7017 65.6966 28.7358 65.1505 28.7017C64.3656 28.6676 63.3418 28.6335 61.9425 29.1795C61.9766 28.8382 62.0108 28.497 62.0108 28.1557C62.0449 26.3128 61.7377 24.777 61.3965 23.4801L64.4339 22.6952L63.7854 19.726L60.3726 20.2721C60.2361 19.8967 60.0655 19.4871 59.8607 19.0435C59.5877 18.4633 59.3829 18.0879 59.2464 17.8149C59.0757 17.5077 59.0075 17.4053 58.9051 17.064C58.7686 16.6545 58.4273 15.733 58.5297 14.7433C58.6321 13.7536 59.0757 13.3099 59.2464 13.1393C59.9631 12.4226 61.4306 12.798 62.3179 13.6854C63.1711 14.5044 63.683 15.6648 63.8537 16.1085L65.4918 15.46C65.1505 14.5386 64.3997 12.798 63.0346 11.5012C61.8401 10.3408 59.2464 9.00981 57.4376 10.3067C56.9257 10.648 56.0383 11.5694 55.7994 13.4806C55.5605 15.4941 56.209 17.3029 56.4138 17.8831C56.6868 18.5998 56.8915 19.0093 57.1304 19.3847C57.267 19.6578 57.4376 19.8967 57.6424 20.3745C57.6765 20.4768 57.7447 20.5792 57.7789 20.6475L54.6732 21.1253L55.424 24.9135L58.9392 24.0262C59.2464 25.1865 59.5194 26.381 59.4512 27.8144C59.3829 29.4184 58.9392 30.647 58.7003 31.2272C58.3932 32.0121 58.0178 32.763 57.5741 33.4455L58.7003 34.7083L59.7583 35.9369C60.1337 35.2543 61.2599 33.2749 62.4203 32.6606C63.6148 32.0121 64.468 31.978 65.2188 31.9439C65.8672 31.9098 66.5157 31.8756 67.1641 31.4661C67.949 30.9883 68.7681 30.374 69.1094 29.2136L68.0856 27.3025Z" stroke="#02AB56" stroke-miterlimit="10"/>
</g>
<defs>
<clipPath id="clip0">
<rect width="73" height="48.8714" fill="white"/>
</clipPath>
</defs>
</svg>
