<svg width="76" height="51" viewBox="0 0 76 51" fill="none" xmlns="http://www.w3.org/2000/svg">
<path d="M48.738 39.364C48.7475 39.7238 48.7517 39.9744 48.7464 40.0262C48.0499 46.8771 36.3732 50.4681 24.7504 50.4321C13.0643 50.3957 1.34244 46.4207 1.14329 39.6895C1.13209 39.3199 0.974587 35.8822 1.01449 35.4955L1.01519 35.4881C1.00819 35.1822 1.00574 34.9421 1.01099 34.82C1.00679 34.5865 1.00679 34.4112 1.01274 34.3261C1.00924 34.1553 1.00749 34.0104 1.00819 33.9016V33.8974C1.00714 33.7602 1.00819 33.6562 1.01274 33.5971C1.00749 33.3468 1.00644 33.1515 1.01099 33.0455C1.00644 32.7914 1.00679 32.6059 1.01449 32.5317L1.01519 32.5261C1.00679 32.1652 1.00504 31.8961 1.01449 31.803" stroke="#02AB56"/>
<path d="M43.2142 39.4442C42.468 39.8799 41.6567 40.288 40.7873 40.6657C36.2706 42.6285 30.1925 43.7642 23.6282 43.6078C17.0636 43.4513 11.2498 42.0324 7.16039 39.8649C3.07099 37.697 0.70394 34.7804 1.02979 31.6301C1.17574 30.2203 1.84844 28.8826 2.95199 27.6593" stroke="#02AB56"/>
<path d="M47.7086 36.8606C43.3836 40.4225 35.0291 42.2579 26.7033 42.2324C15.0172 42.196 3.29532 38.2207 3.09617 31.4898C3.08497 31.1202 2.92747 27.6825 2.96737 27.2954L2.96807 27.2881C2.96072 26.9825 2.95862 26.7424 2.96387 26.6203C2.95967 26.3868 2.95967 26.2111 2.96562 26.1264C2.96212 25.9556 2.96037 25.8104 2.96107 25.7019V25.6973C2.96002 25.5601 2.96107 25.4565 2.96562 25.3974C2.96037 25.1471 2.95932 24.9515 2.96387 24.8458C2.95932 24.5917 2.95967 24.4062 2.96737 24.332L2.96807 24.3264C2.95967 23.9655 2.95792 23.696 2.96737 23.6033" stroke="#02AB56"/>
<path d="M45.5234 31.0312C44.6817 31.5475 43.75 32.0273 42.7402 32.4659C38.2238 34.4287 32.1454 35.5644 25.5811 35.408C19.0165 35.2519 13.2027 33.8323 9.11327 31.6651C5.02387 29.4975 2.65682 26.5806 2.98267 23.4303C3.30852 20.2799 6.26567 17.4901 10.7824 15.5273C15.2992 13.5648 21.3773 12.4287 27.9419 12.5852C33.8908 12.7269 39.2231 13.9057 43.2145 15.7387" stroke="#02AB56"/>
<path d="M44.4516 26.9105C41.1585 29.874 34.0157 31.849 25.9741 31.6758C15.2518 31.4444 6.99041 27.4814 7.52276 22.8232C8.05511 18.1651 17.1793 14.5769 27.9015 14.8079C34.3947 14.9479 39.9856 16.4567 43.2672 18.6596" stroke="#02AB56"/>
<path d="M64.762 48.369L64.8359 48.8636L64.8435 48.8623L64.762 48.369ZM64.6871 48.3802L64.6131 47.8857L64.5779 47.891L64.5437 47.9012L64.6871 48.3802ZM64.0585 48.5587L63.9802 48.0649L63.9763 48.0655L64.0585 48.5587ZM64.0312 48.5632L63.949 48.0701L63.9194 48.075L63.8906 48.0834L64.0312 48.5632ZM63.6129 48.6787L63.6893 49.1729L63.6916 49.1725L63.6129 48.6787ZM63.5653 48.6861L63.489 48.192L63.4554 48.1971L63.4228 48.2068L63.5653 48.6861ZM63.0862 48.8226V49.3226H63.1459L63.2039 49.3086L63.0862 48.8226ZM63.0855 48.8226V48.3226H63.0153L62.9479 48.3419L63.0855 48.8226ZM62.9091 48.8684L62.8342 48.3741L62.8315 48.3745L62.9091 48.8684ZM62.8601 48.8761L62.7825 48.3822L62.7494 48.3874L62.7174 48.3969L62.8601 48.8761ZM62.3463 49.0203L62.4148 49.5158L62.4272 49.5138L62.3463 49.0203ZM62.3235 49.0235L62.255 48.5282L62.2179 48.5333L62.182 48.5439L62.3235 49.0235ZM61.9011 49.1407L61.9697 49.6362L61.9833 49.6339L61.9011 49.1407ZM61.8339 49.1498L61.7567 48.6558L61.7235 48.661L61.6913 48.6706L61.8339 49.1498ZM61.1972 49.3304L61.278 49.8239L61.2783 49.8238L61.1972 49.3304ZM44.9009 28.8719L44.4177 29.0006L44.4177 29.0006L44.9009 28.8719ZM49.125 3.28199L48.9808 2.80326L48.9806 2.80331L49.125 3.28199ZM53.1409 2.06539L53.0702 1.57033L53.0612 1.5718L53.1409 2.06539ZM53.1483 2.06434L53.219 2.55932L53.2549 2.55419L53.2897 2.54394L53.1483 2.06434ZM53.7923 1.88619L53.9011 2.37422L53.9162 2.37084L53.9311 2.36653L53.7923 1.88619ZM54.2693 1.75914L54.3682 2.24927L54.3891 2.24506L54.4095 2.23909L54.2693 1.75914ZM54.6781 1.64434L54.8055 2.12788L54.8097 2.12672L54.6781 1.64434ZM54.682 1.64329L54.8136 2.12568L54.8158 2.12505L54.682 1.64329ZM54.9735 1.56944L55.0676 2.06051L55.0912 2.056L55.1141 2.04927L54.9735 1.56944ZM55.5055 1.42419L55.6128 1.91256L55.6289 1.90902L55.6447 1.90443L55.5055 1.42419ZM56.0022 1.29364L55.9438 0.797068L55.933 0.798336L55.9223 0.80007L56.0022 1.29364ZM56.0081 1.29294L56.0666 1.78952L56.1089 1.78454L56.1497 1.77248L56.0081 1.29294ZM69.0308 46.5453C68.9243 46.5799 67.8799 46.9062 66.8291 47.2299C66.3047 47.3915 65.7811 47.5516 65.3747 47.6737C65.1713 47.7347 64.9987 47.7858 64.8706 47.8226C64.724 47.8647 64.6728 47.8769 64.6805 47.8757L64.8435 48.8623C64.9084 48.8516 65.0314 48.8169 65.1467 48.7837C65.2805 48.7453 65.4576 48.6929 65.6623 48.6314C66.0721 48.5084 66.5984 48.3474 67.1235 48.1856C68.1716 47.8627 69.2244 47.5338 69.3398 47.4963L69.0308 46.5453ZM64.6881 47.8745L64.6131 47.8857L64.761 48.8747L64.8359 48.8635L64.6881 47.8745ZM64.5437 47.9012C64.3742 47.9519 64.2322 47.9938 64.1271 48.0238C64.0743 48.0388 64.0329 48.0503 64.0028 48.0582C63.9642 48.0684 63.964 48.0674 63.9802 48.0649L64.1368 49.0525C64.1997 49.0425 64.3081 49.012 64.4014 48.9854C64.5128 48.9537 64.6598 48.9103 64.8305 48.8592L64.5437 47.9012ZM63.9763 48.0655L63.949 48.0701L64.1134 49.0564L64.1407 49.0519L63.9763 48.0655ZM63.8906 48.0834C63.7783 48.1163 63.6864 48.1428 63.6185 48.1617C63.5844 48.1711 63.5585 48.1781 63.5401 48.1828C63.5157 48.1889 63.519 48.1874 63.5343 48.185L63.6916 49.1725C63.7458 49.1639 63.8255 49.142 63.886 49.1252C63.9609 49.1044 64.0583 49.0763 64.1718 49.0431L63.8906 48.0834ZM63.5366 48.1846L63.489 48.192L63.6417 49.1802L63.6893 49.1729L63.5366 48.1846ZM63.4228 48.2068C63.1882 48.2766 63.0314 48.3214 62.9685 48.3366L63.2039 49.3086C63.2971 49.286 63.4812 49.2328 63.7079 49.1653L63.4228 48.2068ZM63.0862 48.3226H63.0855V49.3226H63.0862V48.3226ZM62.9479 48.3419C62.904 48.3545 62.8699 48.3638 62.8456 48.3702C62.8334 48.3733 62.8255 48.3753 62.8211 48.3763C62.8144 48.3778 62.8209 48.3761 62.8342 48.3741L62.984 49.3628C63.0465 49.3533 63.1445 49.3258 63.2231 49.3033L62.9479 48.3419ZM62.8315 48.3745L62.7825 48.3822L62.9377 49.3701L62.9867 49.3624L62.8315 48.3745ZM62.7174 48.3969C62.5792 48.4381 62.4646 48.4715 62.3801 48.4953C62.3377 48.5072 62.3047 48.5162 62.2809 48.5224C62.2505 48.5302 62.251 48.5293 62.2653 48.5269L62.4272 49.5138C62.4838 49.5045 62.5745 49.4794 62.6509 49.4579C62.7424 49.4322 62.8624 49.3971 63.0028 49.3554L62.7174 48.3969ZM62.2778 48.5251L62.255 48.5282L62.3921 49.5188L62.4148 49.5156L62.2778 48.5251ZM62.182 48.5439C62.0686 48.5774 61.9758 48.6042 61.9074 48.6233C61.8731 48.6328 61.8468 48.6399 61.828 48.6447C61.8038 48.6509 61.8055 48.6498 61.8189 48.6475L61.9833 49.6339C62.062 49.6208 62.2565 49.5646 62.4651 49.503L62.182 48.5439ZM61.8325 48.6455C61.8303 48.6458 61.7818 48.6519 61.7567 48.6558L61.9111 49.6439C61.9308 49.6408 61.9263 49.642 61.9697 49.636L61.8325 48.6455ZM61.6913 48.6706C61.5193 48.7218 61.3752 48.7642 61.2683 48.7946C61.2147 48.8099 61.1725 48.8216 61.1417 48.8298C61.1027 48.8401 61.1012 48.8395 61.1161 48.8371L61.2783 49.8238C61.3397 49.8137 61.4476 49.7834 61.5426 49.7563C61.6551 49.7242 61.8037 49.6805 61.9764 49.6291L61.6913 48.6706ZM61.1165 48.837C58.0124 49.3447 54.8498 47.2478 52.0245 43.4322C49.2214 39.6466 46.8689 34.3166 45.384 28.7432L44.4177 29.0006C45.9251 34.6584 48.3227 40.1134 51.2208 44.0272C54.0966 47.911 57.5861 50.4278 61.278 49.8239L61.1165 48.837ZM45.384 28.7432C43.8922 23.1431 43.3475 17.2996 43.9631 12.6374C44.5846 7.93015 46.3505 4.64148 49.2695 3.76067L48.9806 2.80331C45.4529 3.86781 43.6026 7.72806 42.9717 12.5065C42.3348 17.3298 42.9014 23.3086 44.4177 29.0006L45.384 28.7432ZM49.2693 3.76073C49.4718 3.6997 50.6675 3.31936 51.6878 3.00526L51.3936 2.04952C50.3469 2.37173 49.1871 2.74109 48.9808 2.80326L49.2693 3.76073ZM51.6878 3.00529C52.0659 2.88897 52.4226 2.78089 52.704 2.69885C52.8449 2.65777 52.9649 2.62385 53.0582 2.59889C53.1049 2.5864 53.1431 2.57664 53.1728 2.56954C53.1876 2.566 53.1993 2.56337 53.2081 2.5615C53.2174 2.55953 53.2211 2.55892 53.2207 2.55899L53.0612 1.5718C52.942 1.59107 52.6956 1.65969 52.4242 1.7388C52.1356 1.82292 51.7734 1.93271 51.3937 2.04949L51.6878 3.00529ZM53.2117 2.56037L53.219 2.55932L53.0776 1.56937L53.0702 1.57042L53.2117 2.56037ZM53.2897 2.54394C53.5869 2.45634 53.8013 2.39646 53.9011 2.37422L53.6835 1.39817C53.5446 1.42913 53.2963 1.49945 53.0069 1.58474L53.2897 2.54394ZM53.9311 2.36653C54.1584 2.30085 54.3084 2.26133 54.3682 2.24927L54.1705 1.26901C54.0637 1.29056 53.8742 1.34204 53.6534 1.40586L53.9311 2.36653ZM54.4095 2.23909C54.5715 2.19178 54.7064 2.15394 54.8055 2.12786L54.5508 1.16083C54.4398 1.19005 54.2955 1.2306 54.1291 1.2792L54.4095 2.23909ZM54.8097 2.12672L54.8136 2.12567L54.5504 1.16091L54.5466 1.16196L54.8097 2.12672ZM54.8158 2.12505C54.9499 2.08781 55.032 2.06733 55.0676 2.06051L54.8794 1.07838C54.7981 1.09396 54.6787 1.12528 54.5482 1.16153L54.8158 2.12505ZM55.1141 2.04927C55.3567 1.9782 55.5287 1.93102 55.6128 1.91256L55.3983 0.935829C55.2752 0.962865 55.0706 1.01998 54.833 1.08962L55.1141 2.04927ZM55.6447 1.90443C55.7648 1.86963 55.8664 1.84118 55.9455 1.82029C55.985 1.80984 56.0172 1.80175 56.0423 1.79586C56.0547 1.79293 56.0645 1.79077 56.0718 1.78924C56.0795 1.78764 56.0826 1.78714 56.0821 1.78722L55.9223 0.80007C55.8118 0.817954 55.5989 0.876556 55.3664 0.943954L55.6447 1.90443ZM56.0606 1.79022L56.0666 1.78952L55.9497 0.796368L55.9438 0.797068L56.0606 1.79022ZM56.1497 1.77248C56.3213 1.72182 56.4689 1.67945 56.5837 1.64818C56.6411 1.63253 56.6885 1.62019 56.7254 1.61116C56.7438 1.60666 56.7585 1.60327 56.7697 1.60084C56.7815 1.59827 56.7865 1.59743 56.7864 1.59744L56.6257 0.610446C56.4942 0.631855 56.1973 0.715765 55.8666 0.813407L56.1497 1.77248Z" fill="#02AB56"/>
<path fill-rule="evenodd" clip-rule="evenodd" d="M56.8769 1.07359C60.0038 0.567836 63.4673 2.69654 66.5382 6.54619C69.6095 10.3958 72.2891 15.9685 73.8477 22.3473C75.4062 28.726 75.5501 34.7086 74.5221 39.2218C73.4945 43.7344 71.2944 46.7794 68.1682 47.2851C65.0417 47.7909 61.5777 45.6622 58.5064 41.8125C55.4355 37.9629 52.7559 32.3902 51.1974 26.0114C49.6388 19.6327 49.495 13.6501 50.5229 9.13724C51.5505 4.62434 53.7503 1.57934 56.8769 1.07359Z" stroke="#02AB56"/>
<path fill-rule="evenodd" clip-rule="evenodd" d="M58.6454 5.29899C63.2815 4.59969 69.1223 12.4747 71.6909 22.8868C74.2603 33.2993 72.5848 42.3076 67.9491 43.0066C63.3133 43.7059 57.4725 35.8309 54.9035 25.4187C52.3345 15.0062 54.0096 5.99794 58.6454 5.29899Z" stroke="#02AB56"/>
<path fill-rule="evenodd" clip-rule="evenodd" d="M66.8027 32.9991C68.0172 32.6645 68.7875 31.6835 69.112 30.0521L70.6408 35.6035C70.0391 36.609 69.1904 37.2635 68.0921 37.5659C66.256 38.072 64.4069 37.2807 62.5456 35.1919C61.2884 33.7793 60.1901 31.8798 59.2521 29.497L57.8532 29.8824L57.3828 26.9812L58.3155 26.7243C58.2287 26.4478 58.1398 26.1433 58.0474 25.808C57.8938 25.2508 57.7629 24.757 57.6551 24.3265L56.4164 24.6674L55.9537 21.7928L57.0762 21.4838C56.6845 18.9995 56.6597 16.8417 57.0027 15.0112C57.5291 12.2536 58.7632 10.6065 60.7071 10.0713C61.7662 9.77941 62.7917 9.89736 63.7839 10.4241L64.598 15.6013C63.7766 14.7078 62.8512 14.4015 61.8211 14.6854C60.7907 14.9689 60.1537 15.9009 59.9094 17.4805C59.7691 18.3754 59.7866 19.444 59.9616 20.6893L65.1657 19.2557L65.6428 22.1264L60.5412 23.5313C60.608 23.812 60.7032 24.1763 60.8261 24.6219C60.9388 25.0321 61.0683 25.4664 61.2163 25.9253L66.0264 24.6005L66.5104 27.4978L62.1813 28.6899C62.6909 29.9307 63.2127 30.8778 63.7475 31.5295C64.7741 32.7888 65.7922 33.2774 66.8027 32.9991Z" stroke="#02AB56"/>
<path fill-rule="evenodd" clip-rule="evenodd" d="M35.7624 22.6813C36.4138 21.5302 36.2507 20.547 35.2875 19.727L40.5193 20.3444C40.8563 21.1938 40.751 22.1427 40.1913 23.1969C39.2365 24.9966 37.2303 26.3637 34.1717 27.2681C32.0881 27.883 29.7522 28.1648 27.1846 28.1112L26.3023 29.5683L23.7403 28.8693L24.344 27.9061C24.0675 27.8799 23.7686 27.8445 23.4452 27.8008C22.908 27.728 22.4372 27.6594 22.0326 27.5936L21.2115 28.8669L18.7356 28.1826L19.4955 27.0416C17.4035 26.4624 15.8849 25.6854 14.9339 24.718C13.5392 23.2823 13.521 21.674 14.8282 19.902C15.5265 18.9556 16.4522 18.1814 17.6069 17.5717L21.6886 18.5958C20.4293 18.9598 19.472 19.6034 18.8158 20.5362C18.1497 21.4819 18.246 22.3359 19.1196 23.095C19.6183 23.5315 20.3747 23.8972 21.3928 24.1919L24.6237 19.3392L26.9897 19.9072L23.8897 24.7141C24.1456 24.7579 24.4858 24.8069 24.9072 24.8615C25.2957 24.9119 25.7157 24.9563 26.1693 24.9941L29.0333 20.4252L31.4837 21.0111L28.9738 25.1558C30.2996 25.1607 31.4186 25.0466 32.3258 24.8125C34.067 24.368 35.2119 23.6543 35.7624 22.6813Z" stroke="#02AB56"/>
</svg>
