<svg width="92" height="70" viewBox="0 0 92 70" fill="none" xmlns="http://www.w3.org/2000/svg">
<g opacity="0.704148">
<path fill-rule="evenodd" clip-rule="evenodd" d="M44.6484 20.832C45.376 20.7321 46.1156 20.6816 46.8453 20.6816C54.409 20.6816 60.9251 26.1099 62.0033 33.3059C62.5862 37.1968 61.553 41.0719 59.0986 44.2172C56.6442 47.3636 53.0591 49.4036 49.006 49.962C48.2785 50.063 47.5389 50.1135 46.8091 50.1135C39.2455 50.1124 32.7282 44.6852 31.6522 37.4881C30.4513 29.4582 36.2816 21.9867 44.6484 20.832ZM48.8252 48.7622C52.5441 48.25 55.8345 46.3793 58.0883 43.4916C60.34 40.605 61.2867 37.0496 60.7531 33.4784C59.7648 26.8734 53.7866 21.8931 46.8453 21.8931C46.1758 21.8931 45.4976 21.9393 44.8281 22.0319C37.1494 23.0898 31.7991 29.9461 32.9013 37.3146C33.8897 43.9196 39.8678 48.901 46.808 48.901C47.4786 48.901 48.158 48.8547 48.8252 48.7622Z" fill="#02AB56"/>
<path fill-rule="evenodd" clip-rule="evenodd" d="M44.8397 31.8509C44.9006 32.2615 45.691 32.5858 47.6621 33.009C51.0282 33.6575 52.6265 34.9904 52.9907 37.4624C53.3506 39.8838 51.9034 42.0295 49.2789 43.0454L49.6627 45.6248L45.9726 46.1365L45.6257 43.7982C44.0808 43.8708 42.5576 43.6655 41.5258 43.2654L41.0865 43.0938L41.554 38.9268L42.3086 39.1995C43.1555 39.5038 44.6679 39.8838 46.3085 39.6533C46.6053 39.6122 48.0796 39.3627 47.9524 38.5068C47.8894 38.0867 47.5491 37.6477 45.4975 37.2792C43.0979 36.8507 40.2831 35.9737 39.8373 32.9658C39.4926 30.6433 40.831 28.623 43.3502 27.5944L42.9914 25.1719L46.6815 24.6592L47.0033 26.8269C48.3319 26.7543 49.3854 26.8796 50.3987 27.1922L50.8858 27.3428L50.4324 31.3719L49.5267 31.1382L49.521 31.1366C48.8175 30.9513 47.7624 30.6734 46.2574 30.8823C45.6845 30.9623 44.7418 31.194 44.8397 31.8509ZM47.8926 42.2211L48.3938 42.0631C50.7597 41.3167 52.047 39.6196 51.7512 37.635C51.5131 36.0295 50.6847 34.8314 47.4056 34.1987C45.3605 33.7596 43.7916 33.3238 43.6002 32.0257C43.46 31.0803 44.0384 29.9695 46.0791 29.6842C47.3447 29.5116 48.5678 29.659 49.3452 29.8422L49.5278 28.2187C48.6591 28.0187 47.7306 27.966 46.5271 28.0808L45.9313 28.1377L45.6192 26.0331L44.4091 26.2015L44.7353 28.3956L44.2482 28.5598C41.9835 29.3263 40.7984 30.9086 41.0789 32.7932C41.3399 34.5661 42.7293 35.5515 45.7258 36.0853C47.3979 36.3843 48.9733 36.8644 49.193 38.333C49.3811 39.609 48.3188 40.5976 46.4847 40.8535C45.1071 41.0461 43.6285 40.8482 42.6304 40.5745L42.4369 42.2842C43.4187 42.559 44.7766 42.6706 46.1009 42.5474L46.6978 42.4906L47.0348 44.7615L48.2438 44.593L47.8926 42.2211Z" fill="#02AB56"/>
<path fill-rule="evenodd" clip-rule="evenodd" d="M17.654 35.481C18.5168 34.3755 19.7762 33.6587 21.1988 33.4617C24.172 33.0533 26.882 35.0737 27.2957 37.8448C27.7201 40.6665 25.6699 43.2912 22.7311 43.6975C22.4711 43.7326 22.2143 43.7501 21.9607 43.7501C19.3012 43.7501 17.0125 41.8432 16.6321 39.3134C16.428 37.9479 16.7901 36.5856 17.654 35.481ZM17.8582 39.1443C18.1773 41.2791 20.2737 42.8333 22.5538 42.5208C24.8178 42.2083 26.3952 40.1859 26.0686 38.0139C25.7795 36.0668 24.0141 34.5982 21.9682 34.5982C21.7737 34.5982 21.5749 34.6116 21.3729 34.6385C20.278 34.7901 19.3088 35.3418 18.6426 36.1926C17.9785 37.0435 17.7002 38.0913 17.8582 39.1443Z" fill="#02AB56"/>
<path fill-rule="evenodd" clip-rule="evenodd" d="M65.5324 32.9495C65.1112 30.1299 67.1603 27.5041 70.099 27.0977C73.0699 26.6904 75.7808 28.7097 76.1977 31.4799C76.6178 34.3016 74.5688 36.9263 71.6301 37.3337C71.3711 37.3688 71.1122 37.3863 70.8586 37.3863C68.2014 37.3863 65.9117 35.4784 65.5324 32.9495ZM66.7584 32.7824C67.0775 34.9152 69.1609 36.4746 71.4539 36.157C73.7178 35.8445 75.2941 33.822 74.9696 31.65C74.6795 29.7039 72.9152 28.2343 70.8694 28.2343C70.6716 28.2343 70.4739 28.2477 70.2741 28.2755C68.0102 28.587 66.4328 30.6094 66.7584 32.7824Z" fill="#02AB56"/>
<path fill-rule="evenodd" clip-rule="evenodd" d="M85.6576 24.0504L91.8854 37.4109C92.1824 38.0468 91.8821 38.7954 91.215 39.0805L88.1099 40.4055L89.4474 49.3129C89.5522 50.0041 89.0478 50.6452 88.3282 50.7433L52.2673 55.6872L18.9534 69.8914C18.782 69.9635 18.6007 70 18.4162 70C17.8965 70 17.4216 69.7066 17.2097 69.2514L13.372 61.0195L9.82133 61.5061C9.1706 61.5061 8.6083 61.0404 8.51659 60.4212L6.34276 45.9414L0.113869 32.5819C-0.0280692 32.2728 -0.0378957 31.9304 0.0876647 31.615C0.214317 31.2997 0.46107 31.0502 0.78316 30.9134L3.88832 29.5905L2.55083 20.6821C2.44711 19.994 2.94935 19.3519 3.66996 19.2516L39.732 14.3077L73.047 0.103514C73.6988 -0.173178 74.5046 0.126484 74.7906 0.744603L78.6295 8.97435L82.1791 8.48779C82.8298 8.48779 83.391 8.95451 83.4849 9.57159L85.6576 24.0504ZM3.25506 31.1786L1.29523 32.0139L4.38947 38.7412L3.25506 31.1786ZM73.642 1.23325L76.9623 8.35415L68.921 9.45882C68.4165 9.06728 68.0137 8.56819 67.7516 8.00436L67.4972 7.45516L59.8872 10.6982L47.2329 12.4356L73.642 1.23325ZM68.1818 10.4069C67.6708 10.0185 67.2254 9.56115 66.8934 9.02969L61.4474 11.3299L68.1818 10.4069ZM18.4446 68.792C18.4359 68.7951 18.4271 68.7961 18.4184 68.7961L15.0392 61.6387L23.0805 60.5351C23.5871 60.9266 23.99 61.4267 24.2499 61.9885L24.5053 62.5387L32.1165 59.2946L44.8014 57.5531L18.4446 68.792ZM23.8219 59.587C24.3317 59.9765 24.7772 60.4338 25.108 60.9642L30.5519 58.664L23.8219 59.587ZM9.83224 60.3022L9.82242 60.9047V60.3033L9.76346 60.2511L3.85011 20.443L82.2391 9.74282L88.1503 49.5509L9.83224 60.3022ZM87.6131 31.2538L88.7475 38.8153L90.7052 37.981L87.6131 31.2538Z" fill="#02AB56"/>
<path fill-rule="evenodd" clip-rule="evenodd" d="M75.5734 14.9193C75.8923 17.0597 77.9845 18.6243 80.2674 18.3017L80.8932 18.2163L84.5405 42.6676L83.918 42.7541C81.6538 43.0662 80.0767 45.0926 80.4011 47.2709L80.4909 47.8708L18.1729 56.4775L18.0841 55.8765C17.7652 53.7361 15.672 52.1757 13.3891 52.4941L12.7655 52.5806L9.11707 28.1282L9.74066 28.0417C12.006 27.7296 13.582 25.7042 13.2565 23.526L13.1677 22.925L75.4835 14.3184L75.5734 14.9193ZM19.2075 55.1089L79.098 46.8365C79.0322 44.4368 80.7047 42.2891 83.1169 41.6744L79.8169 19.5564C77.3006 19.6344 75.0835 17.9759 74.449 15.688L14.5596 23.9604C14.6253 26.36 12.9529 28.5078 10.5407 29.1224L13.8384 51.2405C13.8866 51.2384 13.936 51.2384 13.9831 51.2384C16.4413 51.2384 18.585 52.8653 19.2075 55.1089Z" fill="#02AB56"/>
</g>
</svg>
