<svg xmlns="http://www.w3.org/2000/svg" xmlns:xlink="http://www.w3.org/1999/xlink" preserveAspectRatio="xMidYMid" width="130" height="27" viewBox="0 0 130 27">
  <defs>
    <style>

      .cls-2 {
        fill: #6db8d8;
      }
    </style>
  </defs>
  <path d="M129.757,10.121 C129.711,10.431 129.414,10.680 129.098,10.675 C129.098,10.675 127.162,10.646 125.936,10.646 C124.534,10.646 124.184,10.665 124.125,10.992 C124.086,11.300 124.339,11.435 125.118,11.685 C125.118,11.685 126.809,12.223 126.809,12.223 C127.110,12.319 127.577,12.532 127.847,12.695 C127.847,12.695 129.673,13.803 129.478,15.363 C129.186,17.808 127.493,18.212 124.651,18.212 C123.567,18.212 121.366,18.053 119.500,18.000 C119.500,18.000 117.420,18.000 117.420,18.000 C117.103,18.000 116.740,17.766 116.613,17.480 C116.613,17.480 115.422,14.805 115.422,14.805 C115.294,14.519 114.949,14.379 114.655,14.493 C114.655,14.493 114.353,14.612 113.944,14.746 C113.933,14.905 113.888,15.289 113.843,15.599 C113.843,15.599 113.578,17.437 113.578,17.437 C113.533,17.747 113.237,18.000 112.921,18.000 C112.921,18.000 110.529,18.000 110.529,18.000 C110.212,18.000 109.989,17.747 110.033,17.437 C110.033,17.437 111.781,5.086 111.781,5.086 C111.825,4.776 112.120,4.523 112.436,4.523 C112.436,4.523 114.829,4.523 114.829,4.523 C115.145,4.523 115.369,4.776 115.326,5.087 C115.326,5.087 114.723,9.446 114.723,9.446 C114.680,9.756 114.583,10.259 114.507,10.563 C114.507,10.563 114.255,11.569 113.866,12.378 C115.521,11.493 117.092,8.919 117.092,8.919 C117.256,8.651 117.649,8.431 117.965,8.431 C117.965,8.431 121.011,8.431 121.011,8.431 C120.485,10.568 119.239,11.974 117.759,12.975 C118.207,13.321 118.519,13.784 118.713,14.226 C118.713,14.226 119.429,15.735 119.429,15.735 C120.669,15.740 122.736,15.748 123.482,15.748 C125.605,15.748 126.033,15.651 126.091,15.285 C126.130,14.977 125.548,14.789 125.548,14.789 C125.247,14.691 124.756,14.529 124.457,14.427 C124.457,14.427 122.840,13.880 122.840,13.880 C121.108,13.302 120.562,12.205 120.777,10.723 C121.010,9.009 122.120,8.162 125.293,8.162 C126.792,8.181 128.856,8.354 129.985,8.585 C129.985,8.585 129.757,10.121 129.757,10.121 ZM109.352,10.989 C109.352,10.989 107.330,10.976 107.330,10.976 C107.013,10.974 106.503,11.036 106.196,11.112 C106.196,11.112 104.827,11.454 104.594,13.187 C104.340,15.093 104.671,15.440 106.073,15.440 C106.813,15.440 108.652,15.322 108.652,15.322 C108.968,15.302 109.255,15.540 109.290,15.851 C109.290,15.851 109.480,17.539 109.480,17.539 C108.273,18.058 106.754,18.232 105.430,18.232 C102.024,18.232 100.388,16.768 100.914,13.071 C101.401,9.587 102.744,8.162 106.306,8.162 C107.650,8.162 109.285,8.373 110.414,8.855 C110.414,8.855 110.054,10.437 110.054,10.437 C109.984,10.742 109.668,10.991 109.352,10.989 ZM99.180,18.000 C99.180,18.000 97.567,18.000 97.567,18.000 C97.250,18.000 96.989,17.744 96.985,17.431 C96.985,17.431 96.979,16.856 96.979,16.856 C96.975,16.543 96.764,16.439 96.510,16.626 C96.510,16.626 94.266,18.270 92.903,18.270 C90.957,18.270 90.061,17.249 90.315,15.536 C90.315,15.536 91.228,8.995 91.228,8.995 C91.272,8.685 91.566,8.431 91.882,8.431 C91.882,8.431 94.294,8.431 94.294,8.431 C94.611,8.431 94.832,8.685 94.787,8.995 C94.787,8.995 94.056,13.991 94.056,13.991 C94.011,14.301 94.019,14.807 94.073,15.115 C94.073,15.115 94.110,15.324 94.539,15.324 C95.240,15.324 95.804,15.016 96.758,14.265 C96.758,14.265 97.514,8.995 97.514,8.995 C97.559,8.685 97.854,8.431 98.170,8.431 C98.170,8.431 100.524,8.431 100.524,8.431 C100.840,8.431 101.063,8.685 101.020,8.995 C101.020,8.995 99.835,17.437 99.835,17.437 C99.791,17.747 99.497,18.000 99.180,18.000 ZM84.437,18.232 C82.977,18.232 80.252,17.962 79.084,17.461 C79.084,17.461 80.834,5.086 80.834,5.086 C80.878,4.776 81.172,4.523 81.489,4.523 C81.489,4.523 83.881,4.523 83.881,4.523 C84.198,4.523 84.423,4.777 84.382,5.087 C84.382,5.087 84.087,7.314 84.087,7.314 C84.009,8.162 83.834,8.932 83.502,9.760 C84.457,8.855 85.741,8.181 87.104,8.181 C89.440,8.181 90.374,9.664 89.829,13.283 C89.382,16.306 88.175,18.232 84.437,18.232 ZM85.644,10.934 C84.943,10.934 83.947,11.569 83.947,11.569 C83.681,11.739 83.426,12.131 83.379,12.441 C83.379,12.441 82.880,15.767 82.880,15.767 C83.347,15.805 83.794,15.825 84.087,15.805 C85.469,15.767 85.897,15.305 86.248,13.033 C86.501,11.281 86.364,10.934 85.644,10.934 ZM72.311,21.948 C71.649,21.948 69.586,21.890 68.320,21.351 C68.320,21.351 68.459,19.953 68.459,19.953 C68.490,19.642 68.774,19.391 69.090,19.397 C69.090,19.397 69.605,19.406 71.104,19.406 C72.915,19.406 74.297,19.079 74.861,17.942 C75.212,17.249 75.251,16.518 75.659,15.844 C74.744,17.211 73.323,18.039 71.552,18.096 C68.982,18.193 68.262,16.402 68.787,12.994 C69.488,8.470 71.221,8.162 73.868,8.162 C76.185,8.162 78.967,8.658 78.967,8.658 C79.278,8.713 79.497,9.012 79.453,9.322 C79.453,9.322 78.404,16.672 78.404,16.672 C77.859,21.023 75.367,21.948 72.311,21.948 ZM75.181,10.559 C75.181,10.559 74.550,10.549 74.550,10.549 C72.973,10.549 72.700,10.992 72.389,12.937 C72.039,15.112 72.194,15.594 72.973,15.497 C73.751,15.401 74.569,14.766 75.289,13.823 C75.289,13.823 75.676,11.132 75.676,11.132 C75.720,10.822 75.498,10.564 75.181,10.559 ZM66.987,18.000 C66.987,18.000 65.393,18.000 65.393,18.000 C65.077,18.000 64.818,17.744 64.818,17.431 C64.818,17.431 64.818,16.759 64.818,16.759 C64.818,16.446 64.626,16.363 64.392,16.574 C64.392,16.574 62.638,18.154 60.963,18.232 C58.316,18.366 57.673,16.480 58.199,12.994 C58.900,8.489 60.925,8.162 64.137,8.162 C65.519,8.162 67.972,8.489 68.886,8.759 C68.886,8.759 67.643,17.437 67.643,17.437 C67.599,17.747 67.304,18.000 66.987,18.000 ZM64.535,10.559 C64.535,10.559 63.961,10.549 63.961,10.549 C62.696,10.549 62.112,10.800 61.801,12.937 C61.489,15.132 61.528,15.536 62.346,15.497 C63.085,15.459 63.922,14.766 64.643,13.823 C64.643,13.823 65.029,11.132 65.029,11.132 C65.074,10.822 64.851,10.564 64.535,10.559 ZM56.644,15.921 C55.963,17.384 55.223,18.000 53.024,18.000 C53.024,18.000 52.120,18.000 52.120,18.000 C51.803,18.000 51.305,17.903 51.012,17.784 C51.012,17.784 50.551,17.596 50.551,17.076 C50.551,17.076 50.391,11.099 50.391,11.099 C50.383,10.786 50.319,10.530 50.250,10.530 C50.180,10.530 50.092,10.784 50.053,11.095 C50.053,11.095 49.909,12.258 49.695,13.336 C49.520,14.183 49.305,14.958 49.072,15.594 C48.371,17.846 47.184,18.000 45.490,18.000 C45.490,18.000 44.197,18.000 44.197,18.000 C43.880,18.000 43.382,17.901 43.091,17.780 C43.091,17.780 42.648,17.596 42.609,17.076 C42.609,17.076 41.954,8.979 41.954,8.979 C41.929,8.667 42.167,8.412 42.483,8.412 C42.483,8.412 44.934,8.412 44.934,8.412 C45.251,8.412 45.517,8.668 45.526,8.981 C45.526,8.981 45.707,15.179 45.707,15.179 C45.716,15.492 45.794,15.748 45.879,15.748 C46.268,15.748 46.502,15.401 46.755,14.612 C46.931,14.111 47.086,13.457 47.242,12.648 C47.417,11.724 47.534,10.819 47.767,9.298 C47.826,8.893 48.137,8.431 48.799,8.431 C48.799,8.431 51.280,8.431 51.280,8.431 C51.597,8.431 52.096,8.527 52.389,8.645 C52.389,8.645 52.771,8.797 52.790,9.298 C52.790,9.298 53.039,15.179 53.039,15.179 C53.052,15.492 53.098,15.748 53.141,15.748 C53.183,15.748 53.405,15.570 53.632,15.353 C53.632,15.353 53.783,15.209 53.977,14.477 C54.231,13.707 54.386,13.071 54.600,12.166 C54.834,11.070 55.009,9.914 55.145,8.431 C55.145,8.431 58.113,8.431 58.113,8.431 C58.429,8.431 58.644,8.684 58.590,8.992 C58.590,8.992 58.163,11.416 57.774,12.783 C57.442,13.977 57.053,15.093 56.644,15.921 ZM40.549,10.675 C40.549,10.675 38.613,10.646 37.387,10.646 C35.985,10.646 35.635,10.665 35.576,10.992 C35.537,11.300 35.790,11.435 36.569,11.685 C36.569,11.685 38.260,12.223 38.260,12.223 C38.561,12.319 39.028,12.532 39.298,12.695 C39.298,12.695 41.124,13.803 40.930,15.363 C40.637,17.808 38.944,18.212 36.102,18.212 C34.603,18.212 33.337,18.135 31.469,17.827 C31.469,17.827 31.682,16.292 31.682,16.292 C31.725,15.982 32.020,15.731 32.336,15.734 C32.336,15.734 33.844,15.748 34.934,15.748 C37.056,15.748 37.484,15.651 37.542,15.285 C37.581,14.977 36.999,14.789 36.999,14.789 C36.698,14.691 36.207,14.529 35.908,14.427 C35.908,14.427 34.292,13.880 34.292,13.880 C32.559,13.302 32.014,12.205 32.228,10.723 C32.461,9.009 33.571,8.162 36.744,8.162 C38.243,8.181 40.307,8.354 41.436,8.585 C41.436,8.585 41.208,10.121 41.208,10.121 C41.162,10.431 40.865,10.680 40.549,10.675 ZM17.281,24.623 C17.215,24.689 18.014,23.894 17.948,23.950 C17.948,23.950 17.757,24.138 17.757,24.138 C14.977,26.889 12.166,26.858 9.325,24.047 C9.325,24.047 2.101,16.903 2.101,16.903 C-0.704,14.130 -0.717,11.367 2.063,8.617 C2.063,8.617 7.923,2.822 7.923,2.822 C8.008,2.738 8.092,2.663 8.176,2.594 C8.176,2.594 8.646,2.128 8.646,2.128 C11.420,-0.672 14.210,-0.683 16.988,2.064 C16.988,2.064 19.046,4.099 19.046,4.099 C20.021,5.051 20.046,5.986 19.120,6.901 C18.213,7.787 17.281,7.774 16.323,6.865 C16.323,6.865 14.192,4.755 14.192,4.755 C13.296,3.858 12.362,3.892 11.387,4.856 C11.387,4.856 10.753,5.483 10.753,5.483 C10.741,5.495 10.733,5.506 10.721,5.517 C10.721,5.517 4.790,11.385 4.790,11.385 C3.881,12.271 3.914,13.197 4.890,14.163 C4.890,14.163 12.169,21.362 12.169,21.362 C13.113,22.296 14.060,22.296 15.005,21.361 C15.005,21.361 15.595,20.789 15.595,20.789 C15.595,20.789 22.329,14.130 22.329,14.130 C23.265,13.204 23.419,12.417 22.790,11.771 C22.168,11.155 21.385,11.302 20.442,12.210 C20.442,12.210 16.439,16.169 16.439,16.169 C13.605,18.998 10.918,19.150 8.380,16.625 C5.872,14.183 6.032,11.563 8.861,8.766 C8.861,8.766 11.343,6.329 11.343,6.329 C12.286,5.396 13.222,5.390 14.152,6.309 C15.063,7.249 15.079,8.171 14.200,9.080 C14.200,9.080 11.716,11.536 11.716,11.536 C10.756,12.486 10.595,13.278 11.236,13.913 C11.839,14.509 12.625,14.329 13.592,13.372 C13.592,13.372 17.596,9.412 17.596,9.412 C20.455,6.670 23.117,6.525 25.581,8.974 C28.075,11.467 27.927,14.099 25.137,16.871 C25.137,16.871 17.281,24.623 17.281,24.623 Z" id="path-1" class="cls-2" fill-rule="evenodd"/>
</svg>
