<?xml version="1.0" encoding="UTF-8" standalone="no"?>
<svg width="44px" height="129px" viewBox="0 0 44 129" version="1.1" xmlns="http://www.w3.org/2000/svg" xmlns:xlink="http://www.w3.org/1999/xlink" xmlns:sketch="http://www.bohemiancoding.com/sketch/ns">
    <!-- Generator: Sketch 3.3.2 (12043) - http://www.bohemiancoding.com/sketch -->
    <title>sprite-landing-page</title>
    <desc>Created with Sketch.</desc>
    <defs></defs>
    <g id="Page-1" stroke="none" stroke-width="1" fill="none" fill-rule="evenodd" sketch:type="MSPage">
        <g id="sprite-landing-page" sketch:type="MSArtboardGroup">
            <path d="M10,0 C4.5,0 0,4.5 0,10 C0,15.5 4.5,20 10,20 C15.5,20 20,15.5 20,10 C20,4.5 15.5,0 10,0 L10,0 Z M10,18.125 C7.625,18.125 5.5,17 4.125,15.375 C5.125,14.875 6.25,14.5 7.5,14.25 L7.5,14.25 C7.5,14.25 8.125,13.75 8,13.125 C8,12.875 7.125,11.875 7.125,11.875 L7.125,11.875 C6.25,11 5.75,9.625 5.75,8.25 C5.75,5.5 7.625,3.25 10,3.25 C12.375,3.25 14.25,5.5 14.25,8.25 C14.25,9.625 13.75,11 12.875,11.875 L12.875,11.875 C12.875,11.875 12,12.75 12,13.125 C11.875,13.75 12.5,14.25 12.5,14.25 L12.5,14.25 C13.75,14.5 14.875,14.875 15.875,15.375 C14.5,17.125 12.375,18.125 10,18.125 L10,18.125 Z" id="user-icon" fill="#CCCCCC" sketch:type="MSShapeGroup"></path>
            <path d="M10,21 C4.5,21 0,25.5 0,31 C0,36.5 4.5,41 10,41 C15.5,41 20,36.5 20,31 C20,25.5 15.5,21 10,21 L10,21 Z M10,39.125 C7.625,39.125 5.5,38 4.125,36.375 C5.125,35.875 6.25,35.5 7.5,35.25 L7.5,35.25 C7.5,35.25 8.125,34.75 8,34.125 C8,33.875 7.125,32.875 7.125,32.875 L7.125,32.875 C6.25,32 5.75,30.625 5.75,29.25 C5.75,26.5 7.625,24.25 10,24.25 C12.375,24.25 14.25,26.5 14.25,29.25 C14.25,30.625 13.75,32 12.875,32.875 L12.875,32.875 C12.875,32.875 12,33.75 12,34.125 C11.875,34.75 12.5,35.25 12.5,35.25 L12.5,35.25 C13.75,35.5 14.875,35.875 15.875,36.375 C14.5,38.125 12.375,39.125 10,39.125 L10,39.125 Z" id="user-icon-copy" fill="#69B8D6" sketch:type="MSShapeGroup"></path>
            <path d="M11.1145185,54.6609254 C11.6485999,54.3018368 12,53.6919553 12,53 C12,51.8954305 11.1045695,51 10,51 C8.8954305,51 8,51.8954305 8,53 C8,53.6920623 8.35150873,54.3020253 8.8857291,54.6610919 C8.82849168,54.7576152 8.78477233,54.8609107 8.75792789,54.9682884 L8.24207211,57.0317116 C8.10701752,57.5719299 8.45190985,58 9.0093689,58 L10.9906311,58 C11.5566468,58 11.8916206,57.5664825 11.7579279,57.0317116 L11.2420721,54.9682884 C11.2151342,54.8605367 11.1714997,54.7572468 11.1145185,54.6609254 L11.1145185,54.6609254 Z M3,50.992017 C3,49.8918564 3.89706013,49 5.00585866,49 L14.9941413,49 C16.1019465,49 17,49.9001762 17,50.992017 L17,58.007983 C17,59.1081436 16.1029399,60 14.9941413,60 L5.00585866,60 C3.89805351,60 3,59.0998238 3,58.007983 L3,50.992017 Z M14.5,48 L14,48 L14,43.9979131 C14,43.4491447 13.551057,43 13.000385,43 L6.99961498,43 C6.44283624,43 6,43.4436586 6,43.9979131 L6,48 L5.5,48 L5,48 L5,43.9979131 C5,42.8944962 5.88743329,42 6.99961498,42 L13.000385,42 C14.1047419,42 15,42.8982606 15,43.9979131 L15,48 L14.5,48 Z" id="password-icon" fill="#CCCCCC" sketch:type="MSShapeGroup"></path>
            <path d="M11.1145185,74.6609254 C11.6485999,74.3018368 12,73.6919553 12,73 C12,71.8954305 11.1045695,71 10,71 C8.8954305,71 8,71.8954305 8,73 C8,73.6920623 8.35150873,74.3020253 8.8857291,74.6610919 C8.82849168,74.7576152 8.78477233,74.8609107 8.75792789,74.9682884 L8.24207211,77.0317116 C8.10701752,77.5719299 8.45190985,78 9.0093689,78 L10.9906311,78 C11.5566468,78 11.8916206,77.5664825 11.7579279,77.0317116 L11.2420721,74.9682884 C11.2151342,74.8605367 11.1714997,74.7572468 11.1145185,74.6609254 L11.1145185,74.6609254 Z M3,70.992017 C3,69.8918564 3.89706013,69 5.00585866,69 L14.9941413,69 C16.1019465,69 17,69.9001762 17,70.992017 L17,78.007983 C17,79.1081436 16.1029399,80 14.9941413,80 L5.00585866,80 C3.89805351,80 3,79.0998238 3,78.007983 L3,70.992017 Z M14.5,68 L14,68 L14,63.9979131 C14,63.4491447 13.551057,63 13.000385,63 L6.99961498,63 C6.44283624,63 6,63.4436586 6,63.9979131 L6,68 L5.5,68 L5,68 L5,63.9979131 C5,62.8944962 5.88743329,62 6.99961498,62 L13.000385,62 C14.1047419,62 15,62.8982606 15,63.9979131 L15,68 L14.5,68 Z" id="password-icon-copy" fill="#69B8D6" sketch:type="MSShapeGroup"></path>
            <path d="M22.6752,84 L1.3248,84 C0.5936,84 0,84.5936 0,85.3248 L0,106.6752 C0,107.4064 0.5936,108 1.3248,108 L12.8192,108 L12.8192,98.7056 L9.6912,98.7056 L9.6912,95.0832 L12.8192,95.0832 L12.8192,92.4128 C12.8192,89.3136 14.712,87.6256 17.4784,87.6256 C18.8032,87.6256 19.9408,87.7232 20.272,87.768 L20.272,91.008 L18.3552,91.008 C16.8512,91.008 16.56,91.7232 16.56,92.7712 L16.56,95.0832 L20.1456,95.0832 L19.68,98.7056 L16.56,98.7056 L16.56,108 L22.6752,108 C23.4064,108 24,107.4064 24,106.6752 L24,85.3248 C24,84.5936 23.4064,84 22.6752,84 L22.6752,84 Z" id="path-1" fill="#FFFFFF" sketch:type="MSShapeGroup"></path>
        </g>
    </g>
</svg>