<svg width="150" height="30" viewBox="0 0 150 30" fill="none" xmlns="http://www.w3.org/2000/svg">
<path fill-rule="evenodd" clip-rule="evenodd" d="M149.757 11.4526C149.693 11.8821 149.28 12.2281 148.838 12.2212C148.838 12.2212 146.743 12.1897 145.328 12.1897C143.711 12.1897 143.306 12.2114 143.239 12.5868C143.194 12.9396 143.486 13.0949 144.384 13.3809L146.204 13.9569C146.624 14.0896 147.275 14.3834 147.652 14.6105C147.652 14.6105 149.641 15.8095 149.416 17.5983C149.079 20.4023 147.125 20.8662 143.845 20.8662C142.595 20.8662 140.055 20.6834 137.901 20.6225H135.641C135.2 20.6225 134.693 20.2981 134.515 19.9011L133.253 17.0833C133.075 16.6862 132.593 16.4926 132.183 16.6518C132.183 16.6518 131.963 16.7373 131.491 16.8916C131.479 17.0734 131.418 17.5747 131.355 18.0042L131.088 19.8421C131.026 20.2716 130.614 20.6225 130.172 20.6225H127.689C127.248 20.6225 126.937 20.2716 126.998 19.8411L128.976 5.94971C129.038 5.52021 129.449 5.16835 129.89 5.16835H132.374C132.815 5.16835 133.127 5.52021 133.068 5.94971L132.409 10.6791C132.349 11.1086 132.213 11.8054 132.108 12.2261C132.108 12.2261 131.851 13.2482 131.402 14.176C133.311 13.1608 135.053 10.3253 135.053 10.3253C135.281 9.95378 135.829 9.65009 136.27 9.65009H139.645C139.038 12.1003 137.6 13.7121 135.894 14.8601C136.411 15.2572 136.771 15.7879 136.994 16.295L137.82 18.0248C139.194 18.0307 141.613 18.0396 142.497 18.0396C144.946 18.0396 145.44 17.9285 145.507 17.5098C145.553 17.156 145.012 16.982 145.012 16.982C144.593 16.8474 143.908 16.6223 143.49 16.4808L141.756 15.898C139.757 15.2355 139.128 13.9775 139.375 12.2772C139.644 10.3125 140.925 9.34147 144.586 9.34147C146.316 9.3631 148.697 9.56163 150 9.82699L149.757 11.4526ZM126.054 12.5819L123.997 12.5691C123.556 12.5662 122.845 12.6517 122.417 12.7578C122.417 12.7578 120.971 13.1165 120.702 15.1038C120.41 17.2897 120.792 17.6867 122.409 17.6867C123.263 17.6867 125.247 17.5609 125.247 17.5609C125.688 17.5324 126.088 17.8627 126.137 18.2931L126.34 20.0927C124.947 20.6893 123.195 20.8878 121.667 20.8878C117.737 20.8878 115.85 19.2101 116.456 14.9712C117.018 10.975 118.568 9.34147 122.678 9.34147C124.228 9.34147 126.115 9.58424 127.418 10.1356L127.033 11.8172C126.936 12.2399 126.496 12.5848 126.054 12.5819ZM115.23 19.8411C115.169 20.2716 114.758 20.6225 114.317 20.6225H112.732C112.291 20.6225 111.926 20.2677 111.921 19.8342L111.916 19.447C111.911 19.0126 111.618 18.8691 111.263 19.1276C111.263 19.1276 108.786 20.9311 107.213 20.9311C104.967 20.9311 103.934 19.7615 104.226 17.7968L105.261 10.4314C105.322 10.0019 105.732 9.65009 106.174 9.65009H108.679C109.121 9.65009 109.43 10.0019 109.367 10.4305L108.564 15.8901C108.5 16.3196 108.511 17.0204 108.587 17.4479C108.587 17.4479 108.606 17.5541 109.1 17.5541C109.909 17.5541 110.561 17.2012 111.66 16.3393L112.513 10.4314C112.575 10.0019 112.987 9.65009 113.429 9.65009H115.867C116.308 9.65009 116.62 10.0019 116.559 10.4314L115.23 19.8411ZM97.4441 20.8878C95.7591 20.8878 92.6143 20.5782 91.2663 20.0043L93.2672 5.94971C93.3282 5.52021 93.7392 5.16835 94.1812 5.16835H96.6641C97.1051 5.16835 97.4191 5.52021 97.3621 5.95069L97.0391 8.36945C96.9501 9.34148 96.7471 10.2241 96.3651 11.1735C97.4661 10.1356 98.949 9.3631 100.521 9.3631C103.217 9.3631 104.295 11.0634 103.666 15.2139C103.149 18.6804 101.757 20.8878 97.4441 20.8878ZM98.836 12.52C98.028 12.52 96.9951 13.1745 96.9951 13.1745C96.6241 13.4094 96.2681 13.9529 96.2031 14.3824L95.6471 18.0622C96.1861 18.1054 96.7021 18.128 97.0391 18.1054C98.634 18.0622 99.129 17.5315 99.533 14.9269C99.825 12.917 99.668 12.52 98.836 12.52ZM90.4823 19.1001C89.8534 24.0889 86.9785 25.1494 83.4526 25.1494C82.6886 25.1494 80.3067 25.0826 78.8468 24.4644L78.9938 22.997C79.0368 22.5655 79.4328 22.2186 79.8738 22.2265C79.8738 22.2265 80.3297 22.2343 82.0597 22.2343C84.1486 22.2343 85.7435 21.8589 86.3945 20.5566C86.7985 19.7615 86.8445 18.9222 87.3155 18.1497C86.2595 19.7173 84.6196 20.6667 82.5756 20.7325C79.6108 20.8436 78.7798 18.7905 79.3858 14.8817C80.1947 9.69431 82.1937 9.34147 85.2485 9.34147C87.9224 9.34147 90.9953 9.88597 90.9953 9.88597C91.4303 9.96263 91.7353 10.3774 91.6733 10.8069L90.4823 19.1001ZM86.6255 12.0885L86.0345 12.0787C84.2156 12.0787 83.9016 12.5868 83.5416 14.8169C83.1376 17.3103 83.3176 17.8636 84.2156 17.7526C85.1145 17.6425 86.0575 16.9132 86.8885 15.8321L87.3155 12.8817C87.3775 12.4522 87.0665 12.0944 86.6255 12.0885ZM77.1699 20.6225H75.6079C75.1669 20.6225 74.806 20.2677 74.806 19.8342V19.3359C74.806 18.9025 74.539 18.7865 74.212 19.0784C74.212 19.0784 72.2901 20.7994 70.3581 20.8878C67.3033 21.0421 66.5623 18.8789 67.1683 14.8817C67.9772 9.71594 70.3131 9.34147 74.02 9.34147C75.6139 9.34147 78.4448 9.71594 79.5008 10.0255L78.0858 19.8421C78.0238 20.2716 77.6118 20.6225 77.1699 20.6225ZM74.34 12.0875L73.818 12.0787C72.3571 12.0787 71.6831 12.3657 71.3241 14.8169C70.9641 17.3329 71.0101 17.7968 71.9531 17.7526C72.807 17.7084 73.772 16.9132 74.604 15.8321L75.0299 12.8817C75.0919 12.4522 74.782 12.0944 74.34 12.0875ZM65.3743 18.2381C64.5884 19.9158 63.7344 20.6225 61.1965 20.6225H60.2925C59.8506 20.6225 59.1556 20.4878 58.7476 20.3227C58.7476 20.3227 58.3436 20.1586 58.3436 19.563L58.1636 12.8453C58.1516 12.4119 58.0766 12.0571 57.9956 12.0571C57.9156 12.0571 57.8056 12.4089 57.7526 12.8394C57.7526 12.8394 57.6026 14.0375 57.3557 15.2749C57.1537 16.2459 56.9067 17.1344 56.6367 17.8636C55.8277 20.4465 54.4578 20.6225 52.5038 20.6225H51.1499C50.7089 20.6225 50.0149 20.4849 49.608 20.3168C49.608 20.3168 49.224 20.1586 49.179 19.563L48.435 10.4147C48.399 9.98228 48.732 9.62846 49.173 9.62846H51.7239C52.1649 9.62846 52.5368 9.98228 52.5498 10.4167L52.7498 17.2513C52.7628 17.6848 52.8538 18.0396 52.9528 18.0396C53.4018 18.0396 53.6718 17.6425 53.9638 16.7373C54.1658 16.1633 54.3458 15.4125 54.5258 14.4847C54.7278 13.4261 54.8628 12.3883 55.1317 10.6437C55.1997 10.1798 55.5587 9.65009 56.3227 9.65009H59.0466C59.4876 9.65009 60.1835 9.78277 60.5925 9.94592C60.5925 9.94592 60.9045 10.0698 60.9275 10.6437L61.2085 17.2513C61.2265 17.6848 61.2825 18.0396 61.3315 18.0396C61.3815 18.0396 61.6815 17.7929 61.9985 17.4921C61.9985 17.4921 62.0735 17.4214 62.2975 16.583C62.5894 15.6994 62.7694 14.9712 63.0164 13.9333C63.2854 12.6753 63.4884 11.3504 63.6454 9.65009H66.9303C67.3723 9.65009 67.6712 9.99998 67.5952 10.4275C67.5952 10.4275 67.1263 13.0723 66.6773 14.6399C66.2953 16.009 65.8463 17.2897 65.3743 18.2381ZM46.6641 12.2212C46.6641 12.2212 44.5692 12.1897 43.1532 12.1897C41.5363 12.1897 41.1323 12.2114 41.0643 12.5868C41.0193 12.9396 41.3113 13.0949 42.2103 13.3809L44.0292 13.9569C44.4492 14.0896 45.1011 14.3834 45.4771 14.6105C45.4771 14.6105 47.466 15.8095 47.2421 17.5983C46.9051 20.4023 44.9501 20.8662 41.6713 20.8662C39.9413 20.8662 38.4814 20.7768 36.3245 20.4239L36.5525 18.7993C36.6125 18.3688 37.0235 18.0209 37.4644 18.0248C37.4644 18.0248 39.0654 18.0396 40.3233 18.0396C42.7722 18.0396 43.2662 17.9285 43.3332 17.5098C43.3782 17.156 42.8382 16.982 42.8382 16.982C42.4182 16.8474 41.7333 16.6223 41.3163 16.4808L39.5824 15.898C37.5824 15.2355 36.9535 13.9775 37.2015 12.2772C37.4704 10.3125 38.7514 9.34147 42.4122 9.34147C44.1422 9.3631 46.5231 9.56163 47.826 9.82699L47.583 11.4526C47.519 11.8821 47.1051 12.2281 46.6641 12.2212ZM20.7241 27.4453L20.5041 27.6606C17.2952 30.8145 14.0524 30.7791 10.7735 27.5564L2.43883 19.3644C-0.798043 16.184 -0.813042 13.0163 2.39483 9.86336L9.15556 3.21841C9.25456 3.12111 9.35155 3.03658 9.44855 2.95599L9.99053 2.42231C13.1914 -0.788615 16.4113 -0.801393 19.6161 2.3486L21.9911 4.68283C23.116 5.77476 23.144 6.84606 22.0761 7.89573C21.0301 8.911 19.9541 8.89625 18.8492 7.85346L16.3903 5.4347C15.3563 4.40666 14.2784 4.44498 13.1534 5.55067L12.4214 6.27011C12.4084 6.28289 12.3984 6.29567 12.3854 6.30844L5.54071 13.0369C4.49275 14.0532 4.53075 15.1147 5.6567 16.2223L14.0554 24.4771C15.1453 25.5484 16.2373 25.5484 17.3282 24.4762L18.0092 23.8196L25.7789 16.185C26.8589 15.1225 27.0369 14.2213 26.3109 13.4802C25.5929 12.7735 24.6899 12.9416 23.602 13.9824L18.9832 18.5231C15.7123 21.7665 12.6114 21.9405 9.68354 19.046C6.78966 16.2449 6.97465 13.2414 10.2375 10.0344L13.1024 7.23919C14.1914 6.16986 15.2703 6.16298 16.3433 7.21658C17.3952 8.29377 17.4132 9.35229 16.3993 10.3941L13.5334 13.2099C12.4244 14.2999 12.2394 15.208 12.9794 15.9353C13.6744 16.6194 14.5813 16.413 15.6983 15.3161L20.3171 10.7744C23.617 7.63134 26.6889 7.46426 29.5308 10.2722C32.4096 13.1303 32.2386 16.1496 29.0198 19.3271L19.9541 28.2168C19.8781 28.2925 20.8001 27.3804 20.7241 27.4453Z" fill="white"/>
</svg>
