<svg width="105" height="105" viewBox="0 0 105 105" fill="none" xmlns="http://www.w3.org/2000/svg">
<mask id="mask0_12_39" style="mask-type:alpha" maskUnits="userSpaceOnUse" x="0" y="0" width="105" height="105">
<rect width="105" height="105" fill="#C4C4C4"/>
</mask>
<g mask="url(#mask0_12_39)">
<rect x="22.0854" y="-30.9838" width="118.854" height="118.854" rx="20" transform="rotate(39.9041 22.0854 -30.9838)" fill="url(#paint0_radial_12_39)"/>
<path fill-rule="evenodd" clip-rule="evenodd" d="M60.5139 81.1689L59.9835 81.7184C52.2481 89.7705 44.2585 89.8528 36.0098 81.9706L15.0422 61.9344C6.89929 54.1556 6.69303 46.239 14.4261 38.1895L30.7237 21.2248C30.9624 20.9764 31.1968 20.76 31.4314 20.5534L32.7378 19.191C40.4505 10.9969 48.3809 10.7954 56.4434 18.4998L62.418 24.2089C65.2473 26.8789 65.3735 29.555 62.7991 32.2348C60.277 34.8275 57.6259 34.8474 54.8485 32.2992L48.6625 26.3832C46.0608 23.8681 43.4076 24.0207 40.6957 26.8435L38.9312 28.6803C38.8999 28.7129 38.8759 28.7454 38.8446 28.778L22.3445 45.9559C19.8175 48.5512 19.9678 51.2022 22.8005 53.9114L43.929 74.1014C46.671 76.7216 49.3607 76.6641 51.9906 73.9266L53.6329 72.2497L72.3629 52.7582C74.9662 50.0458 75.3565 47.7838 73.5287 45.9698C71.7224 44.2414 69.5072 44.709 66.8831 47.3678L55.7488 58.9602C47.8655 67.239 40.2368 67.8372 32.8702 60.7569C25.5923 53.9082 25.8875 46.3913 33.7531 38.2038L40.6604 31.0665C43.2855 28.3365 45.9428 28.2625 48.642 30.8393C51.2907 33.4763 51.3916 36.121 48.9498 38.7783L42.0411 45.9673C39.3678 48.75 38.9607 51.0295 40.8222 52.8084C42.5706 54.4815 44.7936 53.9179 47.4862 51.1176L58.6204 39.5227C66.5805 31.4929 74.1382 30.9135 81.2883 37.7821C88.5323 44.774 88.2724 52.3295 80.5136 60.441L58.6586 83.1378C58.4754 83.331 60.6976 81.0027 60.5139 81.1689Z" fill="white"/>
</g>
<defs>
<radialGradient id="paint0_radial_12_39" cx="0" cy="0" r="1" gradientUnits="userSpaceOnUse" gradientTransform="translate(94.5948 12.709) rotate(99.3049) scale(82.9622)">
<stop stop-color="#61B5CA"/>
<stop offset="1" stop-color="#2D8CA4"/>
</radialGradient>
</defs>
</svg>
