<svg width="19" height="20" viewBox="0 0 19 20" fill="none" xmlns="http://www.w3.org/2000/svg">
<path fill-rule="evenodd" clip-rule="evenodd" d="M9.37466 12.4306C12.295 12.4306 14.6623 10.0633 14.6623 7.14297C14.6623 4.22268 12.295 1.85532 9.37466 1.85532C6.45437 1.85532 4.08701 4.22268 4.08701 7.14297C4.08701 10.0633 6.45437 12.4306 9.37466 12.4306ZM9.37466 14.2859C13.3196 14.2859 16.5176 11.0879 16.5176 7.14297C16.5176 3.19802 13.3196 0 9.37466 0C5.42971 0 2.23169 3.19802 2.23169 7.14297C2.23169 11.0879 5.42971 14.2859 9.37466 14.2859Z" fill="white"/>
<path fill-rule="evenodd" clip-rule="evenodd" d="M18.6512 19.4808C18.4221 19.9391 17.8654 20.1226 17.397 19.9151C12.2892 17.6531 6.46003 17.6531 1.35222 19.9151C0.883771 20.1226 0.327134 19.9391 0.0980119 19.4808C-0.13111 19.0226 0.054128 18.4633 0.521743 18.254C6.15314 15.733 12.5961 15.733 18.2275 18.254C18.6951 18.4633 18.8803 19.0226 18.6512 19.4808Z" fill="white"/>
</svg>
