<svg width="19" height="18" viewBox="0 0 19 18" fill="none" xmlns="http://www.w3.org/2000/svg">
<path fill-rule="evenodd" clip-rule="evenodd" d="M4.74048 1.5H5.49048H14.4905H15.2405C16.0689 1.5 16.7405 2.17157 16.7405 3V10.5V11.3787C16.7405 11.7765 16.5824 12.158 16.3011 12.4393L12.6798 16.0607C12.3985 16.342 12.017 16.5 11.6192 16.5H10.7405H4.74048C3.91205 16.5 3.24048 15.8284 3.24048 15V3C3.24048 2.17157 3.91205 1.5 4.74048 1.5ZM14.4905 3H5.49048H5.19048C4.94195 3 4.74048 3.20147 4.74048 3.45V3.75V14.2504V14.55C4.74048 14.7985 4.94195 15 5.19048 15H5.49048H10.7405V11.25C10.7405 10.8358 11.0763 10.5 11.4905 10.5H15.2405V3.75V3.45C15.2405 3.20147 15.039 3 14.7905 3H14.4905ZM6.24048 7.5C5.82626 7.5 5.49048 7.83579 5.49048 8.25C5.49048 8.66421 5.82626 9 6.24048 9H13.7405C14.1547 9 14.4905 8.66421 14.4905 8.25C14.4905 7.83579 14.1547 7.5 13.7405 7.5H6.24048ZM5.49048 5.25C5.49048 4.83579 5.82626 4.5 6.24048 4.5H13.7405C14.1547 4.5 14.4905 4.83579 14.4905 5.25C14.4905 5.66421 14.1547 6 13.7405 6H6.24048C5.82626 6 5.49048 5.66421 5.49048 5.25ZM6.24048 10.5C5.82626 10.5 5.49048 10.8358 5.49048 11.25C5.49048 11.6642 5.82626 12 6.24048 12H9.24048C9.65469 12 9.99048 11.6642 9.99048 11.25C9.99048 10.8358 9.65469 10.5 9.24048 10.5H6.24048ZM12.2405 14.3787L14.6192 12H12.6905C12.4419 12 12.2405 12.2015 12.2405 12.45V14.3787Z"/>
</svg>
