<svg width="25" height="25" viewBox="0 0 25 25" fill="none" xmlns="http://www.w3.org/2000/svg">
<circle cx="12.5" cy="12.5" r="10.4167" fill="white"/>
<path d="M12.5 2.08337C6.75004 2.08337 2.08337 6.75004 2.08337 12.5C2.08337 18.25 6.75004 22.9167 12.5 22.9167C18.25 22.9167 22.9167 18.25 22.9167 12.5C22.9167 6.75004 18.25 2.08337 12.5 2.08337ZM12.5 5.20837C14.2292 5.20837 15.625 6.60421 15.625 8.33337C15.625 10.0625 14.2292 11.4584 12.5 11.4584C10.7709 11.4584 9.37504 10.0625 9.37504 8.33337C9.37504 6.60421 10.7709 5.20837 12.5 5.20837ZM12.5 20C9.89587 20 7.59379 18.6667 6.25004 16.6459C6.28129 14.573 10.4167 13.4375 12.5 13.4375C14.573 13.4375 18.7188 14.573 18.75 16.6459C17.4063 18.6667 15.1042 20 12.5 20Z" fill="#DADADA"/>
</svg>
