<svg width="25" height="25" viewBox="0 0 25 25" fill="none" xmlns="http://www.w3.org/2000/svg">
<path d="M20.8333 8.33617H17.7083V6.47159C17.7083 3.75284 15.7187 1.32576 13.0104 1.06534C9.90621 0.773672 7.29163 3.21117 7.29163 6.25284V8.33617H4.16663V22.9195H20.8333V8.33617ZM12.5 17.7112C11.3541 17.7112 10.4166 16.7737 10.4166 15.6278C10.4166 14.482 11.3541 13.5445 12.5 13.5445C13.6458 13.5445 14.5833 14.482 14.5833 15.6278C14.5833 16.7737 13.6458 17.7112 12.5 17.7112ZM9.37496 8.33617V6.25284C9.37496 4.52367 10.7708 3.12784 12.5 3.12784C14.2291 3.12784 15.625 4.52367 15.625 6.25284V8.33617H9.37496Z" fill="#DADADA"/>
</svg>
