<svg width="19" height="20" viewBox="0 0 19 20" fill="none" xmlns="http://www.w3.org/2000/svg">
<path fill-rule="evenodd" clip-rule="evenodd" d="M9.68563 13.3333C11.5266 13.3333 13.019 11.8409 13.019 9.99996C13.019 8.15901 11.5266 6.66663 9.68563 6.66663C7.84468 6.66663 6.35229 8.15901 6.35229 9.99996C6.35229 11.8409 7.84468 13.3333 9.68563 13.3333ZM9.68563 11.6666C10.6061 11.6666 11.3523 10.9204 11.3523 9.99996C11.3523 9.07948 10.6061 8.33329 9.68563 8.33329C8.76515 8.33329 8.01896 9.07948 8.01896 9.99996C8.01896 10.9204 8.76515 11.6666 9.68563 11.6666Z"/>
<path fill-rule="evenodd" clip-rule="evenodd" d="M9.68559 19.1666C9.96245 19.1666 10.2364 19.1544 10.5071 19.1303L10.5189 19.1293C12.3384 18.9653 14.0046 18.2697 15.3609 17.199C15.7877 16.862 16.1838 16.488 16.5444 16.0816C17.8074 14.6582 18.6341 12.8389 18.8149 10.8333C18.8396 10.5588 18.8523 10.2809 18.8523 9.99998C18.8523 9.72312 18.84 9.44912 18.8159 9.17851L18.8149 9.16665C18.6509 7.34717 17.9553 5.681 16.8846 4.32467C16.5476 3.89786 16.1736 3.50172 15.7672 3.14115L15.7374 3.11482C14.3185 1.86664 12.5105 1.05016 10.5189 0.870682C10.2445 0.845948 9.96649 0.833313 9.68559 0.833313C9.40873 0.833313 9.13473 0.845587 8.86412 0.869621L8.85225 0.870682C6.86064 1.05016 5.05271 1.86664 3.63377 3.11482C3.23835 3.46265 2.87315 3.84401 2.54259 4.25444C2.52381 4.27776 2.50514 4.30117 2.48659 4.32467C1.41586 5.681 0.720251 7.34717 0.55629 9.16665C0.531557 9.44111 0.518921 9.71907 0.518921 9.99998C0.518921 10.2768 0.531195 10.5508 0.555229 10.8214L0.55629 10.8333C0.735764 12.8249 1.55225 14.6329 2.80043 16.0518C3.14826 16.4472 3.52961 16.8124 3.94005 17.143C3.96336 17.1618 3.98677 17.1804 4.01028 17.199C5.36661 18.2697 7.03278 18.9653 8.85225 19.1293C9.12672 19.154 9.40468 19.1666 9.68559 19.1666ZM9.05299 14.1189C8.94882 14.1031 8.85225 14.1818 8.85225 14.2872V17.2681C8.85225 17.3674 8.76589 17.4448 8.6675 17.4315C7.4449 17.2655 6.31592 16.805 5.3544 16.1237C5.27156 16.065 5.26311 15.9461 5.3349 15.8744L7.44746 13.7618C7.52489 13.6844 7.50781 13.5546 7.41603 13.4949C7.05955 13.2629 6.74077 12.9779 6.47089 12.651C6.40635 12.5728 6.28798 12.5642 6.2163 12.6359L4.10936 14.7429C4.04064 14.8116 3.92782 14.8073 3.86646 14.7319C3.01785 13.6896 2.44368 12.4149 2.25411 11.0181C2.24075 10.9197 2.31817 10.8333 2.41747 10.8333H5.39837C5.50374 10.8333 5.5825 10.7367 5.56663 10.6326C5.53521 10.4263 5.51892 10.215 5.51892 9.99998C5.51892 9.78492 5.53521 9.57366 5.56663 9.36738C5.5825 9.26321 5.50374 9.16665 5.39837 9.16665H2.41747C2.31817 9.16665 2.24075 9.08029 2.25411 8.98189C2.42003 7.75929 2.88057 6.63031 3.56187 5.66879C3.62056 5.58596 3.73942 5.5775 3.81121 5.64929L5.92377 7.76185C6.0012 7.83928 6.13097 7.8222 6.19069 7.73042C6.42266 7.37394 6.70769 7.05516 7.03458 6.78528C7.11276 6.72074 7.12132 6.60238 7.04964 6.53069L4.94269 4.42375C4.87397 4.35503 4.87828 4.24221 4.95364 4.18085C5.99595 3.33224 7.27062 2.75807 8.66749 2.5685C8.76589 2.55514 8.85225 2.63256 8.85225 2.73186V5.71276C8.85225 5.81813 8.94882 5.89689 9.05299 5.88102C9.25927 5.84961 9.47053 5.83331 9.68559 5.83331C9.90065 5.83331 10.1119 5.84961 10.3182 5.88102C10.4224 5.89689 10.5189 5.81813 10.5189 5.71276V2.73186C10.5189 2.63256 10.6053 2.55514 10.7037 2.5685C12.1006 2.75807 13.3752 3.33224 14.4175 4.18085C14.4929 4.24221 14.4972 4.35503 14.4285 4.42375L12.3215 6.53069C12.2499 6.60238 12.2584 6.72074 12.3366 6.78528C12.6635 7.05516 12.9485 7.37394 13.1805 7.73042C13.2402 7.8222 13.37 7.83928 13.4474 7.76185L15.56 5.64929C15.6318 5.5775 15.7506 5.58596 15.8093 5.66879C16.4906 6.63031 16.9511 7.75929 17.1171 8.98189C17.1304 9.08029 17.053 9.16665 16.9537 9.16665H13.9728C13.8674 9.16665 13.7887 9.26321 13.8045 9.36738C13.836 9.57366 13.8523 9.78492 13.8523 9.99998C13.8523 10.215 13.836 10.4263 13.8045 10.6326C13.7887 10.7367 13.8674 10.8333 13.9728 10.8333H16.9537C17.053 10.8333 17.1304 10.9197 17.1171 11.0181C16.9275 12.4149 16.3533 13.6896 15.5047 14.7319C15.4434 14.8073 15.3305 14.8116 15.2618 14.7429L13.1549 12.6359C13.0832 12.5642 12.9648 12.5728 12.9003 12.651C12.6304 12.9779 12.3116 13.2629 11.9551 13.4949C11.8634 13.5546 11.8463 13.6844 11.9237 13.7618L14.0363 15.8744C14.1081 15.9461 14.0996 16.065 14.0168 16.1237C13.0553 16.805 11.9263 17.2655 10.7037 17.4315C10.6053 17.4448 10.5189 17.3674 10.5189 17.2681V14.2872C10.5189 14.1818 10.4224 14.1031 10.3182 14.1189C10.1119 14.1504 9.90065 14.1666 9.68559 14.1666C9.47053 14.1666 9.25927 14.1504 9.05299 14.1189Z"/>
</svg>
