<svg width="16" height="16" viewBox="0 0 16 16" fill="none" xmlns="http://www.w3.org/2000/svg">
<path d="M13.58 8.7425L13.5725 8.7575C13.6025 8.51 13.6325 8.255 13.6325 8C13.6325 7.745 13.61 7.505 13.58 7.2575L13.5875 7.2725L15.4175 5.8325L13.595 2.6675L11.4425 3.5375L11.45 3.545C11.06 3.245 10.6325 2.99 10.1675 2.795H10.175L9.82996 0.5H6.17747L5.84747 2.8025H5.85497C5.38997 2.9975 4.96247 3.2525 4.57247 3.5525L4.57997 3.545L2.41997 2.6675L0.589966 5.8325L2.41997 7.2725L2.42747 7.2575C2.39747 7.505 2.37497 7.745 2.37497 8C2.37497 8.255 2.39747 8.51 2.43497 8.7575L2.42747 8.7425L0.852466 9.98L0.604966 10.175L2.42747 13.325L4.58747 12.4625L4.57247 12.4325C4.96997 12.74 5.39747 12.995 5.86997 13.19H5.84747L6.18497 15.5H9.82246C9.82246 15.5 9.84496 15.365 9.86747 15.185L10.1525 13.1975H10.145C10.61 13.0025 11.045 12.7475 11.4425 12.44L11.4275 12.47L13.5875 13.3325L15.41 10.1825C15.41 10.1825 15.305 10.0925 15.1625 9.9875L13.58 8.7425ZM7.99997 10.625C6.55247 10.625 5.37497 9.4475 5.37497 8C5.37497 6.5525 6.55247 5.375 7.99997 5.375C9.44746 5.375 10.625 6.5525 10.625 8C10.625 9.4475 9.44746 10.625 7.99997 10.625Z" fill="white"/>
</svg>
