<svg width="15" height="16" viewBox="0 0 15 16" fill="none" xmlns="http://www.w3.org/2000/svg">
<path fill-rule="evenodd" clip-rule="evenodd" d="M7.61536 2.0431C8.36919 2.0431 8.9803 2.62204 8.9803 3.33621V3.46556H6.25041V3.33621C6.25041 2.62204 6.86152 2.0431 7.61536 2.0431ZM4.88547 4.75867V5.38528C4.7576 5.53093 4.6807 5.71817 4.6807 5.92242C4.6807 6.38662 5.07792 6.76294 5.56791 6.76294C6.0579 6.76294 6.45512 6.38662 6.45512 5.92242C6.45512 5.7182 6.37825 5.531 6.25041 5.38536V4.75867H8.9803V5.38528C8.85243 5.53093 8.77552 5.71817 8.77552 5.92242C8.77552 6.38662 9.17274 6.76294 9.66273 6.76294C10.1527 6.76294 10.5499 6.38662 10.5499 5.92242C10.5499 5.7182 10.4731 5.531 10.3452 5.38536V4.75867H11.2322C11.5815 4.75867 11.8744 5.00848 11.9109 5.33754L12.5691 11.2607C12.5822 11.3792 12.4895 11.4828 12.3703 11.4828H10.3456C9.96865 11.4828 9.6631 11.7723 9.6631 12.1293C9.6631 12.4864 9.96865 12.7759 10.3456 12.7759H12.5584C12.6603 12.7759 12.7459 12.8525 12.7572 12.9538L12.8448 13.7427C12.8873 14.1245 12.5713 14.4569 12.1661 14.4569H3.06519C2.66 14.4569 2.34405 14.1245 2.38647 13.7427L2.47412 12.9538C2.48537 12.8525 2.57099 12.7759 2.6729 12.7759H4.8858C5.26272 12.7759 5.56827 12.4864 5.56827 12.1293C5.56827 11.7723 5.26272 11.4828 4.8858 11.4828H2.86102C2.74182 11.4828 2.64908 11.3792 2.66225 11.2607L3.32038 5.33753C3.35695 5.00847 3.64984 4.75867 3.9991 4.75867H4.88547ZM4.88547 3.46556V3.33621C4.88547 1.90788 6.10768 0.75 7.61536 0.75C9.12303 0.75 10.3452 1.90788 10.3452 3.33621V3.46556H11.8466C12.5451 3.46556 13.1309 3.96518 13.2041 4.6233L14.2816 14.3216C14.3665 15.0851 13.7346 15.75 12.9242 15.75H2.3071C1.49674 15.75 0.864829 15.0851 0.949663 14.3216L2.02726 4.6233C2.10039 3.96518 2.68618 3.46556 3.3847 3.46556H4.88547Z"/>
</svg>
