<svg width="100" height="72" viewBox="0 0 100 72" fill="none" xmlns="http://www.w3.org/2000/svg">
<circle cx="50.7145" cy="41.4284" r="28.5714" fill="#DB705C"/>
<path d="M90.8895 29.9768L89.6362 28.7235L88.4314 29.9282C88.2641 30.0865 88.0389 30.1707 87.8039 30.1629C87.5688 30.1551 87.3425 30.056 87.173 29.8865C87.0036 29.7171 86.9044 29.4907 86.8966 29.2557C86.8888 29.0206 86.973 28.7955 87.1313 28.6281L88.3361 27.4233L87.0828 26.17C86.9104 25.9975 86.8109 25.7663 86.8062 25.5272C86.8015 25.288 86.892 25.0605 87.0577 24.8948C87.2235 24.729 87.451 24.6385 87.6901 24.6432C87.9293 24.6479 88.1605 24.7474 88.333 24.9198L89.5863 26.1731L90.7911 24.9683C90.9584 24.81 91.1836 24.7258 91.4187 24.7336C91.6537 24.7414 91.88 24.8406 92.0495 25.0101C92.2189 25.1795 92.3181 25.4058 92.3259 25.6409C92.3337 25.8759 92.2495 26.1011 92.0912 26.2685L90.8865 27.4732L92.1398 28.7265C92.3122 28.899 92.4116 29.1303 92.4163 29.3694C92.421 29.6086 92.3305 29.836 92.1648 30.0018C91.999 30.1676 91.7715 30.258 91.5324 30.2534C91.2932 30.2487 91.062 30.1492 90.8895 29.9768Z" fill="#E0E0E0"/>
<path d="M17.4208 59.3023L16.5371 58.4186L15.6877 59.268C15.5697 59.3796 15.4109 59.439 15.2452 59.4335C15.0795 59.428 14.9199 59.3581 14.8004 59.2386C14.6809 59.1191 14.611 58.9596 14.6055 58.7938C14.6 58.6281 14.6594 58.4694 14.771 58.3513L15.6204 57.5019L14.7368 56.6183C14.6152 56.4966 14.5451 56.3336 14.5418 56.165C14.5384 55.9964 14.6022 55.836 14.7191 55.7191C14.836 55.6022 14.9964 55.5384 15.165 55.5417C15.3336 55.5451 15.4966 55.6152 15.6183 55.7367L16.5019 56.6204L17.3514 55.771C17.4694 55.6594 17.6281 55.6 17.7939 55.6055C17.9596 55.611 18.1192 55.6809 18.2386 55.8004C18.3581 55.9199 18.428 56.0795 18.4335 56.2452C18.439 56.4109 18.3796 56.5697 18.268 56.6877L17.4186 57.5371L18.3023 58.4208C18.4238 58.5424 18.494 58.7054 18.4973 58.874C18.5006 59.0426 18.4368 59.203 18.3199 59.3199C18.203 59.4368 18.0427 59.5006 17.874 59.4973C17.7054 59.494 17.5424 59.4238 17.4208 59.3023Z" fill="#E0E0E0"/>
<circle cx="9.5" cy="27.5" r="2.65" stroke="#E0E0E0" stroke-width="1.7"/>
<path d="M73 19H29V63H73V19Z" fill="white" fill-opacity="0.01"/>
<g filter="url(#filter0_d_27_6)">
<path d="M41.8334 31.833L60.1667 50.1663" stroke="white" stroke-opacity="0.83" stroke-width="5" stroke-linecap="round" stroke-linejoin="round"/>
<path d="M41.8334 50.1663L60.1667 31.833" stroke="white" stroke-opacity="0.83" stroke-width="5" stroke-linecap="round" stroke-linejoin="round"/>
</g>
<defs>
<filter id="filter0_d_27_6" x="39.3334" y="29.333" width="24.3333" height="25.3335" filterUnits="userSpaceOnUse" color-interpolation-filters="sRGB">
<feFlood flood-opacity="0" result="BackgroundImageFix"/>
<feColorMatrix in="SourceAlpha" type="matrix" values="0 0 0 0 0 0 0 0 0 0 0 0 0 0 0 0 0 0 127 0" result="hardAlpha"/>
<feOffset dx="1" dy="2"/>
<feComposite in2="hardAlpha" operator="out"/>
<feColorMatrix type="matrix" values="0 0 0 0 0 0 0 0 0 0 0 0 0 0 0 0 0 0 0.25 0"/>
<feBlend mode="normal" in2="BackgroundImageFix" result="effect1_dropShadow_27_6"/>
<feBlend mode="normal" in="SourceGraphic" in2="effect1_dropShadow_27_6" result="shape"/>
</filter>
</defs>
</svg>
