<svg width="100" height="72" viewBox="0 0 100 72" fill="none" xmlns="http://www.w3.org/2000/svg">
<circle cx="50.7144" cy="41.4284" r="28.5714" fill="#536670"/>
<path d="M79.4373 11.3992C77.5971 10.2536 75.1672 10.8137 74.0242 12.6482L51.7362 45.5863L44.5158 39.2278C43.23 37.4939 40.7669 37.1291 39.0203 38.4216C37.2837 39.7132 36.9227 42.1787 38.2121 43.917L48.9346 54.2561C49.5461 55.0807 50.4434 55.6241 51.459 55.7884C51.7144 55.8296 51.9743 55.8474 52.2451 55.8383C53.5457 55.7852 54.7325 55.0945 55.4174 53.9945L80.6859 16.8163C81.8339 14.9723 81.2736 12.5444 79.4373 11.3992Z" fill="#1A6356"/>
<path d="M78.3583 9.40949C76.518 8.26389 74.0882 8.82398 72.9452 10.6585L51.6757 42.0912C51.3238 42.6113 51.1478 42.8713 50.9153 42.9884C50.7112 43.0912 50.4779 43.121 50.2545 43.0728C50 43.0178 49.7644 42.8103 49.2931 42.3953L44.1098 37.8308C40.9524 35.0503 39.3736 33.66 39.3623 33.6501C39.25 33.5523 39.4451 33.7209 39.332 33.6239C39.3206 33.6142 45.1613 38.5649 42.825 36.5846C41.4677 35.4341 39.4405 35.3224 37.9412 36.4319C36.3962 37.581 35.94 39.6594 36.7663 41.3282C36.8026 41.4014 36.7119 41.2183 36.858 41.4497C36.9203 41.5486 37.2127 41.9482 37.2881 42.0376C37.4645 42.2468 37.5227 42.3029 37.6391 42.4152L47.349 51.7778C49.9365 54.2728 51.2303 55.5203 51.238 55.5277C51.3225 55.6086 51.1735 55.4668 51.2585 55.5472C51.2662 55.5545 46.3605 50.9492 48.3228 52.7914C48.8877 53.3217 49.5988 53.6723 50.3799 53.7987C50.6353 53.8399 50.8952 53.8576 51.166 53.8486C52.4666 53.7955 53.6534 53.1048 54.3384 52.0048L79.6068 14.8265C80.7548 12.9826 80.1945 10.5547 78.3583 9.40949Z" fill="url(#paint0_linear_17_2)"/>
<path d="M89.704 32.3398L88.1193 31.9585L89.0428 28.1367L90.6253 28.518L89.704 32.3398Z" fill="#E0E0E0"/>
<path d="M95.6045 31.9101C95.556 32.1151 95.1637 32.3906 94.8551 32.3157C94.8551 32.3157 94.9036 32.5228 94.8441 32.7697C94.7736 33.0672 94.3702 33.2854 93.8963 33.1686C93.4225 33.054 90.2685 32.2958 90.2685 32.2958L91.1236 28.7451L91.1214 28.7429C91.1214 28.7429 92.4262 27.7114 92.5673 27.5263C92.7128 27.3455 92.834 26.4198 92.8737 26.2545C92.9067 26.1201 93.5172 26.1994 93.8192 26.5895C93.8875 26.6799 93.9426 26.7857 93.9691 26.9113C94.0242 27.1714 94.044 27.405 94.0264 27.6254C94.0043 27.9671 93.8985 28.2756 93.7156 28.5886L95.9064 29.1154C96.0894 29.1595 96.2172 29.252 96.2988 29.36C96.4244 29.5253 96.4486 29.7303 96.4156 29.867C96.3428 30.1888 96.0607 30.3056 95.9285 30.3386C95.9285 30.3386 96.345 30.537 96.2392 30.9778C96.1797 31.2247 95.913 31.4429 95.567 31.423C95.5692 31.423 95.6794 31.6038 95.6045 31.9101Z" fill="#E0E0E0"/>
<path d="M9.65717 30.0539L11.3873 30.574L12.6392 26.3996L10.9113 25.8794L9.65717 30.0539Z" fill="#E0E0E0"/>
<path d="M4.25045 26.3446C4.18433 26.5694 4.40474 27.0521 4.74195 27.1535C4.74195 27.1535 4.58106 27.3232 4.49951 27.5943C4.40033 27.9183 4.66481 28.3525 5.18497 28.5067C5.70292 28.661 9.14565 29.6991 9.14565 29.6991L10.3116 25.8222H10.3138C10.3138 25.8222 9.64156 24.1075 9.6085 23.8496C9.56883 23.5961 9.97217 22.6396 10.0251 22.461C10.0691 22.3156 9.43879 22.0489 8.93186 22.2538C8.81504 22.3023 8.70484 22.3729 8.60786 22.4765C8.4095 22.6947 8.26182 22.9062 8.15383 23.1266C7.98191 23.4661 7.91358 23.8209 7.91358 24.2221L5.52219 23.5013C5.32162 23.4418 5.1475 23.4595 5.01085 23.5168C4.79706 23.6049 4.66041 23.7879 4.61632 23.9355C4.50612 24.286 4.7111 24.5549 4.8191 24.6585C4.8191 24.6585 4.30996 24.6166 4.16449 25.0971C4.08294 25.366 4.21739 25.723 4.55902 25.8993C4.55681 25.8993 4.35184 26.0095 4.25045 26.3446Z" fill="#E0E0E0"/>
<path d="M19.5425 57.8198L20.2264 56.9866L18.2154 55.3383L17.532 56.1703L19.5425 57.8198Z" fill="#E0E0E0"/>
<path d="M16.2575 59.9446C16.3661 60.0327 16.6825 60.0222 16.8158 59.8598C16.8158 59.8598 16.8723 59.9874 17.0028 60.0946C17.1584 60.2236 17.4583 60.1777 17.6627 59.9268C17.8666 59.677 19.2291 58.0199 19.2291 58.0199L17.3622 56.4873L17.3627 56.4861C17.3627 56.4861 16.2641 56.4623 16.1146 56.4213C15.9659 56.3849 15.5318 55.943 15.4457 55.8729C15.3757 55.8152 15.0841 56.101 15.0805 56.4273C15.0803 56.5027 15.0939 56.5796 15.1286 56.6568C15.2032 56.8161 15.2858 56.9461 15.3823 57.0562C15.5297 57.2288 15.7094 57.3479 15.9303 57.4401L14.9841 58.5913C14.9053 58.688 14.875 58.7879 14.8751 58.8763C14.8746 59.0143 14.9439 59.1316 15.0151 59.1898C15.1827 59.331 15.3779 59.2799 15.4597 59.2442C15.4597 59.2442 15.3197 59.5149 15.5509 59.7054C15.6802 59.8121 15.9077 59.8201 16.0832 59.6725C16.0827 59.6737 16.0963 59.8119 16.2575 59.9446Z" fill="#E0E0E0"/>
<defs>
<linearGradient id="paint0_linear_17_2" x1="29.9577" y1="15.0081" x2="58.2614" y2="50.8443" gradientUnits="userSpaceOnUse">
<stop stop-color="#87E06D"/>
<stop offset="1" stop-color="#32A894"/>
</linearGradient>
</defs>
</svg>
