<svg width="12" height="12" viewBox="0 0 12 12" fill="none" xmlns="http://www.w3.org/2000/svg">
<path fill-rule="evenodd" clip-rule="evenodd" d="M2.57143 1.2H6.66C7.41742 1.2 8.03143 1.81401 8.03143 2.57143V6.66C8.03143 7.41742 7.41742 8.03143 6.66 8.03143H2.57143C1.81401 8.03143 1.2 7.41742 1.2 6.66V2.57143C1.2 1.81401 1.81401 1.2 2.57143 1.2ZM0 2.57143C0 1.15127 1.15127 0 2.57143 0H6.66C8.08016 0 9.23143 1.15127 9.23143 2.57143V6.66C9.23143 8.08016 8.08016 9.23143 6.66 9.23143H2.57143C1.15127 9.23143 0 8.08016 0 6.66V2.57143ZM11.7431 3.85718C11.7431 3.52581 11.4745 3.25718 11.1431 3.25718C10.8118 3.25718 10.5431 3.52581 10.5431 3.85718V8.57146C10.5431 9.66025 9.6605 10.5429 8.57171 10.5429H3.85742C3.52605 10.5429 3.25742 10.8115 3.25742 11.1429C3.25742 11.4743 3.52605 11.7429 3.85742 11.7429H8.57171C10.3232 11.7429 11.7431 10.323 11.7431 8.57146V3.85718Z" fill="#232C41"/>
</svg>
