<svg width="15" height="15" viewBox="0 0 15 15" fill="none" xmlns="http://www.w3.org/2000/svg">
    <path fill-rule="evenodd" clip-rule="evenodd" d="M13.2302 14L10.5726 11.3656C9.52526 12.2063 8.22182 12.6634 6.87879 12.661C3.6325 12.661 1 10.0499 1 6.8305C1 3.61021 3.6325 1 6.87786 1C10.126 1 12.7585 3.60929 12.7585 6.8305C12.7594 8.21842 12.2607 9.5603 11.3536 10.6107L14 13.2358L13.2302 14ZM6.87879 1.86357C4.1135 1.86357 1.871 4.0875 1.871 6.8305C1.871 9.5735 4.1135 11.7965 6.87879 11.7965C9.645 11.7965 11.8875 9.5735 11.8875 6.8305C11.8875 4.0875 9.64593 1.86357 6.87879 1.86357Z" fill="#C2C8D5"/>
    <path d="M10.5726 11.3656L10.9246 11.0105L10.6077 10.6964L10.2597 10.9757L10.5726 11.3656ZM13.2302 14L12.8782 14.3551L13.2305 14.7043L13.5825 14.3548L13.2302 14ZM6.87879 12.661L6.87968 12.161H6.87879V12.661ZM12.7585 6.8305H12.2585V6.83084L12.7585 6.8305ZM11.3536 10.6107L10.9752 10.2839L10.6702 10.6371L11.0015 10.9657L11.3536 10.6107ZM14 13.2358L14.3523 13.5906L14.7098 13.2356L14.3521 12.8808L14 13.2358ZM10.2206 11.7207L12.8782 14.3551L13.5822 13.6449L10.9246 11.0105L10.2206 11.7207ZM6.87789 13.161C8.33504 13.1636 9.74924 12.6677 10.8856 11.7556L10.2597 10.9757C9.30128 11.745 8.10859 12.1632 6.87968 12.161L6.87789 13.161ZM0.5 6.8305C0.5 10.3299 3.36024 13.161 6.87879 13.161V12.161C3.90476 12.161 1.5 9.76985 1.5 6.8305H0.5ZM6.87786 0.5C3.36024 0.5 0.5 3.33021 0.5 6.8305H1.5C1.5 3.89022 3.90476 1.5 6.87786 1.5V0.5ZM13.2585 6.8305C13.2585 3.32907 10.3981 0.5 6.87786 0.5V1.5C9.85395 1.5 12.2585 3.8895 12.2585 6.8305H13.2585ZM11.732 10.9375C12.7177 9.7962 13.2595 8.33819 13.2585 6.83016L12.2585 6.83084C12.2594 8.09865 11.8038 9.32439 10.9752 10.2839L11.732 10.9375ZM14.3521 12.8808L11.7057 10.2557L11.0015 10.9657L13.6479 13.5908L14.3521 12.8808ZM13.5825 14.3548L14.3523 13.5906L13.6477 12.8809L12.8779 13.6452L13.5825 14.3548ZM2.371 6.8305C2.371 4.36751 4.38575 2.36357 6.87879 2.36357V1.36357C3.84125 1.36357 1.371 3.80749 1.371 6.8305H2.371ZM6.87879 11.2965C4.38563 11.2965 2.371 9.29336 2.371 6.8305H1.371C1.371 9.85363 3.84137 12.2965 6.87879 12.2965V11.2965ZM11.3875 6.8305C11.3875 9.2933 9.37293 11.2965 6.87879 11.2965V12.2965C9.91707 12.2965 12.3875 9.85369 12.3875 6.8305H11.3875ZM6.87879 2.36357C9.37367 2.36357 11.3875 4.36751 11.3875 6.8305H12.3875C12.3875 3.80749 9.91818 1.36357 6.87879 1.36357V2.36357Z" fill="#C2C8D5"/>
</svg>
