<svg width="14" height="14" viewBox="0 0 14 14" fill="none" xmlns="http://www.w3.org/2000/svg">
<path d="M8.49522 14H5.50352C5.29131 14 5.11946 13.8209 5.11816 13.598V12.6H4.7966C4.5844 12.6 4.41255 12.4209 4.41125 12.1981V10.7981C4.41255 10.5752 4.5844 10.3947 4.7966 10.3961H4.85779V9.9422C4.04282 9.53888 3.34632 8.91134 2.84379 8.12521C1.50807 6.05803 1.78277 3.28128 3.49343 1.54633C4.40344 0.581094 5.63501 0.0273847 6.92776 4.10306e-05H6.99937C8.31296 -0.00542771 9.57447 0.535977 10.5105 1.50394C12.1847 3.22659 12.4829 5.94456 11.2252 8.02131C10.7175 8.85529 9.99628 9.52247 9.14225 9.9422V10.3961H9.20344C9.41564 10.3961 9.58749 10.5752 9.58879 10.7981V12.1981C9.58749 12.4209 9.41564 12.6014 9.20344 12.6H8.88057V13.598C8.87927 13.8209 8.70742 14 8.49522 14ZM5.88757 12.6V13.1961H8.10986V12.6H5.88757ZM5.18065 11.2V11.7961H8.81808V11.2H5.18065ZM7.00067 0.803945H6.93688C4.71719 0.836757 2.80864 2.82327 2.76959 5.14202C2.73313 6.96721 3.77593 8.6256 5.38765 9.30919C5.53216 9.37072 5.62589 9.51837 5.62589 9.68107V10.3975H6.61271V8.23322L5.31344 6.35334C5.18977 6.17424 5.22752 5.92405 5.39807 5.79416C5.39937 5.79416 5.39937 5.7928 5.40067 5.7928C5.57252 5.66291 5.81336 5.70393 5.93834 5.88303L6.99937 7.41701L8.05909 5.88303C8.18407 5.70256 8.42362 5.66291 8.59676 5.7928C8.76861 5.92131 8.80767 6.17151 8.68529 6.35198C8.68529 6.35334 8.68399 6.35334 8.68399 6.35471L7.38472 8.23459V10.3975H8.37284V9.68107C8.37284 9.51837 8.46658 9.37072 8.61108 9.30919C10.7605 8.38361 11.789 5.80374 10.9076 3.54652C10.2567 1.88265 8.71263 0.798476 7.00067 0.803945ZM9.04721 5.5426C9.02248 5.5426 8.99644 5.53987 8.9717 5.5344C8.94697 5.52893 8.92353 5.5221 8.9001 5.51252C8.87667 5.50295 8.85454 5.49065 8.8337 5.47561C8.81288 5.46057 8.79335 5.44417 8.77512 5.42503C8.62541 5.26917 8.6241 5.01624 8.77252 4.85901L8.77512 4.85628C8.79335 4.83714 8.81288 4.82073 8.8337 4.80706C8.85454 4.79202 8.87667 4.77971 8.9001 4.77014C8.92353 4.76057 8.94697 4.75237 8.9717 4.7469C8.99644 4.74143 9.02117 4.7387 9.04591 4.7387C9.14876 4.7387 9.2464 4.78108 9.3193 4.85628C9.33753 4.87542 9.35315 4.89593 9.36747 4.9178C9.40913 4.98342 9.43257 5.06135 9.43257 5.14065C9.43257 5.24729 9.39221 5.34983 9.3193 5.42503C9.30108 5.44417 9.28155 5.46057 9.26072 5.47561C9.21906 5.50432 9.17219 5.52483 9.12272 5.53577C9.09668 5.53987 9.07195 5.5426 9.04721 5.5426ZM4.95152 5.5426C4.92679 5.5426 4.90075 5.53987 4.87601 5.5344C4.85128 5.52893 4.82785 5.5221 4.80441 5.51252C4.66121 5.451 4.56747 5.30471 4.56617 5.14065C4.56617 5.11467 4.56877 5.0887 4.57398 5.06272C4.57919 5.03675 4.5857 5.01214 4.59611 4.98753C4.60523 4.96292 4.61694 4.93967 4.63126 4.9178C4.6586 4.87405 4.69505 4.83577 4.73802 4.80706C4.75885 4.79202 4.78098 4.77971 4.80441 4.77014C4.82785 4.76057 4.85128 4.75237 4.87601 4.7469C4.92549 4.73596 4.97626 4.73596 5.02703 4.7469C5.05177 4.75237 5.0752 4.75921 5.09863 4.77014C5.12207 4.77971 5.1442 4.79202 5.16503 4.80706C5.18586 4.8221 5.20539 4.8385 5.22361 4.85628C5.27699 4.91233 5.31344 4.98342 5.32907 5.06135C5.33427 5.08733 5.33688 5.11331 5.33688 5.13928C5.33688 5.30198 5.24314 5.44963 5.09994 5.51116C5.0765 5.52073 5.05307 5.52893 5.02833 5.53303C5.0023 5.53987 4.97756 5.5426 4.95152 5.5426Z" fill="#505160"/>
</svg>
