<svg width="26" height="26" viewBox="0 0 26 26" fill="none" xmlns="http://www.w3.org/2000/svg">
<path fill-rule="evenodd" clip-rule="evenodd" d="M6.95571 17.0854H5.05495H1.7334V21.1852C1.7334 21.5475 1.87731 21.8949 2.13346 22.1511C2.38962 22.4072 2.73705 22.5511 3.09931 22.5511H5.05495V23.5028C5.05495 23.8651 5.19886 24.2125 5.45502 24.4687C5.71117 24.7248 6.0586 24.8688 6.42086 24.8688H22.8036C23.1658 24.8688 23.5133 24.7248 23.7694 24.4687C24.0256 24.2125 24.1695 23.8651 24.1695 23.5028V17.0854H18.7227C18.1298 19.4412 16.1592 21.2494 13.7176 21.6035C13.4413 21.6547 13.1591 21.6809 12.8743 21.6809C12.6622 21.6809 12.4516 21.6663 12.2438 21.6378C9.67239 21.3873 7.57135 19.5315 6.95571 17.0854Z" fill="#C2C8D5"/>
<path d="M6.06673 4.05127V15.5195H1.7334V5.41718C1.7334 5.05492 1.87731 4.70749 2.13346 4.45134C2.38962 4.19518 2.73705 4.05127 3.09931 4.05127H6.06673Z" fill="#E3E4E7"/>
<path d="M22.8038 1.7334H7.28779C6.92552 1.7334 6.5781 1.87731 6.32194 2.13346C6.06578 2.38962 5.92188 2.73705 5.92188 3.09931V15.5192H8.23948C8.24998 16.7416 8.74293 17.9104 9.61103 18.771C10.4791 19.6317 11.6521 20.1146 12.8745 20.1146C14.097 20.1146 15.2699 19.6317 16.138 18.771C17.0061 17.9104 17.4991 16.7416 17.5096 15.5192H24.1698V3.09931C24.1698 2.73705 24.0258 2.38962 23.7697 2.13346C23.5135 1.87731 23.1661 1.7334 22.8038 1.7334Z" fill="#636ACC"/>
<path d="M8.50586 6.93311H20.6392" stroke="white" stroke-width="1.73333" stroke-linecap="round"/>
<mask id="mask0_74:1913" style="mask-type:alpha" maskUnits="userSpaceOnUse" x="7" y="6" width="15" height="2">
<path d="M8.50586 6.93311H20.6392" stroke="#E3E4E7" stroke-width="1.73333" stroke-linecap="round"/>
</mask>
<g mask="url(#mask0_74:1913)">
<path d="M9.51817 7.03467H17.9714C18.63 7.03467 18.9593 7.36397 18.9593 8.02256V8.0229C18.9593 8.6815 18.63 9.0108 17.9714 9.0108H9.51817C8.85957 9.0108 8.53027 8.6815 8.53027 8.0229V8.02256C8.53027 7.36397 8.85957 7.03467 9.51817 7.03467Z" fill="#E3E4E7"/>
</g>
<path d="M8.50586 11.7002H13.7059" stroke="white" stroke-width="1.73333" stroke-linecap="round"/>
</svg>
