<svg width="50" height="50" viewBox="0 0 50 50" fill="none" xmlns="http://www.w3.org/2000/svg">
    <circle cx="25" cy="25" r="25" fill="#636ACC"/>
    <path d="M36.8204 35.4203C36.581 35.0557 36.2219 34.9342 35.8628 34.9342H26.5262L35.384 25.9418C36.2219 25.2127 36.7007 23.9975 36.7007 22.9038C36.7007 21.8101 36.2219 20.7165 35.384 19.8658L29.8778 14.2759C28.202 12.5747 25.4489 12.5747 23.7731 14.2759L14.5561 23.6329C13 25.3342 13 28.1291 14.5561 29.8304L19.7032 34.9342H13.8379C13.3591 34.9342 13 35.4203 13 35.9063C13 36.5139 13.3591 36.8785 13.8379 37H35.8628C36.2219 37 36.581 36.8785 36.8204 36.5139C37.0599 36.1494 37.0599 35.7848 36.8204 35.4203ZM23.0549 34.6911C22.4564 34.6911 21.8579 34.4481 21.3791 33.962L15.8728 28.3722C15.394 27.8861 15.1546 27.2785 15.1546 26.6709C15.1546 26.0633 15.394 25.4557 15.8728 24.9696L25.2095 15.6127C25.6883 15.1266 26.2868 14.8835 26.8853 14.8835C27.4838 14.8835 28.0823 15.1266 28.4414 15.6127L33.9476 21.2025C34.4264 21.6886 34.6658 22.2962 34.6658 22.9038C34.6658 23.5114 34.4264 24.119 33.9476 24.6051L24.7307 33.962C24.2519 34.4481 23.6534 34.6911 23.0549 34.6911Z" fill="white"/>
    <path d="M23.791 27.4653L23.8261 27.4999L23.8612 27.4653L29.0786 22.3248C29.2627 22.1434 29.5423 22.05 29.8261 22.05C30.1098 22.05 30.3895 22.1434 30.5736 22.3248C30.829 22.5764 30.95 22.8214 30.95 23.0602C30.95 23.2991 30.829 23.544 30.5736 23.7957L24.5873 29.6939C24.518 29.6997 24.4517 29.7324 24.396 29.7599L24.3909 29.7624C24.3229 29.7959 24.2687 29.8215 24.2174 29.8215H24.1969L24.1823 29.8359C24.0674 29.9491 23.9559 29.95 23.8261 29.95C23.5829 29.95 23.3339 29.8304 23.0786 29.5788L23.0779 29.5782L19.4261 26.1086C19.1709 25.8571 19.05 25.6122 19.05 25.3735C19.05 25.1347 19.171 24.8897 19.4264 24.638C19.6105 24.4566 19.8902 24.3633 20.1739 24.3633C20.4577 24.3633 20.7373 24.4566 20.9214 24.638L23.791 27.4653Z" fill="white" stroke="#636ACC" stroke-width="0.1"/>
</svg>
