<svg width="16" height="16" viewBox="0 0 16 16" fill="none" xmlns="http://www.w3.org/2000/svg">
    <g opacity="0.7">
        <circle cx="8" cy="8" r="7" stroke="white"/>
        <mask id="path-2-inside-1" fill="white">
            <path fill-rule="evenodd" clip-rule="evenodd" d="M10.5866 4.777L9.86167 5.48072L8.00002 7.28791L6.13837 5.48072L5.41344 4.777L4.82025 5.59484L4.80726 5.61276L7.26646 8.00001L4.80726 10.3873L4.82025 10.4052L5.41344 11.223L6.13837 10.5193L8.00002 8.71211L9.86167 10.5193L10.5866 11.223L11.1798 10.4052L11.1928 10.3873L8.73358 8.00001L11.1928 5.61276L11.1798 5.59484L10.5866 4.777Z"/>
        </mask>
        <path d="M9.86167 5.48072L10.5582 6.19825L9.86167 5.48072ZM10.5866 4.777L11.3961 4.18987L10.7183 3.25544L9.89007 4.05947L10.5866 4.777ZM8.00002 7.28791L7.30349 8.00543L8.00002 8.68158L8.69655 8.00543L8.00002 7.28791ZM6.13837 5.48072L5.44183 6.19825L6.13837 5.48072ZM5.41344 4.777L6.10997 4.05947L5.2817 3.25544L4.60395 4.18987L5.41344 4.777ZM4.82025 5.59484L5.62974 6.18198L5.62974 6.18198L4.82025 5.59484ZM4.80726 5.61276L3.99777 5.02562L3.48914 5.72688L4.11072 6.33028L4.80726 5.61276ZM7.26646 8.00001L7.96299 8.71753L8.70214 8.00001L7.96299 7.28248L7.26646 8.00001ZM4.80726 10.3873L4.11072 9.66973L3.48914 10.2731L3.99777 10.9744L4.80726 10.3873ZM4.82025 10.4052L5.62974 9.81804L5.62974 9.81803L4.82025 10.4052ZM5.41344 11.223L4.60395 11.8101L5.2817 12.7446L6.10997 11.9405L5.41344 11.223ZM6.13837 10.5193L5.44183 9.80177H5.44183L6.13837 10.5193ZM8.00002 8.71211L8.69655 7.99458L8.00002 7.31843L7.30349 7.99458L8.00002 8.71211ZM9.86167 10.5193L10.5582 9.80177L9.86167 10.5193ZM10.5866 11.223L9.89007 11.9405L10.7183 12.7446L11.3961 11.8101L10.5866 11.223ZM11.1798 10.4052L11.9893 10.9923L11.9893 10.9923L11.1798 10.4052ZM11.1928 10.3873L12.0023 10.9744L12.5109 10.2731L11.8893 9.66973L11.1928 10.3873ZM8.73358 8.00001L8.03705 7.28248L7.2979 8.00001L8.03705 8.71753L8.73358 8.00001ZM11.1928 5.61276L11.8893 6.33028L12.5109 5.72688L12.0023 5.02563L11.1928 5.61276ZM11.1798 5.59484L11.9893 5.00772L11.9893 5.00771L11.1798 5.59484ZM10.5582 6.19825L11.2831 5.49453L9.89007 4.05947L9.16514 4.76319L10.5582 6.19825ZM8.69655 8.00543L10.5582 6.19825L9.16514 4.76319L7.30349 6.57038L8.69655 8.00543ZM8.69655 6.57038L6.8349 4.76319L5.44183 6.19825L7.30349 8.00543L8.69655 6.57038ZM6.8349 4.76319L6.10997 4.05947L4.71691 5.49453L5.44183 6.19825L6.8349 4.76319ZM4.60395 4.18987L4.01076 5.00771L5.62974 6.18198L6.22293 5.36413L4.60395 4.18987ZM4.01076 5.00771L3.99777 5.02562L5.61675 6.19989L5.62974 6.18198L4.01076 5.00771ZM4.11072 6.33028L6.56993 8.71753L7.96299 7.28248L5.50379 4.89523L4.11072 6.33028ZM5.50379 11.1048L7.96299 8.71753L6.56993 7.28248L4.11072 9.66973L5.50379 11.1048ZM5.62974 9.81803L5.61675 9.80012L3.99777 10.9744L4.01076 10.9923L5.62974 9.81803ZM6.22293 10.6359L5.62974 9.81804L4.01076 10.9923L4.60395 11.8101L6.22293 10.6359ZM5.44183 9.80177L4.71691 10.5055L6.10997 11.9405L6.8349 11.2368L5.44183 9.80177ZM7.30349 7.99458L5.44183 9.80177L6.8349 11.2368L8.69655 9.42963L7.30349 7.99458ZM7.30349 9.42963L9.16514 11.2368L10.5582 9.80177L8.69655 7.99458L7.30349 9.42963ZM9.16514 11.2368L9.89007 11.9405L11.2831 10.5055L10.5582 9.80177L9.16514 11.2368ZM11.3961 11.8101L11.9893 10.9923L10.3703 9.81804L9.77711 10.6359L11.3961 11.8101ZM11.9893 10.9923L12.0023 10.9744L10.3833 9.80013L10.3703 9.81804L11.9893 10.9923ZM11.8893 9.66973L9.43012 7.28248L8.03705 8.71753L10.4963 11.1048L11.8893 9.66973ZM10.4963 4.89523L8.03705 7.28248L9.43012 8.71753L11.8893 6.33028L10.4963 4.89523ZM10.3703 6.18197L10.3833 6.19988L12.0023 5.02563L11.9893 5.00772L10.3703 6.18197ZM9.77711 5.36413L10.3703 6.18198L11.9893 5.00771L11.3961 4.18987L9.77711 5.36413Z" fill="white" mask="url(#path-2-inside-1)"/>
    </g>
</svg>
