<?xml version="1.0" encoding="UTF-8"?>
<svg width="16px" height="16px" viewBox="0 0 16 16" version="1.1" xmlns="http://www.w3.org/2000/svg" xmlns:xlink="http://www.w3.org/1999/xlink">
    <!-- Generator: Sketch 63 (92445) - https://sketch.com -->
    <title>问好</title>
    <desc>Created with Sketch.</desc>
    <g id="V3.9" stroke="none" stroke-width="1" fill="none" fill-rule="evenodd">
        <g id="TRC20授权备份" transform="translate(-216.000000, -134.000000)" fill="#888998" fill-rule="nonzero" stroke="#888998">
            <g id="编组-3" transform="translate(129.000000, 132.000000)">
                <g id="问好" transform="translate(88.000000, 3.000000)">
                    <path d="M0.0345646241,7.6913411 C-0.320198057,4.11442001 2.09190235,0.850208389 5.61519933,0.139262187 C9.1384963,-0.571684015 12.6275522,1.50176659 13.6874779,4.93639682 C14.7474036,8.37102705 13.0336131,12.0502252 9.72245276,13.4485884 C8.85797701,13.8143541 7.92858072,14.0018917 6.98991856,14 C3.39561834,13.9950217 0.389327305,11.2682622 0.0345646241,7.6913411 Z M6.98991856,0.816543279 C4.0496419,0.817029427 1.51913924,2.89450135 0.94594183,5.77850092 C0.372744415,8.66250049 1.91649257,11.5498094 4.63310569,12.6746912 C7.34971881,13.7995731 10.4825971,12.8487387 12.1158261,10.4036718 C13.749055,7.95860488 13.4277664,4.70027722 11.3484446,2.62132212 C10.194743,1.46203272 8.62541053,0.812211211 6.98991856,0.816543279 Z" id="形状" stroke-width="0.5"></path>
                    <path d="M7.1278401,3.50862129 C6.38504079,3.44929499 5.65191725,3.69829349 5.12323567,4.1894663 C4.59455409,4.68063911 4.32384009,5.36425812 4.38301325,6.05870883 L5.5979603,6.05870883 C5.57184356,5.66923044 5.68131196,5.28231253 5.91000377,4.95578585 C6.17724524,4.62886014 6.60568551,4.45341519 7.04405065,4.49139722 C7.40483041,4.47138555 7.75899868,4.58819387 8.02640972,4.81538928 C8.25898169,5.05759153 8.37948141,5.37598464 8.36156753,5.7009676 C8.35340343,5.99061841 8.23918266,6.2688918 8.03796689,6.48934828 L7.84149507,6.69454327 C7.32980513,7.06916778 6.89012594,7.52248731 6.54131394,8.03506043 C6.37468794,8.35441918 6.29527715,8.70736332 6.31017063,9.06238527 L6.31017063,9.24598078 L7.548232,9.24598078 L7.548232,9.06238527 C7.54360886,8.81392187 7.60727657,8.56850468 7.73314664,8.34960272 C7.85259146,8.1336291 8.01772905,7.94257262 8.2185476,7.78801647 C8.55878638,7.52444627 8.88289845,7.24320938 9.18934951,6.94563711 C9.48964241,6.56462234 9.64246172,6.09955769 9.62274322,5.62671941 C9.65190285,5.04028822 9.39727288,4.47269714 8.92931329,4.08100726 C8.42842161,3.68331645 7.78433502,3.47866943 7.1278401,3.50862129 L7.1278401,3.50862129 Z M6.91981111,9.83051646 C6.69633324,9.82283582 6.4792112,9.90087134 6.3188385,10.0465112 C6.15627467,10.1885198 6.06771532,10.3894971 6.07613801,10.5972977 C6.07227975,10.8043156 6.16010545,11.0036279 6.3188385,11.1480842 C6.47794211,11.2967379 6.69485696,11.378597 6.91981111,11.3748786 C7.14238321,11.3776592 7.3575695,11.3003194 7.52078373,11.1588839 C7.68497041,11.0125825 7.77701134,10.809289 7.77504137,10.5972977 C7.78346406,10.3894971 7.69490472,10.1885198 7.53234088,10.0465112 C7.36860225,9.89891651 7.14707571,9.82080021 6.91981111,9.83051646 L6.91981111,9.83051646 Z" id="形状" stroke-width="0.3"></path>
                </g>
            </g>
        </g>
    </g>
</svg>