<svg width="12" height="12" viewBox="0 0 12 12" fill="none" xmlns="http://www.w3.org/2000/svg">
<circle cx="6" cy="6" r="6" fill="#DB705C"/>
<path fill-rule="evenodd" clip-rule="evenodd" d="M5.25042 3.41283C5.20026 2.9663 5.54967 2.57544 5.99901 2.57544C6.44923 2.57544 6.79892 2.96777 6.74735 3.41502L6.38329 6.57231H5.60536L5.25042 3.41283ZM5.99426 7.7144C6.25082 7.7144 6.45684 7.79432 6.61233 7.95416C6.7756 8.10601 6.85723 8.30981 6.85723 8.56555C6.85723 8.81331 6.7756 9.0211 6.61233 9.18893C6.43352 9.34877 6.22749 9.42869 5.99426 9.42869C5.76102 9.42869 5.56277 9.34477 5.3995 9.17694C5.22846 9.00911 5.14294 8.80531 5.14294 8.56555C5.14294 8.30981 5.22846 8.10601 5.3995 7.95416C5.555 7.79432 5.75324 7.7144 5.99426 7.7144Z" fill="white"/>
</svg>
