<svg width="100" height="100" viewBox="0 0 100 100" fill="none" xmlns="http://www.w3.org/2000/svg">
    <circle cx="50" cy="50" r="50" fill="url(#paint0_linear_163_3)"/>
    <mask id="mask0_163_3" style="mask-type:alpha" maskUnits="userSpaceOnUse" x="0" y="0" width="100" height="100">
        <circle cx="50" cy="50" r="50" fill="white"/>
    </mask>
    <g mask="url(#mask0_163_3)">
        <path fill-rule="evenodd" clip-rule="evenodd" d="M47.8154 22.9033V-11.9354H50.0735V22.9033H47.8154Z" fill="white"/>
        <path fill-rule="evenodd" clip-rule="evenodd" d="M42.6543 22.9033V-11.9354H44.9124V22.9033H42.6543Z" fill="white"/>
        <path fill-rule="evenodd" clip-rule="evenodd" d="M54.5879 22.9033V-11.9354H56.846V22.9033H54.5879Z" fill="white"/>
        <path fill-rule="evenodd" clip-rule="evenodd" d="M39.5217 -8.06445V15.9203L37.3976 16.4538L26.1016 -4.61549L28.0916 -5.68246L37.2636 11.425V-8.06445H39.5217Z" fill="white"/>
        <path fill-rule="evenodd" clip-rule="evenodd" d="M59.8396 -8.70959V15.2752L61.9637 15.8086L73.2598 -5.26064L71.2697 -6.3276L62.0977 10.7799V-8.70959H59.8396Z" fill="white"/>
        <path fill-rule="evenodd" clip-rule="evenodd" d="M51.8633 81.6129L51.8633 116.452H49.6052L49.6052 81.6129H51.8633Z" fill="white"/>
        <path fill-rule="evenodd" clip-rule="evenodd" d="M57.0244 81.6129L57.0244 116.452H54.7663L54.7663 81.6129H57.0244Z" fill="white"/>
        <path fill-rule="evenodd" clip-rule="evenodd" d="M45.0879 81.6129L45.0879 116.452H42.8298L42.8298 81.6129H45.0879Z" fill="white"/>
        <path fill-rule="evenodd" clip-rule="evenodd" d="M60.4842 113.017V89.0321L62.6082 88.4986L73.9043 109.568L71.9142 110.635L62.7422 93.5274V113.017H60.4842Z" fill="white"/>
        <path fill-rule="evenodd" clip-rule="evenodd" d="M39.5217 113.34V89.3551L37.3976 88.8216L26.1016 109.891L28.0916 110.958L37.2636 93.8504V113.34H39.5217Z" fill="white"/>
        <path fill-rule="evenodd" clip-rule="evenodd" d="M20.4832 54.2822H-14.3555V52.0242H20.4832V54.2822Z" fill="white"/>
        <path fill-rule="evenodd" clip-rule="evenodd" d="M20.4832 59.4434H-14.3555V57.1853H20.4832V59.4434Z" fill="white"/>
        <path fill-rule="evenodd" clip-rule="evenodd" d="M20.4832 47.5079H-14.3555V45.2499H20.4832V47.5079Z" fill="white"/>
        <path fill-rule="evenodd" clip-rule="evenodd" d="M-11.291 62.742H12.6937L13.2272 64.8661L-7.84206 76.1621L-8.90902 74.172L8.19845 65H-11.291V62.742Z" fill="white"/>
        <path fill-rule="evenodd" clip-rule="evenodd" d="M-9.0332 43.0704H14.9515L15.485 40.9463L-5.58424 29.6503L-6.65121 31.6404L10.4563 40.8123H-9.0332V43.0704Z" fill="white"/>
        <path fill-rule="evenodd" clip-rule="evenodd" d="M79.1916 50.2341L114.03 50.2341V52.4922L79.1916 52.4922V50.2341Z" fill="white"/>
        <path fill-rule="evenodd" clip-rule="evenodd" d="M79.1916 45.073L114.03 45.073V47.3311L79.1916 47.3311V45.073Z" fill="white"/>
        <path fill-rule="evenodd" clip-rule="evenodd" d="M79.1916 57.0083L114.03 57.0083V59.2664L79.1916 59.2664V57.0083Z" fill="white"/>
        <path fill-rule="evenodd" clip-rule="evenodd" d="M109.789 41.7801H85.8043L85.2708 39.656L106.34 28.36L107.407 30.3501L90.2996 39.5221H109.789V41.7801Z" fill="white"/>
        <path fill-rule="evenodd" clip-rule="evenodd" d="M111.078 62.4195H87.0934L86.5599 64.5435L107.629 75.8396L108.696 73.8495L91.5887 64.6775H111.078V62.4195Z" fill="white"/>
        <path fill-rule="evenodd" clip-rule="evenodd" d="M30.5136 74.4464L5.87891 99.0811L4.28221 97.4844L28.9169 72.8497L30.5136 74.4464Z" fill="white"/>
        <path fill-rule="evenodd" clip-rule="evenodd" d="M34.164 78.0957L9.5293 102.73L7.9326 101.134L32.5673 76.499L34.164 78.0957Z" fill="white"/>
        <path fill-rule="evenodd" clip-rule="evenodd" d="M25.7236 69.6561L1.08887 94.2908L-0.507826 92.6941L24.1269 68.0594L25.7236 69.6561Z" fill="white"/>
        <path fill-rule="evenodd" clip-rule="evenodd" d="M15.3299 102.936L32.2896 85.976L34.1688 87.1008L27.2581 109.987L25.0965 109.334L30.7077 90.7514L16.9266 104.533L15.3299 102.936Z" fill="white"/>
        <path fill-rule="evenodd" clip-rule="evenodd" d="M-0.569126 87.3585L16.3907 70.3987L15.2659 68.5195L-7.61981 75.4302L-6.96706 77.5919L11.6153 71.9807L-2.16582 85.7618L-0.569126 87.3585Z" fill="white"/>
        <path fill-rule="evenodd" clip-rule="evenodd" d="M69.1632 30.0699L93.7979 5.43518L95.3945 7.03187L70.7599 31.6666L69.1632 30.0699Z" fill="white"/>
        <path fill-rule="evenodd" clip-rule="evenodd" d="M65.5157 26.4202L90.1504 1.78552L91.7471 3.38222L67.1124 28.0169L65.5157 26.4202Z" fill="white"/>
        <path fill-rule="evenodd" clip-rule="evenodd" d="M73.9532 34.8599L98.5879 10.2252L100.185 11.8219L75.5499 36.4566L73.9532 34.8599Z" fill="white"/>
        <path fill-rule="evenodd" clip-rule="evenodd" d="M85.1018 2.33432L68.142 19.2941L66.2628 18.1694L73.1735 -4.71637L75.3352 -4.06362L69.7239 14.5188L83.5051 0.737623L85.1018 2.33432Z" fill="white"/>
        <path fill-rule="evenodd" clip-rule="evenodd" d="M100.031 16.621L83.0713 33.5808L84.196 35.46L107.082 28.5493L106.429 26.3876L87.8466 31.9988L101.628 18.2177L100.031 16.621Z" fill="white"/>
        <path fill-rule="evenodd" clip-rule="evenodd" d="M72.0255 71.5839L96.6602 96.2186L95.0635 97.8153L70.4288 73.1806L72.0255 71.5839Z" fill="white"/>
        <path fill-rule="evenodd" clip-rule="evenodd" d="M75.6749 67.9343L100.31 92.569L98.7129 94.1657L74.0782 69.531L75.6749 67.9343Z" fill="white"/>
        <path fill-rule="evenodd" clip-rule="evenodd" d="M67.2354 76.374L91.8701 101.009L90.2734 102.605L65.6387 77.9707L67.2354 76.374Z" fill="white"/>
        <path fill-rule="evenodd" clip-rule="evenodd" d="M100.677 87.3587L83.7168 70.399L84.8415 68.5198L107.727 75.4305L107.074 77.5921L88.4921 71.9809L102.273 85.762L100.677 87.3587Z" fill="white"/>
        <path fill-rule="evenodd" clip-rule="evenodd" d="M85.4221 102.613L68.4623 85.6534L66.5831 86.7781L73.4938 109.664L75.6555 109.011L70.0443 90.4288L83.8254 104.21L85.4221 102.613Z" fill="white"/>
        <path fill-rule="evenodd" clip-rule="evenodd" d="M27.6493 32.9324L3.01465 8.29773L4.61134 6.70104L29.246 31.3357L27.6493 32.9324Z" fill="white"/>
        <path fill-rule="evenodd" clip-rule="evenodd" d="M23.9989 36.5817L-0.635742 11.947L0.960951 10.3503L25.5956 34.985L23.9989 36.5817Z" fill="white"/>
        <path fill-rule="evenodd" clip-rule="evenodd" d="M32.4394 28.1423L7.80469 3.50757L9.40138 1.91088L34.0361 26.5456L32.4394 28.1423Z" fill="white"/>
        <path fill-rule="evenodd" clip-rule="evenodd" d="M1.0422 18.2339L18.002 35.1937L16.8773 37.0729L-6.00848 30.1622L-5.35574 28.0005L13.2266 33.6117L-0.554491 19.8306L1.0422 18.2339Z" fill="white"/>
        <path fill-rule="evenodd" clip-rule="evenodd" d="M15.0066 3.30209L31.9664 20.2619L33.8456 19.1371L26.9349 -3.7486L24.7732 -3.09585L30.3845 15.4865L16.6033 1.7054L15.0066 3.30209Z" fill="white"/>
    </g>
    <path d="M83.2273 50.161C83.2273 68.6002 68.2794 83.5481 49.8402 83.5481C31.401 83.5481 16.4531 68.6002 16.4531 50.161C16.4531 31.7218 31.401 16.7739 49.8402 16.7739C68.2794 16.7739 83.2273 31.7218 83.2273 50.161Z" fill="#F8BA3A"/>
    <path fill-rule="evenodd" clip-rule="evenodd" d="M85.1618 50.1612C85.1618 69.6693 69.3473 85.4838 49.8392 85.4838C30.3311 85.4838 14.5166 69.6693 14.5166 50.1612C14.5166 30.6531 30.3311 14.8386 49.8392 14.8386C69.3473 14.8386 85.1618 30.6531 85.1618 50.1612ZM49.8392 83.5483C68.2784 83.5483 83.2263 68.6004 83.2263 50.1612C83.2263 31.722 68.2784 16.7741 49.8392 16.7741C31.4 16.7741 16.4521 31.722 16.4521 50.1612C16.4521 68.6004 31.4 83.5483 49.8392 83.5483Z" fill="white"/>
    <mask id="mask1_163_3" style="mask-type:alpha" maskUnits="userSpaceOnUse" x="16" y="16" width="68" height="68">
        <path d="M83.5496 50.161C83.5496 68.6002 68.6017 83.5481 50.1625 83.5481C31.7233 83.5481 16.7754 68.6002 16.7754 50.161C16.7754 31.7218 31.7233 16.7739 50.1625 16.7739C68.6017 16.7739 83.5496 31.7218 83.5496 50.161Z" fill="white"/>
    </mask>
    <g mask="url(#mask1_163_3)">
    </g>
    <mask id="mask2_163_3" style="mask-type:alpha" maskUnits="userSpaceOnUse" x="14" y="14" width="72" height="72">
        <path fill-rule="evenodd" clip-rule="evenodd" d="M85.484 50.1612C85.484 69.6693 69.6696 85.4838 50.1614 85.4838C30.6533 85.4838 14.8389 69.6693 14.8389 50.1612C14.8389 30.6531 30.6533 14.8386 50.1614 14.8386C69.6696 14.8386 85.484 30.6531 85.484 50.1612ZM50.1614 83.5483C68.6006 83.5483 83.5485 68.6004 83.5485 50.1612C83.5485 31.722 68.6006 16.7741 50.1614 16.7741C31.7223 16.7741 16.7744 31.722 16.7744 50.1612C16.7744 68.6004 31.7223 83.5483 50.1614 83.5483Z" fill="white"/>
    </mask>
    <g mask="url(#mask2_163_3)">
    </g>
    <path fill-rule="evenodd" clip-rule="evenodd" d="M51.6127 15.6451L47.2578 50.8064H51.7739L49.9998 84.2795C49.9998 84.2795 60.3125 85.1613 72.2578 76.2903C84.2031 67.4193 86.1288 47.7419 79.6772 33.5484C73.2256 19.3548 51.6127 15.6451 51.6127 15.6451Z" fill="white"/>
    <path d="M18.2418 45.6183C19.0188 51.9465 23.1354 58.5305 29.4619 57.7537C50.9336 55.1173 47.9167 41.3194 47.6275 36.8506C49.1815 49.5069 58.7938 54.1522 74.8976 52.1749C79.6904 51.5864 81.6539 42.2191 81.1232 37.8975C80.4599 32.4954 66.157 31.7056 48.3278 33.8948C30.4986 36.0839 17.2705 37.7081 18.2418 45.6183Z" fill="#01C1AE"/>
    <path fill-rule="evenodd" clip-rule="evenodd" d="M21.2404 42.0501C20.2445 42.9859 19.8327 44.0201 20.0024 45.4021C20.3581 48.2993 21.4774 51.1932 23.1428 53.2259C24.7814 55.2258 26.836 56.2885 29.2453 55.9926C39.5747 54.7244 43.5125 50.867 45.0787 47.2794C46.4947 44.0358 46.1875 40.6867 45.9614 38.2203C45.9201 37.7705 45.8816 37.3502 45.8567 36.9651C45.833 36.5996 45.9219 36.2523 46.094 35.9574C38.1833 36.9372 31.5023 37.8442 26.7568 39.3066C24.1407 40.1128 22.3285 41.0275 21.2404 42.0501ZM48.8981 35.6125C49.16 35.881 49.339 36.2342 49.3881 36.6343C50.1078 42.496 52.6305 46.2634 56.6508 48.4401C60.7905 50.6815 66.7852 51.3833 74.681 50.4138C75.2904 50.339 75.935 49.9768 76.5989 49.1734C77.2684 48.3631 77.8594 47.2138 78.3299 45.8554C79.279 43.115 79.5894 39.9663 79.3619 38.1136C79.3041 37.6428 78.94 36.9764 77.4756 36.2928C76.0254 35.6159 73.8461 35.1058 70.9828 34.8144C65.3619 34.2425 57.6124 34.5593 48.8981 35.6125ZM47.9423 32.1545L48.1113 32.1338C57.0819 31.0323 65.2644 30.6659 71.342 31.2843C74.366 31.592 77.0011 32.1554 78.9765 33.0775C80.9376 33.9929 82.61 35.451 82.8839 37.6812C83.187 40.1502 82.781 43.846 81.6828 47.0167C81.1297 48.6139 80.3644 50.1869 79.3343 51.4335C78.2986 52.687 76.9005 53.7164 75.1135 53.9358C66.9055 54.9436 60.0421 54.3114 54.9613 51.5605C52.5586 50.2596 50.6128 48.5173 49.1322 46.3491C48.9331 47.1307 48.6713 47.9189 48.3307 48.6991C46.1097 53.7867 40.8201 58.1465 29.6778 59.5146C25.7606 59.9956 22.5937 58.1546 20.398 55.4747C18.2292 52.8276 16.9017 49.2654 16.4804 45.8345C16.1645 43.2614 17.042 41.1262 18.8104 39.4643C20.4865 37.8892 22.9135 36.7779 25.7118 35.9156C31.2767 34.2007 39.163 33.2324 47.9423 32.1545Z" fill="#01C1AE"/>
    <path d="M50.361 71.876C57.8416 71.2656 63.4535 65.2264 62.8955 58.3869L35.8057 60.5972C36.3637 67.4366 42.8803 72.4863 50.361 71.876Z" fill="white"/>
    <path fill-rule="evenodd" clip-rule="evenodd" d="M35.0021 60.6628C34.9659 60.2189 35.2964 59.8296 35.7403 59.7934L62.8302 57.5832C63.2741 57.547 63.6633 57.8775 63.6995 58.3214C64.2992 65.671 58.282 72.0389 50.4268 72.6798C42.5715 73.3207 35.6018 68.0124 35.0021 60.6628ZM36.7057 61.3329C37.6453 67.2599 43.4927 71.6273 50.2956 71.0722C57.0985 70.5172 62.1607 65.2597 62.1271 59.2588L36.7057 61.3329Z" fill="#FE9D51"/>
    <path fill-rule="evenodd" clip-rule="evenodd" d="M53.2246 64.516C53.2246 64.1597 53.5135 63.8708 53.8698 63.8708H61.2891C61.6454 63.8708 61.9343 64.1597 61.9343 64.516C61.9343 64.8723 61.6454 65.1612 61.2891 65.1612H53.8698C53.5135 65.1612 53.2246 64.8723 53.2246 64.516Z" fill="#FE9A54"/>
    <path d="M57.9039 49.1934C52.0974 46.9999 49.7856 41.1827 49.3555 38.5482C49.3555 34.9999 53.3877 34.516 63.2264 34.516C73.0651 34.516 79.0329 35.3224 79.5168 37.9031C80.0006 42.4192 78.3877 49.1934 76.1297 50.3224C73.8716 51.4515 65.1619 51.9353 57.9039 49.1934Z" fill="black" stroke="black" stroke-width="0.322581"/>
    <path d="M40.8254 52.2186C45.4849 49.1477 47.9044 43.2259 46.4528 38.2259C45.626 35.3782 41.0866 36.0765 32.5818 37.4194C25.0012 38.6164 19.1947 41.9355 19.8399 44.8388C20.1623 49.5957 23.8318 54.6194 25.9689 55.4839C28.106 56.3484 35.0011 56.0573 40.8254 52.2186Z" fill="black" stroke="black" stroke-width="0.322581"/>
    <path d="M81.1284 23.2257L83.96 30.878L91.6123 33.7096L83.96 36.5412L81.1284 44.1934L78.2968 36.5412L70.6445 33.7096L78.2968 30.878L81.1284 23.2257Z" fill="white"/>
    <defs>
        <linearGradient id="paint0_linear_163_3" x1="50" y1="0" x2="50" y2="100" gradientUnits="userSpaceOnUse">
            <stop stop-color="#F5B745"/>
            <stop offset="1" stop-color="#FC8B47"/>
        </linearGradient>
    </defs>
</svg>
