<svg width="15" height="16" viewBox="0 0 15 16" fill="none" xmlns="http://www.w3.org/2000/svg">
    <path d="M6.23986 4.75282L6.68145 5.15902L6.23986 4.75282ZM8.90991 1.8501L8.46832 1.44391L8.90991 1.8501ZM12.5796 5.23544L13.02 5.64291L12.5796 5.23544ZM10.5595 6.5354C10.3345 6.77864 10.3492 7.15825 10.5924 7.38329C10.8357 7.60833 11.2153 7.59358 11.4403 7.35034L10.5595 6.5354ZM7.1098 8.54289C7.43309 8.61562 7.75412 8.41249 7.82685 8.0892C7.89957 7.76591 7.69645 7.44487 7.37316 7.37215L7.1098 8.54289ZM6.68145 5.15902L9.35151 2.2563L8.46832 1.44391L5.79827 4.34663L6.68145 5.15902ZM12.1392 4.82797L10.5595 6.5354L11.4403 7.35034L13.02 5.64291L12.1392 4.82797ZM5.79827 4.34663C4.47589 5.78423 5.20411 8.1142 7.1098 8.54289L7.37316 7.37215C6.36809 7.14606 5.98402 5.91722 6.68145 5.15902L5.79827 4.34663ZM12.0407 2.15339C12.8044 2.86571 12.8484 4.06141 12.1392 4.82797L13.02 5.64291C14.178 4.39128 14.1061 2.43895 12.8592 1.27587L12.0407 2.15339ZM12.8592 1.27587C11.6025 0.103705 9.63173 0.179124 8.46832 1.44391L9.35151 2.2563C10.064 1.48169 11.2711 1.4355 12.0407 2.15339L12.8592 1.27587Z" fill="white"/>
    <path d="M9.07762 9.82667L8.65362 9.40214L9.07762 9.82667ZM6.27539 12.6254L6.69939 13.0499L6.27539 12.6254ZM2.79882 9.08804L2.3817 8.65675L2.79882 9.08804ZM4.91702 7.87416C5.15522 7.6438 5.16157 7.26395 4.9312 7.02575C4.70084 6.78756 4.32099 6.78121 4.08279 7.01158L4.91702 7.87416ZM8.36892 6.00317C8.049 5.91682 7.71965 6.10617 7.6333 6.42609C7.54696 6.74602 7.73631 7.07536 8.05623 7.16171L8.36892 6.00317ZM8.65362 9.40214L5.85139 12.2009L6.69939 13.0499L9.50162 10.2512L8.65362 9.40214ZM3.21594 9.51934L4.91702 7.87416L4.08279 7.01158L2.3817 8.65675L3.21594 9.51934ZM9.50162 10.2512C10.8837 8.87086 10.2547 6.51215 8.36892 6.00317L8.05623 7.16171C9.05082 7.43015 9.38252 8.67414 8.65362 9.40214L9.50162 10.2512ZM3.18351 12.1899C2.45021 11.4454 2.46477 10.2458 3.21594 9.51934L2.3817 8.65675C1.15107 9.84693 1.1272 11.8123 2.32858 13.032L3.18351 12.1899ZM2.32858 13.032C3.52811 14.2499 5.48992 14.2579 6.69939 13.0499L5.85139 12.2009C5.11315 12.9382 3.91568 12.9333 3.18351 12.1899L2.32858 13.032Z" fill="white"/>
</svg>
