<svg width="14" height="14" viewBox="0 0 14 14" fill="none" xmlns="http://www.w3.org/2000/svg">
    <rect x="0.5" y="0.5" width="13" height="13" rx="2.5" stroke="#636ACC"/>
    <path d="M4.04084 4.176C3.42484 4.176 2.92084 4.312 2.52084 4.592C2.08884 4.88 1.88084 5.28 1.88084 5.784C1.88084 6.288 2.09684 6.672 2.53684 6.936C2.70484 7.032 3.14484 7.192 3.84884 7.416C4.48084 7.608 4.84884 7.736 4.96084 7.792C5.31284 7.968 5.49684 8.208 5.49684 8.512C5.49684 8.752 5.36884 8.936 5.12884 9.08C4.88884 9.216 4.55284 9.288 4.13684 9.288C3.66484 9.288 3.32084 9.2 3.09684 9.04C2.84884 8.856 2.69684 8.544 2.63284 8.112H1.70484C1.74484 8.84 2.00884 9.368 2.48884 9.704C2.88084 9.976 3.43284 10.112 4.13684 10.112C4.86484 10.112 5.43284 9.96 5.83284 9.672C6.23284 9.376 6.43284 8.968 6.43284 8.456C6.43284 7.928 6.18484 7.52 5.68884 7.224C5.46484 7.096 4.96884 6.904 4.19284 6.664C3.66484 6.496 3.33684 6.376 3.21684 6.312C2.94484 6.168 2.81684 5.968 2.81684 5.728C2.81684 5.456 2.92884 5.256 3.16884 5.136C3.36084 5.032 3.63284 4.984 3.99284 4.984C4.40884 4.984 4.72884 5.056 4.93684 5.216C5.14484 5.368 5.29684 5.624 5.37684 5.976H6.30484C6.24884 5.352 6.01684 4.888 5.61684 4.592C5.24084 4.312 4.71284 4.176 4.04084 4.176ZM9.71578 4.176C8.80378 4.176 8.10778 4.472 7.62778 5.08C7.20378 5.608 6.99578 6.304 6.99578 7.152C6.99578 8.016 7.19578 8.704 7.60378 9.216C8.06778 9.808 8.77978 10.112 9.73178 10.112C10.3478 10.112 10.8758 9.936 11.3158 9.584C11.7878 9.208 12.0838 8.688 12.2118 8.016H11.2998C11.1878 8.448 10.9958 8.776 10.7238 8.992C10.4678 9.184 10.1318 9.288 9.72378 9.288C9.09978 9.288 8.63578 9.088 8.33978 8.704C8.06778 8.344 7.93178 7.824 7.93178 7.152C7.93178 6.496 8.06778 5.984 8.34778 5.616C8.65178 5.2 9.09978 5 9.69978 5C10.0998 5 10.4278 5.08 10.6838 5.256C10.9478 5.432 11.1238 5.704 11.2198 6.08H12.1318C12.0438 5.504 11.7958 5.04 11.3798 4.704C10.9478 4.352 10.3878 4.176 9.71578 4.176Z" fill="#636ACC"/>
</svg>
