<svg width="14" height="14" viewBox="0 0 14 14" fill="none" xmlns="http://www.w3.org/2000/svg">
    <circle cx="7" cy="7" r="7" fill="#DB705C"/>
    <path fill-rule="evenodd" clip-rule="evenodd" d="M6.12549 3.98148C6.06696 3.46052 6.47461 3.00452 6.99884 3.00452C7.5241 3.00452 7.93207 3.46223 7.8719 3.98403L7.44717 7.66753H6.53958L6.12549 3.98148ZM6.9932 8.99999C7.29252 8.99999 7.53288 9.09323 7.71429 9.27971C7.90476 9.45687 8 9.69463 8 9.993C8 10.282 7.90476 10.5245 7.71429 10.7203C7.50567 10.9068 7.26531 11 6.9932 11C6.72109 11 6.4898 10.9021 6.29932 10.7063C6.09977 10.5105 6 10.2727 6 9.993C6 9.69463 6.09977 9.45687 6.29932 9.27971C6.48073 9.09323 6.71202 8.99999 6.9932 8.99999Z" fill="white"/>
</svg>
