<svg width="12" height="15" viewBox="0 0 12 15" fill="none" xmlns="http://www.w3.org/2000/svg">
    <path d="M4.24791 15C4.24791 15 -2.11077 13.5367 0.731265 6.2745C0.731265 6.2745 1.37649 7.0815 1.28777 7.46981C1.28777 7.46981 1.79355 5.63681 2.88524 4.54181C3.8226 3.60094 4.77502 0.955875 3.89662 0C3.89662 0 8.2474 0.955875 8.73168 5.73712C8.73168 5.73712 9.28818 4.21369 10.4308 4.06313C10.4308 4.06313 10.0795 4.90013 10.4308 6.15563C10.4308 6.15563 14.0347 12.6094 7.82371 14.7907C7.82371 14.7907 9.68553 12.5792 5.73712 8.784C5.73712 8.784 4.80621 10.8165 4.24953 11.5328C4.24791 11.5346 2.6949 13.356 4.24791 15Z" fill="#DB705C"/>
</svg>
