<?xml version="1.0" encoding="UTF-8"?>
<svg width="16px" height="16px" viewBox="0 0 16 16" version="1.1" xmlns="http://www.w3.org/2000/svg" xmlns:xlink="http://www.w3.org/1999/xlink">
    <!-- Generator: Sketch 63.1 (92452) - https://sketch.com -->
    <title>上传</title>
    <desc>Created with Sketch.</desc>
    <g id="V3.8" stroke="none" stroke-width="1" fill="none" fill-rule="evenodd">
        <g id="keystore导入-导入成功" transform="translate(-268.000000, -71.000000)" fill="#FFFFFF" fill-rule="nonzero">
            <g id="Oval-+-Oval-Copy-蒙版">
                <g id="上传" transform="translate(268.000000, 71.000000)">
                    <polygon id="路径" fill-opacity="0.2" points="3.44017094 8.87882503 12.0555556 8.87882503 12.0555556 12.740894 3.44017094 12.740894"></polygon>
                    <path d="M15.6111111,15.3785441 C5.33950617,15.3785441 0.203703704,15.3785441 0.203703704,15.3785441 L0.203703704,5.90360153 C0.203703704,5.90360153 1.93636346,5.90360153 5.40168296,5.90360153 L5.40168296,6.87823276 L1.24885506,6.87823276 L1.24885506,14.3442888 L14.5085533,14.3442888 L14.5085533,6.87823276 L10.4110593,6.87823276 L10.4110593,5.90360153 C13.6746497,5.90360153 15.4080003,5.90360153 15.6111111,5.90360153 L15.6111111,15.3785441 Z" id="路径"></path>
                    <path d="M7.99495987,0.521417026 L5.29175647,3.62062231 C5.29175647,3.62062231 6.22092292,4.65408467 6.22092292,4.65408467 L7.35185615,3.3680225 L7.35185615,10.3174039 C7.48366583,10.3174039 7.8850586,10.3232226 8.55603448,10.3348599 L8.55603448,3.3680225 L9.59389189,4.65408467 C9.59389189,4.65408467 10.5981277,3.75558998 10.5981277,3.75558998 C10.5981277,3.75558998 8.08304377,0.567239062 7.99495987,0.521417026 Z" id="路径"></path>
                </g>
            </g>
        </g>
    </g>
</svg>