<svg width="36" height="36" viewBox="0 0 36 36" fill="none" xmlns="http://www.w3.org/2000/svg">
    <path d="M18 35C8.61116 35 1 27.3888 1 18C1 8.61116 8.61116 1 18 1C27.3888 1 35 8.61116 35 18C35 27.3888 27.3888 35 18 35Z" stroke="#D84B79" stroke-width="2"/>
    <path fill-rule="evenodd" clip-rule="evenodd" d="M16.371 22.5L15.75 9H19.125L18.504 22.5H16.371ZM16.2551 25.222C16.5765 24.8916 16.9668 24.75 17.426 24.75C17.9082 24.75 18.3214 24.8916 18.6429 25.222C18.9643 25.5288 19.125 25.9301 19.125 26.4257C19.125 26.9213 18.9643 27.3226 18.6429 27.653C18.2985 27.9598 17.8852 28.125 17.426 28.125C16.9668 28.125 16.5765 27.9598 16.2551 27.6294C15.9107 27.299 15.75 26.8977 15.75 26.4257C15.75 25.9301 15.9107 25.5288 16.2551 25.222Z" fill="#D84B79"/>
</svg>
