<svg width="16" height="16" viewBox="0 0 16 16" fill="none" xmlns="http://www.w3.org/2000/svg">
    <path d="M14.4546 8.25C14.4546 8.08585 14.4223 7.9233 14.3594 7.77165C14.2966 7.61999 14.2045 7.48219 14.0885 7.36612C13.9724 7.25004 13.8346 7.15797 13.6829 7.09515C13.5313 7.03233 13.3687 7 13.2046 7C13.0404 7 12.8779 7.03233 12.7262 7.09515C12.5746 7.15797 12.4368 7.25004 12.3207 7.36612C12.2046 7.48219 12.1126 7.61999 12.0497 7.77165C11.9869 7.9233 11.9546 8.08585 11.9546 8.25C11.9546 8.58152 12.0863 8.89946 12.3207 9.13388C12.5551 9.3683 12.8731 9.5 13.2046 9.5C13.5361 9.5 13.8541 9.3683 14.0885 9.13388C14.3229 8.89946 14.4546 8.58152 14.4546 8.25Z" fill="#B9B9BF"/>
    <path d="M9.5 8.25C9.5 8.08585 9.46767 7.9233 9.40485 7.77165C9.34203 7.61999 9.24996 7.48219 9.13388 7.36612C9.01781 7.25004 8.88001 7.15797 8.72835 7.09515C8.5767 7.03233 8.41415 7 8.25 7C8.08585 7 7.9233 7.03233 7.77165 7.09515C7.61999 7.15797 7.48219 7.25004 7.36612 7.36612C7.25004 7.48219 7.15797 7.61999 7.09515 7.77165C7.03233 7.9233 7 8.08585 7 8.25C7 8.58152 7.1317 8.89946 7.36612 9.13388C7.60054 9.3683 7.91848 9.5 8.25 9.5C8.58152 9.5 8.89946 9.3683 9.13388 9.13388C9.3683 8.89946 9.5 8.58152 9.5 8.25Z" fill="#B9B9BF"/>
    <path d="M4.5 8.25C4.5 7.91848 4.3683 7.60054 4.13388 7.36612C3.89946 7.1317 3.58152 7 3.25 7C2.91848 7 2.60054 7.1317 2.36612 7.36612C2.1317 7.60054 2 7.91848 2 8.25C2 8.58152 2.1317 8.89946 2.36612 9.13388C2.60054 9.3683 2.91848 9.5 3.25 9.5C3.58152 9.5 3.89946 9.3683 4.13388 9.13388C4.3683 8.89946 4.5 8.58152 4.5 8.25Z" fill="#B9B9BF"/>
</svg>
