<svg width="18" height="18" viewBox="0 0 18 18" fill="none" xmlns="http://www.w3.org/2000/svg">
    <circle opacity="0.1" cx="9" cy="9" r="8.5" stroke="#021C31"/>
    <g opacity="0.9">
        <rect x="4.5" y="5" width="9" height="1.15057" fill="#505160"/>
        <rect x="4.5" y="8.43128" width="4.5" height="1.14376" fill="#505160"/>
        <rect x="4.52393" y="11.8626" width="4.3191" height="1.19142" fill="#505160"/>
        <path d="M10.5546 11.2667C10.883 11.5557 11.3048 11.73 11.7508 11.761C11.9991 11.761 12.2812 11.6643 12.2812 11.3849C12.2812 10.8475 10.0242 10.8046 10.0242 9.36451C10.027 9.01145 10.165 8.67151 10.4122 8.40839C10.6595 8.14527 10.999 7.97703 11.3671 7.93519V7.30114H12.1345V7.9137C12.6111 7.95491 13.0617 8.13931 13.421 8.44029L12.9019 9.39675C12.5853 9.14117 12.1881 8.99365 11.7734 8.97762C11.5251 8.97762 11.243 9.08509 11.243 9.35376C11.243 9.92333 13.5 9.88035 13.5 11.3634C13.499 11.729 13.3551 12.0811 13.0964 12.3513C12.8378 12.6214 12.4828 12.7903 12.1007 12.8249V13.4375H11.3333V12.782C10.7948 12.713 10.2931 12.4835 9.90002 12.1264L10.5546 11.2667Z" fill="#505160"/>
    </g>
</svg>
