<svg width="50" height="50" viewBox="0 0 50 50" fill="none" xmlns="http://www.w3.org/2000/svg">
    <circle cx="25" cy="25" r="25" fill="#636ACC"/>
    <path fill-rule="evenodd" clip-rule="evenodd" d="M28.3723 21.718C28.0858 21.6842 27.7946 21.6666 27.5 21.6666H22.5C18.3571 21.6666 15 25.0984 15 29.3333C15 33.5682 18.3571 37 22.5 37H27.5C31.6429 37 35 33.5682 35 29.3333C35 26.0585 32.9929 23.2629 30.1657 22.1664L28.3723 21.718ZM32.0464 33.9808C30.8321 35.222 29.2179 35.9047 27.5 35.9047H22.5C20.7821 35.9047 19.1679 35.222 17.9536 33.9808C16.7393 32.7395 16.0714 31.0893 16.0714 29.3333C16.0714 27.5773 16.7393 25.9271 17.9536 24.6858C19.1679 23.4446 20.7821 22.7619 22.5 22.7619H27.5C29.2179 22.7619 30.8321 23.4446 32.0464 24.6858C33.2607 25.9271 33.9286 27.5773 33.9286 29.3333C33.9286 31.0893 33.2607 32.7395 32.0464 33.9808ZM25 31C24.4467 31 24 30.799 24 30.55V28.45C24 28.201 24.4467 28 25 28C25.5533 28 26 28.201 26 28.45V30.55C26 30.799 25.5533 31 25 31Z" fill="white"/>
    <path d="M28.3723 21.718L28.4936 21.233L28.4626 21.2252L28.431 21.2215L28.3723 21.718ZM30.1657 22.1664L30.3465 21.7002L30.3173 21.6889L30.2869 21.6813L30.1657 22.1664ZM32.0464 33.9808L32.4038 34.3304L32.4038 34.3304L32.0464 33.9808ZM17.9536 33.9808L18.311 33.6311V33.6311L17.9536 33.9808ZM17.9536 24.6858L18.311 25.0355L17.9536 24.6858ZM32.0464 24.6858L32.4038 24.3362L32.4038 24.3362L32.0464 24.6858ZM27.5 22.1666C27.7747 22.1666 28.0463 22.183 28.3136 22.2146L28.431 21.2215C28.1252 21.1853 27.8145 21.1666 27.5 21.1666V22.1666ZM22.5 22.1666H27.5V21.1666H22.5V22.1666ZM15.5 29.3333C15.5 25.3641 18.6436 22.1666 22.5 22.1666V21.1666C18.0707 21.1666 14.5 24.8326 14.5 29.3333H15.5ZM22.5 36.5C18.6436 36.5 15.5 33.3025 15.5 29.3333H14.5C14.5 33.8339 18.0707 37.5 22.5 37.5V36.5ZM27.5 36.5H22.5V37.5H27.5V36.5ZM34.5 29.3333C34.5 33.3025 31.3564 36.5 27.5 36.5V37.5C31.9293 37.5 35.5 33.8339 35.5 29.3333H34.5ZM29.9849 22.6325C32.6207 23.6548 34.5 26.266 34.5 29.3333H35.5C35.5 25.851 33.3651 22.871 30.3465 21.7002L29.9849 22.6325ZM30.2869 21.6813L28.4936 21.233L28.251 22.2031L30.0444 22.6514L30.2869 21.6813ZM27.5 36.4047C29.3539 36.4047 31.0965 35.6667 32.4038 34.3304L31.689 33.6311C30.5677 34.7773 29.0818 35.4047 27.5 35.4047V36.4047ZM22.5 36.4047H27.5V35.4047H22.5V36.4047ZM17.5962 34.3304C18.9035 35.6667 20.6461 36.4047 22.5 36.4047V35.4047C20.9182 35.4047 19.4323 34.7773 18.311 33.6311L17.5962 34.3304ZM15.5714 29.3333C15.5714 31.2182 16.2892 32.9944 17.5962 34.3304L18.311 33.6311C17.1893 32.4845 16.5714 30.9604 16.5714 29.3333H15.5714ZM17.5962 24.3362C16.2892 25.6722 15.5714 27.4483 15.5714 29.3333H16.5714C16.5714 27.7062 17.1893 26.1821 18.311 25.0355L17.5962 24.3362ZM22.5 22.2619C20.6461 22.2619 18.9035 22.9998 17.5962 24.3362L18.311 25.0355C19.4323 23.8893 20.9182 23.2619 22.5 23.2619V22.2619ZM27.5 22.2619H22.5V23.2619H27.5V22.2619ZM32.4038 24.3362C31.0965 22.9998 29.3539 22.2619 27.5 22.2619V23.2619C29.0818 23.2619 30.5677 23.8893 31.689 25.0355L32.4038 24.3362ZM34.4286 29.3333C34.4286 27.4483 33.7108 25.6722 32.4038 24.3362L31.689 25.0355C32.8107 26.1821 33.4286 27.7062 33.4286 29.3333H34.4286ZM32.4038 34.3304C33.7108 32.9944 34.4286 31.2182 34.4286 29.3333H33.4286C33.4286 30.9604 32.8107 32.4845 31.689 33.6311L32.4038 34.3304ZM23.5 30.55C23.5 30.9932 23.8743 31.2284 24.0873 31.3243C24.3466 31.441 24.6697 31.5 25 31.5V30.5C24.777 30.5 24.6001 30.4585 24.4977 30.4124C24.446 30.3891 24.4348 30.3744 24.4431 30.3832C24.4541 30.3949 24.5 30.4523 24.5 30.55H23.5ZM23.5 28.45V30.55H24.5V28.45H23.5ZM25 27.5C24.6697 27.5 24.3466 27.559 24.0873 27.6756C23.8743 27.7715 23.5 28.0067 23.5 28.45H24.5C24.5 28.5477 24.4541 28.605 24.4431 28.6167C24.4348 28.6255 24.446 28.6108 24.4977 28.5875C24.6001 28.5415 24.777 28.5 25 28.5V27.5ZM26.5 28.45C26.5 28.0067 26.1257 27.7715 25.9127 27.6756C25.6534 27.559 25.3303 27.5 25 27.5V28.5C25.223 28.5 25.3999 28.5415 25.5023 28.5875C25.554 28.6108 25.5652 28.6255 25.5569 28.6167C25.5459 28.605 25.5 28.5477 25.5 28.45H26.5ZM26.5 30.55V28.45H25.5V30.55H26.5ZM25 31.5C25.3303 31.5 25.6534 31.441 25.9127 31.3243C26.1257 31.2284 26.5 30.9932 26.5 30.55H25.5C25.5 30.4523 25.5459 30.3949 25.5569 30.3832C25.5652 30.3744 25.554 30.3891 25.5023 30.4124C25.3999 30.4585 25.223 30.5 25 30.5V31.5Z" fill="white"/>
    <path d="M27 18.9286V22.0427L28.0714 21.7725V18.9286C28.0714 17.9063 28.4643 16.9425 29.1714 16.2197C29.8785 15.4932 30.8178 15.0952 31.8214 15.0952C33.8893 15.0952 35.5714 16.8148 35.5714 18.9286V18.9468C35.5714 19.2498 35.8107 19.4944 36.1071 19.4944C36.4035 19.4944 36.6428 19.2498 36.6428 18.9468V18.9286C36.6428 16.2124 34.4785 14 31.8214 14C30.5321 14 29.3214 14.5111 28.4107 15.4421C27.5 16.373 27 17.6106 27 18.9286Z" fill="white"/>
    <path d="M27 22.0427L27.1222 22.5275L26.5 22.6844V22.0427H27ZM28.4107 15.4421L28.7681 15.7917L28.4107 15.4421ZM29.1714 16.2197L29.5297 16.5684L29.5288 16.5693L29.1714 16.2197ZM28.0714 21.7725H28.5714V22.1621L28.1936 22.2574L28.0714 21.7725ZM26.5 22.0427V18.9286H27.5V22.0427H26.5ZM26.5 18.9286C26.5 17.482 27.0497 16.1183 28.0533 15.0924L28.7681 15.7917C27.9502 16.6278 27.5 17.7393 27.5 18.9286H26.5ZM28.0533 15.0924C29.0572 14.0662 30.3964 13.5 31.8214 13.5V14.5C30.6678 14.5 29.5856 14.956 28.7681 15.7917L28.0533 15.0924ZM31.8214 13.5C34.765 13.5 37.1428 15.9467 37.1428 18.9286H36.1428C36.1428 16.4781 34.1921 14.5 31.8214 14.5V13.5ZM37.1428 18.9286V18.9468H36.1428V18.9286H37.1428ZM37.1428 18.9468C37.1428 19.5156 36.69 19.9944 36.1071 19.9944V18.9944C36.1143 18.9944 36.1212 18.9923 36.1287 18.9846C36.1364 18.9767 36.1428 18.9645 36.1428 18.9468H37.1428ZM36.1071 19.9944C35.5242 19.9944 35.0714 19.5156 35.0714 18.9468H36.0714C36.0714 18.9645 36.0778 18.9767 36.0855 18.9846C36.093 18.9923 36.1 18.9944 36.1071 18.9944V19.9944ZM35.0714 18.9468V18.9286H36.0714V18.9468H35.0714ZM35.0714 18.9286C35.0714 17.0805 33.6028 15.5952 31.8214 15.5952V14.5952C34.1757 14.5952 36.0714 16.549 36.0714 18.9286H35.0714ZM31.8214 15.5952C30.954 15.5952 30.1436 15.9377 29.5297 16.5684L28.8131 15.8709C29.6135 15.0486 30.6816 14.5952 31.8214 14.5952V15.5952ZM29.5288 16.5693C28.9136 17.1982 28.5714 18.0362 28.5714 18.9286H27.5714C27.5714 17.7765 28.0149 16.6869 28.814 15.87L29.5288 16.5693ZM28.5714 18.9286V21.7725H27.5714V18.9286H28.5714ZM28.1936 22.2574L27.1222 22.5275L26.8777 21.5579L27.9491 21.2877L28.1936 22.2574Z" fill="white"/>
</svg>
