<svg width="16" height="16" viewBox="0 0 16 16" fill="none" xmlns="http://www.w3.org/2000/svg">
<circle cx="8" cy="8" r="8" fill="#405162"/>
<path d="M6.52179 11.5C6.34192 11.4944 6.17122 11.4186 6.04559 11.2885L3.20274 8.43357C3.07268 8.29741 3 8.11564 3 7.92651C3 7.73737 3.07268 7.5556 3.20274 7.41944C3.26824 7.35288 3.34614 7.30006 3.43195 7.26402C3.51777 7.22797 3.60979 7.20942 3.70274 7.20942C3.79569 7.20942 3.88771 7.22797 3.97352 7.26402C4.05934 7.30006 4.13724 7.35288 4.20274 7.41944L6.52179 9.77453L12.4456 4.54046C12.5103 4.47346 12.5877 4.42021 12.6732 4.38386C12.7587 4.34751 12.8505 4.32878 12.9432 4.32878C13.0359 4.32878 13.1277 4.34751 13.2132 4.38386C13.2987 4.42021 13.3761 4.47346 13.4408 4.54046C13.5068 4.60657 13.5591 4.6852 13.5948 4.77181C13.6305 4.85842 13.6489 4.95131 13.6489 5.04512C13.6489 5.13893 13.6305 5.23182 13.5948 5.31843C13.5591 5.40504 13.5068 5.48367 13.4408 5.54978L7.02179 11.2885C6.88943 11.423 6.70962 11.4991 6.52179 11.5Z" fill="white"/>
</svg>
