<svg width="14" height="14" viewBox="0 0 14 14" fill="none" xmlns="http://www.w3.org/2000/svg">
    <circle cx="7" cy="7" r="7" fill="#C4C4CD"/>
    <path fill-rule="evenodd" clip-rule="evenodd" d="M5.12324 3.70041C5.65192 3.20144 6.38504 2.94849 7.12784 3.00876C7.78434 2.97833 8.42842 3.18623 8.92931 3.59023C9.39727 3.98814 9.6519 4.56474 9.62274 5.16048C9.64246 5.64082 9.48964 6.11327 9.18935 6.50033C8.8829 6.80263 8.55879 7.08833 8.21855 7.35608C8.01773 7.51309 7.85259 7.70718 7.73315 7.92658C7.60728 8.14896 7.54361 8.39827 7.54823 8.65068V8.83719H6.31017V8.65068C6.29528 8.29002 6.37469 7.93147 6.54131 7.60705C6.89013 7.08634 7.32981 6.62582 7.8415 6.24525L8.03797 6.0368C8.23918 5.81284 8.3534 5.53015 8.36157 5.2359C8.37948 4.90576 8.25898 4.58232 8.02641 4.33627C7.759 4.10547 7.40483 3.9868 7.04405 4.00713C6.60569 3.96855 6.17725 4.14678 5.91 4.47889C5.68131 4.8106 5.57184 5.20366 5.59796 5.59932H4.38301C4.32384 4.89385 4.59455 4.19938 5.12324 3.70041ZM6.31886 9.65042C6.47923 9.50247 6.69636 9.4232 6.91983 9.431C7.1471 9.42113 7.36863 9.50048 7.53236 9.65042C7.69493 9.79468 7.78349 9.99885 7.77507 10.2099C7.77703 10.4253 7.68499 10.6318 7.52081 10.7805C7.35759 10.9241 7.14241 11.0027 6.91983 10.9999C6.69488 11.0037 6.47797 10.9205 6.31886 10.7695C6.16013 10.6227 6.0723 10.4203 6.07616 10.2099C6.06774 9.99885 6.1563 9.79468 6.31886 9.65042Z" fill="white"/>
    <path d="M7.12784 3.00876L7.12376 3.059L7.13016 3.0587L7.12784 3.00876ZM5.12324 3.70041L5.15755 3.73677L5.12324 3.70041ZM8.92931 3.59023L8.96171 3.55213L8.9607 3.55131L8.92931 3.59023ZM9.62274 5.16048L9.5726 5.15802L9.57279 5.16253L9.62274 5.16048ZM9.18935 6.50033L9.22477 6.53624L9.22886 6.53098L9.18935 6.50033ZM8.21855 7.35608L8.24934 7.39547L8.24947 7.39537L8.21855 7.35608ZM7.73315 7.92658L7.77667 7.95121L7.77706 7.95049L7.73315 7.92658ZM7.54823 8.65068H7.59824L7.59822 8.64976L7.54823 8.65068ZM7.54823 8.83719V8.88719H7.59823V8.83719H7.54823ZM6.31017 8.83719H6.26017V8.88719H6.31017V8.83719ZM6.31017 8.65068H6.36021L6.36013 8.64861L6.31017 8.65068ZM6.54131 7.60705L6.49949 7.57903L6.49684 7.5842L6.54131 7.60705ZM7.8415 6.24525L7.8718 6.286L7.87788 6.27954L7.8415 6.24525ZM8.03797 6.0368L8.07436 6.0711L8.07516 6.07021L8.03797 6.0368ZM8.36157 5.2359L8.31162 5.23319L8.31159 5.23452L8.36157 5.2359ZM8.02641 4.33627L8.06293 4.30174L8.05908 4.29842L8.02641 4.33627ZM7.04405 4.00713L7.03962 4.05746L7.04686 4.05705L7.04405 4.00713ZM5.91 4.47889L5.87094 4.44746L5.86884 4.45051L5.91 4.47889ZM5.59796 5.59932V5.64932H5.65137L5.64785 5.59603L5.59796 5.59932ZM4.38301 5.59932L4.33319 5.6035L4.33703 5.64932H4.38301V5.59932ZM6.91983 9.431L6.91808 9.48112L6.922 9.48095L6.91983 9.431ZM6.31886 9.65042L6.35206 9.68783L6.35277 9.68717L6.31886 9.65042ZM7.53236 9.65042L7.49859 9.6873L7.49918 9.68782L7.53236 9.65042ZM7.77507 10.2099L7.72504 10.208L7.72507 10.2104L7.77507 10.2099ZM7.52081 10.7805L7.55385 10.818L7.55436 10.8175L7.52081 10.7805ZM6.91983 10.9999L6.92047 10.9499L6.919 10.9499L6.91983 10.9999ZM6.31886 10.7695L6.35329 10.7332L6.3528 10.7328L6.31886 10.7695ZM6.07616 10.2099L6.12624 10.2109L6.12612 10.208L6.07616 10.2099ZM7.13188 2.95892C6.37537 2.89754 5.62819 3.15508 5.08892 3.66405L5.15755 3.73677C5.67564 3.2478 6.39471 2.99944 7.1238 3.05859L7.13188 2.95892ZM8.9607 3.55131C8.45008 3.13946 7.79394 2.92783 7.12553 2.95881L7.13016 3.0587C7.77473 3.02883 8.40676 3.23299 8.89792 3.62915L8.9607 3.55131ZM9.67268 5.16292C9.70263 4.55114 9.44107 3.95975 8.9617 3.55214L8.89692 3.62832C9.35347 4.01652 9.60118 4.57833 9.5728 5.15803L9.67268 5.16292ZM9.22886 6.53098C9.53623 6.13479 9.69291 5.6508 9.6727 5.15843L9.57279 5.16253C9.59201 5.63084 9.44305 6.09175 9.14985 6.46968L9.22886 6.53098ZM8.24947 7.39537C8.59116 7.12647 8.91668 6.83954 9.22446 6.53593L9.15424 6.46473C8.84912 6.76571 8.52641 7.05018 8.18763 7.31679L8.24947 7.39537ZM7.77706 7.95049C7.89317 7.73721 8.0538 7.54836 8.24934 7.39547L8.18775 7.31669C7.98166 7.47782 7.81201 7.67714 7.68923 7.90267L7.77706 7.95049ZM7.59822 8.64976C7.59377 8.40641 7.65514 8.1659 7.77666 7.95121L7.68963 7.90195C7.55942 8.13201 7.49345 8.39013 7.49824 8.65159L7.59822 8.64976ZM7.59823 8.83719V8.65068H7.49823V8.83719H7.59823ZM6.31017 8.88719H7.54823V8.78719H6.31017V8.88719ZM6.26017 8.65068V8.83719H6.36017V8.65068H6.26017ZM6.49684 7.5842C6.32631 7.91623 6.24496 8.28335 6.26021 8.65274L6.36013 8.64861C6.3456 8.29669 6.42307 7.94671 6.58579 7.62989L6.49684 7.5842ZM7.81166 6.20513C7.29547 6.58904 6.85181 7.05369 6.49977 7.57922L6.58285 7.63487C6.92844 7.11898 7.36414 6.6626 7.87133 6.28537L7.81166 6.20513ZM8.00158 6.0025L7.80511 6.21096L7.87788 6.27954L8.07435 6.07109L8.00158 6.0025ZM8.31159 5.23452C8.30376 5.51662 8.19426 5.78803 8.00077 6.00338L8.07516 6.07021C8.2841 5.83766 8.40305 5.54369 8.41155 5.23729L8.31159 5.23452ZM7.99007 4.37061C8.21348 4.60697 8.32879 4.91711 8.31164 5.23319L8.41149 5.23861C8.43017 4.89441 8.30448 4.55766 8.06275 4.30192L7.99007 4.37061ZM7.04686 4.05705C7.39503 4.03744 7.73639 4.152 7.99374 4.37412L8.05908 4.29842C7.7816 4.05893 7.41463 3.93617 7.04124 3.95721L7.04686 4.05705ZM5.94896 4.51024C6.20534 4.19162 6.61728 4.01976 7.03967 4.05694L7.04843 3.95733C6.59409 3.91733 6.14915 4.10194 5.87105 4.44755L5.94896 4.51024ZM5.64785 5.59603C5.62249 5.2118 5.72876 4.82987 5.95117 4.50727L5.86884 4.45051C5.63387 4.79133 5.5212 5.19552 5.54807 5.60262L5.64785 5.59603ZM4.38301 5.64932H5.59796V5.54932H4.38301V5.64932ZM5.08892 3.66405C4.54951 4.17314 4.2727 4.88239 4.33319 5.6035L4.43284 5.59514C4.37498 4.90531 4.6396 4.22562 5.15755 3.73677L5.08892 3.66405ZM6.92158 9.38103C6.68531 9.37278 6.45528 9.45655 6.28496 9.61367L6.35277 9.68717C6.50319 9.54839 6.70741 9.47361 6.91809 9.48097L6.92158 9.38103ZM7.56613 9.61355C7.39235 9.45442 7.1578 9.37062 6.91767 9.38104L6.922 9.48095C7.1364 9.47164 7.3449 9.54655 7.4986 9.6873L7.56613 9.61355ZM7.82503 10.2119C7.83407 9.98537 7.73896 9.76691 7.56555 9.61302L7.49918 9.68782C7.6509 9.82246 7.73291 10.0123 7.72511 10.208L7.82503 10.2119ZM7.55436 10.8175C7.7288 10.6596 7.82717 10.4396 7.82506 10.2095L7.72507 10.2104C7.7269 10.411 7.64119 10.604 7.48725 10.7434L7.55436 10.8175ZM6.9192 11.0499C7.15383 11.0528 7.3811 10.9701 7.55385 10.818L7.48777 10.7429C7.33409 10.8782 7.13098 10.9525 6.92047 10.9499L6.9192 11.0499ZM6.28444 10.8057C6.45331 10.966 6.683 11.0539 6.92067 11.0499L6.919 10.9499C6.70676 10.9534 6.50262 10.875 6.35328 10.7332L6.28444 10.8057ZM6.02617 10.209C6.02204 10.434 6.11605 10.6501 6.28492 10.8062L6.3528 10.7328C6.20421 10.5954 6.12256 10.4065 6.12615 10.2109L6.02617 10.209ZM6.28567 9.61302C6.11227 9.76691 6.01716 9.98537 6.0262 10.2119L6.12612 10.208C6.11832 10.0123 6.20033 9.82246 6.35205 9.68782L6.28567 9.61302Z" fill="white"/>
</svg>
