<svg width="14" height="14" viewBox="0 0 14 14" fill="none" xmlns="http://www.w3.org/2000/svg">
    <circle cx="7" cy="7" r="7" fill="#EEB023"/>
    <path fill-rule="evenodd" clip-rule="evenodd" d="M6.12546 3.98151C6.06694 3.46055 6.47459 3.00455 6.99882 3.00455C7.52408 3.00455 7.93205 3.46226 7.87188 3.98406L7.44714 7.66756H6.53956L6.12546 3.98151ZM6.9932 9C7.29252 9 7.53288 9.09324 7.71429 9.27972C7.90476 9.45688 8 9.69464 8 9.99301C8 10.2821 7.90476 10.5245 7.71429 10.7203C7.50567 10.9068 7.26531 11 6.9932 11C6.72109 11 6.4898 10.9021 6.29932 10.7063C6.09977 10.5105 6 10.2727 6 9.99301C6 9.69464 6.09977 9.45688 6.29932 9.27972C6.48073 9.09324 6.71202 9 6.9932 9Z" fill="white"/>
</svg>
