<svg width="16" height="16" viewBox="0 0 16 16" fill="none" xmlns="http://www.w3.org/2000/svg">
    <path fill-rule="evenodd" clip-rule="evenodd" d="M10.9558 5.92938V4.03262V4.02143C10.9558 3.21348 10.6493 2.45476 10.091 1.88405C9.53267 1.31333 8.79045 1 8.00006 1C7.20968 1 6.46746 1.31333 5.90915 1.88405C5.35084 2.45476 5.04432 3.21348 5.04432 4.02143L5.04432 5.92938C3.20498 6.54059 1.87483 8.30468 1.86964 10.3878C1.86963 10.3918 1.86963 10.3959 1.86963 10.4C1.86963 12.9962 3.9277 15.1 6.46745 15.1H9.53267C9.85014 15.1 10.1601 15.0671 10.4594 15.0045C12.5548 14.5664 14.1305 12.6717 14.1305 10.4C14.1305 10.1982 14.1181 9.99939 14.0939 9.8043C13.9597 8.71889 13.4636 7.74885 12.7329 7.02496C12.2357 6.53227 11.6299 6.15339 10.9558 5.92938ZM10.2475 5.75644C10.2647 5.75916 10.2819 5.76199 10.299 5.7649V4.03262V4.02143C10.299 3.98226 10.298 3.94324 10.2962 3.90438C10.2752 3.46834 10.1372 3.05335 9.89893 2.69802C9.81867 2.57834 9.72702 2.46543 9.62463 2.36076C9.59324 2.32851 9.5611 2.29732 9.52826 2.26719C9.12178 1.89679 8.5862 1.67143 8.00006 1.67143C7.41393 1.67143 6.87835 1.89679 6.47187 2.26719C6.43903 2.29732 6.40689 2.32851 6.3755 2.36076C6.2731 2.46543 6.18146 2.57834 6.1012 2.69802C5.84886 3.07517 5.70115 3.53099 5.70115 4.02143V4.03262V5.7649C5.71827 5.76199 5.73543 5.75917 5.75261 5.75644C5.98555 5.71928 6.2243 5.7 6.46745 5.7H9.53267C9.77583 5.7 10.0146 5.71928 10.2475 5.75644ZM12.3198 13.2491C11.5754 14.01 10.5858 14.4286 9.53267 14.4286H6.46745C5.41433 14.4286 4.42471 14.01 3.6803 13.2491C3.58725 13.154 3.49943 13.0549 3.41699 12.9524C2.83993 12.2342 2.52646 11.342 2.52646 10.4C2.52646 9.32348 2.93589 8.31186 3.6803 7.55091C4.42471 6.78995 5.41433 6.37143 6.46745 6.37143H9.53267C9.59849 6.37143 9.66406 6.37306 9.72934 6.37632C10.7085 6.42508 11.6219 6.83751 12.3198 7.55091C13.0642 8.31186 13.4737 9.32348 13.4737 10.4C13.4737 11.4765 13.0642 12.4881 12.3198 13.2491ZM7.38726 11.1568C7.38694 11.1532 7.38679 11.1496 7.38679 11.1459V9.85852C7.38679 9.85486 7.38694 9.85122 7.38726 9.84759V9.21256C7.38726 9.05991 7.66108 8.93669 8.0003 8.93669C8.33952 8.93669 8.61334 9.05991 8.61334 9.21256V11.5C8.61334 11.6526 8.33952 11.7758 8.0003 11.7758C7.66108 11.7758 7.38726 11.6526 7.38726 11.5V11.1568Z" fill="#505160"/>
    <path d="M10.9558 5.92938H10.5558V6.21796L10.8297 6.30897L10.9558 5.92938ZM10.091 1.88405L9.80505 2.16377L9.80505 2.16377L10.091 1.88405ZM5.90915 1.88405L6.19508 2.16377L6.19508 2.16377L5.90915 1.88405ZM5.04432 4.02143L5.44432 4.02143L5.44432 4.02143L5.04432 4.02143ZM5.04432 5.92938L5.17046 6.30897L5.44432 6.21796L5.44432 5.92938L5.04432 5.92938ZM1.86964 10.3878L1.46965 10.3868L1.86964 10.3878ZM10.4594 15.0045L10.5413 15.3961L10.5413 15.3961L10.4594 15.0045ZM14.0939 9.8043L14.4909 9.75521L14.4909 9.75521L14.0939 9.8043ZM12.7329 7.02496L12.4513 7.30908L12.4514 7.30913L12.7329 7.02496ZM10.2475 5.75644L10.1845 6.15144L10.1848 6.15149L10.2475 5.75644ZM10.299 5.7649L10.2318 6.15922L10.699 6.23882V5.7649H10.299ZM10.2962 3.90438L9.89663 3.9236L9.89663 3.9236L10.2962 3.90438ZM9.89893 2.69802L9.56672 2.92081L9.56672 2.92081L9.89893 2.69802ZM9.62463 2.36076L9.33799 2.63976L9.3387 2.64048L9.62463 2.36076ZM9.52826 2.26719L9.79862 1.9724L9.79768 1.97154L9.52826 2.26719ZM6.47187 2.26719L6.20245 1.97154L6.20151 1.9724L6.47187 2.26719ZM6.3755 2.36076L6.66143 2.64048L6.66213 2.63976L6.3755 2.36076ZM6.1012 2.69802L5.76899 2.47522L5.76875 2.47559L6.1012 2.69802ZM5.70115 5.7649H5.30115V6.23882L5.76833 6.15922L5.70115 5.7649ZM5.75261 5.75644L5.81531 6.15149L5.81561 6.15145L5.75261 5.75644ZM12.3198 13.2491L12.6058 13.5288L12.6058 13.5288L12.3198 13.2491ZM3.6803 13.2491L3.39436 13.5288L3.39436 13.5288L3.6803 13.2491ZM3.41699 12.9524L3.10519 13.2029L3.10519 13.2029L3.41699 12.9524ZM3.6803 7.55091L3.39436 7.27119L3.39436 7.27119L3.6803 7.55091ZM9.72934 6.37632L9.74924 5.97681L9.74924 5.97681L9.72934 6.37632ZM12.3198 7.55091L12.6058 7.27119L12.6058 7.27119L12.3198 7.55091ZM7.38726 11.1568H7.78726V11.1396L7.78578 11.1225L7.38726 11.1568ZM7.38726 9.84759L7.78578 9.88192L7.78726 9.86479V9.84759H7.38726ZM10.5558 4.03262V5.92938H11.3558V4.03262H10.5558ZM11.3558 4.03262V4.02143H10.5558V4.03262H11.3558ZM9.80505 2.16377C10.2891 2.65856 10.5558 3.31639 10.5558 4.02143H11.3558C11.3558 3.11057 11.0095 2.25096 10.3769 1.60433L9.80505 2.16377ZM8.00006 1.4C8.68188 1.4 9.32131 1.66928 9.80505 2.16377L10.3769 1.60433C9.74403 0.957385 8.89903 0.6 8.00006 0.6V1.4ZM8.00006 0.6C7.1011 0.6 6.2561 0.957385 5.62321 1.60433L6.19508 2.16377C6.67882 1.66928 7.31825 1.4 8.00006 1.4V0.6ZM5.62321 1.60433C4.99064 2.25096 4.64432 3.11057 4.64432 4.02143L5.44432 4.02143C5.44432 3.31639 5.71104 2.65856 6.19508 2.16377L5.62321 1.60433ZM4.64432 4.02143L4.64432 5.92938L5.44432 5.92938L5.44432 4.02143L4.64432 4.02143ZM2.26964 10.3888C2.2744 8.47787 3.49404 6.86604 5.17046 6.30897L4.91818 5.54979C2.91591 6.21513 1.47526 8.13148 1.46965 10.3868L2.26964 10.3888ZM2.26963 10.4C2.26963 10.3963 2.26963 10.3925 2.26964 10.3888L1.46965 10.3868C1.46963 10.3912 1.46963 10.3956 1.46963 10.4H2.26963ZM6.46745 14.7C4.15686 14.7 2.26963 12.7836 2.26963 10.4H1.46963C1.46963 13.2088 3.69855 15.5 6.46745 15.5V14.7ZM6.46745 15.5H9.53267V14.7H6.46745V15.5ZM10.3775 14.613C10.105 14.67 9.82245 14.7 9.53267 14.7V15.5C9.87783 15.5 10.2152 15.4643 10.5413 15.3961L10.3775 14.613ZM13.7305 10.4C13.7305 12.4845 12.2854 14.214 10.3775 14.613L10.5413 15.3961C12.8241 14.9187 14.5305 12.8589 14.5305 10.4H13.7305ZM13.697 9.85338C13.7191 10.0322 13.7305 10.2147 13.7305 10.4H14.5305C14.5305 10.1818 14.5171 9.96655 14.4909 9.75521L13.697 9.85338ZM12.4514 7.30913C13.1197 7.97118 13.574 8.85894 13.697 9.85338L14.4909 9.75521C14.3455 8.57884 13.8076 7.52653 13.0144 6.74078L12.4514 7.30913ZM13.0144 6.74084C12.4748 6.20605 11.8162 5.79379 11.0819 5.54979L10.8297 6.30897C11.4436 6.51299 11.9966 6.85848 12.4513 7.30908L13.0144 6.74084ZM10.1848 6.15149C10.2005 6.15398 10.2162 6.15656 10.2318 6.15922L10.3662 5.37059C10.3475 5.36741 10.3289 5.36435 10.3102 5.36138L10.1848 6.15149ZM10.699 5.7649V4.03262H9.89898V5.7649H10.699ZM9.89898 4.02143V4.03262H10.699V4.02143H9.89898ZM10.699 4.02143C10.699 3.97586 10.6979 3.93042 10.6957 3.88515L9.89663 3.9236C9.89819 3.95605 9.89898 3.98866 9.89898 4.02143H10.699ZM10.6957 3.88515C10.6712 3.37672 10.5102 2.89129 10.2311 2.47522L9.56672 2.92081C9.76429 3.21541 9.87913 3.55996 9.89663 3.9236L10.6957 3.88515ZM10.2311 2.47522C10.1372 2.3352 10.0301 2.20324 9.91056 2.08104L9.3387 2.64048C9.42395 2.72763 9.5001 2.82148 9.56672 2.92081L10.2311 2.47522ZM9.91127 2.08176C9.87462 2.04412 9.83706 2.00765 9.79862 1.9724L9.2579 2.56199C9.28515 2.58698 9.31186 2.61291 9.33799 2.63976L9.91127 2.08176ZM8.00006 2.07143C8.48135 2.07143 8.92211 2.256 9.25883 2.56285L9.79768 1.97154C9.32146 1.53757 8.69105 1.27143 8.00006 1.27143V2.07143ZM8.00006 1.27143C7.30908 1.27143 6.67867 1.53757 6.20245 1.97154L6.74129 2.56285C7.07802 2.256 7.51878 2.07143 8.00006 2.07143V1.27143ZM6.66213 2.63976C6.68827 2.61291 6.71498 2.58698 6.74223 2.56199L6.20151 1.9724C6.16307 2.00765 6.12551 2.04412 6.08886 2.08176L6.66213 2.63976ZM6.43341 2.92081C6.50003 2.82148 6.57618 2.72762 6.66143 2.64048L6.08956 2.08104C5.97003 2.20324 5.8629 2.3352 5.76899 2.47522L6.43341 2.92081ZM5.76875 2.47559C5.47356 2.91678 5.30115 3.44967 5.30115 4.02143H6.10115C6.10115 3.6123 6.22416 3.23356 6.43365 2.92045L5.76875 2.47559ZM6.10115 4.03262V4.02143H5.30115V4.03262H6.10115ZM6.10115 5.7649V4.03262H5.30115V5.7649H6.10115ZM5.68991 5.36138C5.67124 5.36435 5.65259 5.36741 5.63397 5.37059L5.76833 6.15922C5.78396 6.15656 5.79961 6.15399 5.81531 6.15149L5.68991 5.36138ZM5.81561 6.15145C6.0278 6.1176 6.24548 6.1 6.46745 6.1V5.3C6.20311 5.3 5.9433 5.32097 5.68961 5.36143L5.81561 6.15145ZM9.53267 5.3H6.46745V6.1H9.53267V5.3ZM10.3105 5.36143C10.0568 5.32097 9.79701 5.3 9.53267 5.3V6.1C9.75464 6.1 9.97232 6.1176 10.1845 6.15144L10.3105 5.36143ZM9.53267 14.8286C10.6946 14.8286 11.7869 14.3658 12.6058 13.5288L12.0339 12.9694C11.3639 13.6543 10.477 14.0286 9.53267 14.0286V14.8286ZM9.53267 14.0286H6.46745V14.8286H9.53267V14.0286ZM3.39436 13.5288C4.21318 14.3658 5.30553 14.8286 6.46745 14.8286V14.0286C5.52314 14.0286 4.63623 13.6543 3.96623 12.9694L3.39436 13.5288ZM3.10519 13.2029C3.19578 13.3156 3.29223 13.4244 3.39436 13.5288L3.96623 12.9694C3.88226 12.8835 3.80308 12.7942 3.7288 12.7018L3.10519 13.2029ZM2.12646 10.4C2.12646 11.4318 2.47027 12.4128 3.10519 13.2029L3.7288 12.7018C3.20959 12.0557 2.92646 11.2521 2.92646 10.4H2.12646ZM3.39436 7.27119C2.57584 8.1079 2.12646 9.22034 2.12646 10.4H2.92646C2.92646 9.42662 3.29593 8.51582 3.96623 7.83062L3.39436 7.27119ZM6.46745 5.97143C5.30553 5.97143 4.21318 6.43417 3.39436 7.27119L3.96623 7.83062C4.63623 7.14573 5.52314 6.77143 6.46745 6.77143V5.97143ZM6.46745 6.77143H9.53267V5.97143H6.46745V6.77143ZM9.74924 5.97681C9.67732 5.97323 9.60512 5.97143 9.53267 5.97143V6.77143C9.59187 6.77143 9.65081 6.7729 9.70945 6.77582L9.74924 5.97681ZM12.6058 7.27119C11.8383 6.4867 10.8303 6.03065 9.74924 5.97681L9.70945 6.77582C10.5868 6.81951 11.4056 7.18832 12.0339 7.83062L12.6058 7.27119ZM13.8737 10.4C13.8737 9.22034 13.4243 8.1079 12.6058 7.27119L12.0339 7.83062C12.7042 8.51582 13.0737 9.42662 13.0737 10.4H13.8737ZM12.6058 13.5288C13.4243 12.6921 13.8737 11.5797 13.8737 10.4H13.0737C13.0737 11.3734 12.7042 12.2842 12.0339 12.9694L12.6058 13.5288ZM6.98679 11.1459C6.98679 11.161 6.98744 11.1761 6.98873 11.1912L7.78578 11.1225C7.78645 11.1303 7.78679 11.1381 7.78679 11.1459H6.98679ZM6.98679 9.85852V11.1459H7.78679V9.85852H6.98679ZM6.98873 9.81326C6.98744 9.82829 6.98679 9.84338 6.98679 9.85852H7.78679C7.78679 9.86633 7.78645 9.87414 7.78578 9.88192L6.98873 9.81326ZM7.78726 9.84759V9.21256H6.98726V9.84759H7.78726ZM7.78726 9.21256C7.78726 9.30237 7.74529 9.3593 7.72708 9.37872C7.71098 9.39588 7.70625 9.39316 7.73072 9.38215C7.77882 9.3605 7.87363 9.33669 8.0003 9.33669V8.53669C7.78775 8.53669 7.57603 8.57449 7.40242 8.65262C7.26579 8.7141 6.98726 8.88125 6.98726 9.21256H7.78726ZM8.0003 9.33669C8.12697 9.33669 8.22177 9.3605 8.26988 9.38215C8.29435 9.39316 8.28962 9.39588 8.27352 9.37872C8.2553 9.3593 8.21334 9.30237 8.21334 9.21256H9.01334C9.01334 8.88125 8.73481 8.7141 8.59817 8.65262C8.42456 8.57449 8.21285 8.53669 8.0003 8.53669V9.33669ZM8.21334 9.21256V11.5H9.01334V9.21256H8.21334ZM8.21334 11.5C8.21334 11.4101 8.2553 11.3532 8.27352 11.3338C8.28962 11.3166 8.29435 11.3194 8.26988 11.3304C8.22177 11.352 8.12697 11.3758 8.0003 11.3758V12.1758C8.21285 12.1758 8.42456 12.138 8.59817 12.0599C8.73481 11.9984 9.01334 11.8313 9.01334 11.5H8.21334ZM8.0003 11.3758C7.87363 11.3758 7.77882 11.352 7.73072 11.3304C7.70625 11.3194 7.71098 11.3166 7.72708 11.3338C7.74529 11.3532 7.78726 11.4101 7.78726 11.5H6.98726C6.98726 11.8313 7.26579 11.9984 7.40242 12.0599C7.57603 12.138 7.78775 12.1758 8.0003 12.1758V11.3758ZM7.78726 11.5V11.1568H6.98726V11.5H7.78726Z" fill="#505160"/>
</svg>
