<?xml version="1.0" encoding="UTF-8"?>
<svg width="20px" height="20px" viewBox="0 0 20 20" version="1.1" xmlns="http://www.w3.org/2000/svg" xmlns:xlink="http://www.w3.org/1999/xlink">
    <!-- Generator: Sketch 63 (92445) - https://sketch.com -->
    <title>分组</title>
    <desc>Created with Sketch.</desc>
    <g id="规范" stroke="none" stroke-width="1" fill="none" fill-rule="evenodd">
        <g id="分组" transform="translate(10.000000, 10.500000) scale(-1, 1) rotate(90.000000) translate(-10.000000, -10.500000) translate(1.000000, 1.000000)">
            <rect id="矩形" fill="#505160" x="3.85" y="-2.43416656e-14" width="1.60941176" height="3.98329412" rx="0.804705882"></rect>
            <rect id="矩形-copy-6" fill="#505160" x="11.85" y="-2.42747423e-14" width="1.60941176" height="3.98329412" rx="0.804705882"></rect>
            <path d="M2.40034424,3.58030623 C0.82774737,5.15254536 2.43005616e-14,7.32267145 2.43005616e-14,9.5931 C2.43005616e-14,14.2679143 3.82796539,18.0576 8.55,18.0576 C13.2720346,18.0576 17.1,14.2679143 17.1,9.5931 C17.1,7.44656319 16.4408892,5.42013848 15.2007528,3.96001764" id="形状" stroke="#515060" stroke-width="2" stroke-linecap="round" stroke-linejoin="round"></path>
            <path d="M10.0504738,1.26539162 C9.55117706,1.1755315 9.03676489,1.1286 8.51128056,1.1286 C8.11821868,1.1286 7.73135171,1.15485831 7.3523718,1.20569969" id="形状" stroke="#505160" stroke-width="2" stroke-linecap="round" stroke-linejoin="round"></path>
            <g id="分组-4" transform="translate(8.852250, 9.950000) rotate(-90.000000) translate(-8.852250, -9.950000) translate(4.352250, 4.950000)" fill="#A5A4AC" fill-rule="nonzero" stroke="#A5A4AC" stroke-width="0.3">
                <path d="M4.82816054,5.79775786 C3.21360535,5.79775786 1.9,4.49728856 1.9,2.89887893 C1.9,1.3004693 3.21360535,0 4.82816054,0 C6.44271572,0 7.75632107,1.3004693 7.75632107,2.89887893 C7.75632107,4.49728856 6.44271572,5.79775786 4.82816054,5.79775786 Z M4.82816054,0.644195318 C3.57250836,0.644195318 2.55070234,1.65578328 2.55070234,2.89887893 C2.55070234,4.14197458 3.57250836,5.15356254 4.82816054,5.15356254 C6.08381271,5.15356254 7.10561873,4.14197458 7.10561873,2.89887893 C7.10561873,1.65578328 6.08381271,0.644195318 4.82816054,0.644195318 Z" id="形状"></path>
                <path d="M8.09494679,9.55581701 L1.50005429,9.55581701 C1.2902168,9.55581701 1.08960294,9.46678597 0.948942643,9.31155234 C0.808426087,9.15539837 0.741385997,8.94757828 0.764470125,8.73969907 C0.993907819,6.70568203 2.72794948,5.17275 4.79750054,5.17275 C6.86705159,5.17275 8.60109326,6.70568203 8.83053095,8.73969907 C8.85359001,8.94743818 8.78671873,9.15517729 8.64605843,9.31155234 C8.50539814,9.46678597 8.30478428,9.55581701 8.09494679,9.55581701 Z M4.79750054,5.90326117 C3.10381224,5.90326117 1.68567976,7.15768582 1.49774838,8.82074015 L8.09494679,8.82530584 C7.90932132,7.15768582 6.49118884,5.90326117 4.79750054,5.90326117 Z" id="形状"></path>
            </g>
        </g>
    </g>
</svg>