<svg width="140" height="100" viewBox="0 0 140 100" fill="none" xmlns="http://www.w3.org/2000/svg">
<circle cx="71" cy="58" r="40" fill="#536670"/>
<path d="M111.212 15.9585C108.636 14.3547 105.234 15.1388 103.634 17.7071L72.4307 63.8204L62.3222 54.9185C60.522 52.491 57.0737 51.9804 54.6284 53.7899C52.1972 55.598 51.6919 59.0497 53.4969 61.4833L68.5085 75.9581C69.3646 77.1126 70.6207 77.8733 72.0426 78.1034C72.4002 78.1611 72.764 78.186 73.1431 78.1732C74.964 78.0989 76.6255 77.1319 77.5844 75.5919L112.96 23.5424C114.567 20.9608 113.783 17.5618 111.212 15.9585Z" fill="#1A6356"/>
<path d="M109.702 13.1734C107.125 11.5695 103.723 12.3537 102.123 14.922L71.9385 59.5299C71.5866 60.05 71.4107 60.31 71.1781 60.4271C70.974 60.53 70.7408 60.5597 70.5173 60.5115C70.2628 60.4565 70.0272 60.249 69.556 59.834L61.4845 52.7261C61.1103 52.3966 62.0458 53.2204 62.018 53.1952C61.9076 53.0952 62.0529 53.2294 61.9445 53.1273C61.9171 53.1016 61.3517 52.5542 60.2208 51.4594C58.3276 49.6266 55.3169 49.3773 53.1176 51.0047C50.8771 52.6711 50.2722 55.7334 51.604 58.1082C51.6056 58.111 51.6063 58.1123 51.7375 58.3046C51.8034 58.4011 52.0395 58.707 52.1163 58.7953C52.269 58.9709 52.3434 59.0426 52.4923 59.1862L66.4912 72.6845C66.753 72.9369 66.0984 72.3057 66.12 72.327C66.2033 72.4092 66.095 72.3008 66.1771 72.3842C66.1983 72.4058 66.6161 72.8406 67.4517 73.7101C68.2716 74.5634 69.3439 75.126 70.5319 75.3182C70.8894 75.376 71.2533 75.4008 71.6324 75.3881C73.4532 75.3138 75.1148 74.3468 76.0737 72.8068L111.45 20.7572C113.057 18.1757 112.272 14.7766 109.702 13.1734Z" fill="url(#paint0_linear_74_288)"/>
<path d="M125.586 45.2755L123.367 44.7417L124.66 39.3911L126.876 39.9249L125.586 45.2755Z" fill="#E0E0E0"/>
<path d="M133.846 44.6742C133.778 44.9611 133.229 45.3468 132.797 45.2419C132.797 45.2419 132.865 45.532 132.782 45.8776C132.683 46.2941 132.118 46.5996 131.455 46.4361C130.792 46.2756 126.376 45.2142 126.376 45.2142L127.573 40.2431L127.57 40.2401C127.57 40.2401 129.397 38.796 129.594 38.5368C129.798 38.2837 129.968 36.9878 130.023 36.7563C130.07 36.5681 130.924 36.6792 131.347 37.2254C131.443 37.3519 131.52 37.5 131.557 37.6759C131.634 38.04 131.662 38.3671 131.637 38.6756C131.606 39.1539 131.458 39.5859 131.202 40.0241L134.269 40.7615C134.525 40.8233 134.704 40.9529 134.818 41.104C134.994 41.3355 135.028 41.6224 134.982 41.8138C134.88 42.2643 134.485 42.4278 134.3 42.4741C134.3 42.4741 134.883 42.7518 134.735 43.3689C134.652 43.7145 134.278 44.02 133.794 43.9922C133.797 43.9922 133.951 44.2453 133.846 44.6742Z" fill="#E0E0E0"/>
<path d="M13.5205 42.0762L15.9428 42.8044L17.6954 36.9602L15.2763 36.2319L13.5205 42.0762Z" fill="#E0E0E0"/>
<path d="M5.9506 36.8828C5.85803 37.1975 6.1666 37.8733 6.63871 38.0152C6.63871 38.0152 6.41346 38.2528 6.29929 38.6324C6.16043 39.086 6.53071 39.6938 7.25893 39.9098C7.98406 40.1258 12.8039 41.5792 12.8039 41.5792L14.4362 36.1515H14.4393C14.4393 36.1515 13.4982 33.7508 13.4519 33.3898C13.3963 33.0349 13.961 31.6958 14.0351 31.4458C14.0968 31.2422 13.2143 30.8688 12.5046 31.1558C12.341 31.2237 12.1867 31.3224 12.051 31.4674C11.7733 31.7729 11.5665 32.0691 11.4153 32.3777C11.1746 32.8529 11.079 33.3497 11.079 33.9113L7.73104 32.9023C7.45024 32.819 7.20647 32.8436 7.01516 32.9239C6.71585 33.0473 6.52454 33.3034 6.46283 33.5101C6.30854 34.0008 6.59551 34.3772 6.74671 34.5222C6.74671 34.5222 6.03392 34.4636 5.83026 35.1363C5.71609 35.5127 5.90432 36.0126 6.3826 36.2595C6.37951 36.2595 6.09255 36.4138 5.9506 36.8828Z" fill="#E0E0E0"/>
<path d="M27.3596 80.947L28.317 79.7806L25.5016 77.473L24.5449 78.6377L27.3596 80.947Z" fill="#E0E0E0"/>
<path d="M22.7607 83.922C22.9127 84.0453 23.3557 84.0306 23.5423 83.8033C23.5423 83.8033 23.6214 83.9819 23.8041 84.1319C24.022 84.3126 24.4418 84.2483 24.728 83.897C25.0135 83.5473 26.9209 81.2273 26.9209 81.2273L24.3073 79.0817L24.308 79.08C24.308 79.08 22.77 79.0467 22.5606 78.9893C22.3524 78.9383 21.7448 78.3198 21.6241 78.2216C21.5262 78.1408 21.1179 78.541 21.1129 78.9977C21.1127 79.1033 21.1316 79.2109 21.1803 79.319C21.2847 79.5421 21.4003 79.724 21.5354 79.8781C21.7418 80.1198 21.9934 80.2866 22.3026 80.4156L20.9779 82.0273C20.8676 82.1627 20.8251 82.3026 20.8254 82.4264C20.8246 82.6196 20.9216 82.7837 21.0213 82.8652C21.256 83.0629 21.5292 82.9913 21.6438 82.9414C21.6438 82.9414 21.4478 83.3204 21.7714 83.5871C21.9524 83.7364 22.2709 83.7476 22.5167 83.541C22.516 83.5427 22.535 83.7361 22.7607 83.922Z" fill="#E0E0E0"/>
<defs>
<linearGradient id="paint0_linear_74_288" x1="41.9408" y1="21.0115" x2="81.5659" y2="71.1822" gradientUnits="userSpaceOnUse">
<stop stop-color="#87E06D"/>
<stop offset="1" stop-color="#32A894"/>
</linearGradient>
</defs>
</svg>
