<svg width="14" height="14" viewBox="0 0 14 14" fill="none" xmlns="http://www.w3.org/2000/svg">
<path fill-rule="evenodd" clip-rule="evenodd" d="M1.21289 3.49831L3.49767 1.21354C3.63512 1.07634 3.82151 0.999549 4.01569 1C4.20988 1.00046 4.39587 1.07824 4.53259 1.21609L7.81106 4.4937C7.94878 4.6307 8.02643 4.81682 8.02688 5.01106C8.0274 5.20531 7.95067 5.39183 7.81361 5.52948L7.54801 6.00311L6.66352 5.11861C6.80453 4.97676 6.80537 4.81779 6.66352 4.67594L4.00914 2.02242L2.01921 4.01233L4.67275 6.66587C4.81453 6.80772 4.97357 6.80772 5.11541 6.66587L5.99905 7.55128L5.5289 7.81426C5.24192 8.09914 4.7786 8.09802 4.49306 7.8117L1.21551 4.53409C0.929198 4.24862 0.928006 3.78523 1.21289 3.49831ZM6.44172 7.99309L7.10535 8.65665L7.32629 8.87844C7.17754 9.02717 7.1767 9.17067 7.32629 9.32025L9.97981 11.9746L11.9714 9.98386L9.31706 7.33034C9.16747 7.18075 9.02391 7.18159 8.87523 7.33034L7.99075 6.44584L8.47119 6.1862C8.60878 6.04927 8.7951 5.97255 8.98922 5.97307C9.18334 5.97352 9.36932 6.05117 9.5062 6.18884L12.7846 9.46637C13.0708 9.75157 13.072 10.2147 12.7872 10.5013L10.5024 12.7861C10.3648 12.9231 10.1785 12.9997 9.98441 12.9993C9.79028 12.9988 9.60436 12.9212 9.4675 12.7835L6.18903 9.50592C5.90285 9.2207 5.90166 8.75763 6.18648 8.47098L6.44172 7.99309ZM9.09612 9.76206L4.00914 4.67594L4.67274 4.01233L9.75973 9.09846L9.09612 9.76206Z" fill="white"/>
</svg>
