<svg width="12" height="12" viewBox="0 0 12 12" fill="none" xmlns="http://www.w3.org/2000/svg">
<circle cx="6" cy="6" r="6" fill="#DB705C"/>
<path fill-rule="evenodd" clip-rule="evenodd" d="M5.25054 3.41283C5.20038 2.9663 5.54979 2.57544 5.99913 2.57544C6.44935 2.57544 6.79904 2.96777 6.74747 3.41502L6.38341 6.57231H5.60548L5.25054 3.41283ZM5.99438 7.7144C6.25094 7.7144 6.45696 7.79432 6.61245 7.95416C6.77572 8.10601 6.85735 8.30981 6.85735 8.56555C6.85735 8.81331 6.77572 9.0211 6.61245 9.18893C6.43364 9.34877 6.22762 9.42869 5.99438 9.42869C5.76114 9.42869 5.56289 9.34477 5.39963 9.17694C5.22859 9.00911 5.14307 8.80531 5.14307 8.56555C5.14307 8.30981 5.22859 8.10601 5.39963 7.95416C5.55512 7.79432 5.75337 7.7144 5.99438 7.7144Z" fill="white"/>
</svg>
