<svg width="14" height="14" viewBox="0 0 14 14" fill="none" xmlns="http://www.w3.org/2000/svg">
    <path d="M11.5613 13.3807C11.4423 13.2617 11.289 13.177 11.118 13.1428C11.0153 13.1223 10.9414 13.0348 10.9414 12.9309V7.90508C10.9414 5.73125 9.16113 3.9293 6.98535 3.9375C4.81641 3.9457 3.05937 5.70527 3.05937 7.875V12.9309C3.05937 13.0348 2.98547 13.1223 2.88284 13.1428C2.48326 13.2248 2.18358 13.5775 2.18358 14H11.8172C11.8172 13.758 11.7187 13.5393 11.5613 13.3807ZM7.75714 6.34375L7.49166 8.71309H8.53303L6.24504 12.0312L6.51051 9.66191H5.46778L7.75714 6.34375ZM7.0004 2.84375C6.75819 2.84375 6.56251 2.64824 6.56251 2.40625V0.4375C6.56251 0.195508 6.75819 0 7.0004 0C7.24261 0 7.4383 0.195508 7.4383 0.4375V2.40625C7.4383 2.64824 7.24261 2.84375 7.0004 2.84375ZM3.82568 4.04824C3.61631 4.16855 3.3481 4.09746 3.22768 3.88828L2.24242 2.1834C2.122 1.97422 2.19316 1.70625 2.40253 1.58594C2.61189 1.46563 2.8801 1.53672 3.00052 1.7459L3.98578 3.45078C4.1062 3.65996 4.03505 3.92656 3.82568 4.04824ZM10.1751 4.04824C10.3845 4.16855 10.6527 4.09746 10.7731 3.88828L11.7584 2.1834C11.8788 1.97422 11.8076 1.70625 11.5983 1.58594C11.3889 1.46563 11.1207 1.53672 11.0003 1.7459L10.015 3.45078C9.8946 3.65996 9.96576 3.92656 10.1751 4.04824ZM2.76516 6.08262C2.70221 6.31641 2.46274 6.45449 2.22874 6.3916L0.325271 5.88301C0.0912717 5.82012 -0.0469383 5.58086 0.0146404 5.34707C0.0775875 5.11328 0.31706 4.9752 0.551059 5.03809L2.45453 5.54805C2.68852 5.60957 2.82673 5.84883 2.76516 6.08262ZM11.2356 6.08262C11.2986 6.31641 11.5381 6.45449 11.7721 6.3916L13.6755 5.88164C13.9095 5.81875 14.0477 5.57949 13.9848 5.3457C13.9219 5.11191 13.6824 4.97383 13.4484 5.03672L11.5449 5.54668C11.3123 5.60957 11.1741 5.84883 11.2356 6.08262Z" fill="#DB705C"/>
</svg>
