<svg width="45" height="40" viewBox="0 0 45 40" fill="none" xmlns="http://www.w3.org/2000/svg">
    <path d="M43.6983 21.9231L23.4298 30.5769C23.2438 30.7692 22.8719 30.7692 22.686 30.7692C22.3141 30.7692 22.1281 30.7692 21.9422 30.5769L1.67355 21.9231C0.929752 21.5385 0.371901 20.7692 0.371901 20C0.371901 18.8462 1.30165 17.8846 2.41736 17.8846C2.78926 17.8846 2.97521 17.8846 3.16116 18.0769L22.5 26.3462L41.8388 18.0769C42.0248 17.8846 42.3967 17.8846 42.5826 17.8846C43.6984 17.8846 44.6281 18.8462 44.6281 20C45 20.9615 44.4422 21.7308 43.6983 21.9231ZM43.6983 12.6923L23.4298 21.3462C23.2438 21.5385 22.8719 21.5385 22.686 21.5385C22.3141 21.5385 22.1281 21.5385 21.9422 21.3462L1.67355 12.6923C0.929752 12.3077 0.371901 11.5385 0.371901 10.7692C0.371901 10 0.929752 9.03846 1.67355 8.84615L21.9422 0.192307C22.1281 -1.63913e-07 22.5 5.63401e-08 22.686 0C23.0579 0 23.2438 -2.23517e-07 23.4298 0.192307L43.6983 8.84615C44.4422 9.23077 45 10 45 10.7692C45 11.5385 44.4422 12.3077 43.6983 12.6923ZM2.41736 27.1154C2.78926 27.1154 2.97521 27.1154 3.16116 27.3077L22.5 35.5769L41.8388 27.3077C42.0248 27.1154 42.3967 27.1154 42.5826 27.1154C43.6984 27.1154 44.6281 28.0769 44.6281 29.2308C44.6281 30.1923 44.0703 30.9615 43.3265 31.1538L23.0579 39.8077C22.8719 40 22.5 40 22.3141 40C21.9422 40 21.7562 40 21.5702 39.8077L1.30165 31.1538C0.557851 30.7692 5.44777e-08 30 0 29.2308C0.371901 28.0769 1.30165 27.1154 2.41736 27.1154Z" fill="#8F8F8F" fill-opacity="0.3"/>
</svg>
