<?xml version="1.0" encoding="UTF-8"?>
<svg width="18px" height="18px" viewBox="0 0 18 18" version="1.1" xmlns="http://www.w3.org/2000/svg" xmlns:xlink="http://www.w3.org/1999/xlink">
    <!-- Generator: Sketch 63.1 (92452) - https://sketch.com -->
    <title>1024logo</title>
    <desc>Created with Sketch.</desc>
    <defs>
        <path d="M1.56846014,0 C0.702173875,0 0,0.741267739 0,1.65569009 L0,1.65569009 L0,11.7325506 C0,12.6469729 0.702173875,13.3882407 1.56846014,13.3882407 L1.56846014,13.3882407 L12.3834959,13.3882407 C13.2497094,13.3882407 13.9519561,12.6469729 13.9519561,11.7325506 L13.9519561,11.7325506 L13.9519561,1.65569009 C13.9519561,0.741267739 13.2497094,0 12.3834959,0 L12.3834959,0 L1.56846014,0 Z" id="path-1"></path>
    </defs>
    <g id="justswap入口" stroke="none" stroke-width="1" fill="none" fill-rule="evenodd">
        <g id="设置" transform="translate(-21.000000, -367.000000)">
            <g id="自动锁定备份" transform="translate(23.000000, 366.000000)">
                <g id="1024logo" transform="translate(0.000000, 3.000000)">
                    <mask id="mask-2" fill="white">
                        <use xlink:href="#path-1"></use>
                    </mask>
                    <path stroke="#515060" stroke-width="2" d="M12.4231748,-1 L1.56846014,-1 C0.874301623,-1 0.241200558,-0.718842034 -0.23039146,-0.221022415 C-0.652566111,0.224631489 -0.949035522,0.853767454 -1,1.61963126 L-1,11.7325506 C-1,12.4374381 -0.735930549,13.0756063 -0.283854755,13.5528243 C0.154662803,14.01573 0.775645477,14.3336406 1.52878355,14.3882407 L12.3834959,14.3882407 C13.0776081,14.3882407 13.7107243,14.1070857 14.1823348,13.6092466 C14.6045092,13.163593 14.9009882,12.5344623 14.9519561,11.7686127 L14.9519561,1.65569009 C14.9519561,0.950814304 14.6878774,0.312650664 14.2358018,-0.16456714 C13.7972695,-0.627488395 13.1762729,-0.945400347 12.4231748,-1 Z"></path>
                    <path d="M11.5704405,10.4940909 L17.9930908,9.35275426 L10.6260352,18.1596889 L11.5704405,10.4940909 Z M10.7704873,10.1107022 L9.77682894,18.1596889 L4.4145962,4.94928697 L10.7704873,10.1107022 Z M11.0909934,9.0686596 L4.99240448,4.23905031 L14.9595973,5.99042418 L11.0909934,9.0686596 Z M16.025174,6.36976029 L18.1375429,8.33092156 L12.3594601,9.35275426 L16.025174,6.36976029 Z M16.2986248,5.30571307 L2.53671929,2.81857698 L9.77967767,20.7165408 L19.8709677,8.64138848 L16.2986248,5.30571307 Z" id="Fill-4" fill="#A8A7AF" mask="url(#mask-2)"></path>
                </g>
            </g>
        </g>
    </g>
</svg>