<svg width="50" height="50" viewBox="0 0 50 50" fill="none" xmlns="http://www.w3.org/2000/svg">
    <circle cx="25" cy="25" r="25" fill="#636ACC"/>
    <path d="M30.5 15.1H30.6V15V14.1H32.4V15V15.1H32.5H35.1678V16.9H29.5C29.3409 16.9 29.1883 16.9632 29.0757 17.0757C28.9632 17.1883 28.9 17.3409 28.9 17.5C28.9 17.6591 28.9632 17.8117 29.0757 17.9243C29.1883 18.0368 29.3409 18.1 29.5 18.1H33.5C34.1365 18.1 34.747 18.3529 35.1971 18.8029C35.6471 19.253 35.9 19.8635 35.9 20.5C35.9 21.1365 35.6471 21.747 35.1971 22.1971C34.747 22.6471 34.1365 22.9 33.5 22.9H32.5H32.4V23V23.9H30.6V23V22.9H30.5H27.6V21.1H33.5C33.6591 21.1 33.8117 21.0368 33.9243 20.9243C34.0368 20.8117 34.1 20.6591 34.1 20.5C34.1 20.3409 34.0368 20.1883 33.9243 20.0757C33.8117 19.9632 33.6591 19.9 33.5 19.9H29.5C28.8635 19.9 28.253 19.6471 27.8029 19.1971C27.3529 18.747 27.1 18.1365 27.1 17.5C27.1 16.8635 27.3529 16.253 27.8029 15.8029C28.253 15.3529 28.8635 15.1 29.5 15.1H30.5Z" fill="white" stroke="#636ACC" stroke-width="0.2"/>
    <path d="M38.6748 27.4152L38.6719 27.4094C38.0176 26.5123 37.1353 26.0274 36.0487 25.9665C35.1783 25.9171 34.1894 26.1406 33.1147 26.6255C33.0081 26.6748 32.8186 26.7823 32.5818 26.9187C32.2946 27.0842 31.9364 27.2903 31.6285 27.4413C31.1488 27.6765 31.0511 27.6445 31.0422 27.6387C30.9653 27.5865 30.8439 27.1423 30.7639 26.849C30.6218 26.3352 30.4768 25.801 30.2577 25.5832C29.7396 25.0606 28.8987 24.6745 28.1556 24.3319C27.8655 24.1984 27.5901 24.0706 27.3503 23.9429C25.5917 23.0139 24.138 22.2939 22.7761 21.6755C22.5896 21.5913 22.3942 21.4955 22.184 21.3939C21.3639 20.9932 20.4342 20.5374 19.5697 20.52C19.4187 20.5171 19.2796 20.5229 19.1552 20.5345V19.6229C19.1552 18.7287 18.4091 18 17.5002 18H14.655C13.7431 18 13 18.7316 13 19.6229V32.5103C13 33.4045 13.7461 34.1332 14.655 34.1332H17.5002C18.2818 34.1332 18.9391 33.5961 19.1108 32.8819C19.8776 33.2652 20.7125 33.5729 21.5237 33.8719C21.9649 34.0345 22.4208 34.2029 22.8531 34.3771C23.1906 34.5165 23.5311 34.6674 23.8923 34.8271C25.1417 35.3845 26.5213 36 27.9188 36C28.2888 36 28.6589 35.9565 29.029 35.8577C30.7225 35.4048 32.4249 34.3335 33.9289 33.39C34.1657 33.2419 34.3878 33.1026 34.6098 32.9632C34.7253 32.8906 34.8585 32.8123 34.9947 32.7281C35.8888 32.1852 37.1146 31.4448 37.988 30.5419C39.0419 29.4474 39.2758 28.3935 38.6748 27.4152ZM17.3788 32.3884H14.7734V19.739H17.3788V32.3884ZM37.156 29.0381C36.8037 29.9671 35.0954 30.8816 33.9644 31.4884C33.6684 31.6481 33.4108 31.7845 33.2065 31.9065C32.9548 32.0545 32.7032 32.2084 32.4367 32.371C31.2939 33.0706 30.0001 33.8603 28.7389 34.1884C27.6138 34.4816 26.6546 34.0694 25.639 33.631C25.4496 33.5497 25.2542 33.4655 25.0558 33.3842C23.4038 32.7194 21.3046 31.8629 19.1552 30.9368V22.4855C19.247 22.4071 19.3506 22.3345 19.4513 22.3229C19.6023 22.3026 19.8806 22.4332 20.0819 22.529C20.1678 22.5697 20.2507 22.6103 20.3187 22.6335C21.6806 23.1474 23.0159 23.8268 24.3068 24.4858C24.5199 24.5961 24.7331 24.7035 24.9463 24.811C25.2601 24.9706 25.5946 25.1245 25.947 25.2871C26.921 25.7371 27.9276 26.1987 28.6471 26.8316C29.1652 27.2874 29.3724 27.8535 29.177 28.2745C28.9994 28.6577 28.5286 28.8348 27.8891 28.7535C27.6434 28.7245 27.0187 28.4081 26.2963 28.0423C24.7597 27.2671 22.8471 26.3003 22.1307 26.7532C21.9264 26.8839 21.8316 27.1132 21.8494 27.4355C21.8761 27.9116 22.6813 28.4545 24.3156 29.1019C25.192 29.4474 26.3052 29.819 27.5339 30.1761C29.106 30.6319 30.5656 29.9148 31.9778 29.221C32.1762 29.1252 32.3805 29.0235 32.5788 28.9306C32.8334 28.8087 33.0999 28.6606 33.3782 28.501C33.9822 28.1584 34.6069 27.8042 35.1931 27.7171C35.8356 27.6213 36.7119 27.7548 37.0701 28.1903C37.2537 28.4168 37.2833 28.7013 37.156 29.0381Z" fill="white"/>
</svg>
