<svg width="133" height="2" viewBox="0 0 133 2" fill="none" xmlns="http://www.w3.org/2000/svg">
    <path d="M0.982143 1.5H1.48214V0.5H0.982143V1.5ZM2.94643 0.5H2.44643V1.5H2.94643V0.5ZM4.91071 1.5H5.41071V0.5H4.91071V1.5ZM6.875 0.5H6.375V1.5H6.875V0.5ZM8.83929 1.5H9.33929V0.5H8.83929V1.5ZM10.8036 0.5H10.3036V1.5H10.8036V0.5ZM12.7679 1.5H13.2679V0.5H12.7679V1.5ZM14.7321 0.5H14.2321V1.5H14.7321V0.5ZM16.6964 1.5H17.1964V0.5H16.6964V1.5ZM18.6607 0.5H18.1607V1.5H18.6607V0.5ZM20.625 1.5H21.125V0.5H20.625V1.5ZM22.5893 0.5H22.0893V1.5H22.5893V0.5ZM24.5536 1.5H25.0536V0.5H24.5536V1.5ZM26.5179 0.5H26.0179V1.5H26.5179V0.5ZM28.4821 1.5H28.9821V0.5H28.4821V1.5ZM30.4464 0.5H29.9464V1.5H30.4464V0.5ZM32.4107 1.5H32.9107V0.5H32.4107V1.5ZM34.375 0.5H33.875V1.5H34.375V0.5ZM36.3393 1.5H36.8393V0.5H36.3393V1.5ZM38.3036 0.5H37.8036V1.5H38.3036V0.5ZM40.2679 1.5H40.7679V0.5H40.2679V1.5ZM42.2321 0.5H41.7321V1.5H42.2321V0.5ZM44.1964 1.5H44.6964V0.5H44.1964V1.5ZM46.1607 0.5H45.6607V1.5H46.1607V0.5ZM48.125 1.5H48.625V0.5H48.125V1.5ZM50.0893 0.5H49.5893V1.5H50.0893V0.5ZM52.0536 1.5H52.5536V0.5H52.0536V1.5ZM54.0179 0.5H53.5179V1.5H54.0179V0.5ZM78.9732 1.5H79.4732V0.5H78.9732V1.5ZM80.9196 0.5H80.4196V1.5H80.9196V0.5ZM82.8661 1.5H83.3661V0.5H82.8661V1.5ZM84.8125 0.5H84.3125V1.5H84.8125V0.5ZM86.7589 1.5H87.2589V0.5H86.7589V1.5ZM88.7054 0.5H88.2054V1.5H88.7054V0.5ZM90.6518 1.5H91.1518V0.5H90.6518V1.5ZM92.5982 0.5H92.0982V1.5H92.5982V0.5ZM94.5446 1.5H95.0446V0.5H94.5446V1.5ZM96.4911 0.5H95.9911V1.5H96.4911V0.5ZM98.4375 1.5H98.9375V0.5H98.4375V1.5ZM100.384 0.5H99.8839V1.5H100.384V0.5ZM102.33 1.5H102.83V0.5H102.33V1.5ZM104.277 0.5H103.777V1.5H104.277V0.5ZM106.223 1.5H106.723V0.5H106.223V1.5ZM108.17 0.5H107.67V1.5H108.17V0.5ZM110.116 1.5H110.616V0.5H110.116V1.5ZM112.062 0.5H111.562V1.5H112.062V0.5ZM114.009 1.5H114.509V0.5H114.009V1.5ZM115.955 0.5H115.455V1.5H115.955V0.5ZM117.902 1.5H118.402V0.5H117.902V1.5ZM119.848 0.5H119.348V1.5H119.848V0.5ZM121.795 1.5H122.295V0.5H121.795V1.5ZM123.741 0.5H123.241V1.5H123.741V0.5ZM125.688 1.5H126.188V0.5H125.688V1.5ZM127.634 0.5H127.134V1.5H127.634V0.5ZM129.58 1.5H130.08V0.5H129.58V1.5ZM131.527 0.5H131.027V1.5H131.527V0.5ZM0 1.5H0.982143V0.5H0V1.5ZM2.94643 1.5H4.91071V0.5H2.94643V1.5ZM6.875 1.5H8.83929V0.5H6.875V1.5ZM10.8036 1.5H12.7679V0.5H10.8036V1.5ZM14.7321 1.5H16.6964V0.5H14.7321V1.5ZM18.6607 1.5H20.625V0.5H18.6607V1.5ZM22.5893 1.5H24.5536V0.5H22.5893V1.5ZM26.5179 1.5H28.4821V0.5H26.5179V1.5ZM30.4464 1.5H32.4107V0.5H30.4464V1.5ZM34.375 1.5H36.3393V0.5H34.375V1.5ZM38.3036 1.5H40.2679V0.5H38.3036V1.5ZM42.2321 1.5H44.1964V0.5H42.2321V1.5ZM46.1607 1.5H48.125V0.5H46.1607V1.5ZM50.0893 1.5H52.0536V0.5H50.0893V1.5ZM54.0179 1.5H55V0.5H54.0179V1.5ZM78 1.5H78.9732V0.5H78V1.5ZM80.9196 1.5H82.8661V0.5H80.9196V1.5ZM84.8125 1.5H86.7589V0.5H84.8125V1.5ZM88.7054 1.5H90.6518V0.5H88.7054V1.5ZM92.5982 1.5H94.5446V0.5H92.5982V1.5ZM96.4911 1.5H98.4375V0.5H96.4911V1.5ZM100.384 1.5H102.33V0.5H100.384V1.5ZM104.277 1.5H106.223V0.5H104.277V1.5ZM108.17 1.5H110.116V0.5H108.17V1.5ZM112.062 1.5H114.009V0.5H112.062V1.5ZM115.955 1.5H117.902V0.5H115.955V1.5ZM119.848 1.5H121.795V0.5H119.848V1.5ZM123.741 1.5H125.688V0.5H123.741V1.5ZM127.634 1.5H129.58V0.5H127.634V1.5ZM131.527 1.5H132.5V0.5H131.527V1.5Z" fill="#E6E5E9"/>
</svg>
