<?xml version="1.0" encoding="UTF-8"?>
<svg width="16px" height="13px" viewBox="0 0 16 13" version="1.1" xmlns="http://www.w3.org/2000/svg" xmlns:xlink="http://www.w3.org/1999/xlink">
    <!-- Generator: Sketch 60.1 (88133) - https://sketch.com -->
    <title>编组 5</title>
    <desc>Created with Sketch.</desc>
    <g id="页面-1" stroke="none" stroke-width="1" fill="none" fill-rule="evenodd">
        <g id="7.1详情2" transform="translate(-234.000000, -564.000000)" fill="#FFFFFF" fill-rule="nonzero">
            <g id="编组-4" transform="translate(11.000000, 549.000000)">
                <g id="编组" transform="translate(223.000000, 12.000000)">
                    <g id="编组-5" transform="translate(0.000000, 3.000000)">
                        <g id="交换">
                            <polygon id="形状" points="3.7 3 3.7 13 2 13 2 3"></polygon>
                            <path d="M2,11.3 L10,11.3 L10,13 L2,13 L2,11.3 Z M2.85,0 L5.2,4 L0.5,4 L2.85,0 Z" id="形状"></path>
                        </g>
                        <g id="交换备份" transform="translate(11.000000, 6.500000) scale(-1, -1) translate(-11.000000, -6.500000) translate(6.000000, 0.000000)">
                            <polygon id="形状" points="3.7 3 3.7 13 2 13 2 3"></polygon>
                            <path d="M2,11.3 L10,11.3 L10,13 L2,13 L2,11.3 Z M2.85,0 L5.2,4 L0.5,4 L2.85,0 Z" id="形状"></path>
                        </g>
                    </g>
                </g>
            </g>
        </g>
    </g>
</svg>