<svg width="46" height="46" viewBox="0 0 46 46" fill="none" xmlns="http://www.w3.org/2000/svg">
    <path d="M1.13176 29.8671H16.79C17.4188 29.8671 17.9534 30.4581 17.9534 31.1535C17.9534 34.2132 20.1543 36.6123 22.9527 36.6123C25.751 36.6123 27.952 34.2132 27.952 31.1535C27.952 30.4581 28.4865 29.8671 29.1154 29.8671H44.6793C45.1509 29.8671 45.5596 30.18 45.7483 30.632C45.4968 29.6932 45.0566 28.7197 44.9937 28.5806C44.9937 28.5458 44.9622 28.5458 44.9622 28.5458L39.9629 19.7839C39.9629 19.7491 39.9315 19.7491 39.9315 19.7144C39.8372 19.6101 39.0825 18.5322 38.2022 17.9759C37.2903 17.3848 36.0326 17.2805 35.8754 17.2805H9.14953C8.92943 17.2805 7.8604 17.3153 7.01146 17.8716C6.16252 18.4627 5.53367 19.471 5.47079 19.5753C5.47079 19.5753 5.43935 19.6101 5.43935 19.6448L1.22609 27.92C1.10032 28.1286 0.691568 28.9283 0.345703 30.18C0.565799 30.0061 0.817337 29.8671 1.13176 29.8671Z" fill="#8F8F8F" fill-opacity="0.3"/>
    <path d="M46 32.9267C46 32.8224 45.9371 31.9184 45.7799 31.0491V31.1882C45.7799 31.8836 45.2768 32.4747 44.6165 32.4747H30.1531L29.9959 33.1353C29.1784 36.7166 26.2543 39.1852 22.9214 39.1852C19.5571 39.1852 16.6329 36.6818 15.8154 33.1353L15.6582 32.4747H1.10048C0.628845 32.4747 0.251538 32.1618 0.0628845 31.7445C-1.93228e-08 32.3704 0 32.8571 0 33.0658V42.4535C0 42.6274 0.0943269 44.0529 1.00615 44.9917C1.91798 45.9305 3.36432 46 3.52153 46H3.58442H3.55297H42.2269C42.5099 46 43.9248 45.9652 44.8995 44.9917C45.8742 44.0181 45.9371 42.6969 45.9371 42.3144L46 32.9267ZM22.8585 13.6992C21.9781 13.6992 21.255 12.8995 21.255 11.9259V1.77324C21.255 0.799698 21.9781 0 22.8585 0C23.7389 0 24.4621 0.799698 24.4621 1.77324V11.9607C24.4621 12.9342 23.7389 13.6992 22.8585 13.6992ZM33.5803 13.6296C32.6999 13.6296 31.9768 12.8299 31.9768 11.8564C31.9768 11.4392 32.1025 11.0567 32.3226 10.7438L35.9699 5.77173C36.2843 5.3545 36.7245 5.11111 37.2276 5.11111C37.6049 5.11111 37.9508 5.25019 38.2338 5.49358C38.5796 5.77173 38.7683 6.22373 38.8312 6.67574C38.8626 7.12774 38.7368 7.61451 38.4853 7.96221L34.838 12.9342C34.5236 13.421 34.0834 13.6644 33.5803 13.6296ZM12.3254 13.5253C11.8537 13.5253 11.3821 13.2819 11.0677 12.8647L7.48325 7.8579C6.94873 7.09297 7.04306 5.98035 7.73479 5.3545C8.01777 5.11111 8.36364 4.97203 8.74094 4.97203C9.24402 4.97203 9.68421 5.21542 9.99863 5.63265L13.583 10.6395C14.1176 11.4044 14.0232 12.517 13.3315 13.1429C13.0485 13.3862 12.6712 13.5253 12.3254 13.5253Z" fill="#8F8F8F" fill-opacity="0.3"/>
</svg>
