<svg width="222" height="303" viewBox="0 0 222 303" fill="none" xmlns="http://www.w3.org/2000/svg">
<path d="M12.1706 43.1849C60.6111 59.4499 122.08 -23.0337 148.061 9.79864C175.497 44.4691 -25.9817 148.479 5.31174 178.441C36.6052 208.403 169.066 46.6092 181.498 83.4194C193.93 120.23 -29.411 309.417 50.3229 284.591C130.057 259.766 191.786 206.691 170.352 256.77C164.923 268.184 156.806 292.809 167.78 300" stroke="#515060" stroke-width="2.5" stroke-linecap="round"/>
<mask id="mask0_164_290" style="mask-type:alpha" maskUnits="userSpaceOnUse" x="178" y="259" width="44" height="44">
<rect x="178" y="259" width="44" height="44" fill="#C4C4C4"/>
</mask>
<g mask="url(#mask0_164_290)">
<path fill-rule="evenodd" clip-rule="evenodd" d="M183.274 288.913L180.972 297.063L184.155 300.673L193.104 298.53L183.274 288.913Z" fill="#F7DE87"/>
<path d="M183.915 290.254C183.542 289.88 183.355 289.694 183.285 289.478C183.224 289.289 183.224 289.085 183.285 288.896C183.355 288.68 183.542 288.494 183.915 288.12L208.612 263.423C211.321 260.715 215.713 260.715 218.421 263.423C221.13 266.132 221.13 270.523 218.421 273.232L193.724 297.929C193.351 298.303 193.164 298.489 192.949 298.559C192.759 298.621 192.555 298.621 192.366 298.559C192.151 298.489 191.964 298.303 191.591 297.929L183.915 290.254Z" fill="url(#paint0_linear_164_290)"/>
<mask id="mask1_164_290" style="mask-type:alpha" maskUnits="userSpaceOnUse" x="183" y="261" width="38" height="38">
<path d="M183.915 290.254C183.542 289.88 183.355 289.694 183.285 289.478C183.224 289.289 183.224 289.085 183.285 288.896C183.355 288.68 183.542 288.494 183.915 288.12L208.605 263.431C211.318 260.718 215.716 260.718 218.429 263.431C221.142 266.144 221.142 270.542 218.429 273.255L193.74 297.945C193.366 298.318 193.18 298.505 192.964 298.575C192.775 298.636 192.571 298.636 192.382 298.575C192.166 298.505 191.98 298.318 191.606 297.945L183.915 290.254Z" fill="white"/>
</mask>
<g mask="url(#mask1_164_290)">
<path fill-rule="evenodd" clip-rule="evenodd" d="M206.388 264.533C210.055 260.866 215.485 260.35 218.516 263.381C221.547 266.412 221.032 271.842 217.365 275.51" fill="url(#paint1_linear_164_290)"/>
</g>
<path fill-rule="evenodd" clip-rule="evenodd" d="M181 297.064L180.319 299.967C180.167 300.618 180.723 301.217 181.384 301.113L184.18 300.674L181 297.064Z" fill="#E83A10"/>
</g>
<defs>
<linearGradient id="paint0_linear_164_290" x1="182.849" y1="289.187" x2="192.657" y2="298.996" gradientUnits="userSpaceOnUse">
<stop stop-color="#FCAC3B"/>
<stop offset="1" stop-color="#FE5F08"/>
</linearGradient>
<linearGradient id="paint1_linear_164_290" x1="212.055" y1="251.771" x2="201.124" y2="262.702" gradientUnits="userSpaceOnUse">
<stop stop-color="#FFEABC"/>
<stop offset="1" stop-color="#FF7200"/>
</linearGradient>
</defs>
</svg>
