<svg width="50" height="50" viewBox="0 0 50 50" fill="none" xmlns="http://www.w3.org/2000/svg">
    <circle cx="25" cy="25" r="25" fill="#636ACC"/>
    <path d="M16 37.0059H24.3153C24.4579 37.0059 24.6182 36.9697 24.7355 36.8378C24.8467 36.7127 24.8764 36.5482 24.8764 36.3931C24.8764 35.9758 24.5362 35.7284 24.2117 35.7284H16.7257C15.7592 35.7284 14.9757 34.9449 14.9757 33.9784V16.7775C14.9757 15.811 15.7592 15.0275 16.7257 15.0275H31.905C32.8715 15.0275 33.655 15.811 33.655 16.7775V23.0713C33.655 23.251 33.7099 23.4241 33.8383 23.5526C33.9668 23.6811 34.1399 23.736 34.3197 23.736C34.7369 23.736 34.9843 23.3958 34.9843 23.0713V16C34.9843 14.7574 33.977 13.75 32.7343 13.75H16C14.7574 13.75 13.75 14.7574 13.75 16V34.7559C13.75 35.9986 14.7574 37.0059 16 37.0059Z" fill="white" stroke="white" stroke-width="0.5"/>
    <path d="M30.5894 35.6721L30.4852 35.5641L30.5894 35.6721L33.2002 33.1529C33.3586 33 33.5702 32.9146 33.7904 32.9146H37.2743C37.4339 32.9146 37.5793 32.8661 37.6849 32.7605C37.7905 32.6549 37.839 32.5096 37.839 32.3499C37.839 31.9959 37.5519 31.7852 37.2743 31.7852H33.4794C33.1815 31.7852 32.8952 31.9008 32.6808 32.1077L30.3073 34.3979C30.1489 34.5507 29.9373 34.6362 29.7171 34.6362H27.9438C27.7842 34.6362 27.6388 34.6847 27.5332 34.7903C27.4276 34.8959 27.3791 35.0412 27.3791 35.2009C27.3791 35.5549 27.6662 35.7656 27.9438 35.7656H30.3579C30.4442 35.7656 30.5272 35.732 30.5894 35.6721ZM34.4035 29.5453H35.9784C36.256 29.5453 36.5431 29.3346 36.5431 28.9806C36.5431 28.6265 36.256 28.4159 35.9784 28.4159H34.7145C34.4729 28.4159 34.2427 28.313 34.0814 28.133L32.4487 26.3104C32.2305 26.0669 31.919 25.9278 31.5921 25.9278H29.2397C29.08 25.9278 28.9347 25.9762 28.8291 26.0818C28.7235 26.1874 28.675 26.3328 28.675 26.4924C28.675 26.8465 28.9621 27.0571 29.2397 27.0571H31.2811C31.5227 27.0571 31.753 27.16 31.9142 27.34L33.547 29.1626C33.7651 29.4061 34.0766 29.5453 34.4035 29.5453ZM27.892 30.9448H30.5874C30.8651 30.9448 31.1521 30.7342 31.1521 30.3801C31.1521 30.0261 30.8651 29.8154 30.5874 29.8154H27.892C27.7323 29.8154 27.587 29.8639 27.4814 29.9695C27.3758 30.0751 27.3273 30.2205 27.3273 30.3801C27.3273 30.7342 27.6143 30.9448 27.892 30.9448Z" fill="white" stroke="white" stroke-width="0.3"/>
    <path d="M18.4147 20.6276H29.8186C29.9883 20.6276 30.1475 20.5759 30.2645 20.4589C30.3816 20.3419 30.4333 20.1826 30.4333 20.013C30.4333 19.6273 30.1196 19.3983 29.8186 19.3983H18.4147C18.245 19.3983 18.0858 19.45 17.9687 19.567C17.8517 19.684 17.8 19.8433 17.8 20.013C17.8 20.3986 18.1136 20.6276 18.4147 20.6276ZM18.4147 24.8782H26.1382C26.2942 24.8782 26.44 24.8185 26.5454 24.7026C26.6497 24.5878 26.7011 24.433 26.7011 24.2635C26.7011 23.8778 26.3875 23.6488 26.0864 23.6488H18.4147C18.245 23.6488 18.0858 23.7005 17.9687 23.8175C17.8517 23.9346 17.8 24.0938 17.8 24.2635C17.8 24.6492 18.1136 24.8782 18.4147 24.8782ZM18.4147 28.9732H24.1166C24.2863 28.9732 24.4456 28.9215 24.5626 28.8045C24.6796 28.6874 24.7313 28.5282 24.7313 28.3585C24.7313 27.9729 24.4177 27.7438 24.1166 27.7438H18.4147C18.245 27.7438 18.0858 27.7955 17.9687 27.9126C17.8517 28.0296 17.8 28.1888 17.8 28.3585C17.8 28.7442 18.1136 28.9732 18.4147 28.9732Z" fill="white" stroke="white" stroke-width="0.4"/>
    <path d="M27.6921 26.5443C27.6921 26.7898 27.7896 27.0253 27.9632 27.1989C28.1368 27.3725 28.3723 27.47 28.6178 27.47C28.8633 27.47 29.0988 27.3725 29.2724 27.1989C29.446 27.0253 29.5435 26.7898 29.5435 26.5443C29.5435 26.2988 29.446 26.0633 29.2724 25.8897C29.0988 25.7161 28.8633 25.6186 28.6178 25.6186C28.3723 25.6186 28.1368 25.7161 27.9632 25.8897C27.7896 26.0633 27.6921 26.2988 27.6921 26.5443Z" fill="white" stroke="white" stroke-width="0.4"/>
    <path d="M26.7072 30.3801C26.7072 30.6256 26.8048 30.8611 26.9784 31.0347C27.152 31.2083 27.3874 31.3058 27.6329 31.3058C27.8784 31.3058 28.1139 31.2083 28.2875 31.0347C28.4611 30.8611 28.5586 30.6256 28.5586 30.3801C28.5586 30.1346 28.4611 29.8992 28.2875 29.7256C28.1139 29.552 27.8784 29.4544 27.6329 29.4544C27.3874 29.4544 27.152 29.552 26.9784 29.7256C26.8048 29.8992 26.7072 30.1346 26.7072 30.3801Z" fill="white" stroke="white" stroke-width="0.4"/>
    <path d="M30.0246 30.3801C30.0246 30.6256 30.1221 30.8611 30.2957 31.0347C30.4693 31.2083 30.7048 31.3058 30.9503 31.3058C31.1958 31.3058 31.4313 31.2083 31.6049 31.0347C31.7785 30.8611 31.876 30.6256 31.876 30.3801C31.876 30.1346 31.7785 29.8992 31.6049 29.7256C31.4313 29.552 31.1958 29.4544 30.9503 29.4544C30.7048 29.4544 30.4693 29.552 30.2957 29.7256C30.1221 29.8992 30.0246 30.1346 30.0246 30.3801Z" fill="white" stroke="white" stroke-width="0.4"/>
    <path d="M35.3637 28.9806C35.3637 29.2261 35.4612 29.4616 35.6349 29.6352C35.8085 29.8088 36.0439 29.9063 36.2894 29.9063C36.5349 29.9063 36.7704 29.8088 36.944 29.6352C37.1176 29.4616 37.2151 29.2261 37.2151 28.9806C37.2151 28.7351 37.1176 28.4996 36.944 28.326C36.7704 28.1524 36.5349 28.0549 36.2894 28.0549C36.0439 28.0549 35.8085 28.1524 35.6349 28.326C35.4612 28.4996 35.3637 28.7351 35.3637 28.9806Z" fill="white" stroke="white" stroke-width="0.4"/>
    <path d="M36.3486 32.4017C36.3486 32.6472 36.4461 32.8827 36.6197 33.0563C36.7933 33.2299 37.0288 33.3274 37.2743 33.3274C37.5198 33.3274 37.7553 33.2299 37.9289 33.0563C38.1025 32.8827 38.2 32.6472 38.2 32.4017C38.2 32.1562 38.1025 31.9208 37.9289 31.7472C37.7553 31.5736 37.5198 31.476 37.2743 31.476C37.0288 31.476 36.7933 31.5736 36.6197 31.7472C36.4461 31.9208 36.3486 32.1562 36.3486 32.4017Z" fill="white" stroke="white" stroke-width="0.4"/>
    <path d="M26.9663 35.2527C26.9663 35.4982 27.0638 35.7336 27.2374 35.9073C27.411 36.0809 27.6465 36.1784 27.892 36.1784C28.1375 36.1784 28.3729 36.0809 28.5465 35.9073C28.7201 35.7336 28.8177 35.4982 28.8177 35.2527C28.8177 35.0072 28.7201 34.7717 28.5465 34.5981C28.3729 34.4245 28.1375 34.327 27.892 34.327C27.6464 34.327 27.411 34.4245 27.2374 34.5981C27.0638 34.7717 26.9663 35.0072 26.9663 35.2527Z" fill="white" stroke="white" stroke-width="0.4"/>
</svg>
