<svg width="50" height="50" viewBox="0 0 50 50" fill="none" xmlns="http://www.w3.org/2000/svg">
<circle cx="25" cy="25" r="25" fill="#636ACC"/>
<path d="M12.9792 29.0178L12.9796 29.0174L30.1434 11.7292C30.1435 11.7291 30.1436 11.729 30.1437 11.7289C30.5827 11.2903 31.3581 11.2904 31.7969 11.7292L37.0208 16.9531C37.4597 17.392 37.4597 18.0433 37.0208 18.4822L19.7322 35.7708C19.6167 35.8863 19.5072 35.967 19.3887 36.0196C19.2709 36.072 19.1367 36.1 18.9677 36.1H13.7438C13.4047 36.1 13.1339 35.9876 12.9481 35.8019C12.7624 35.6161 12.65 35.3453 12.65 35.0062V29.7823C12.65 29.6133 12.678 29.4791 12.7304 29.3613C12.783 29.2428 12.8637 29.1333 12.9792 29.0178ZM31.0121 14.1272L30.9057 14.0244L30.8015 14.1294L14.8811 30.1742L14.8376 30.2181V30.2799V33.7624V33.9124H14.9876H18.4701H18.5323L18.5762 33.8685L34.621 17.8237L34.7289 17.7158L34.6191 17.6098L31.0121 14.1272ZM36.1318 33.7881C36.4709 33.7881 36.7418 33.9004 36.9275 34.0862C37.1133 34.2719 37.2256 34.5428 37.2256 34.8818C37.2256 35.2209 37.1133 35.4918 36.9275 35.6775C36.7418 35.8633 36.4709 35.9756 36.1318 35.9756H28.6692C28.3301 35.9756 28.0592 35.8633 27.8735 35.6775C27.6877 35.4918 27.5754 35.2209 27.5754 34.8818C27.5754 34.5428 27.6877 34.2719 27.8735 34.0862C28.0592 33.9004 28.3301 33.7881 28.6692 33.7881H36.1318ZM36.1318 28.8129C36.4709 28.8129 36.7418 28.9253 36.9275 29.111C37.1133 29.2968 37.2256 29.5677 37.2256 29.9067C37.2256 30.2458 37.1133 30.5166 36.9275 30.7024C36.7418 30.8881 36.4709 31.0005 36.1318 31.0005H31.1567C30.8177 31.0005 30.5468 30.8881 30.361 30.7024C30.1753 30.5166 30.0629 30.2458 30.0629 29.9067C30.0629 29.5677 30.1753 29.2968 30.361 29.111C30.5468 28.9253 30.8177 28.8129 31.1567 28.8129H36.1318Z" fill="white" stroke="#636ACC" stroke-width="0.3"/>
</svg>
