<svg width="40" height="40" viewBox="0 0 40 40" fill="none" xmlns="http://www.w3.org/2000/svg">
    <circle cx="20" cy="20" r="20" fill="#DFDFDF"/>
    <g clip-path="url(#clip0)">
        <path d="M30 19.992C30 14.4736 25.5229 10.0001 20.0001 10.0001C14.4772 10.0001 9.99999 14.4736 9.99999 19.992C9.99999 25.0896 13.8203 29.2953 18.7561 29.9073C19.0343 29.9659 19.3732 30.0001 19.7769 30.0001C19.8902 30.0001 19.9995 29.9941 20.105 29.9833C25.5795 29.927 30 25.4755 30 19.992ZM28.5701 20.1333C28.5413 19.6348 28.4755 19.1468 28.3752 18.6725C28.3841 18.5032 28.3865 18.3427 28.382 18.1936C28.506 18.7735 28.5714 19.3751 28.5714 19.992C28.5714 20.0392 28.5709 20.0863 28.5701 20.1333ZM11.4286 19.992C11.4286 19.3863 11.4917 18.7954 11.6113 18.2253C11.9815 18.6212 12.8539 18.6119 13.0667 18.0204C13.4474 18.2473 13.959 18.2886 13.959 18.742C13.959 20.2387 14.0123 21.8432 15.3722 21.868C15.4105 21.8685 16.1306 22.1408 16.4733 23.0296C16.5918 23.3368 17.0605 23.0296 17.5745 23.0296C17.8311 23.0296 17.5745 23.4619 17.5745 24.3966C17.5745 25.3277 19.5821 26.7615 19.5821 26.7615C19.5728 27.3778 19.5981 27.8762 19.6494 28.2744C19.1962 28.266 18.8144 28.3261 18.5143 28.4282C14.4886 27.7252 11.4286 24.2158 11.4286 19.992ZM22.1102 28.2949C22.0658 28.0774 21.8714 27.9583 21.5167 28.0515C21.7997 26.8464 21.9373 26.1713 22.5281 25.6587C23.3829 24.9178 22.6299 24.0938 21.9794 24.1909C21.4667 24.2683 21.7907 23.5561 21.3331 23.5168C20.8755 23.4785 20.2779 22.5683 19.6193 22.2551C19.2702 22.0894 18.9271 21.6451 18.3887 21.6252C17.9115 21.6067 17.2141 22.0287 17.2141 21.7034C17.2141 20.6556 17.108 19.908 17.0862 19.6094C17.0686 19.3695 16.9294 19.5286 17.5745 19.5441C17.9256 19.5535 17.7541 18.8389 18.1016 18.811C18.4429 18.784 19.2562 19.1305 19.4634 18.9924C19.6559 18.8638 20.8784 22.2012 20.8784 19.5441C20.8784 19.2288 20.7151 18.6807 20.8784 18.3821C21.5242 17.2021 22.1288 16.2405 22.0745 16.0998C22.0437 16.0206 21.4138 15.9552 20.9098 16.1243C20.7397 16.1811 20.9639 16.4475 20.7196 16.5044C19.8043 16.7157 18.9956 16.2576 19.2788 15.827C19.5688 15.3858 20.6195 15.6345 20.7116 14.7493C20.7646 14.2422 20.8085 13.655 20.8379 13.2185C22.0698 13.4111 21.9342 11.6199 20.1025 11.4281C23.8081 11.4715 26.9482 13.8645 28.1005 17.1856C28.0422 17.1324 27.9744 17.1001 27.8961 17.0923C27.3423 15.709 25.9981 16.7101 26.4541 17.9301C24.0109 19.8081 24.6363 21.1179 25.439 21.868C25.8614 22.2622 26.2641 22.8552 26.5263 23.2811C26.2409 24.1132 27.5778 23.78 28.2371 22.3679C27.3985 25.2763 25.0588 27.549 22.1102 28.2949Z" fill="white"/>
    </g>
    <defs>
        <clipPath id="clip0">
            <rect width="20" height="20" fill="white" transform="translate(10 10)"/>
        </clipPath>
    </defs>
</svg>
