<svg width="50" height="50" viewBox="0 0 50 50" fill="none" xmlns="http://www.w3.org/2000/svg">
    <circle cx="25" cy="25" r="25" fill="#636ACC"/>
    <path fill-rule="evenodd" clip-rule="evenodd" d="M24.3503 24.3525C24.5586 24.5608 24.815 24.6569 25.0874 24.6569C25.3598 24.6569 25.6162 24.5608 25.8245 24.3525L30.2952 19.8818C30.6958 19.4811 30.6958 18.8081 30.2952 18.4075L25.8245 13.9368C25.4239 13.5362 24.7509 13.5362 24.3503 13.9368C23.9497 14.3374 23.9497 15.0104 24.3503 15.411L27.0262 18.0869H21.5153C16.4036 18.0869 12.2373 22.2532 12.2373 27.3649C12.2373 32.4766 16.4036 36.6429 21.5153 36.6429H41.8115C42.3883 36.6429 42.853 36.1782 42.853 35.6013C42.853 35.0244 42.3883 34.5597 41.8115 34.5597H21.5153C17.5573 34.5597 14.3204 31.3389 14.3204 27.3649C14.3204 23.3909 17.5573 20.1701 21.5153 20.1701H27.0585L24.3503 22.8783C23.9497 23.2789 23.9497 23.9519 24.3503 24.3525Z" fill="white"/>
    <path d="M24.3503 24.3525L24.0674 24.6353L24.0674 24.6353L24.3503 24.3525ZM25.8245 24.3525L25.5417 24.0696L25.8245 24.3525ZM30.2952 19.8818L30.0124 19.5989L30.0124 19.5989L30.2952 19.8818ZM30.2952 18.4075L30.0124 18.6904L30.0124 18.6904L30.2952 18.4075ZM25.8245 13.9368L25.5417 14.2196V14.2196L25.8245 13.9368ZM24.3503 13.9368L24.0674 13.654L24.3503 13.9368ZM24.3503 15.411L24.6331 15.1282V15.1282L24.3503 15.411ZM27.0262 18.0869V18.4869H27.9919L27.309 17.8041L27.0262 18.0869ZM27.0585 20.1701L27.3413 20.4529L28.0242 19.7701H27.0585V20.1701ZM24.3503 22.8783L24.6331 23.1611L24.3503 22.8783ZM25.0874 24.2569C24.9156 24.2569 24.7626 24.1991 24.6331 24.0696L24.0674 24.6353C24.3546 24.9224 24.7144 25.0569 25.0874 25.0569V24.2569ZM25.5417 24.0696C25.4122 24.1991 25.2592 24.2569 25.0874 24.2569V25.0569C25.4604 25.0569 25.8202 24.9224 26.1074 24.6353L25.5417 24.0696ZM30.0124 19.5989L25.5417 24.0696L26.1074 24.6353L30.5781 20.1646L30.0124 19.5989ZM30.0124 18.6904C30.2568 18.9348 30.2568 19.3545 30.0124 19.5989L30.5781 20.1646C31.1349 19.6078 31.1349 18.6815 30.5781 18.1247L30.0124 18.6904ZM25.5417 14.2196L30.0124 18.6904L30.5781 18.1247L26.1074 13.654L25.5417 14.2196ZM24.6331 14.2196C24.8775 13.9753 25.2973 13.9753 25.5417 14.2196L26.1074 13.654C25.5505 13.0971 24.6243 13.0971 24.0674 13.654L24.6331 14.2196ZM24.6331 15.1282C24.3887 14.8838 24.3887 14.464 24.6331 14.2196L24.0674 13.654C23.5106 14.2108 23.5106 15.1371 24.0674 15.6939L24.6331 15.1282ZM27.309 17.8041L24.6331 15.1282L24.0674 15.6939L26.7434 18.3698L27.309 17.8041ZM21.5153 18.4869H27.0262V17.6869H21.5153V18.4869ZM12.6373 27.3649C12.6373 22.4741 16.6245 18.4869 21.5153 18.4869V17.6869C16.1827 17.6869 11.8373 22.0323 11.8373 27.3649H12.6373ZM21.5153 36.2429C16.6245 36.2429 12.6373 32.2557 12.6373 27.3649H11.8373C11.8373 32.6975 16.1827 37.0429 21.5153 37.0429V36.2429ZM41.8115 36.2429H21.5153V37.0429H41.8115V36.2429ZM42.453 35.6013C42.453 35.9573 42.1674 36.2429 41.8115 36.2429V37.0429C42.6093 37.0429 43.253 36.3991 43.253 35.6013H42.453ZM41.8115 34.9597C42.1674 34.9597 42.453 35.2453 42.453 35.6013H43.253C43.253 34.8035 42.6093 34.1597 41.8115 34.1597V34.9597ZM21.5153 34.9597H41.8115V34.1597H21.5153V34.9597ZM13.9204 27.3649C13.9204 31.5604 17.337 34.9597 21.5153 34.9597V34.1597C17.7776 34.1597 14.7204 31.1174 14.7204 27.3649H13.9204ZM21.5153 19.7701C17.337 19.7701 13.9204 23.1694 13.9204 27.3649H14.7204C14.7204 23.6124 17.7776 20.5701 21.5153 20.5701V19.7701ZM27.0585 19.7701H21.5153V20.5701H27.0585V19.7701ZM24.6331 23.1611L27.3413 20.4529L26.7756 19.8872L24.0674 22.5954L24.6331 23.1611ZM24.6331 24.0696C24.3887 23.8252 24.3887 23.4055 24.6331 23.1611L24.0674 22.5954C23.5106 23.1522 23.5106 24.0785 24.0674 24.6353L24.6331 24.0696Z" fill="white"/>
</svg>
