<svg width="18" height="18" viewBox="0 0 18 18" fill="none" xmlns="http://www.w3.org/2000/svg">
<path fill-rule="evenodd" clip-rule="evenodd" d="M16.0526 17L12.7817 13.7577C11.4926 14.7924 9.88839 15.355 8.23543 15.352C4.24 15.352 1 12.1383 1 8.176C1 4.21257 4.24 1 8.23429 1C12.232 1 15.472 4.21143 15.472 8.176C15.4732 9.88421 14.8594 11.5357 13.7429 12.8286L17 16.0594L16.0526 17ZM8.2353 2.06276C4.83188 2.06276 2.07187 4.7999 2.07187 8.1759C2.07187 11.5519 4.83188 14.2879 8.2353 14.2879C11.6399 14.2879 14.3999 11.5519 14.3999 8.1759C14.3999 4.7999 11.641 2.06276 8.2353 2.06276Z" fill="#C3C4CB"/>
<path d="M12.7817 13.7577L12.9225 13.6157L12.7957 13.49L12.6565 13.6017L12.7817 13.7577ZM16.0526 17L15.9118 17.142L16.0527 17.2817L16.1935 17.1419L16.0526 17ZM8.23543 15.352L8.23579 15.152H8.23543V15.352ZM15.472 8.176H15.272V8.17614L15.472 8.176ZM13.7429 12.8286L13.5915 12.6978L13.4695 12.8391L13.602 12.9706L13.7429 12.8286ZM17 16.0594L17.1409 16.2014L17.2839 16.0594L17.1408 15.9174L17 16.0594ZM12.6409 13.8998L15.9118 17.142L16.1934 16.858L12.9225 13.6157L12.6409 13.8998ZM8.23507 15.552C9.93368 15.555 11.5822 14.9769 12.9069 13.9137L12.6565 13.6017C11.403 14.6078 9.8431 15.1549 8.23579 15.152L8.23507 15.552ZM0.8 8.176C0.8 12.2503 4.1311 15.552 8.23543 15.552V15.152C4.3489 15.152 1.2 12.0263 1.2 8.176H0.8ZM8.23429 0.8C4.1311 0.8 0.8 4.10057 0.8 8.176H1.2C1.2 4.32457 4.3489 1.2 8.23429 1.2V0.8ZM15.672 8.176C15.672 4.09934 12.3408 0.8 8.23429 0.8V1.2C12.1232 1.2 15.272 4.32351 15.272 8.176H15.672ZM13.8942 12.9593C15.0421 11.6301 15.6732 9.93212 15.672 8.17586L15.272 8.17614C15.2731 9.8363 14.6766 11.4414 13.5915 12.6978L13.8942 12.9593ZM17.1408 15.9174L13.8837 12.6866L13.602 12.9706L16.8592 16.2014L17.1408 15.9174ZM16.1935 17.1419L17.1409 16.2014L16.8591 15.9175L15.9117 16.8581L16.1935 17.1419ZM2.27188 8.1759C2.27188 4.91191 4.94078 2.26276 8.2353 2.26276V1.86276C4.72297 1.86276 1.87187 4.6879 1.87187 8.1759H2.27188ZM8.2353 14.0879C4.94073 14.0879 2.27188 11.4398 2.27188 8.1759H1.87187C1.87187 11.664 4.72302 14.4879 8.2353 14.4879V14.0879ZM14.1999 8.1759C14.1999 11.4398 11.531 14.0879 8.2353 14.0879V14.4879C11.7487 14.4879 14.5999 11.664 14.5999 8.1759H14.1999ZM8.2353 2.26276C11.5321 2.26276 14.1999 4.91191 14.1999 8.1759H14.5999C14.5999 4.6879 11.7499 1.86276 8.2353 1.86276V2.26276Z" fill="#C3C4CB"/>
</svg>
