<svg width="50" height="50" viewBox="0 0 50 50" fill="none" xmlns="http://www.w3.org/2000/svg">
    <circle cx="25" cy="25" r="25" fill="#636ACC"/>
    <path fill-rule="evenodd" clip-rule="evenodd" d="M29.8214 22.0408L29.8214 18.9468L29.8214 18.9286C29.8214 17.6106 29.3214 16.373 28.4107 15.4421C27.5 14.5111 26.2893 14 25 14C23.7107 14 22.5 14.5111 21.5893 15.4421C20.6786 16.373 20.1786 17.6106 20.1786 18.9286L20.1786 22.0408C17.2016 23.0301 15.0423 25.8708 15.0006 29.2342C15.0002 29.2672 15 29.3002 15 29.3333C15 33.5683 18.3571 37 22.5 37H27.5C31.6429 37 35 33.5683 35 29.3333C35 28.9575 34.9736 28.5879 34.9225 28.2265C34.6799 26.5106 33.8817 24.9786 32.7201 23.8279C31.9091 23.0242 30.9211 22.4062 29.8214 22.0408ZM28.6648 21.7585C28.6932 21.763 28.7216 21.7677 28.75 21.7725V18.9479C28.75 18.9475 28.75 18.9472 28.75 18.9468L28.75 18.9286C28.75 18.1286 28.509 17.385 28.0974 16.7698C27.9665 16.5746 27.817 16.3904 27.65 16.2197C27.5988 16.1671 27.5464 16.1162 27.4928 16.0671C26.8298 15.4628 25.9561 15.0952 25 15.0952C24.0439 15.0952 23.1702 15.4629 22.5072 16.0671C22.4536 16.1162 22.4012 16.1671 22.35 16.2197C22.183 16.3904 22.0336 16.5745 21.9027 16.7696C21.491 17.3848 21.25 18.1285 21.25 18.9286V18.9468C21.25 18.9473 21.25 18.9477 21.25 18.9481V21.7725C21.2784 21.7677 21.3068 21.763 21.3352 21.7585C21.7148 21.6981 22.1038 21.6667 22.5 21.6667H27.5C27.5266 21.6667 27.5531 21.6668 27.5796 21.6671C27.9477 21.671 28.3102 21.7023 28.6648 21.7585ZM32.0464 33.9808C30.8321 35.2221 29.2179 35.9048 27.5 35.9048H22.5C22.3926 35.9048 22.2857 35.9021 22.1792 35.8968C20.5819 35.8172 19.092 35.1445 17.9536 33.9808C17.8018 33.8256 17.6585 33.6641 17.5241 33.4967C16.5828 32.3253 16.0714 30.8699 16.0714 29.3333C16.0714 27.5773 16.7393 25.9271 17.9536 24.6859C19.1679 23.4446 20.7821 22.7619 22.5 22.7619H27.5C29.2179 22.7619 30.8321 23.4446 32.0464 24.6859C33.2607 25.9271 33.9286 27.5773 33.9286 29.3333C33.9286 31.0894 33.2607 32.7395 32.0464 33.9808ZM25 31C24.4467 31 24 30.799 24 30.55V28.45C24 28.201 24.4467 28 25 28C25.5533 28 26 28.201 26 28.45V30.55C26 30.799 25.5533 31 25 31Z" fill="white"/>
    <path d="M29.8214 18.9468L29.3214 18.9468V18.9468H29.8214ZM29.8214 22.0408H29.3214V22.4016L29.6638 22.5153L29.8214 22.0408ZM29.8214 18.9286L30.3214 18.9286V18.9286H29.8214ZM28.4107 15.4421L28.0533 15.7917L28.4107 15.4421ZM21.5893 15.4421L21.9467 15.7917L21.5893 15.4421ZM20.1786 18.9286H20.6786V18.9286L20.1786 18.9286ZM20.1786 22.0408L20.3362 22.5153L20.6786 22.4016V22.0408H20.1786ZM15.0006 29.2342L15.5006 29.2404L15.0006 29.2342ZM34.9225 28.2265L34.4274 28.2965L34.9225 28.2265ZM32.7201 23.8279L32.3681 24.183L32.3682 24.1831L32.7201 23.8279ZM28.6648 21.7585L28.7431 21.2647L28.7431 21.2647L28.6648 21.7585ZM28.75 21.7725L28.666 22.2654L29.25 22.3649V21.7725H28.75ZM28.75 18.9468L28.25 18.9468V18.9468H28.75ZM28.75 18.9286L29.25 18.9286V18.9286H28.75ZM28.0974 16.7698L28.513 16.4918L28.5127 16.4913L28.0974 16.7698ZM27.65 16.2197L27.2917 16.5684L27.2926 16.5693L27.65 16.2197ZM27.4928 16.0671L27.8307 15.6986L27.8296 15.6975L27.4928 16.0671ZM22.5072 16.0671L22.1704 15.6975L22.1692 15.6986L22.5072 16.0671ZM22.35 16.2197L22.7074 16.5693L22.7083 16.5684L22.35 16.2197ZM21.9027 16.7696L21.4875 16.4911L21.4872 16.4915L21.9027 16.7696ZM21.25 18.9481L20.75 18.947V18.9481H21.25ZM21.25 21.7725H20.75V22.3649L21.334 22.2654L21.25 21.7725ZM21.3352 21.7585L21.4135 22.2524L21.4139 22.2523L21.3352 21.7585ZM27.5796 21.6671L27.585 21.1671H27.585L27.5796 21.6671ZM32.0464 33.9808L32.4038 34.3304L32.0464 33.9808ZM22.1792 35.8968L22.1543 36.3962L22.1543 36.3962L22.1792 35.8968ZM17.9536 33.9808L17.5962 34.3304H17.5962L17.9536 33.9808ZM17.5241 33.4967L17.9138 33.1835H17.9138L17.5241 33.4967ZM17.9536 24.6859L18.311 25.0355V25.0355L17.9536 24.6859ZM32.0464 24.6859L31.689 25.0355L32.0464 24.6859ZM29.3214 18.9468L29.3214 22.0408H30.3214L30.3214 18.9468H29.3214ZM30.3214 18.9469L30.3214 18.9286L29.3214 18.9285L29.3214 18.9468L30.3214 18.9469ZM28.0533 15.7917C28.8712 16.6278 29.3214 17.7393 29.3214 18.9286H30.3214C30.3214 17.482 29.7717 16.1183 28.7681 15.0924L28.0533 15.7917ZM25 14.5C26.1536 14.5 27.2358 14.956 28.0533 15.7917L28.7681 15.0924C27.7642 14.0662 26.425 13.5 25 13.5V14.5ZM25 13.5C23.575 13.5 22.2358 14.0662 21.2319 15.0924L21.9467 15.7917C22.7642 14.956 23.8464 14.5 25 14.5V13.5ZM21.2319 15.0924C20.2283 16.1183 19.6786 17.482 19.6786 18.9286L20.6786 18.9286C20.6786 17.7393 21.1288 16.6278 21.9467 15.7917L21.2319 15.0924ZM19.6786 18.9286L19.6786 22.0408H20.6786L20.6786 18.9286H19.6786ZM15.5006 29.2404C15.5396 26.0902 17.5613 23.4374 20.3362 22.5153L20.0209 21.5663C16.8418 22.6227 14.545 25.6514 14.5007 29.228L15.5006 29.2404ZM15.5 29.3333C15.5 29.3023 15.5002 29.2713 15.5006 29.2404L14.5007 29.228C14.5002 29.2631 14.5 29.2982 14.5 29.3333H15.5ZM22.5 36.5C18.6436 36.5 15.5 33.3025 15.5 29.3333H14.5C14.5 33.834 18.0707 37.5 22.5 37.5V36.5ZM22.5 37.5H27.5V36.5H22.5V37.5ZM34.5 29.3333C34.5 33.3025 31.3564 36.5 27.5 36.5V37.5C31.9293 37.5 35.5 33.834 35.5 29.3333H34.5ZM34.4274 28.2965C34.4752 28.6348 34.5 28.9809 34.5 29.3333H35.5C35.5 28.934 35.4719 28.541 35.4175 28.1565L34.4274 28.2965ZM32.3682 24.1831C33.4538 25.2585 34.2004 26.6909 34.4274 28.2965L35.4175 28.1565C35.1594 26.3303 34.3097 24.6987 33.072 23.4727L32.3682 24.1831ZM33.072 23.4727C32.208 22.6165 31.1539 21.9567 29.9791 21.5663L29.6638 22.5153C30.6882 22.8557 31.6103 23.432 32.3681 24.183L33.072 23.4727ZM28.5865 22.2524C28.6131 22.2566 28.6396 22.2609 28.666 22.2654L28.834 21.2796C28.8037 21.2745 28.7734 21.2695 28.7431 21.2647L28.5865 22.2524ZM29.25 21.7725V18.9479H28.25V21.7725H29.25ZM28.25 18.9468C28.25 18.9474 28.25 18.9479 28.25 18.948C28.25 18.9483 28.25 18.9481 28.25 18.9479H29.25C29.25 18.9473 29.25 18.9468 29.25 18.9467C29.25 18.9464 29.25 18.9466 29.25 18.9468H28.25ZM28.25 18.9285L28.25 18.9468L29.25 18.9469L29.25 18.9286L28.25 18.9285ZM27.6819 17.0478C28.0399 17.583 28.25 18.2302 28.25 18.9286H29.25C29.25 18.0269 28.9782 17.187 28.513 16.4918L27.6819 17.0478ZM28.5127 16.4913C28.3647 16.2707 28.1959 16.0627 28.0074 15.87L27.2926 16.5693C27.4382 16.7182 27.5683 16.8785 27.6822 17.0483L28.5127 16.4913ZM28.0083 15.8709C27.9505 15.8116 27.8913 15.7541 27.8307 15.6986L27.1548 16.4355C27.2014 16.4783 27.2471 16.5226 27.2917 16.5684L28.0083 15.8709ZM25 15.5952C25.825 15.5952 26.5802 15.9119 27.156 16.4366L27.8296 15.6975C27.0793 15.0138 26.0872 14.5952 25 14.5952V15.5952ZM25 14.5952C23.9128 14.5952 22.9206 15.0138 22.1704 15.6975L22.844 16.4366C23.4198 15.9119 24.1749 15.5952 25 15.5952V14.5952ZM22.7083 16.5684C22.7529 16.5226 22.7986 16.4783 22.8451 16.4356L22.1692 15.6986C22.1087 15.7541 22.0495 15.8116 21.9917 15.8709L22.7083 16.5684ZM22.318 17.0481C22.4318 16.8784 22.5619 16.7181 22.7074 16.5693L21.9926 15.87C21.8042 16.0626 21.6354 16.2705 21.4875 16.4911L22.318 17.0481ZM21.4872 16.4915C21.0219 17.1868 20.75 18.0268 20.75 18.9286H21.75C21.75 18.2301 21.9601 17.5829 22.3183 17.0477L21.4872 16.4915ZM20.75 18.9286V18.9468H21.75V18.9286H20.75ZM20.75 18.9468C20.75 18.9469 20.75 18.9469 20.75 18.947L21.75 18.9492C21.75 18.9484 21.75 18.9476 21.75 18.9468H20.75ZM21.75 21.7725V18.9481H20.75V21.7725H21.75ZM21.2569 21.2647C21.2266 21.2695 21.1963 21.2745 21.166 21.2796L21.334 22.2654C21.3604 22.2609 21.3869 22.2566 21.4135 22.2524L21.2569 21.2647ZM21.4139 22.2523C21.7675 22.196 22.1303 22.1667 22.5 22.1667V21.1667C22.0774 21.1667 21.662 21.2002 21.2565 21.2648L21.4139 22.2523ZM27.5 21.1667H22.5V22.1667H27.5V21.1667ZM27.5 22.1667C27.5248 22.1667 27.5495 22.1668 27.5742 22.1671L27.585 21.1671C27.5567 21.1668 27.5284 21.1667 27.5 21.1667V22.1667ZM27.5742 22.1671C27.9175 22.1707 28.2556 22.1999 28.5865 22.2524L28.7431 21.2647C28.3647 21.2047 27.9778 21.1713 27.585 21.1671L27.5742 22.1671ZM27.5 36.4048C29.3539 36.4048 31.0965 35.6668 32.4038 34.3304L31.689 33.6311C30.5677 34.7773 29.0818 35.4048 27.5 35.4048V36.4048ZM27.5 35.4048H22.5V36.4048H27.5V35.4048ZM22.1543 36.3962C22.2691 36.4019 22.3843 36.4048 22.5 36.4048V35.4048C22.4009 35.4048 22.3022 35.4023 22.2041 35.3974L22.1543 36.3962ZM17.5962 34.3304C18.8215 35.583 20.4297 36.3103 22.1543 36.3962L22.2041 35.3974C20.7341 35.3242 19.3624 34.706 18.311 33.6311L17.5962 34.3304ZM17.1343 33.8099C17.279 33.99 17.433 34.1637 17.5962 34.3304L18.311 33.6311C18.1706 33.4876 18.0381 33.3382 17.9138 33.1835L17.1343 33.8099ZM15.5714 29.3333C15.5714 30.9822 16.1207 32.5485 17.1343 33.8099L17.9138 33.1835C17.0448 32.1021 16.5714 30.7575 16.5714 29.3333H15.5714ZM17.5962 24.3362C16.2892 25.6722 15.5714 27.4484 15.5714 29.3333H16.5714C16.5714 27.7062 17.1893 26.1821 18.311 25.0355L17.5962 24.3362ZM22.5 22.2619C20.6461 22.2619 18.9035 22.9999 17.5962 24.3362L18.311 25.0355C19.4323 23.8893 20.9182 23.2619 22.5 23.2619V22.2619ZM22.5 23.2619H27.5V22.2619H22.5V23.2619ZM32.4038 24.3362C31.0965 22.9999 29.3539 22.2619 27.5 22.2619V23.2619C29.0818 23.2619 30.5677 23.8893 31.689 25.0355L32.4038 24.3362ZM34.4286 29.3333C34.4286 27.4484 33.7108 25.6722 32.4038 24.3362L31.689 25.0355C32.8107 26.1821 33.4286 27.7062 33.4286 29.3333H34.4286ZM32.4038 34.3304C33.7108 32.9945 34.4286 31.2183 34.4286 29.3333H33.4286C33.4286 30.9604 32.8107 32.4846 31.689 33.6311L32.4038 34.3304ZM23.5 30.55C23.5 30.9932 23.8743 31.2285 24.0873 31.3243C24.3466 31.441 24.6697 31.5 25 31.5V30.5C24.777 30.5 24.6001 30.4585 24.4977 30.4124C24.446 30.3891 24.4348 30.3744 24.4431 30.3833C24.4541 30.395 24.5 30.4523 24.5 30.55H23.5ZM24.5 30.55V28.45H23.5V30.55H24.5ZM25 27.5C24.6697 27.5 24.3466 27.559 24.0873 27.6757C23.8743 27.7715 23.5 28.0068 23.5 28.45H24.5C24.5 28.5477 24.4541 28.605 24.4431 28.6167C24.4348 28.6256 24.446 28.6109 24.4977 28.5876C24.6001 28.5415 24.777 28.5 25 28.5V27.5ZM26.5 28.45C26.5 28.0068 26.1257 27.7715 25.9127 27.6757C25.6534 27.559 25.3303 27.5 25 27.5V28.5C25.223 28.5 25.3999 28.5415 25.5023 28.5876C25.554 28.6109 25.5652 28.6256 25.5569 28.6167C25.5459 28.605 25.5 28.5477 25.5 28.45H26.5ZM25.5 28.45V30.55H26.5V28.45H25.5ZM25 31.5C25.3303 31.5 25.6534 31.441 25.9127 31.3243C26.1257 31.2285 26.5 30.9932 26.5 30.55H25.5C25.5 30.4523 25.5459 30.395 25.5569 30.3833C25.5652 30.3744 25.554 30.3891 25.5023 30.4124C25.3999 30.4585 25.223 30.5 25 30.5V31.5Z" fill="white"/>
</svg>
