<svg width="26" height="26" viewBox="0 0 26 26" fill="none" xmlns="http://www.w3.org/2000/svg">
<mask id="mask0_898_251" style="mask-type:alpha" maskUnits="userSpaceOnUse" x="0" y="0" width="26" height="26">
<rect width="26" height="26" fill="#C4C4C4"/>
</mask>
<g mask="url(#mask0_898_251)">
<path d="M25.0144 22.5538C24.0777 24.1391 22.0332 24.665 20.4478 23.7282L1.07546 12.2818C0.936545 12.1997 0.890971 12.0203 0.973892 11.8818L3.2265 8.12164C3.33598 7.93888 3.50854 7.80248 3.71164 7.73814L5.42509 7.19541C5.50404 7.1704 5.58991 7.18022 5.66117 7.22242L23.8428 17.9888C25.4261 18.9264 25.9505 20.9695 25.0144 22.5538Z" fill="url(#paint0_linear_898_251)"/>
<mask id="mask1_898_251" style="mask-type:alpha" maskUnits="userSpaceOnUse" x="0" y="7" width="26" height="18">
<path d="M24.8294 22.444C23.8927 24.0294 21.8481 24.5552 20.2628 23.6185L1.06083 12.2728C0.921917 12.1907 0.87634 12.0112 0.959252 11.8728L3.21265 8.1109C3.32155 7.92909 3.49288 7.79313 3.69467 7.72837L5.39996 7.18112C5.47919 7.15569 5.5655 7.16541 5.63709 7.2078L23.6577 17.8791C25.2411 18.8167 25.7655 20.8598 24.8294 22.444Z" fill="url(#paint1_linear_898_251)"/>
</mask>
<g mask="url(#mask1_898_251)">
<path d="M5.58225 8.73242V7.13239L3.40039 7.71422L5.58225 8.73242Z" fill="url(#paint2_linear_898_251)"/>
</g>
<g filter="url(#filter0_i_898_251)">
<path d="M14.2186 2.23574C13.7883 2.3423 13.5275 2.77924 13.6379 3.20852L18.8698 23.5518L23.2087 22.4359C24.6009 22.0779 25.4441 20.6643 25.0975 19.2691L20.7877 1.91663C20.7414 1.72989 20.6057 1.57815 20.4252 1.5113L19.2701 1.08328C19.1661 1.04472 19.0528 1.03837 18.9451 1.06505L14.2186 2.23574Z" fill="#2C394B"/>
</g>
<g filter="url(#filter1_i_898_251)">
<path d="M13.1109 2.49547C12.7997 2.57551 12.6123 2.89268 12.6923 3.20389L17.9383 23.6022L24.4493 21.9277C24.6386 21.8791 24.7525 21.6862 24.7039 21.4969L19.546 1.44127C19.4659 1.13006 19.1488 0.942656 18.8376 1.02269L13.1109 2.49547Z" fill="url(#paint3_linear_898_251)"/>
</g>
<g filter="url(#filter2_i_898_251)">
<path d="M24.2658 23.9035C23.2717 25.5859 21.1019 26.144 19.4195 25.1499L0.725764 14.1044C0.445221 13.9387 0.304951 13.8558 0.230058 13.7379C0.16418 13.6342 0.132826 13.5122 0.140493 13.3896C0.149209 13.2502 0.232091 13.1099 0.397853 12.8294L3.05064 8.33971C3.2164 8.05917 3.29928 7.91889 3.41719 7.844C3.52091 7.77812 3.64282 7.74677 3.76545 7.75444C3.90486 7.76315 4.04514 7.84603 4.32568 8.01179L23.0194 19.0572C24.7019 20.0513 25.2599 22.2211 24.2658 23.9035Z" fill="url(#paint4_linear_898_251)"/>
</g>
<mask id="mask2_898_251" style="mask-type:alpha" maskUnits="userSpaceOnUse" x="0" y="7" width="25" height="19">
<path d="M24.2658 23.9035C23.2717 25.5859 21.1019 26.144 19.4195 25.1499L0.42521 13.9268C0.148559 13.7634 0.0568034 13.4066 0.220267 13.1299L3.22823 8.03915C3.39169 7.7625 3.74847 7.67074 4.02512 7.83421L23.0194 19.0572C24.7019 20.0513 25.2599 22.2211 24.2658 23.9035Z" fill="url(#paint5_linear_898_251)"/>
</mask>
<g mask="url(#mask2_898_251)">
<g filter="url(#filter3_i_898_251)">
<path d="M3.22823 8.03915L-0.07571 13.6309L26.0657 20.8572L4.02512 7.83421C3.74847 7.67074 3.39169 7.7625 3.22823 8.03915Z" fill="url(#paint6_linear_898_251)"/>
</g>
</g>
<path d="M7.28301 12.9696L6.42699 14.3938L7.42637 14.9945L7.53787 14.8089L6.75393 14.3378L7.49844 13.099L7.28301 12.9696ZM8.65906 14.2935C8.50746 14.2024 8.3546 14.1811 8.20329 14.2341C8.04919 14.2827 7.92858 14.384 7.83626 14.5375C7.73436 14.7071 7.7019 14.8695 7.73771 15.0268C7.76913 15.1733 7.86204 15.2943 8.01364 15.3854C8.15128 15.4682 8.28896 15.4966 8.42548 15.4728C8.53565 15.4521 8.63069 15.3979 8.71217 15.3165L8.50073 15.1894C8.43683 15.2325 8.37934 15.2604 8.32665 15.2667C8.26039 15.2731 8.18975 15.2551 8.11595 15.2107C8.03217 15.1603 7.98313 15.0929 7.96642 15.0122C7.95092 14.9296 7.97174 14.8362 8.02371 14.7317L8.80565 15.2016C8.91396 15.0169 8.95839 14.8481 8.94094 14.6964C8.92271 14.528 8.82662 14.3942 8.65906 14.2935ZM8.56074 14.4706C8.7283 14.5713 8.7681 14.7175 8.68015 14.909L8.12361 14.5745C8.18833 14.4939 8.25782 14.4461 8.32927 14.4266C8.40592 14.4075 8.48095 14.4227 8.56074 14.4706ZM10.3264 14.7607L9.98111 15.3352C9.97046 15.1631 9.9007 15.0398 9.77503 14.9642C9.62742 14.8755 9.47736 14.8586 9.32884 14.916C9.1891 14.9678 9.07567 15.0707 8.98456 15.2223C8.88984 15.3799 8.85181 15.5335 8.87166 15.6812C8.89269 15.8405 8.98001 15.9662 9.13161 16.0574C9.27124 16.1413 9.41013 16.1542 9.54189 16.0976L9.46755 16.2213L9.66503 16.34L10.5378 14.8878L10.3264 14.7607ZM9.7198 15.1645C9.7976 15.2113 9.84345 15.2796 9.85695 15.3746C9.86805 15.4736 9.84202 15.5801 9.77488 15.6918L9.76409 15.7098C9.70175 15.8135 9.62946 15.8841 9.54601 15.9236C9.45098 15.9642 9.35839 15.9601 9.26663 15.905C9.1629 15.8427 9.10788 15.758 9.10437 15.6554C9.10084 15.5664 9.13365 15.4667 9.20199 15.3529C9.27032 15.2392 9.34502 15.1647 9.42487 15.1312C9.5179 15.0894 9.61607 15.1022 9.7198 15.1645ZM10.9692 15.682C10.8296 15.598 10.6871 15.5776 10.5426 15.6238C10.3973 15.6668 10.281 15.7653 10.1875 15.9208C10.094 16.0764 10.0616 16.2253 10.093 16.3718C10.1224 16.5171 10.2073 16.6333 10.347 16.7172C10.4826 16.7988 10.6211 16.8033 10.7653 16.7351L10.6693 16.8947C10.5531 17.0882 10.4045 17.132 10.225 17.0241C10.1412 16.9737 10.0878 16.9226 10.0643 16.8759C10.04 16.826 10.0424 16.7677 10.0664 16.7007L9.85496 16.5736C9.80657 16.6993 9.80209 16.8106 9.84433 16.912C9.88776 17.0114 9.98068 17.1053 10.1243 17.1916C10.4435 17.3835 10.7034 17.317 10.9 16.9899L11.479 16.0264L11.2676 15.8993L11.1849 16.0369C11.1762 15.8797 11.1049 15.7635 10.9692 15.682ZM10.898 15.8727C10.9878 15.9266 11.0396 15.9985 11.0531 16.0935C11.0638 16.1841 11.0382 16.2855 10.9735 16.3932C10.9099 16.4989 10.8336 16.5671 10.7486 16.6002C10.6608 16.6289 10.573 16.6168 10.4832 16.5629C10.3795 16.5005 10.3272 16.4203 10.3221 16.3249C10.317 16.243 10.345 16.1513 10.405 16.0515C10.4709 15.9418 10.5464 15.8704 10.6342 15.8418C10.7205 15.8067 10.8083 15.8187 10.898 15.8727ZM12.1713 16.4044C12.0197 16.3133 11.8669 16.2921 11.7156 16.345C11.5614 16.3936 11.4408 16.4949 11.3485 16.6485C11.2466 16.8181 11.2142 16.9805 11.25 17.1378C11.2814 17.2843 11.3743 17.4053 11.5259 17.4964C11.6635 17.5791 11.8012 17.6076 11.9377 17.5837C12.0479 17.563 12.1429 17.5088 12.2244 17.4275L12.013 17.3004C11.9491 17.3434 11.8916 17.3713 11.8389 17.3777C11.7726 17.384 11.702 17.366 11.6282 17.3216C11.5444 17.2713 11.4954 17.2038 11.4787 17.1232C11.4632 17.0405 11.484 16.9472 11.536 16.8426L12.3179 17.3126C12.4262 17.1279 12.4706 16.9591 12.4532 16.8074C12.435 16.6389 12.3389 16.5052 12.1713 16.4044ZM12.073 16.5816C12.2406 16.6823 12.2804 16.8284 12.1924 17.0199L11.6359 16.6854C11.7006 16.6049 11.7701 16.557 11.8415 16.5375C11.9182 16.5184 11.9932 16.5336 12.073 16.5816ZM13.3392 17.1063C13.2753 17.068 13.2087 17.0524 13.1368 17.0635C13.0801 17.0674 13.0211 17.0889 12.9616 17.1292L13.0551 16.9736L12.8436 16.8465L12.2238 17.8778L12.4352 18.0049L12.7637 17.4583C12.8177 17.3686 12.888 17.3104 12.9754 17.2869C13.0564 17.265 13.1299 17.2738 13.1937 17.3122C13.2416 17.341 13.2879 17.3769 13.3301 17.424L13.4572 17.2126C13.4321 17.1731 13.391 17.1375 13.3392 17.1063Z" fill="#A5B2C4"/>
<circle r="1.97228" transform="matrix(0.249074 0.968485 0.968485 -0.249074 21.399 22.1613)" fill="#C0CAD8" stroke="url(#paint7_linear_898_251)" stroke-width="0.201494"/>
<path d="M17.1939 6.744C18.2489 6.47269 18.8841 5.39757 18.6128 4.34264C18.3415 3.28771 17.2664 2.65246 16.2115 2.92376C15.1565 3.19507 14.5213 4.27019 14.7926 5.32512C15.0639 6.38005 16.139 7.0153 17.1939 6.744Z" fill="url(#paint8_linear_898_251)" stroke="url(#paint9_linear_898_251)" stroke-width="0.201494"/>
<path fill-rule="evenodd" clip-rule="evenodd" d="M4.36532 10.6187L4.55135 10.7225L4.2234 11.3098L3.78338 11.064L3.96948 10.7308C4.04782 10.5905 4.22504 10.5403 4.36532 10.6187ZM3.64154 11.318L3.3739 11.7972L3.81392 12.043L4.08156 11.5638L3.64154 11.318ZM3.23206 12.0512L3.67208 12.297L3.40413 12.7768L3.2181 12.6729C3.07782 12.5945 3.02761 12.4173 3.10595 12.277L3.23206 12.0512ZM4.3251 12.6617L3.92607 12.4388L3.65812 12.9186L4.05715 13.1415L4.3251 12.6617ZM4.31114 13.2833L4.57909 12.8035L5.28629 13.1985L5.16018 13.4243C5.08184 13.5645 4.90462 13.6148 4.76435 13.5364L4.31114 13.2833ZM4.06792 12.1848L5.42813 12.9445L6.02371 11.878C6.10205 11.7377 6.05184 11.5605 5.91157 11.4822L4.80534 10.8644L4.06792 12.1848Z" fill="#A5B2C3"/>
</g>
<defs>
<filter id="filter0_i_898_251" x="13.6128" y="1.04883" width="11.5625" height="22.7044" filterUnits="userSpaceOnUse" color-interpolation-filters="sRGB">
<feFlood flood-opacity="0" result="BackgroundImageFix"/>
<feBlend mode="normal" in="SourceGraphic" in2="BackgroundImageFix" result="shape"/>
<feColorMatrix in="SourceAlpha" type="matrix" values="0 0 0 0 0 0 0 0 0 0 0 0 0 0 0 0 0 0 127 0" result="hardAlpha"/>
<feOffset dy="0.201494"/>
<feGaussianBlur stdDeviation="0.167912"/>
<feComposite in2="hardAlpha" operator="arithmetic" k2="-1" k3="1"/>
<feColorMatrix type="matrix" values="0 0 0 0 1 0 0 0 0 1 0 0 0 0 1 0 0 0 0.5 0"/>
<feBlend mode="normal" in2="shape" result="effect1_innerShadow_898_251"/>
</filter>
<filter id="filter1_i_898_251" x="12.6738" y="1.00427" width="12.0415" height="22.7994" filterUnits="userSpaceOnUse" color-interpolation-filters="sRGB">
<feFlood flood-opacity="0" result="BackgroundImageFix"/>
<feBlend mode="normal" in="SourceGraphic" in2="BackgroundImageFix" result="shape"/>
<feColorMatrix in="SourceAlpha" type="matrix" values="0 0 0 0 0 0 0 0 0 0 0 0 0 0 0 0 0 0 127 0" result="hardAlpha"/>
<feOffset dy="0.201494"/>
<feGaussianBlur stdDeviation="0.335824"/>
<feComposite in2="hardAlpha" operator="arithmetic" k2="-1" k3="1"/>
<feColorMatrix type="matrix" values="0 0 0 0 1 0 0 0 0 1 0 0 0 0 1 0 0 0 0.6 0"/>
<feBlend mode="normal" in2="shape" result="effect1_innerShadow_898_251"/>
</filter>
<filter id="filter2_i_898_251" x="0.13916" y="7.7533" width="24.6191" height="18.1778" filterUnits="userSpaceOnUse" color-interpolation-filters="sRGB">
<feFlood flood-opacity="0" result="BackgroundImageFix"/>
<feBlend mode="normal" in="SourceGraphic" in2="BackgroundImageFix" result="shape"/>
<feColorMatrix in="SourceAlpha" type="matrix" values="0 0 0 0 0 0 0 0 0 0 0 0 0 0 0 0 0 0 127 0" result="hardAlpha"/>
<feOffset dy="0.288682"/>
<feGaussianBlur stdDeviation="0.288682"/>
<feComposite in2="hardAlpha" operator="arithmetic" k2="-1" k3="1"/>
<feColorMatrix type="matrix" values="0 0 0 0 1 0 0 0 0 1 0 0 0 0 1 0 0 0 0.849131 0"/>
<feBlend mode="normal" in2="shape" result="effect1_innerShadow_898_251"/>
</filter>
<filter id="filter3_i_898_251" x="-0.0756836" y="7.75317" width="26.1416" height="13.7757" filterUnits="userSpaceOnUse" color-interpolation-filters="sRGB">
<feFlood flood-opacity="0" result="BackgroundImageFix"/>
<feBlend mode="normal" in="SourceGraphic" in2="BackgroundImageFix" result="shape"/>
<feColorMatrix in="SourceAlpha" type="matrix" values="0 0 0 0 0 0 0 0 0 0 0 0 0 0 0 0 0 0 127 0" result="hardAlpha"/>
<feOffset dy="0.671648"/>
<feGaussianBlur stdDeviation="0.335824"/>
<feComposite in2="hardAlpha" operator="arithmetic" k2="-1" k3="1"/>
<feColorMatrix type="matrix" values="0 0 0 0 1 0 0 0 0 1 0 0 0 0 1 0 0 0 0.25 0"/>
<feBlend mode="normal" in2="shape" result="effect1_innerShadow_898_251"/>
</filter>
<linearGradient id="paint0_linear_898_251" x1="15.9742" y1="14.186" x2="4.75233" y2="7.57703" gradientUnits="userSpaceOnUse">
<stop stop-color="#ADB6C3"/>
<stop offset="1" stop-color="#7D889F"/>
</linearGradient>
<linearGradient id="paint1_linear_898_251" x1="14.8033" y1="13.659" x2="4.73826" y2="7.55148" gradientUnits="userSpaceOnUse">
<stop stop-color="#AEB7C4"/>
<stop offset="1" stop-color="#858EA1"/>
</linearGradient>
<linearGradient id="paint2_linear_898_251" x1="4.70951" y1="7.56876" x2="5.72771" y2="9.02334" gradientUnits="userSpaceOnUse">
<stop stop-color="#647394"/>
<stop offset="1" stop-color="#828DA3"/>
</linearGradient>
<linearGradient id="paint3_linear_898_251" x1="11.4009" y1="0.150487" x2="23.8572" y2="19.5535" gradientUnits="userSpaceOnUse">
<stop stop-color="#8591A8"/>
<stop offset="1" stop-color="#425364"/>
</linearGradient>
<linearGradient id="paint4_linear_898_251" x1="22.4658" y1="26.9498" x2="26.0657" y2="20.8572" gradientUnits="userSpaceOnUse">
<stop stop-color="#E4EAF1"/>
<stop offset="1" stop-color="#CBD8E4"/>
</linearGradient>
<linearGradient id="paint5_linear_898_251" x1="1.94552" y1="10.3327" x2="24.0551" y2="23.7148" gradientUnits="userSpaceOnUse">
<stop stop-color="#DFE6EE"/>
<stop offset="1" stop-color="#E4EAF1"/>
</linearGradient>
<linearGradient id="paint6_linear_898_251" x1="12.5639" y1="18.1874" x2="3.98192" y2="7.56897" gradientUnits="userSpaceOnUse">
<stop stop-color="#E2E9F0"/>
<stop offset="1" stop-color="#C6D4E1"/>
</linearGradient>
<linearGradient id="paint7_linear_898_251" x1="2.07302" y1="0" x2="2.08566" y2="4.06159" gradientUnits="userSpaceOnUse">
<stop stop-color="#4A5B6D"/>
<stop offset="1" stop-color="#4A5B6D" stop-opacity="0"/>
</linearGradient>
<linearGradient id="paint8_linear_898_251" x1="14.8499" y1="5.76589" x2="19.9827" y2="4.22334" gradientUnits="userSpaceOnUse">
<stop stop-color="#506079"/>
<stop offset="1" stop-color="#707D93"/>
</linearGradient>
<linearGradient id="paint9_linear_898_251" x1="14.8499" y1="5.76589" x2="19.8373" y2="3.78696" gradientUnits="userSpaceOnUse">
<stop stop-color="#424F63"/>
<stop offset="1" stop-color="#77849A"/>
</linearGradient>
</defs>
</svg>
