<svg width="40" height="41" viewBox="0 0 40 41" fill="none" xmlns="http://www.w3.org/2000/svg">
    <path d="M0.984308 26.0929H14.6002C15.147 26.0929 15.6118 26.6069 15.6118 27.2116C15.6118 29.8722 17.5257 31.9584 19.959 31.9584C22.3924 31.9584 24.3062 29.8722 24.3062 27.2116C24.3062 26.6069 24.771 26.0929 25.3179 26.0929H38.8517C39.2618 26.0929 39.6172 26.365 39.7813 26.7581C39.5626 25.9417 39.1798 25.0952 39.1251 24.9742C39.1251 24.944 39.0978 24.944 39.0978 24.944L34.7505 17.3249C34.7505 17.2947 34.7232 17.2947 34.7232 17.2645C34.6412 17.1738 33.985 16.2365 33.2194 15.7528C32.4265 15.2388 31.3329 15.1481 31.1962 15.1481H7.95628C7.7649 15.1481 6.8353 15.1783 6.09709 15.6621C5.35888 16.176 4.81206 17.0528 4.75738 17.1435C4.75738 17.1435 4.73004 17.1738 4.73004 17.204L1.06633 24.3998C0.956967 24.5812 0.601533 25.2766 0.300781 26.365C0.492169 26.2138 0.710897 26.0929 0.984308 26.0929Z" fill="#8F8F8F" fill-opacity="0.3"/>
    <path d="M40 28.7535C40 28.6628 39.9453 27.8767 39.8086 27.1208V27.2418C39.8086 27.8465 39.3712 28.3604 38.797 28.3604H26.2201L26.0834 28.9349C25.3725 32.049 22.8298 34.1957 19.9316 34.1957C17.0062 34.1957 14.4634 32.0188 13.7526 28.9349L13.6159 28.3604H0.956938C0.546822 28.3604 0.218729 28.0883 0.0546821 27.7255C-1.68024e-08 28.2697 0 28.693 0 28.8744V37.0377C0 37.1889 0.0820234 38.4285 0.874915 39.2448C1.66781 40.0611 2.9255 40.1216 3.0622 40.1216H3.11688H3.08954H36.7191C36.9651 40.1216 38.1955 40.0913 39.0431 39.2448C39.8906 38.3982 39.9453 37.2493 39.9453 36.9167L40 28.7535ZM19.877 12.0339C19.1114 12.0339 18.4826 11.3385 18.4826 10.492V1.66353C18.4826 0.816971 19.1114 0.121582 19.877 0.121582C20.6425 0.121582 21.2714 0.816971 21.2714 1.66353V10.5222C21.2714 11.3687 20.6425 12.0339 19.877 12.0339ZM29.2003 11.9734C28.4347 11.9734 27.8059 11.278 27.8059 10.4315C27.8059 10.0687 27.9152 9.73609 28.1066 9.46399L31.2782 5.14048C31.5516 4.77767 31.9344 4.56603 32.3718 4.56603C32.6999 4.56603 33.0007 4.68696 33.2468 4.8986C33.5475 5.14048 33.7115 5.53352 33.7662 5.92657C33.7936 6.31962 33.6842 6.7429 33.4655 7.04524L30.2939 11.3687C30.0205 11.792 29.6377 12.0037 29.2003 11.9734ZM10.7177 11.8827C10.3076 11.8827 9.89747 11.6711 9.62406 11.3083L6.50718 6.95454C6.04238 6.28938 6.1244 5.32188 6.72591 4.77767C6.97198 4.56603 7.27273 4.44509 7.60082 4.44509C8.03828 4.44509 8.42105 4.65673 8.69446 5.01954L11.8113 9.37328C12.2761 10.0384 12.1941 11.0059 11.5926 11.5502C11.3465 11.7618 11.0185 11.8827 10.7177 11.8827Z" fill="#8F8F8F" fill-opacity="0.3"/>
</svg>
