<svg width="13" height="12" viewBox="0 0 13 12" fill="none" xmlns="http://www.w3.org/2000/svg">
    <path d="M10 6.46167V8.96167C10 10.0662 9.10457 10.9617 8 10.9617H3C1.89543 10.9617 1 10.0662 1 8.96167V3.97566C1 2.86564 1.90395 1.96797 3.01394 1.97571L6.5 2" stroke="#FFFAFA" stroke-width="0.9"/>
    <path d="M7.55954 1.56755L10.3954 1.52256C10.7092 1.51758 10.9675 1.76775 10.9725 2.08159L11.0168 4.91683C11.0171 4.93691 11.0017 4.95285 10.9816 4.95317L10.2008 4.96556C10.1807 4.96588 10.1647 4.95044 10.1644 4.93035L10.1349 3.0674C10.1344 3.03602 10.0958 3.02093 10.0742 3.04325L6.06706 7.17961C6.05347 7.19364 6.03088 7.194 6.01685 7.18041L5.45573 6.63681C5.4417 6.62322 5.44134 6.60063 5.45493 6.5866L9.46208 2.45024C9.48432 2.42729 9.4674 2.38988 9.43602 2.39038L7.57306 2.41994C7.55298 2.42026 7.53704 2.40482 7.53672 2.38473L7.52433 1.6039C7.52401 1.58381 7.53945 1.56787 7.55954 1.56755Z" fill="#FFFAFA"/>
</svg>
