<svg width="10" height="10" viewBox="0 0 10 10" fill="none" xmlns="http://www.w3.org/2000/svg">
    <circle cx="5" cy="5" r="5" fill="#636ACC"/>
    <path d="M4.49707 7.52344C4.47949 7.33789 4.38574 6.71777 4.21582 5.66309C4.17871 5.42676 4.09668 4.94336 3.96973 4.21289C3.91504 3.89844 3.87988 3.72852 3.86426 3.70312C3.84863 3.67578 3.82715 3.65527 3.7998 3.6416C3.74512 3.61426 3.61719 3.60352 3.41602 3.60938V3.40137L4.18945 3.41895L5.18262 3.40137L5.1709 3.59473L4.9043 3.6123C4.82617 3.62012 4.77344 3.63672 4.74609 3.66211C4.71875 3.68555 4.70508 3.72168 4.70508 3.77051C4.70508 3.81152 4.70996 3.89258 4.71973 4.01367L4.77246 4.41797L5.12109 6.66504L5.80664 5.42285C6.0957 4.90137 6.33984 4.42383 6.53906 3.99023C6.60742 3.83984 6.6416 3.74414 6.6416 3.70312C6.6416 3.67773 6.62891 3.6582 6.60352 3.64453C6.56055 3.62305 6.40625 3.60645 6.14062 3.59473L6.16113 3.40137L6.74707 3.41602L7.46484 3.40137L7.44434 3.60938C7.33105 3.60742 7.25195 3.61426 7.20703 3.62988C7.17188 3.6416 7.14258 3.66211 7.11914 3.69141C7.08984 3.72852 7.02051 3.8457 6.91113 4.04297L5.44922 6.65332C5.26367 6.98535 5.13672 7.21875 5.06836 7.35352C5.04297 7.4043 5.01758 7.46094 4.99219 7.52344H4.49707Z" fill="white"/>
    <path d="M4.49707 7.52344L4.39752 7.53287L4.4061 7.62344H4.49707V7.52344ZM4.21582 5.66309L4.11703 5.6786L4.11709 5.67899L4.21582 5.66309ZM3.96973 4.21289L4.06825 4.19577L4.06825 4.19576L3.96973 4.21289ZM3.86426 3.70312L3.77739 3.75277L3.77909 3.75553L3.86426 3.70312ZM3.41602 3.60938H3.31602V3.71233L3.41893 3.70933L3.41602 3.60938ZM3.41602 3.40137L3.41829 3.30139L3.31602 3.29907V3.40137H3.41602ZM4.18945 3.41895L4.18718 3.519L4.19122 3.51893L4.18945 3.41895ZM5.18262 3.40137L5.28243 3.40742L5.28898 3.29947L5.18085 3.30138L5.18262 3.40137ZM5.1709 3.59473L5.17748 3.69451L5.26539 3.68871L5.27072 3.60078L5.1709 3.59473ZM4.9043 3.6123L4.89771 3.51246L4.89435 3.5128L4.9043 3.6123ZM4.74609 3.66211L4.81122 3.7381L4.81414 3.73539L4.74609 3.66211ZM4.71973 4.01367L4.61993 4.02172L4.62057 4.02661L4.71973 4.01367ZM4.77246 4.41797L4.67327 4.43091L4.67364 4.4333L4.77246 4.41797ZM5.12109 6.66504L5.02228 6.68037L5.06717 6.96971L5.20865 6.71336L5.12109 6.66504ZM5.80664 5.42285L5.71918 5.37437L5.71909 5.37453L5.80664 5.42285ZM6.53906 3.99023L6.62993 4.03198L6.6301 4.03161L6.53906 3.99023ZM6.60352 3.64453L6.65095 3.55644L6.64824 3.55509L6.60352 3.64453ZM6.14062 3.59473L6.04118 3.58418L6.02997 3.68994L6.13622 3.69463L6.14062 3.59473ZM6.16113 3.40137L6.16363 3.3014L6.07142 3.29909L6.06169 3.39082L6.16113 3.40137ZM6.74707 3.41602L6.74457 3.51609L6.74911 3.51599L6.74707 3.41602ZM7.46484 3.40137L7.56436 3.41118L7.57541 3.29909L7.4628 3.30139L7.46484 3.40137ZM7.44434 3.60938L7.44261 3.70936L7.53481 3.71095L7.54385 3.61919L7.44434 3.60938ZM7.20703 3.62988L7.23866 3.72476L7.23988 3.72433L7.20703 3.62988ZM7.11914 3.69141L7.04105 3.62894L7.04065 3.62944L7.11914 3.69141ZM6.91113 4.04297L6.99838 4.09183L6.99859 4.09146L6.91113 4.04297ZM5.44922 6.65332L5.36197 6.60446L5.36192 6.60454L5.44922 6.65332ZM5.06836 7.35352L4.97918 7.30828L4.97892 7.30879L5.06836 7.35352ZM4.99219 7.52344V7.62344H5.0595L5.08483 7.56108L4.99219 7.52344ZM4.59662 7.51401C4.57865 7.32432 4.48416 6.69993 4.31455 5.64718L4.11709 5.67899C4.28733 6.73561 4.38033 7.35147 4.39752 7.53287L4.59662 7.51401ZM4.31461 5.64757C4.27735 5.4103 4.19518 4.92608 4.06825 4.19577L3.8712 4.23001C3.99818 4.96064 4.08007 5.44322 4.11703 5.6786L4.31461 5.64757ZM4.06825 4.19576C4.04085 4.03819 4.01817 3.91587 4.00027 3.82935C3.99134 3.78621 3.98338 3.75089 3.97642 3.7241C3.97295 3.71077 3.96945 3.69845 3.9659 3.6878C3.96306 3.67927 3.95785 3.6644 3.94942 3.65072L3.77909 3.75553C3.77458 3.7482 3.77388 3.74419 3.77616 3.75104C3.77774 3.75578 3.77997 3.76335 3.78286 3.77443C3.78859 3.79647 3.79576 3.82805 3.80442 3.86987C3.82167 3.95327 3.84392 4.07313 3.87121 4.23002L4.06825 4.19576ZM3.95108 3.65351C3.92598 3.60957 3.89008 3.57494 3.84453 3.55216L3.75508 3.73104C3.76421 3.73561 3.77129 3.74199 3.77743 3.75274L3.95108 3.65351ZM3.84453 3.55216C3.79902 3.52941 3.73699 3.51891 3.67121 3.51339C3.60202 3.50758 3.5156 3.50643 3.4131 3.50942L3.41893 3.70933C3.5176 3.70646 3.59574 3.70775 3.65447 3.71269C3.71662 3.7179 3.7459 3.72645 3.75508 3.73104L3.84453 3.55216ZM3.51602 3.60938V3.40137H3.31602V3.60938H3.51602ZM3.41374 3.50134L4.18718 3.51892L4.19173 3.31897L3.41829 3.30139L3.41374 3.50134ZM4.19122 3.51893L5.18439 3.50135L5.18085 3.30138L4.18768 3.31896L4.19122 3.51893ZM5.0828 3.39532L5.07108 3.58868L5.27072 3.60078L5.28243 3.40742L5.0828 3.39532ZM5.16432 3.49494L4.89772 3.51252L4.91088 3.71209L5.17748 3.69451L5.16432 3.49494ZM4.89435 3.5128C4.81408 3.52083 4.73145 3.53924 4.67805 3.58883L4.81414 3.73539C4.81298 3.73646 4.81772 3.73181 4.83618 3.726C4.85393 3.72041 4.87941 3.71529 4.91425 3.71181L4.89435 3.5128ZM4.68101 3.58618C4.62437 3.63474 4.60508 3.70342 4.60508 3.77051H4.80508C4.80508 3.75513 4.80727 3.74639 4.80886 3.74218C4.81021 3.73862 4.81115 3.73805 4.81117 3.73804L4.68101 3.58618ZM4.60508 3.77051C4.60508 3.81621 4.61034 3.90125 4.62005 4.02171L4.8194 4.00563C4.80959 3.88391 4.80508 3.80684 4.80508 3.77051H4.60508ZM4.62057 4.02661L4.6733 4.4309L4.87162 4.40503L4.81889 4.00074L4.62057 4.02661ZM4.67364 4.4333L5.02228 6.68037L5.21991 6.64971L4.87128 4.40264L4.67364 4.4333ZM5.20865 6.71336L5.89419 5.47117L5.71909 5.37453L5.03354 6.61672L5.20865 6.71336ZM5.8941 5.47133C6.1841 4.94816 6.42944 4.46834 6.62993 4.03198L6.44819 3.94848C6.25025 4.37931 6.00731 4.85457 5.71918 5.37437L5.8941 5.47133ZM6.6301 4.03161C6.66482 3.95524 6.69172 3.89088 6.71014 3.8393C6.72704 3.79199 6.7416 3.74292 6.7416 3.70312H6.5416C6.5416 3.70141 6.54167 3.70593 6.53818 3.71989C6.53496 3.73276 6.52967 3.74997 6.52179 3.77203C6.50603 3.81615 6.48167 3.87484 6.44803 3.94885L6.6301 4.03161ZM6.7416 3.70312C6.7416 3.63524 6.70335 3.58472 6.65093 3.55648L6.55611 3.73258C6.5575 3.73333 6.55296 3.7312 6.54824 3.72393C6.54309 3.71602 6.5416 3.70796 6.5416 3.70312H6.7416ZM6.64824 3.55509C6.62455 3.54324 6.59545 3.53618 6.56937 3.53115C6.54093 3.52566 6.50629 3.52085 6.46626 3.51654C6.38607 3.50791 6.2787 3.50072 6.14503 3.49482L6.13622 3.69463C6.26818 3.70045 6.37077 3.70742 6.44487 3.71539C6.48199 3.71939 6.51058 3.72349 6.53146 3.72752C6.5547 3.73201 6.561 3.73508 6.55879 3.73397L6.64824 3.55509ZM6.24007 3.60527L6.26058 3.41191L6.06169 3.39082L6.04118 3.58418L6.24007 3.60527ZM6.15863 3.50134L6.74457 3.51598L6.74957 3.31605L6.16363 3.3014L6.15863 3.50134ZM6.74911 3.51599L7.46688 3.50135L7.4628 3.30139L6.74503 3.31604L6.74911 3.51599ZM7.36533 3.39156L7.34482 3.59956L7.54385 3.61919L7.56436 3.41118L7.36533 3.39156ZM7.44606 3.50939C7.33283 3.50744 7.23759 3.51338 7.17418 3.53543L7.23988 3.72433C7.26632 3.71514 7.32928 3.70741 7.44261 3.70936L7.44606 3.50939ZM7.17541 3.53501C7.12173 3.55291 7.07637 3.58479 7.04105 3.62894L7.19723 3.75388C7.20878 3.73943 7.22202 3.73029 7.23865 3.72475L7.17541 3.53501ZM7.04065 3.62944C7.00505 3.67454 6.93111 3.80071 6.82368 3.99448L6.99859 4.09146C7.1099 3.8907 7.17464 3.78249 7.19763 3.75337L7.04065 3.62944ZM6.82388 3.99411L5.36197 6.60446L5.53647 6.70218L6.99838 4.09183L6.82388 3.99411ZM5.36192 6.60454C5.17641 6.93651 5.04855 7.17151 4.97918 7.30828L5.15754 7.39875C5.22489 7.26599 5.35093 7.03419 5.53651 6.7021L5.36192 6.60454ZM4.97892 7.30879C4.95218 7.36228 4.92573 7.42133 4.89954 7.4858L5.08483 7.56108C5.10942 7.50055 5.13376 7.44632 5.1578 7.39824L4.97892 7.30879ZM4.99219 7.42344H4.49707V7.62344H4.99219V7.42344Z" fill="white"/>
</svg>
