<?xml version="1.0" encoding="UTF-8"?>
<svg width="16px" height="16px" viewBox="0 0 16 16" version="1.1" xmlns="http://www.w3.org/2000/svg" xmlns:xlink="http://www.w3.org/1999/xlink">
    <!-- Generator: Sketch 63 (92445) - https://sketch.com -->
    <title>形状 copy</title>
    <desc>Created with Sketch.</desc>
    <g id="白名单" stroke="none" stroke-width="1" fill="none" fill-rule="evenodd" opacity="0.3">
        <g id="白名单删除" transform="translate(-225.000000, -21.000000)" fill="#505160" fill-rule="nonzero">
            <g id="导航" transform="translate(18.000000, 16.000000)">
                <g id="编组-2" transform="translate(101.000000, 0.000000)">
                    <path d="M114,5 C109.580598,5 106,8.58292187 106,13 C106,17.4194017 109.582922,21 114,21 C118.417078,21 122,17.4194017 122,13 C122,8.58059832 118.419402,5 114,5 Z M113.988382,18.1768806 C113.602672,18.1768806 113.291316,17.8655243 113.291316,17.4798141 C113.291316,17.094104 113.602672,16.7827476 113.988382,16.7827476 C114.374092,16.7827476 114.685449,17.094104 114.685449,17.4798141 C114.685449,17.8632007 114.374092,18.1768806 113.988382,18.1768806 L113.988382,18.1768806 Z M117.187918,11.3618937 C116.971827,12.1147255 116.363055,12.7211734 115.772872,13.3067093 C115.426663,13.6505954 115.101365,13.9758931 114.917804,14.2709846 C114.787685,14.4801046 114.713331,15.1818182 114.727273,15.6813825 C114.738891,16.0670927 114.434505,16.3877432 114.048795,16.3970375 L114.030206,16.3970375 C113.65379,16.3970375 113.344757,16.0972989 113.33314,15.7185594 C113.326169,15.4722626 113.314551,14.2082486 113.732791,13.5344177 C114.002324,13.1022364 114.401975,12.702585 114.787685,12.3191984 C115.250073,11.8591345 115.728725,11.3828057 115.847226,10.9761836 C115.893697,10.8181818 115.916933,10.2489108 115.591635,9.81440604 C115.301191,9.42404879 114.783038,9.22422306 114.048795,9.2172524 L114.020912,9.2172524 C113.279698,9.2172524 112.761545,9.47981412 112.436247,10.0212024 C112.201568,10.4115597 112.141156,10.8251525 112.129538,10.932036 C112.113273,11.3038048 111.806564,11.5988963 111.432472,11.5988963 C111.046762,11.5988963 110.735405,11.2875399 110.735405,10.9018298 L110.735405,10.8739471 L110.735405,10.8693 C110.735405,10.8530351 110.737729,10.8367703 110.740052,10.8205054 C110.756317,10.6299739 110.839965,10.0002904 111.207087,9.35898925 C111.467325,8.90821958 111.811211,8.54806854 112.231775,8.29015394 C112.74528,7.97415045 113.361022,7.81614871 114.062736,7.82311937 C115.547488,7.8370607 116.323555,8.45977345 116.711589,8.98024978 C117.373802,9.87249492 117.313389,10.9297125 117.187918,11.3618937 L117.187918,11.3618937 Z" id="形状-copy"></path>
                </g>
            </g>
        </g>
    </g>
</svg>