<svg width="12" height="12" viewBox="0 0 12 12" fill="none" xmlns="http://www.w3.org/2000/svg">
<circle cx="6" cy="6" r="6" fill="#DB705C"/>
<path fill-rule="evenodd" clip-rule="evenodd" d="M5.25013 3.41259C5.19997 2.96606 5.54938 2.5752 5.99872 2.5752C6.44894 2.5752 6.79863 2.96752 6.74706 3.41478L6.383 6.57206H5.60507L5.25013 3.41259ZM5.99389 7.71416C6.25045 7.71416 6.45648 7.79408 6.61197 7.95392C6.77523 8.10577 6.85687 8.30956 6.85687 8.56531C6.85687 8.81306 6.77523 9.02085 6.61197 9.18868C6.43315 9.34852 6.22713 9.42844 5.99389 9.42844C5.76066 9.42844 5.56241 9.34453 5.39914 9.1767C5.2281 9.00886 5.14258 8.80507 5.14258 8.56531C5.14258 8.30956 5.2281 8.10577 5.39914 7.95392C5.55463 7.79408 5.75288 7.71416 5.99389 7.71416Z" fill="white"/>
</svg>
