<svg width="60" height="60" viewBox="0 0 60 60" fill="none" xmlns="http://www.w3.org/2000/svg">
<path d="M43.338 39H16.662C14.9132 41.4468 11.8641 46.7413 11 54.8209L30 57L49 54.8209C48.1359 46.7413 45.0868 41.4468 43.338 39Z" fill="#C6D0DA"/>
<path d="M49 55L48.513 56.1607C48.0455 57.275 46.955 58 45.7466 58H14.2534C13.045 58 11.9545 57.275 11.487 56.1607L11 55H49Z" fill="#808B95"/>
<path d="M30.5004 48C35.7663 48 40.7986 46.3991 44.6802 41.1841C43.8956 39.3982 43.3601 38.5 43.3601 38.5H16.6073C16.6073 38.5 16.0003 40 15.2871 41.1841C19.1688 46.3991 25.2345 48 30.5004 48Z" fill="#A0AAB7"/>
<path d="M30 44.7546C43.763 44.7546 51.4325 34.4433 52.0293 22.794C51.4325 11.1445 41.798 1.88232 30 1.88232C18.2021 1.88232 8.56752 11.1445 7.9707 22.794C8.56764 34.4435 16.3556 44.7546 30 44.7546Z" fill="#E7ECF1"/>
<path d="M46.7646 32.3231C41.3748 42.523 29.3171 46.7787 18.5428 41.7455C18.8782 41.9445 19.2186 42.1352 19.5635 42.3175C30.5458 48.1207 43.9607 44.2868 49.5262 33.7542C55.147 22.176 50.7006 9.97878 39.7182 4.17554C39.3713 3.99225 39.022 3.81872 38.6705 3.65459C48.8997 9.71987 52.1544 22.1232 46.7646 32.3231Z" fill="#C6D0DA"/>
<path d="M40.3037 22.8822C39.7733 17.6595 35.3626 13.584 29.9999 13.584C24.6677 13.584 20.2765 17.6136 19.7056 22.7938C19.6641 23.1705 19.7053 33.187 29.9999 33.187C40.3572 33.187 40.339 23.2304 40.3037 22.8822Z" fill="#808B95"/>
<path d="M37.1191 27.2461C34.7077 31.7812 29.2646 33.6757 24.5615 31.798C24.8691 32.008 25.1879 32.2011 25.5166 32.3764C30.425 34.9863 36.501 33.158 39.0878 28.2929C41.6747 23.4277 39.7927 17.3682 34.8843 14.7583C34.5514 14.5813 34.2129 14.4265 33.8707 14.2899C38.0572 17.139 39.5304 22.7109 37.1191 27.2461Z" fill="#5E6B75"/>
<path d="M33.2805 22.7935C32.8065 21.4386 31.5168 20.4668 30.0002 20.4668C28.4835 20.4668 27.1938 21.4386 26.7199 22.7935C26.5942 23.1528 26.7125 26.304 30.0002 26.304C33.2879 26.304 33.4062 23.1528 33.2805 22.7935Z" fill="#F6E080"/>
<path d="M29.9996 25.1206C28.4829 25.1206 27.1941 24.1484 26.7201 22.7935C26.591 23.1621 26.5252 23.55 26.5254 23.9407C26.5254 25.8594 28.0808 27.415 29.9997 27.415C31.9184 27.415 33.474 25.8595 33.474 23.9407C33.474 23.5385 33.4048 23.1527 33.2791 22.7935C32.8051 24.1484 31.5162 25.1206 29.9996 25.1206Z" fill="#ECCD61"/>
<path d="M30.9578 8.82465V7.41443C30.9578 7.16038 30.8568 6.91674 30.6772 6.7371C30.4976 6.55746 30.2539 6.45654 29.9999 6.45654C29.7458 6.45654 29.5022 6.55746 29.3226 6.7371C29.1429 6.91674 29.042 7.16038 29.042 7.41443V8.82453C29.042 9.07857 29.1429 9.32222 29.3226 9.50186C29.5022 9.68149 29.7458 9.78241 29.9999 9.78241C30.1257 9.78245 30.2502 9.7577 30.3665 9.70958C30.4827 9.66146 30.5883 9.59091 30.6772 9.50197C30.7662 9.41303 30.8367 9.30744 30.8849 9.19122C30.933 9.075 30.9578 8.95044 30.9578 8.82465Z" fill="#808B95"/>
<path d="M55 11L5 51" stroke="#DB705C" stroke-width="4" stroke-linecap="round"/>
</svg>
