<svg width="26" height="26" viewBox="0 0 26 26" fill="none" xmlns="http://www.w3.org/2000/svg">
<path d="M21.3422 14.2407H23.6971C24.5039 14.2407 25.1578 14.8946 25.1578 15.7015V23.2037C25.1578 24.0104 24.5039 24.6644 23.6971 24.6644H16.1697C15.363 24.6644 14.709 24.0104 14.709 23.2037V22.6489L21.3422 22.1824V14.2407Z" fill="#E3E4E7"/>
<path d="M21.6987 12.5732H13.5733C12.9351 12.5732 12.4116 13.0954 12.4116 13.7321V21.8381C12.4116 22.4748 12.9351 22.9969 13.5733 22.9969H21.6987C22.337 22.9969 22.8603 22.4748 22.8603 21.8381V13.7321C22.8603 13.0954 22.337 12.5732 21.6987 12.5732ZM18.2137 18.3614V20.0983C18.2137 20.2523 18.1525 20.4 18.0436 20.509C17.9346 20.6179 17.7869 20.6791 17.6329 20.6791C17.4788 20.6791 17.3311 20.6179 17.2222 20.509C17.1132 20.4 17.052 20.2523 17.052 20.0983V18.3615H15.3081C15.1544 18.3615 15.007 18.3004 14.8984 18.1918C14.7897 18.0831 14.7286 17.9357 14.7286 17.7821C14.7286 17.6284 14.7897 17.481 14.8984 17.3723C15.007 17.2637 15.1544 17.2026 15.3081 17.2026H17.052V15.4655C17.052 15.3892 17.0671 15.3137 17.0962 15.2432C17.1254 15.1728 17.1682 15.1087 17.2222 15.0548C17.2761 15.0009 17.3401 14.9581 17.4106 14.9289C17.4811 14.8997 17.5566 14.8847 17.6329 14.8847C17.7091 14.8847 17.7847 14.8997 17.8551 14.9289C17.9256 14.9581 17.9896 15.0009 18.0436 15.0548C18.0975 15.1087 18.1403 15.1728 18.1695 15.2432C18.1987 15.3137 18.2137 15.3892 18.2137 15.4655V17.2024H19.9576C20.0337 17.2024 20.1091 17.2174 20.1794 17.2465C20.2497 17.2756 20.3136 17.3183 20.3674 17.3721C20.4212 17.4259 20.4639 17.4898 20.4931 17.5601C20.5222 17.6304 20.5372 17.7057 20.5372 17.7818C20.5372 17.8579 20.5222 17.9333 20.4931 18.0036C20.4639 18.0739 20.4212 18.1378 20.3674 18.1916C20.3136 18.2454 20.2497 18.2881 20.1794 18.3172C20.1091 18.3463 20.0337 18.3613 19.9576 18.3613L18.2137 18.3614Z" fill="#636ACC"/>
<path d="M13.8724 0.898926H21.3997C22.3735 0.898926 22.8605 1.38584 22.8605 2.35967V9.86186C22.8605 10.8357 22.3735 11.3226 21.3997 11.3226H13.8724C12.8985 11.3226 12.4116 10.8357 12.4116 9.86186V2.35967C12.4116 1.38584 12.8985 0.898926 13.8724 0.898926Z" fill="#C2C8D5"/>
<path d="M9.85479 22.9969H2.32744C1.52067 22.9969 0.866699 22.3429 0.866699 21.5362V14.034C0.866699 13.2272 1.52067 12.5732 2.32744 12.5732H9.85479C10.6616 12.5732 11.3155 13.2272 11.3155 14.034V21.5362C11.3155 22.3429 10.6616 22.9969 9.85479 22.9969ZM9.85479 21.6057C9.87324 21.6057 9.89094 21.5984 9.90398 21.5854C9.91703 21.5723 9.92435 21.5546 9.92435 21.5362V14.034C9.92435 14.0155 9.91703 13.9978 9.90398 13.9848C9.89094 13.9718 9.87324 13.9644 9.85479 13.9644H2.32744C2.30899 13.9644 2.2913 13.9718 2.27826 13.9848C2.26521 13.9978 2.25788 14.0155 2.25788 14.034V21.5362C2.25788 21.5546 2.26521 21.5723 2.27826 21.5854C2.2913 21.5984 2.30899 21.6057 2.32744 21.6057H9.85479Z" fill="#C2C8D5"/>
<path d="M9.85528 11.3226H2.32793C1.3541 11.3226 0.867187 10.8357 0.867188 9.86186V2.35967C0.867188 1.38584 1.3541 0.898926 2.32793 0.898926H9.85528C10.8291 0.898926 11.316 1.38584 11.316 2.35967V9.86186C11.316 10.8357 10.8291 11.3226 9.85528 11.3226Z" fill="#C2C8D5"/>
</svg>
