<svg width="32" height="32" viewBox="0 0 32 32" fill="none" xmlns="http://www.w3.org/2000/svg">
<path d="M32 0H0V32H32V0Z" fill="white" fill-opacity="0.01"/>
<path d="M16.0001 29.3334C19.6819 29.3334 23.0153 27.841 25.4281 25.4281C27.841 23.0152 29.3334 19.6819 29.3334 16C29.3334 12.3182 27.841 8.98482 25.4281 6.57193C23.0153 4.15907 19.6819 2.66669 16.0001 2.66669C12.3182 2.66669 8.98488 4.15907 6.57199 6.57193C4.15913 8.98482 2.66675 12.3182 2.66675 16C2.66675 19.6819 4.15913 23.0152 6.57199 25.4281C8.98488 27.841 12.3182 29.3334 16.0001 29.3334Z" stroke="#ED8F5A" stroke-width="3" stroke-linejoin="round"/>
<path fill-rule="evenodd" clip-rule="evenodd" d="M15.9999 24.6666C16.9204 24.6666 17.6666 23.9204 17.6666 23C17.6666 22.0795 16.9204 21.3333 15.9999 21.3333C15.0795 21.3333 14.3333 22.0795 14.3333 23C14.3333 23.9204 15.0795 24.6666 15.9999 24.6666Z" fill="#ED8F5A"/>
<path d="M16 8V18.6667" stroke="#ED8F5A" stroke-width="3" stroke-linecap="round" stroke-linejoin="round"/>
</svg>
