<svg width="16" height="16" viewBox="0 0 16 16" fill="none" xmlns="http://www.w3.org/2000/svg">
    <path fill-rule="evenodd" clip-rule="evenodd" d="M12.7329 7.02496C13.51 7.79482 14.0218 8.84306 14.1151 10.0124C14.1253 10.1402 14.1305 10.2695 14.1305 10.4C14.1305 12.9962 12.0724 15.1 9.53267 15.1H6.46746C3.9277 15.1 1.86963 12.9962 1.86963 10.4C1.86963 8.31158 3.20138 6.54178 5.04432 5.92938L5.04432 4.02143C5.04432 3.21348 5.35084 2.45476 5.90915 1.88405C6.46746 1.31333 7.20968 1 8.00006 1C8.79045 1 9.53267 1.31333 10.091 1.88405C10.6493 2.45476 10.9558 3.21348 10.9558 4.02143V4.03262V5.92938C11.6299 6.15339 12.2357 6.53227 12.7329 7.02496ZM10.2475 5.75644C10.2647 5.75916 10.2819 5.76199 10.299 5.7649V4.03262V4.02143C10.299 3.97507 10.2977 3.92891 10.295 3.88299C10.2706 3.45477 10.1333 3.04754 9.89893 2.69802C9.81867 2.57834 9.72702 2.46543 9.62463 2.36076C9.59324 2.32851 9.5611 2.29732 9.52826 2.26719C9.12178 1.89679 8.5862 1.67143 8.00006 1.67143C7.41393 1.67143 6.87835 1.89679 6.47187 2.26719C6.43903 2.29732 6.40689 2.32851 6.3755 2.36076C5.94199 2.8039 5.70115 3.39476 5.70115 4.02143V4.03262V5.7649C5.7183 5.76198 5.73549 5.75916 5.7527 5.75642C5.98561 5.71928 6.22433 5.7 6.46746 5.7H9.53267C9.55209 5.7 9.57149 5.70012 9.59086 5.70037C9.81354 5.70322 10.0329 5.72238 10.2475 5.75644Z" fill="#636ACC"/>
    <path d="M14.1151 10.0124L14.5138 9.98059L14.5138 9.98059L14.1151 10.0124ZM12.7329 7.02496L12.4513 7.30908L12.4514 7.30913L12.7329 7.02496ZM5.04432 5.92938L5.17046 6.30897L5.44432 6.21796L5.44432 5.92938L5.04432 5.92938ZM5.04432 4.02143L5.44432 4.02143L5.44432 4.02143L5.04432 4.02143ZM5.90915 1.88405L5.62321 1.60433L5.62321 1.60433L5.90915 1.88405ZM10.091 1.88405L10.3769 1.60433L10.3769 1.60433L10.091 1.88405ZM10.9558 5.92938H10.5558V6.21796L10.8297 6.30897L10.9558 5.92938ZM10.299 5.7649L10.2318 6.15922L10.699 6.23882V5.7649H10.299ZM10.2475 5.75644L10.3102 5.36138L10.3102 5.36138L10.2475 5.75644ZM10.295 3.88299L10.6944 3.86024L10.6944 3.86024L10.295 3.88299ZM9.89893 2.69802L9.56672 2.92081L9.56672 2.92081L9.89893 2.69802ZM9.62463 2.36076L9.33799 2.63976L9.3387 2.64048L9.62463 2.36076ZM9.52826 2.26719L9.79862 1.9724L9.79768 1.97154L9.52826 2.26719ZM6.47187 2.26719L6.20245 1.97154L6.20151 1.9724L6.47187 2.26719ZM6.3755 2.36076L6.66143 2.64048L6.66213 2.63976L6.3755 2.36076ZM5.70115 5.7649H5.30115V6.23882L5.76833 6.15922L5.70115 5.7649ZM5.7527 5.75642L5.81538 6.15148L5.81569 6.15143L5.7527 5.75642ZM9.59086 5.70037L9.58574 6.10034L9.58575 6.10034L9.59086 5.70037ZM14.5138 9.98059C14.4127 8.71359 13.8579 7.57644 13.0144 6.74078L12.4514 7.30913C13.1621 8.01319 13.6308 8.97253 13.7164 10.0442L14.5138 9.98059ZM14.5305 10.4C14.5305 10.2589 14.5249 10.119 14.5138 9.98059L13.7164 10.0442C13.7257 10.1615 13.7305 10.2801 13.7305 10.4H14.5305ZM9.53267 15.5C12.3016 15.5 14.5305 13.2088 14.5305 10.4H13.7305C13.7305 12.7836 11.8433 14.7 9.53267 14.7V15.5ZM9.53267 14.7H6.46746V15.5H9.53267V14.7ZM1.46963 10.4C1.46963 13.2088 3.69855 15.5 6.46746 15.5V14.7C4.15686 14.7 2.26963 12.7836 2.26963 10.4H1.46963ZM4.91818 5.54979C2.912 6.21644 1.46963 8.13899 1.46963 10.4H2.26963C2.26963 8.48418 3.49076 6.86713 5.17046 6.30897L4.91818 5.54979ZM5.44432 5.92938L5.44432 4.02143L4.64432 4.02143L4.64432 5.92938L5.44432 5.92938ZM5.44432 4.02143C5.44432 3.31639 5.71104 2.65856 6.19508 2.16377L5.62321 1.60433C4.99064 2.25096 4.64432 3.11057 4.64432 4.02143L5.44432 4.02143ZM6.19508 2.16377C6.67882 1.66928 7.31825 1.4 8.00006 1.4V0.6C7.1011 0.6 6.2561 0.957385 5.62321 1.60433L6.19508 2.16377ZM10.3769 1.60433C9.74403 0.957385 8.89903 0.6 8.00006 0.6V1.4C8.68188 1.4 9.32131 1.66928 9.80505 2.16377L10.3769 1.60433ZM11.3558 4.02143C11.3558 3.11057 11.0095 2.25096 10.3769 1.60433L9.80505 2.16377C10.2891 2.65856 10.5558 3.31639 10.5558 4.02143H11.3558ZM10.5558 4.02143V4.03262H11.3558V4.02143H10.5558ZM11.3558 5.92938V4.03262H10.5558V5.92938H11.3558ZM10.8297 6.30897C11.4436 6.51299 11.9966 6.85848 12.4513 7.30908L13.0144 6.74084C12.4748 6.20605 11.8162 5.79379 11.0819 5.54979L10.8297 6.30897ZM10.3662 5.37059C10.3475 5.36741 10.3289 5.36434 10.3102 5.36138L10.1848 6.15149C10.2005 6.15398 10.2162 6.15656 10.2318 6.15922L10.3662 5.37059ZM9.89898 4.03262V5.7649H10.699V4.03262H9.89898ZM10.699 4.03262V4.02143H9.89898V4.03262H10.699ZM9.89569 3.90574C9.89787 3.94408 9.89898 3.98265 9.89898 4.02143H10.699C10.699 3.96749 10.6974 3.91374 10.6944 3.86024L9.89569 3.90574ZM9.56672 2.92081C9.76107 3.21061 9.87535 3.5487 9.89569 3.90574L10.6944 3.86024C10.6659 3.36085 10.5056 2.88447 10.2311 2.47522L9.56672 2.92081ZM9.3387 2.64048C9.42395 2.72763 9.5001 2.82148 9.56672 2.92081L10.2311 2.47522C10.1372 2.3352 10.0301 2.20324 9.91056 2.08104L9.3387 2.64048ZM9.2579 2.56199C9.28515 2.58698 9.31186 2.61291 9.33799 2.63976L9.91127 2.08176C9.87462 2.04412 9.83706 2.00765 9.79862 1.9724L9.2579 2.56199ZM9.79768 1.97154C9.32146 1.53757 8.69105 1.27143 8.00006 1.27143V2.07143C8.48135 2.07143 8.92211 2.256 9.25883 2.56285L9.79768 1.97154ZM6.74129 2.56285C7.07802 2.256 7.51878 2.07143 8.00006 2.07143V1.27143C7.30908 1.27143 6.67867 1.53757 6.20245 1.97154L6.74129 2.56285ZM6.20151 1.9724C6.16307 2.00765 6.12551 2.04412 6.08886 2.08176L6.66213 2.63976C6.68827 2.61291 6.71498 2.58698 6.74223 2.56199L6.20151 1.9724ZM6.08956 2.08104C5.58248 2.5994 5.30115 3.29085 5.30115 4.02143H6.10115C6.10115 3.49867 6.3015 3.00841 6.66143 2.64048L6.08956 2.08104ZM5.30115 4.02143V4.03262H6.10115V4.02143H5.30115ZM5.30115 4.03262V5.7649H6.10115V4.03262H5.30115ZM5.76833 6.15922C5.78399 6.15655 5.79968 6.15397 5.81538 6.15148L5.69002 5.36137C5.6713 5.36434 5.65261 5.36741 5.63397 5.37059L5.76833 6.15922ZM6.46746 5.3C6.20315 5.3 5.94337 5.32096 5.6897 5.36142L5.81569 6.15143C6.02786 6.1176 6.24551 6.1 6.46746 6.1V5.3ZM6.46746 6.1H9.53267V5.3H6.46746V6.1ZM9.59598 5.3004C9.5749 5.30014 9.5538 5.3 9.53267 5.3V6.1C9.55039 6.1 9.56808 6.10011 9.58574 6.10034L9.59598 5.3004ZM10.3102 5.36138C10.0768 5.32435 9.83825 5.3035 9.59598 5.3004L9.58575 6.10034C9.78883 6.10294 9.98893 6.12041 10.1848 6.15149L10.3102 5.36138Z" fill="#636ACC"/>
    <path d="M8.00025 11.7758C8.33947 11.7758 8.61329 11.6526 8.61329 11.4999V9.21252C8.61329 9.05987 8.33947 8.93665 8.00025 8.93665C7.66103 8.93665 7.38721 9.05987 7.38721 9.21252V11.4999C7.38721 11.6526 7.66103 11.7758 8.00025 11.7758Z" fill="white"/>
    <path d="M8.00025 12.1758C8.2128 12.1758 8.42451 12.138 8.59812 12.0599C8.73476 11.9984 9.01329 11.8312 9.01329 11.4999H8.21329C8.21329 11.4101 8.25526 11.3532 8.27347 11.3338C8.28957 11.3166 8.2943 11.3193 8.26983 11.3303C8.22173 11.352 8.12692 11.3758 8.00025 11.3758V12.1758ZM9.01329 11.4999V9.21252H8.21329V11.4999H9.01329ZM9.01329 9.21252C9.01329 8.8812 8.73476 8.71406 8.59812 8.65257C8.42451 8.57444 8.2128 8.53665 8.00025 8.53665V9.33665C8.12692 9.33665 8.22173 9.36046 8.26983 9.38211C8.2943 9.39312 8.28957 9.39583 8.27347 9.37867C8.25526 9.35925 8.21329 9.30232 8.21329 9.21252H9.01329ZM8.00025 8.53665C7.7877 8.53665 7.57599 8.57444 7.40238 8.65257C7.26574 8.71406 6.98721 8.8812 6.98721 9.21252H7.78721C7.78721 9.30232 7.74525 9.35925 7.72703 9.37867C7.71093 9.39583 7.7062 9.39312 7.73067 9.38211C7.77878 9.36046 7.87358 9.33665 8.00025 9.33665V8.53665ZM6.98721 9.21252V11.4999H7.78721V9.21252H6.98721ZM6.98721 11.4999C6.98721 11.8312 7.26574 11.9984 7.40238 12.0599C7.57599 12.138 7.7877 12.1758 8.00025 12.1758V11.3758C7.87358 11.3758 7.77878 11.352 7.73067 11.3303C7.7062 11.3193 7.71093 11.3166 7.72703 11.3338C7.74525 11.3532 7.78721 11.4101 7.78721 11.4999H6.98721Z" fill="white"/>
</svg>
