<svg width="26" height="26" viewBox="0 0 26 26" fill="none" xmlns="http://www.w3.org/2000/svg">
<path d="M24.5506 3.5213C24.6894 3.80915 24.7598 4.10041 24.7598 4.39507V21.3935C24.7598 21.6882 24.6894 21.9794 24.5506 22.2673C24.4099 22.5551 24.2223 22.8106 23.9843 23.0355C23.7492 23.2582 23.4737 23.4394 23.1709 23.5703C22.8661 23.7014 22.5578 23.7679 22.2458 23.7679H4.2474C3.9354 23.7679 3.62701 23.7014 3.32223 23.5703C3.01745 23.4374 2.74693 23.2603 2.50888 23.0355C2.27301 22.8134 2.08121 22.5533 1.9426 22.2673C1.80193 21.9794 1.7334 21.6899 1.7334 21.3935V4.39507C1.7334 4.10041 1.80373 3.80915 1.9426 3.5213C2.08146 3.23345 2.27082 2.97796 2.50888 2.75313C2.74693 2.5283 3.01745 2.34946 3.32223 2.21831C3.62701 2.08716 3.9336 2.02073 4.2474 2.02073H5.5044C5.75147 2.02073 5.9769 2.07865 6.18249 2.19617C6.38809 2.31199 6.53236 2.44825 6.61352 2.60325C6.77763 2.83659 6.86059 3.05802 6.86059 3.26752C6.86059 3.47702 6.77763 3.65926 6.61352 3.81426C6.53056 3.96926 6.38809 4.10552 6.18249 4.22134C5.97783 4.33756 5.74321 4.39826 5.5044 4.39677C5.17617 4.4121 4.88762 4.53644 4.64055 4.76978C4.39348 5.00313 4.26183 5.27395 4.24559 5.58564V14.5277C4.26183 14.8377 4.39348 15.1136 4.64055 15.3538C4.88762 15.594 5.17437 15.7234 5.5044 15.7387H8.19153C8.73437 15.8324 9.28802 16.2037 9.85611 16.8561C10.4242 17.5084 11.6018 17.8814 13.3945 17.9734C15.2033 17.8644 16.381 17.4658 16.9328 16.7743C17.4829 16.0845 17.9896 15.6842 18.4495 15.5752H20.9888C21.317 15.5599 21.6055 15.4356 21.8526 15.2022C22.0997 14.9689 22.2313 14.698 22.2476 14.3863V5.58224C22.2313 5.27224 22.0997 4.99972 21.8526 4.76638C21.6055 4.53303 21.3188 4.40869 20.9888 4.39337C20.6605 4.37804 20.3684 4.2537 20.1141 4.02035C19.8598 3.78701 19.7318 3.51619 19.7318 3.2045C19.7318 2.8945 19.8598 2.62198 20.1141 2.38864C20.3684 2.15529 20.6605 2.03095 20.9888 2.01562H22.2458C22.5578 2.01562 22.8661 2.08205 23.1709 2.2132C23.4757 2.34606 23.7426 2.5283 23.9717 2.75995C24.2169 2.98307 24.4099 3.23515 24.5506 3.5213Z" fill="#C2C8D5"/>
<path d="M8.43969 8.60618C8.27557 8.37283 8.20885 8.19058 8.24311 8.05943C8.27557 7.92828 8.43969 7.86186 8.73545 7.86186H11.8915V4.27481C11.9077 3.96482 12.0195 3.6923 12.2251 3.45895C12.4307 3.2256 12.6886 3.10127 13.0024 3.08594H15.0493C15.3775 3.10127 15.6372 3.2256 15.8266 3.45895C16.016 3.6923 16.0773 3.96311 16.0123 4.27481V8.00152H19.1684C19.4804 8.00152 19.6697 8.07136 19.7347 8.21102C19.7996 8.35069 19.7184 8.52953 19.4876 8.74585L15.5416 12.4709C15.1142 12.9205 14.6039 13.1453 14.0123 13.1453C13.4208 13.1453 12.878 12.9205 12.3856 12.4709L8.43969 8.60618Z" fill="#E3E4E7"/>
<path d="M7.57299 9.47288C7.40888 9.23953 7.34215 9.05728 7.37641 8.92613C7.40887 8.79498 7.57299 8.72856 7.86875 8.72856H11.0248V5.14151C11.041 4.83151 11.1528 4.55899 11.3584 4.32565C11.564 4.0923 11.8219 3.96797 12.1357 3.95264H14.1826C14.5108 3.96797 14.7705 4.0923 14.9599 4.32565C15.1493 4.55899 15.2106 4.82981 15.1456 5.14151V8.86822H18.3017C18.6137 8.86822 18.803 8.93806 18.868 9.07772C18.9329 9.21739 18.8517 9.39623 18.6209 9.61255L14.6749 13.3376C14.2475 13.7872 13.7372 14.012 13.1456 14.012C12.5541 14.012 12.0113 13.7872 11.5189 13.3376L7.57299 9.47288Z" fill="#636ACC"/>
</svg>
