<svg width="50" height="50" viewBox="0 0 50 50" fill="none" xmlns="http://www.w3.org/2000/svg">
    <circle cx="25" cy="25" r="25" fill="#636ACC"/>
    <path fill-rule="evenodd" clip-rule="evenodd" d="M18.2316 19.3918C16.9699 17.8548 17.057 15.5814 18.4923 14.1461V14.1459L18.5399 14.0991C20.0708 12.6188 22.5117 12.6335 24.0246 14.1448C24.2936 14.4137 24.5217 14.7429 24.7157 15.1273C24.9102 14.7433 25.139 14.4139 25.4085 14.1445C26.9367 12.618 29.4128 12.6188 30.9404 14.1461C32.3755 15.5814 32.4628 17.8544 31.2012 19.3918H35.1503C36.4108 19.3918 37.4327 20.4136 37.4327 21.6742V24.9348C37.4327 26.0846 36.5824 27.0359 35.4763 27.1941V34.7166C35.4763 35.96 34.4818 36.9713 33.2449 36.9985L33.1939 36.999H24.7602C24.7517 36.9994 24.7432 36.9997 24.7347 36.9998C24.7139 37.0002 24.6932 37 24.6725 36.999H16.2388C14.9952 36.999 13.9841 36.0045 13.9568 34.7676L13.9563 34.7166V27.1941C12.8503 27.0359 12 26.0846 12 24.9348V21.6742C12 20.4136 13.0219 19.3918 14.2824 19.3918H18.2316ZM23.4584 17.5736C23.2606 16.5854 22.9688 15.8556 22.6416 15.5286C21.8775 14.7653 20.6395 14.7656 19.8758 15.5294C19.112 16.293 19.1117 17.5311 19.8747 18.2949C20.202 18.6224 20.9318 18.9142 21.9201 19.112C22.4261 19.2131 22.9683 19.285 23.5174 19.3316L23.6919 19.3455L23.6764 19.1529C23.6345 18.6648 23.5725 18.1826 23.4878 17.7266L23.4584 17.5736ZM29.5569 15.5294C30.3207 16.293 30.3211 17.5311 29.5577 18.2952C29.2307 18.6224 28.501 18.9142 27.5127 19.112L27.3598 19.1413C26.9038 19.2261 26.4215 19.2881 25.9334 19.33L25.7409 19.3454L25.7539 19.1818C25.7838 18.8278 25.8245 18.4721 25.8778 18.1237C26.0694 16.8716 26.3972 15.9223 26.7914 15.5283C27.5552 14.7653 28.7933 14.7656 29.5569 15.5294ZM23.7382 21.3481H14.2824C14.1959 21.3481 14.113 21.3825 14.0519 21.4436C13.9907 21.5048 13.9564 21.5877 13.9564 21.6742V24.9348C13.9564 25.0213 13.9907 25.1042 14.0519 25.1654C14.113 25.2265 14.1959 25.2609 14.2824 25.2609H14.8907C14.8992 25.2605 14.9077 25.2602 14.9162 25.26C14.937 25.2597 14.9578 25.2599 14.9784 25.2609H23.7382V21.3481ZM23.7382 27.2172H15.9127V34.7166C15.9127 34.7988 15.9438 34.878 15.9997 34.9383C16.0557 34.9986 16.1323 35.0355 16.2143 35.0417L16.2388 35.0427H23.7382V27.2172ZM25.6946 35.0427V27.2172H33.52V34.7166L33.5192 34.7411C33.513 34.8231 33.476 34.8998 33.4157 34.9557C33.3554 35.0116 33.2762 35.0427 33.1939 35.0427H25.6946ZM25.6946 25.2609V21.3481H35.1503C35.2368 21.3481 35.3197 21.3825 35.3808 21.4436C35.442 21.5048 35.4763 21.5877 35.4763 21.6742V24.9348C35.4763 25.0213 35.442 25.1042 35.3808 25.1654C35.3197 25.2265 35.2368 25.2609 35.1503 25.2609H34.4982H34.4982H25.6946Z" fill="white"/>
    <path d="M18.4923 14.1461L18.5277 14.1814L18.5423 14.1668V14.1461H18.4923ZM18.2316 19.3918V19.4418H18.3373L18.2702 19.36L18.2316 19.3918ZM18.4923 14.1459L18.4573 14.1103L18.4423 14.125V14.1459H18.4923ZM18.5399 14.0991L18.5052 14.0632L18.5049 14.0635L18.5399 14.0991ZM24.0246 14.1448L24.06 14.1094L24.0599 14.1094L24.0246 14.1448ZM24.7157 15.1273L24.6711 15.1499L24.7157 15.2382L24.7603 15.1499L24.7157 15.1273ZM25.4085 14.1445L25.3731 14.1091L25.3731 14.1091L25.4085 14.1445ZM30.9404 14.1461L30.9758 14.1107L30.9758 14.1107L30.9404 14.1461ZM31.2012 19.3918L31.1626 19.36L31.0955 19.4418H31.2012V19.3918ZM35.4763 27.1941L35.4693 27.1446L35.4263 27.1507V27.1941H35.4763ZM33.2449 36.9985L33.2454 37.0485L33.246 37.0485L33.2449 36.9985ZM33.1939 36.999V37.049L33.1944 37.049L33.1939 36.999ZM24.7602 36.999V36.949L24.758 36.9491L24.7602 36.999ZM24.7347 36.9998L24.7357 37.0498H24.7357L24.7347 36.9998ZM24.6725 36.999L24.6748 36.949H24.6725V36.999ZM13.9568 34.7676L13.9068 34.7681L13.9068 34.7687L13.9568 34.7676ZM13.9563 34.7166H13.9063L13.9064 34.7171L13.9563 34.7166ZM13.9563 27.1941H14.0063V27.1507L13.9634 27.1446L13.9563 27.1941ZM22.6416 15.5286L22.677 15.4932L22.677 15.4932L22.6416 15.5286ZM23.4584 17.5736L23.5075 17.5642L23.5074 17.5638L23.4584 17.5736ZM19.8758 15.5294L19.9112 15.5648L19.9112 15.5648L19.8758 15.5294ZM19.8747 18.2949L19.8393 18.3302L19.8393 18.3302L19.8747 18.2949ZM21.9201 19.112L21.9102 19.161L21.9103 19.161L21.9201 19.112ZM23.5174 19.3316L23.5132 19.3814L23.5135 19.3814L23.5174 19.3316ZM23.6919 19.3455L23.6879 19.3953L23.7464 19.3999L23.7417 19.3414L23.6919 19.3455ZM23.6764 19.1529L23.7262 19.1489L23.7262 19.1486L23.6764 19.1529ZM23.4878 17.7266L23.5369 17.7174L23.5369 17.7171L23.4878 17.7266ZM29.5577 18.2952L29.5931 18.3306L29.5931 18.3305L29.5577 18.2952ZM29.5569 15.5294L29.5216 15.5647L29.5216 15.5648L29.5569 15.5294ZM27.5127 19.112L27.5221 19.1611L27.5225 19.161L27.5127 19.112ZM27.3598 19.1413L27.3689 19.1905L27.3692 19.1904L27.3598 19.1413ZM25.9334 19.33L25.9374 19.3798L25.9377 19.3798L25.9334 19.33ZM25.7409 19.3454L25.691 19.3415L25.6864 19.4L25.7449 19.3953L25.7409 19.3454ZM25.7539 19.1818L25.7041 19.1776L25.7041 19.1778L25.7539 19.1818ZM25.8778 18.1237L25.9273 18.1313V18.1313L25.8778 18.1237ZM26.7914 15.5283L26.7561 15.4929L26.7561 15.4929L26.7914 15.5283ZM23.7382 21.3481H23.7882V21.2981H23.7382V21.3481ZM14.0519 21.4436L14.0872 21.479H14.0872L14.0519 21.4436ZM14.0519 25.1654L14.0872 25.13H14.0872L14.0519 25.1654ZM14.8907 25.2609V25.3109L14.8929 25.3108L14.8907 25.2609ZM14.9162 25.26L14.9152 25.2101H14.9152L14.9162 25.26ZM14.9784 25.2609L14.9762 25.3109H14.9784V25.2609ZM23.7382 25.2609V25.3109H23.7882V25.2609H23.7382ZM15.9127 27.2172V27.1672H15.8627V27.2172H15.9127ZM23.7382 27.2172H23.7882V27.1672H23.7382V27.2172ZM15.9127 34.7166H15.8627V34.7166L15.9127 34.7166ZM15.9997 34.9383L16.0364 34.9043L15.9997 34.9383ZM16.2143 35.0417L16.2106 35.0916L16.2123 35.0916L16.2143 35.0417ZM16.2388 35.0427L16.2368 35.0927H16.2388V35.0427ZM23.7382 35.0427V35.0927H23.7882V35.0427H23.7382ZM25.6946 27.2172V27.1672H25.6446V27.2172H25.6946ZM25.6946 35.0427H25.6446V35.0927H25.6946V35.0427ZM33.52 27.2172H33.57V27.1672H33.52V27.2172ZM33.52 34.7166L33.57 34.7183V34.7166H33.52ZM33.5192 34.7411L33.5691 34.7448L33.5691 34.7427L33.5192 34.7411ZM33.1939 35.0427L33.1939 34.9927H33.1939V35.0427ZM25.6946 21.3481V21.2981H25.6446V21.3481H25.6946ZM25.6946 25.2609H25.6446V25.3109H25.6946V25.2609ZM35.3808 21.4436L35.3455 21.479L35.3455 21.479L35.3808 21.4436ZM35.3808 25.1654L35.3455 25.13L35.3455 25.13L35.3808 25.1654ZM18.457 14.1107C17.0033 15.5644 16.9151 17.8669 18.1929 19.4235L18.2702 19.36C17.0247 17.8428 17.1108 15.5984 18.5277 14.1814L18.457 14.1107ZM18.4423 14.1459V14.1461H18.5423V14.1459H18.4423ZM18.5049 14.0635L18.4573 14.1103L18.5274 14.1816L18.575 14.1348L18.5049 14.0635ZM24.0599 14.1094C22.5277 12.5788 20.0556 12.564 18.5052 14.0632L18.5747 14.1351C20.086 12.6737 22.4957 12.6882 23.9893 14.1802L24.0599 14.1094ZM24.7604 15.1048C24.5644 14.7166 24.3334 14.3828 24.06 14.1094L23.9893 14.1801C24.2538 14.4446 24.479 14.7692 24.6711 15.1499L24.7604 15.1048ZM24.7603 15.1499C24.9529 14.7697 25.1788 14.4448 25.4438 14.1798L25.3731 14.1091C25.0993 14.383 24.8675 14.717 24.6711 15.1047L24.7603 15.1499ZM25.4438 14.1798C26.9525 12.6729 29.397 12.6737 30.9051 14.1814L30.9758 14.1107C29.4286 12.5639 26.9209 12.5631 25.3731 14.1091L25.4438 14.1798ZM30.9051 14.1814C32.3218 15.5984 32.408 17.8424 31.1626 19.36L31.2399 19.4235C32.5176 17.8665 32.4292 15.5644 30.9758 14.1107L30.9051 14.1814ZM31.2012 19.4418H35.1503V19.3418H31.2012V19.4418ZM35.1503 19.4418C36.3832 19.4418 37.3827 20.4413 37.3827 21.6742H37.4827C37.4827 20.386 36.4385 19.3418 35.1503 19.3418V19.4418ZM37.3827 21.6742V24.9348H37.4827V21.6742H37.3827ZM37.3827 24.9348C37.3827 26.0594 36.5511 26.9899 35.4693 27.1446L35.4834 27.2436C36.6138 27.0819 37.4827 26.1099 37.4827 24.9348H37.3827ZM35.4263 27.1941V34.7166H35.5263V27.1941H35.4263ZM35.4263 34.7166C35.4263 35.9328 34.4536 36.9219 33.2438 36.9486L33.246 37.0485C34.5101 37.0207 35.5263 35.9873 35.5263 34.7166H35.4263ZM33.2445 36.9485L33.1934 36.949L33.1944 37.049L33.2454 37.0485L33.2445 36.9485ZM33.1939 36.949H24.7602V37.049H33.1939V36.949ZM24.758 36.9491C24.7499 36.9494 24.7419 36.9497 24.7338 36.9498L24.7357 37.0498C24.7446 37.0497 24.7536 37.0494 24.7625 37.049L24.758 36.9491ZM24.7338 36.9498C24.7141 36.9502 24.6944 36.95 24.6748 36.9491L24.6703 37.049C24.692 37.05 24.7138 37.0502 24.7357 37.0498L24.7338 36.9498ZM24.6725 36.949H16.2388V37.049H24.6725V36.949ZM16.2388 36.949C15.0224 36.949 14.0335 35.9763 14.0068 34.7665L13.9068 34.7687C13.9347 36.0328 14.9679 37.049 16.2388 37.049V36.949ZM14.0068 34.7672L14.0063 34.7161L13.9064 34.7171L13.9068 34.7681L14.0068 34.7672ZM14.0063 34.7166V27.1941H13.9063V34.7166H14.0063ZM13.9634 27.1446C12.8816 26.9899 12.05 26.0594 12.05 24.9348H11.95C11.95 26.1099 12.8189 27.0819 13.9493 27.2436L13.9634 27.1446ZM12.05 24.9348V21.6742H11.95V24.9348H12.05ZM12.05 21.6742C12.05 20.4413 13.0495 19.4418 14.2824 19.4418V19.3418C12.9943 19.3418 11.95 20.386 11.95 21.6742H12.05ZM14.2824 19.4418H18.2316V19.3418H14.2824V19.4418ZM22.6063 15.564C22.7629 15.7205 22.9146 15.9776 23.0521 16.3217C23.1893 16.665 23.3109 17.0914 23.4094 17.5835L23.5074 17.5638C23.4081 17.0676 23.285 16.635 23.145 16.2846C23.0053 15.935 22.8475 15.6637 22.677 15.4932L22.6063 15.564ZM19.9112 15.5648C20.6553 14.8205 21.8617 14.8202 22.6063 15.564L22.677 15.4932C21.8933 14.7104 20.6236 14.7107 19.8405 15.4941L19.9112 15.5648ZM19.91 18.2595C19.1666 17.5153 19.1669 16.3089 19.9112 15.5648L19.8405 15.494C19.0571 16.2772 19.0568 17.5469 19.8393 18.3302L19.91 18.2595ZM21.9299 19.063C21.4378 18.9645 21.0114 18.8429 20.6681 18.7057C20.3239 18.5681 20.0668 18.4164 19.91 18.2595L19.8393 18.3302C20.0099 18.5009 20.2814 18.6588 20.631 18.7985C20.9814 18.9386 21.414 19.0617 21.9102 19.161L21.9299 19.063ZM23.5217 19.2818C22.974 19.2353 22.4337 19.1636 21.9298 19.063L21.9103 19.161C22.4185 19.2625 22.9626 19.3347 23.5132 19.3814L23.5217 19.2818ZM23.6958 19.2956L23.5214 19.2818L23.5135 19.3814L23.6879 19.3953L23.6958 19.2956ZM23.6265 19.1569L23.642 19.3495L23.7417 19.3414L23.7262 19.1489L23.6265 19.1569ZM23.4386 17.7357C23.523 18.1898 23.5848 18.6704 23.6266 19.1572L23.7262 19.1486C23.6842 18.6592 23.622 18.1753 23.5369 17.7174L23.4386 17.7357ZM23.4093 17.5831L23.4386 17.736L23.5369 17.7171L23.5075 17.5642L23.4093 17.5831ZM29.5931 18.3305C30.3759 17.5469 30.3756 16.2772 29.5923 15.494L29.5216 15.5648C30.2659 16.3089 30.2662 17.5153 29.5224 18.2599L29.5931 18.3305ZM27.5225 19.161C28.0188 19.0617 28.4513 18.9386 28.8017 18.7986C29.1513 18.6589 29.4227 18.5011 29.5931 18.3306L29.5224 18.2599C29.3658 18.4165 29.1088 18.5682 28.7646 18.7057C28.4213 18.8429 27.9949 18.9645 27.5029 19.063L27.5225 19.161ZM27.3692 19.1904L27.5221 19.1611L27.5033 19.0629L27.3504 19.0922L27.3692 19.1904ZM25.9377 19.3798C26.4272 19.3378 26.911 19.2756 27.3689 19.1905L27.3506 19.0922C26.8965 19.1766 26.4159 19.2384 25.9291 19.2801L25.9377 19.3798ZM25.7449 19.3953L25.9374 19.3798L25.9294 19.2801L25.7369 19.2956L25.7449 19.3953ZM25.7041 19.1778L25.691 19.3415L25.7907 19.3494L25.8038 19.1857L25.7041 19.1778ZM25.8284 18.1161C25.7749 18.4658 25.734 18.8226 25.7041 19.1776L25.8037 19.186C25.8335 18.833 25.8741 18.4784 25.9273 18.1313L25.8284 18.1161ZM26.7561 15.4929C26.5511 15.6979 26.3675 16.0421 26.2115 16.4877C26.055 16.9345 25.9245 17.488 25.8284 18.1161L25.9273 18.1313C26.0227 17.5073 26.1519 16.9602 26.3058 16.5207C26.4602 16.0801 26.6376 15.7527 26.8268 15.5636L26.7561 15.4929ZM29.5923 15.494C28.8091 14.7107 27.5394 14.7104 26.7561 15.4929L26.8268 15.5636C27.571 14.8202 28.7775 14.8205 29.5216 15.5647L29.5923 15.494ZM14.2824 21.3981H23.7382V21.2981H14.2824V21.3981ZM14.0872 21.479C14.139 21.4272 14.2092 21.3981 14.2824 21.3981V21.2981C14.1827 21.2981 14.087 21.3377 14.0165 21.4083L14.0872 21.479ZM14.0064 21.6742C14.0064 21.601 14.0354 21.5308 14.0872 21.479L14.0165 21.4083C13.946 21.4788 13.9064 21.5745 13.9064 21.6742H14.0064ZM14.0064 24.9348V21.6742H13.9064V24.9348H14.0064ZM14.0872 25.13C14.0354 25.0782 14.0064 25.008 14.0064 24.9348H13.9064C13.9064 25.0345 13.946 25.1302 14.0165 25.2007L14.0872 25.13ZM14.2824 25.2109C14.2092 25.2109 14.139 25.1818 14.0872 25.13L14.0165 25.2007C14.087 25.2712 14.1827 25.3109 14.2824 25.3109V25.2109ZM14.8907 25.2109H14.2824V25.3109H14.8907V25.2109ZM14.9152 25.2101C14.9063 25.2102 14.8974 25.2105 14.8884 25.2109L14.8929 25.3108C14.901 25.3104 14.909 25.3102 14.9171 25.31L14.9152 25.2101ZM14.9807 25.2109C14.9589 25.2099 14.9371 25.2096 14.9152 25.2101L14.9171 25.31C14.9369 25.3097 14.9566 25.3099 14.9762 25.3108L14.9807 25.2109ZM23.7382 25.2109H14.9784V25.3109H23.7382V25.2109ZM23.6882 21.3481V25.2609H23.7882V21.3481H23.6882ZM15.9127 27.2672H23.7382V27.1672H15.9127V27.2672ZM15.9627 34.7166V27.2172H15.8627V34.7166H15.9627ZM16.0364 34.9043C15.989 34.8533 15.9627 34.7862 15.9627 34.7166L15.8627 34.7166C15.8627 34.8115 15.8986 34.9028 15.9631 34.9723L16.0364 34.9043ZM16.2181 34.9918C16.1486 34.9866 16.0837 34.9553 16.0364 34.9043L15.9631 34.9723C16.0276 35.0418 16.116 35.0844 16.2106 35.0915L16.2181 34.9918ZM16.2408 34.9927L16.2163 34.9917L16.2123 35.0916L16.2368 35.0926L16.2408 34.9927ZM23.7382 34.9927H16.2388V35.0927H23.7382V34.9927ZM23.6882 27.2172V35.0427H23.7882V27.2172H23.6882ZM25.6446 27.2172V35.0427H25.7446V27.2172H25.6446ZM33.52 27.1672H25.6946V27.2672H33.52V27.1672ZM33.57 34.7166V27.2172H33.47V34.7166H33.57ZM33.5691 34.7427L33.5699 34.7183L33.47 34.7149L33.4692 34.7394L33.5691 34.7427ZM33.4497 34.9924C33.5193 34.9278 33.5619 34.8394 33.569 34.7448L33.4693 34.7373C33.4641 34.8068 33.4328 34.8717 33.3817 34.919L33.4497 34.9924ZM33.1939 35.0927C33.2888 35.0927 33.3801 35.0569 33.4497 34.9924L33.3817 34.919C33.3307 34.9664 33.2636 34.9927 33.1939 34.9927L33.1939 35.0927ZM25.6946 35.0927H33.1939V34.9927H25.6946V35.0927ZM25.6446 21.3481V25.2609H25.7446V21.3481H25.6446ZM35.1503 21.2981H25.6946V21.3981H35.1503V21.2981ZM35.4162 21.4083C35.3457 21.3377 35.25 21.2981 35.1503 21.2981V21.3981C35.2235 21.3981 35.2937 21.4272 35.3455 21.479L35.4162 21.4083ZM35.5263 21.6742C35.5263 21.5745 35.4867 21.4788 35.4162 21.4083L35.3455 21.479C35.3973 21.5308 35.4263 21.601 35.4263 21.6742H35.5263ZM35.5263 24.9348V21.6742H35.4263V24.9348H35.5263ZM35.4162 25.2007C35.4867 25.1302 35.5263 25.0345 35.5263 24.9348H35.4263C35.4263 25.008 35.3973 25.0782 35.3455 25.13L35.4162 25.2007ZM35.1503 25.3109C35.25 25.3109 35.3457 25.2712 35.4162 25.2007L35.3455 25.13C35.2937 25.1818 35.2235 25.2109 35.1503 25.2109V25.3109ZM34.4982 25.3109H35.1503V25.2109H34.4982V25.3109ZM34.4982 25.3109H34.4982V25.2109H34.4982V25.3109ZM25.6946 25.3109H34.4982V25.2109H25.6946V25.3109Z" fill="#636ACC"/>
</svg>
