<svg width="14" height="14" viewBox="0 0 14 14" fill="none" xmlns="http://www.w3.org/2000/svg">
    <circle cx="7" cy="7" r="7" fill="#DB705C"/>
    <path fill-rule="evenodd" clip-rule="evenodd" d="M6.12549 3.98151C6.06696 3.46055 6.47461 3.00455 6.99884 3.00455C7.5241 3.00455 7.93207 3.46226 7.8719 3.98406L7.44717 7.66756H6.53958L6.12549 3.98151ZM6.9932 9.00002C7.29252 9.00002 7.53288 9.09326 7.71429 9.27974C7.90476 9.4569 8 9.69466 8 9.99303C8 10.2821 7.90476 10.5245 7.71429 10.7203C7.50567 10.9068 7.26531 11 6.9932 11C6.72109 11 6.4898 10.9021 6.29932 10.7063C6.09977 10.5105 6 10.2727 6 9.99303C6 9.69466 6.09977 9.4569 6.29932 9.27974C6.48073 9.09326 6.71202 9.00002 6.9932 9.00002Z" fill="white"/>
</svg>
