<svg width="20" height="20" viewBox="0 0 20 20" fill="none" xmlns="http://www.w3.org/2000/svg">
    <g clip-path="url(#clip0)">
        <path d="M4.96006 19.7297C3.86006 19.7297 2.78006 19.3197 1.96006 18.4997C1.14006 17.6797 0.710056 16.5797 0.740056 15.3897C0.770056 14.2097 1.25006 13.0997 2.09006 12.2497L4.22006 10.1197C4.46006 9.87968 4.84006 9.87968 5.08006 10.1197C5.32006 10.3597 5.32006 10.7397 5.08006 10.9797L2.95006 13.1097C2.33006 13.7297 1.97006 14.5497 1.95006 15.4197C1.93006 16.2697 2.24006 17.0597 2.82006 17.6497C4.03006 18.8597 6.07006 18.8097 7.35006 17.5197L10.6201 14.2497C11.9001 12.9697 11.9701 10.9297 10.7501 9.71968C10.5201 9.48968 10.2601 9.29968 9.97006 9.15968C9.67006 9.00968 9.55006 8.64968 9.69006 8.34968C9.84006 8.04968 10.2001 7.92968 10.5001 8.06968C10.9101 8.26968 11.2801 8.53968 11.6101 8.85968C13.2901 10.5497 13.2401 13.3497 11.4801 15.1097L8.20006 18.3697C7.30006 19.2697 6.12006 19.7297 4.96006 19.7297Z" fill="#6469BE"/>
        <path d="M14.5755 11.6035C14.3569 11.7248 14.0694 11.7014 13.8645 11.5178C13.6218 11.2865 13.6054 10.9067 13.8367 10.664L15.9035 8.45318C17.1443 7.12396 17.1189 5.07939 15.8547 3.89394C14.5905 2.70849 12.5459 2.83689 11.3002 4.15736L8.14228 7.53429C7.5476 8.17317 7.22579 9.01515 7.23614 9.87863C7.2465 10.7421 7.58906 11.5241 8.19978 12.0887C8.51242 12.3841 8.87075 12.5969 9.27961 12.736C9.60203 12.8429 9.76896 13.1849 9.662 13.5073C9.55503 13.8297 9.21308 13.9967 8.89065 13.8897C8.31378 13.6952 7.81271 13.39 7.36996 12.9839C6.51651 12.1881 6.03517 11.0942 6.02397 9.89953C6.00888 8.71844 6.44348 7.58512 7.26066 6.70836L10.4186 3.33143C12.1084 1.51286 14.9223 1.36921 16.6806 3.01233C18.439 4.65545 18.4797 7.46928 16.7851 9.2791L14.7183 11.4899C14.6756 11.5365 14.6279 11.5744 14.5755 11.6035Z" fill="#6469BE"/>
    </g>
    <defs>
        <clipPath id="clip0">
            <rect width="20" height="20" fill="white"/>
        </clipPath>
    </defs>
</svg>
