<svg width="24" height="24" viewBox="0 0 24 24" fill="none" xmlns="http://www.w3.org/2000/svg">
    <circle cx="12" cy="12" r="12" fill="#EEB023"/>
    <path d="M7.07432 6.71002H9.4885V5.62959C9.4885 4.59536 10.3235 3.75541 11.357 3.7499C12.3612 3.74452 13.1796 4.55483 13.185 5.55974C13.1851 5.57623 13.1849 5.59272 13.1846 5.60922L13.1605 6.71H15.5011C16.5087 6.71 17.3255 7.52735 17.3255 8.53554V10.9528H18.4515C19.4448 10.9528 20.25 11.7586 20.25 12.7526C20.25 13.7466 19.4448 14.5523 18.4515 14.5523H17.3254V16.9243C17.3254 17.9325 16.5087 18.7499 15.5011 18.7499H13.2255V17.6035C13.2255 16.524 12.3509 15.6489 11.2721 15.6489C10.1933 15.6489 9.31881 16.524 9.31881 17.6035V18.7499H7.07432C6.06679 18.7499 5.25 17.9325 5.25 16.9243V14.6129H6.51874C7.58401 14.6129 8.44756 13.7487 8.44756 12.6828C8.44756 11.6168 7.58401 10.7527 6.51876 10.7527H5.25V8.53556C5.25 7.52733 6.06679 6.71002 7.07432 6.71002Z" fill="white"/>
</svg>
