<svg xmlns="http://www.w3.org/2000/svg" xmlns:xlink="http://www.w3.org/1999/xlink" preserveAspectRatio="xMidYMid" width="14" height="14" viewBox="0 0 14 14">
  <defs>
    <style>

      .cls-2 {
        fill: #3eabde;
      }
    </style>
  </defs>
  <path d="M7.000,14.000 C3.134,14.000 -0.000,10.866 -0.000,7.000 C-0.000,3.134 3.134,-0.000 7.000,-0.000 C10.866,-0.000 14.000,3.134 14.000,7.000 C14.000,10.866 10.866,14.000 7.000,14.000 ZM7.000,0.625 C3.479,0.625 0.625,3.479 0.625,7.000 C0.625,10.521 3.479,13.375 7.000,13.375 C10.521,13.375 13.375,10.521 13.375,7.000 C13.375,3.479 10.521,0.625 7.000,0.625 ZM10.500,7.281 C10.500,7.281 10.500,6.719 10.500,6.719 C10.500,6.719 12.375,6.719 12.375,6.719 C12.375,6.719 12.375,7.281 12.375,7.281 C12.375,7.281 10.500,7.281 10.500,7.281 ZM9.269,4.319 C9.269,4.319 10.506,3.081 10.506,3.081 C10.506,3.081 10.919,3.494 10.919,3.494 C10.919,3.494 9.681,4.731 9.681,4.731 C9.681,4.731 9.269,4.319 9.269,4.319 ZM7.000,9.906 C5.395,9.906 4.094,8.605 4.094,7.000 C4.094,5.395 5.395,4.094 7.000,4.094 C8.605,4.094 9.906,5.395 9.906,7.000 C9.906,8.605 8.605,9.906 7.000,9.906 ZM7.000,4.656 C5.706,4.656 4.656,5.706 4.656,7.000 C4.656,8.294 5.706,9.344 7.000,9.344 C8.294,9.344 9.344,8.294 9.344,7.000 C9.344,5.706 8.294,4.656 7.000,4.656 ZM7.000,8.750 C6.034,8.750 5.250,7.966 5.250,7.000 C5.250,6.033 6.034,5.250 7.000,5.250 C7.966,5.250 8.750,6.033 8.750,7.000 C8.750,7.966 7.966,8.750 7.000,8.750 ZM6.719,1.625 C6.719,1.625 7.281,1.625 7.281,1.625 C7.281,1.625 7.281,3.500 7.281,3.500 C7.281,3.500 6.719,3.500 6.719,3.500 C6.719,3.500 6.719,1.625 6.719,1.625 ZM3.082,3.494 C3.082,3.494 3.494,3.081 3.494,3.081 C3.494,3.081 4.731,4.319 4.731,4.319 C4.731,4.319 4.319,4.731 4.319,4.731 C4.319,4.731 3.082,3.494 3.082,3.494 ZM3.500,7.281 C3.500,7.281 1.625,7.281 1.625,7.281 C1.625,7.281 1.625,6.719 1.625,6.719 C1.625,6.719 3.500,6.719 3.500,6.719 C3.500,6.719 3.500,7.281 3.500,7.281 ZM4.731,9.681 C4.731,9.681 3.494,10.919 3.494,10.919 C3.494,10.919 3.082,10.506 3.082,10.506 C3.082,10.506 4.319,9.269 4.319,9.269 C4.319,9.269 4.731,9.681 4.731,9.681 ZM7.281,12.375 C7.281,12.375 6.719,12.375 6.719,12.375 C6.719,12.375 6.719,10.500 6.719,10.500 C6.719,10.500 7.281,10.500 7.281,10.500 C7.281,10.500 7.281,12.375 7.281,12.375 ZM10.919,10.506 C10.919,10.506 10.506,10.919 10.506,10.919 C10.506,10.919 9.269,9.681 9.269,9.681 C9.269,9.681 9.681,9.269 9.681,9.269 C9.681,9.269 10.919,10.506 10.919,10.506 Z" id="path-1" class="cls-2" fill-rule="evenodd"/>
</svg>
