<svg xmlns="http://www.w3.org/2000/svg" xmlns:xlink="http://www.w3.org/1999/xlink" preserveAspectRatio="xMidYMid" width="16" height="16" viewBox="0 0 16 16">
  <defs>
    <style>

      .cls-2 {
        fill: #999999;
      }
    </style>
  </defs>
  <path d="M15.293,8.452 C14.399,8.213 14.196,6.116 14.930,5.693 C15.170,5.554 15.357,5.356 15.480,5.128 C15.289,4.432 14.638,3.430 14.271,2.984 C14.002,2.972 13.728,3.033 13.478,3.177 C12.678,3.640 11.023,2.403 11.270,1.483 C11.347,1.195 11.306,0.847 11.243,0.643 C10.789,0.408 9.712,0.091 8.912,0.013 C8.739,0.139 8.542,0.442 8.465,0.731 C8.204,1.704 6.139,1.846 5.696,1.079 C5.548,0.823 5.276,0.584 5.087,0.505 C4.570,0.662 3.446,1.314 2.991,1.690 C3.022,1.957 3.028,2.266 3.181,2.531 C3.624,3.298 2.425,5.004 1.478,4.750 C1.167,4.667 0.840,4.690 0.573,4.800 C0.354,5.286 0.021,6.569 -0.010,7.086 C0.053,7.228 0.427,7.475 0.727,7.555 C2.015,7.901 2.025,9.790 1.092,10.329 C0.828,10.481 0.602,10.693 0.508,10.960 C0.665,11.461 1.295,12.564 1.703,13.035 C1.969,13.066 2.279,12.998 2.544,12.845 C3.377,12.363 5.045,13.496 4.763,14.547 C4.690,14.821 4.730,15.109 4.777,15.392 C5.404,15.658 6.539,16.033 7.167,16.017 C7.370,15.829 7.496,15.567 7.568,15.299 C7.815,14.379 9.851,14.085 10.332,14.918 C10.467,15.152 10.655,15.373 10.875,15.498 C11.533,15.310 12.691,14.662 13.083,14.254 C13.099,13.957 12.987,13.708 12.847,13.466 C12.327,12.566 13.542,10.990 14.541,11.258 C14.815,11.331 15.113,11.306 15.364,11.244 C15.584,10.695 15.948,9.714 16.010,8.899 C15.791,8.648 15.582,8.530 15.293,8.452 ZM12.249,9.061 C11.639,11.338 9.298,12.689 7.021,12.079 C4.744,11.469 3.393,9.128 4.003,6.851 C4.613,4.574 6.954,3.223 9.231,3.833 C11.508,4.443 12.859,6.783 12.249,9.061 Z" id="path-1" class="cls-2" fill-rule="evenodd"/>
</svg>
