<svg xmlns="http://www.w3.org/2000/svg" xmlns:xlink="http://www.w3.org/1999/xlink" preserveAspectRatio="xMidYMid" width="16" height="14" viewBox="0 0 16 14">
  <defs>
    <style>

      .cls-2 {
        fill: #e98780;
      }
    </style>
  </defs>
  <path d="M16.000,3.000 C16.000,3.000 16.000,14.000 16.000,14.000 C16.000,14.000 7.000,14.000 7.000,14.000 C7.000,14.000 6.000,14.000 6.000,14.000 C6.000,14.000 6.000,9.000 6.000,9.000 C6.000,9.000 4.000,9.000 4.000,9.000 C4.000,9.000 4.000,14.000 4.000,14.000 C4.000,14.000 3.000,14.000 3.000,14.000 C3.000,14.000 -0.000,14.000 -0.000,14.000 C-0.000,14.000 -0.000,3.000 -0.000,3.000 C-0.000,3.000 0.000,3.000 0.000,3.000 C0.000,3.000 2.000,0.000 2.000,0.000 C2.000,0.000 14.000,0.000 14.000,0.000 C14.000,0.000 16.000,3.000 16.000,3.000 C16.000,3.000 16.000,3.000 16.000,3.000 ZM9.000,11.000 C9.000,11.000 13.000,11.000 13.000,11.000 C13.000,11.000 13.000,9.000 13.000,9.000 C13.000,9.000 9.000,9.000 9.000,9.000 C9.000,9.000 9.000,11.000 9.000,11.000 ZM15.000,4.000 C15.000,3.584 14.746,3.229 14.385,3.078 C14.385,3.078 13.000,1.000 13.000,1.000 C13.000,1.000 3.000,1.000 3.000,1.000 C3.000,1.000 1.615,3.078 1.615,3.078 C1.254,3.229 1.000,3.584 1.000,4.000 C1.000,4.552 1.448,5.000 2.000,5.000 C2.552,5.000 3.000,4.552 3.000,4.000 C3.000,4.000 5.000,4.000 5.000,4.000 C5.000,4.552 5.448,5.000 6.000,5.000 C6.552,5.000 7.000,4.552 7.000,4.000 C7.000,4.000 9.000,4.000 9.000,4.000 C9.000,4.552 9.448,5.000 10.000,5.000 C10.552,5.000 11.000,4.552 11.000,4.000 C11.000,4.000 13.000,4.000 13.000,4.000 C13.000,4.552 13.448,5.000 14.000,5.000 C14.552,5.000 15.000,4.552 15.000,4.000 C15.000,4.000 15.000,4.000 15.000,4.000 C15.000,4.000 15.000,4.000 15.000,4.000 C15.000,4.000 15.000,4.000 15.000,4.000 Z" id="path-1" class="cls-2" fill-rule="evenodd"/>
</svg>
