<svg xmlns="http://www.w3.org/2000/svg" xmlns:xlink="http://www.w3.org/1999/xlink" preserveAspectRatio="xMidYMid" width="16" height="11" viewBox="0 0 16 11">
  <defs>
    <style>

      .cls-2 {
        fill: #ffcd02;
      }
    </style>
  </defs>
  <path d="M-0.000,9.000 C-0.000,9.000 -0.000,-0.000 -0.000,-0.000 C-0.000,-0.000 16.000,-0.000 16.000,-0.000 C16.000,-0.000 16.000,9.000 16.000,9.000 C16.000,9.000 -0.000,9.000 -0.000,9.000 ZM15.000,1.000 C15.000,1.000 1.000,1.000 1.000,1.000 C1.000,1.000 1.000,8.000 1.000,8.000 C1.000,8.000 15.000,8.000 15.000,8.000 C15.000,8.000 15.000,1.000 15.000,1.000 ZM14.000,7.000 C14.000,7.000 2.000,7.000 2.000,7.000 C2.000,7.000 2.000,2.000 2.000,2.000 C2.000,2.000 14.000,2.000 14.000,2.000 C14.000,2.000 14.000,7.000 14.000,7.000 ZM13.000,11.000 C13.000,11.000 3.000,11.000 3.000,11.000 C3.000,11.000 3.000,10.000 3.000,10.000 C3.000,10.000 13.000,10.000 13.000,10.000 C13.000,10.000 13.000,11.000 13.000,11.000 Z" id="path-1" class="cls-2" fill-rule="evenodd"/>
</svg>
