<svg xmlns="http://www.w3.org/2000/svg" xmlns:xlink="http://www.w3.org/1999/xlink" preserveAspectRatio="xMidYMid" width="15" height="15" viewBox="0 0 15 15">
  <defs>
    <style>

      .cls-2 {
        fill: #69b8d6;
      }
    </style>
  </defs>
  <path d="M8.000,11.000 C8.000,11.000 7.000,11.000 7.000,11.000 C7.000,11.000 4.000,11.000 4.000,11.000 C4.000,11.000 4.000,8.000 4.000,8.000 C4.000,8.000 4.000,7.000 4.000,7.000 C4.000,7.000 4.000,-0.000 4.000,-0.000 C4.000,-0.000 15.000,-0.000 15.000,-0.000 C15.000,-0.000 15.000,11.000 15.000,11.000 C15.000,11.000 8.000,11.000 8.000,11.000 ZM14.000,1.000 C14.000,1.000 5.000,1.000 5.000,1.000 C5.000,1.000 5.000,10.000 5.000,10.000 C5.000,10.000 14.000,10.000 14.000,10.000 C14.000,10.000 14.000,1.000 14.000,1.000 ZM7.937,6.394 C7.937,6.394 12.340,1.991 12.340,1.991 C12.340,1.991 13.009,2.660 13.009,2.660 C13.009,2.660 8.606,7.062 8.606,7.062 C8.606,7.062 11.719,7.062 11.719,7.062 C11.719,7.062 11.719,8.000 11.719,8.000 C11.719,8.000 7.937,8.000 7.937,8.000 C7.937,8.000 7.000,8.000 7.000,8.000 C7.000,8.000 7.000,7.062 7.000,7.062 C7.000,7.062 7.000,3.281 7.000,3.281 C7.000,3.281 7.937,3.281 7.937,3.281 C7.937,3.281 7.937,6.394 7.937,6.394 ZM7.937,7.062 C7.937,7.062 7.954,7.062 7.954,7.062 C7.954,7.062 7.937,7.046 7.937,7.046 C7.937,7.046 7.937,7.062 7.937,7.062 ZM1.000,14.000 C1.000,14.000 7.000,14.000 7.000,14.000 C7.000,14.000 7.000,12.000 7.000,12.000 C7.000,12.000 8.000,12.000 8.000,12.000 C8.000,12.000 8.000,15.000 8.000,15.000 C8.000,15.000 0.000,15.000 0.000,15.000 C0.000,15.000 0.000,7.000 0.000,7.000 C0.000,7.000 3.000,7.000 3.000,7.000 C3.000,7.000 3.000,8.000 3.000,8.000 C3.000,8.000 1.000,8.000 1.000,8.000 C1.000,8.000 1.000,14.000 1.000,14.000 Z" id="path-1" class="cls-2" fill-rule="evenodd"/>
</svg>
