<svg xmlns="http://www.w3.org/2000/svg" xmlns:xlink="http://www.w3.org/1999/xlink" preserveAspectRatio="xMidYMid" width="15" height="15" viewBox="0 0 15 15">
  <defs>
    <style>

      .cls-2 {
        fill: #69b8d6;
      }
    </style>
  </defs>
  <path d="M8.000,11.000 C8.000,11.000 7.000,11.000 7.000,11.000 C7.000,11.000 4.000,11.000 4.000,11.000 C4.000,11.000 4.000,8.000 4.000,8.000 C4.000,8.000 4.000,7.000 4.000,7.000 C4.000,7.000 4.000,-0.000 4.000,-0.000 C4.000,-0.000 15.000,-0.000 15.000,-0.000 C15.000,-0.000 15.000,11.000 15.000,11.000 C15.000,11.000 8.000,11.000 8.000,11.000 ZM14.000,1.000 C14.000,1.000 5.000,1.000 5.000,1.000 C5.000,1.000 5.000,10.000 5.000,10.000 C5.000,10.000 14.000,10.000 14.000,10.000 C14.000,10.000 14.000,1.000 14.000,1.000 ZM8.000,3.000 C8.000,3.000 8.000,2.000 8.000,2.000 C8.000,2.000 12.000,2.000 12.000,2.000 C12.000,2.000 13.000,2.000 13.000,2.000 C13.000,2.000 13.000,3.000 13.000,3.000 C13.000,3.000 13.000,7.000 13.000,7.000 C13.000,7.000 12.000,7.000 12.000,7.000 C12.000,7.000 12.000,3.707 12.000,3.707 C12.000,3.707 7.354,8.354 7.354,8.354 C7.354,8.354 6.646,7.646 6.646,7.646 C6.646,7.646 11.293,3.000 11.293,3.000 C11.293,3.000 8.000,3.000 8.000,3.000 ZM1.000,14.000 C1.000,14.000 7.000,14.000 7.000,14.000 C7.000,14.000 7.000,12.000 7.000,12.000 C7.000,12.000 8.000,12.000 8.000,12.000 C8.000,12.000 8.000,15.000 8.000,15.000 C8.000,15.000 -0.000,15.000 -0.000,15.000 C-0.000,15.000 -0.000,7.000 -0.000,7.000 C-0.000,7.000 3.000,7.000 3.000,7.000 C3.000,7.000 3.000,8.000 3.000,8.000 C3.000,8.000 1.000,8.000 1.000,8.000 C1.000,8.000 1.000,14.000 1.000,14.000 Z" id="path-1" class="cls-2" fill-rule="evenodd"/>
</svg>
