<svg xmlns="http://www.w3.org/2000/svg" xmlns:xlink="http://www.w3.org/1999/xlink" preserveAspectRatio="xMidYMid" width="9" height="7" viewBox="0 0 9 7">
  <defs>
    <style>

      .cls-2 {
        fill: #69b8d6;
      }
    </style>
  </defs>
  <path d="M0.000,7.000 C0.000,7.000 0.000,6.000 0.000,6.000 C0.000,6.000 9.000,6.000 9.000,6.000 C9.000,6.000 9.000,7.000 9.000,7.000 C9.000,7.000 0.000,7.000 0.000,7.000 ZM0.000,3.000 C0.000,3.000 9.000,3.000 9.000,3.000 C9.000,3.000 9.000,4.000 9.000,4.000 C9.000,4.000 0.000,4.000 0.000,4.000 C0.000,4.000 0.000,3.000 0.000,3.000 ZM0.000,0.000 C0.000,0.000 9.000,0.000 9.000,0.000 C9.000,0.000 9.000,1.000 9.000,1.000 C9.000,1.000 0.000,1.000 0.000,1.000 C0.000,1.000 0.000,0.000 0.000,0.000 Z" id="path-1" class="cls-2" fill-rule="evenodd"/>
</svg>
