<svg xmlns="http://www.w3.org/2000/svg" viewBox="0 0 30 30"><circle cx="15" cy="15" r="15" fill="#a397b6"/><path d="m20 23c0 0-10 0-10 0-.552 0-1-.448-1-1 0 0 0-14 0-14 0-.552.448-1 1-1 0 0 1 0 1 0 0 0 0 1 0 1 0 0-.5 0-.5 0-.276 0-.5.224-.5.5 0 0 0 13 0 13 0 .276.224.5.5.5 0 0 9 0 9 0 .276 0 .5-.224.5-.5 0 0 0-13 0-13 0-.276-.224-.5-.5-.5 0 0-.5 0-.5 0 0 0 0-1 0-1 0 0 1 0 1 0 .552 0 1 .448 1 1 0 0 0 14 0 14 0 .552-.448 1-1 1m-8-16c0-.552.448-1 1-1 0 0 0-1 0-1 0 0 4 0 4 0 0 0 0 1 0 1 .552 0 1 .448 1 1 0 0 0 1 0 1 0 0-6 0-6 0 0 0 0-1 0-1m-1 5c0 0 8 0 8 0 0 0 0 1 0 1 0 0-8 0-8 0 0 0 0-1 0-1m0 2c0 0 8 0 8 0 0 0 0 1 0 1 0 0-8 0-8 0 0 0 0-1 0-1m8 5c0 0-8 0-8 0 0 0 0-1 0-1 0 0 8 0 8 0 0 0 0 1 0 1m-8-3c0 0 8 0 8 0 0 0 0 1 0 1 0 0-8 0-8 0 0 0 0-1 0-1" fill-rule="evenodd" fill="#fff"/></svg>