<svg xmlns="http://www.w3.org/2000/svg" xmlns:xlink="http://www.w3.org/1999/xlink" preserveAspectRatio="xMidYMid" width="10" height="10" viewBox="0 0 10 10">
  <defs>
    <style>

      .cls-2 {
        fill: #666666;
      }
    </style>
  </defs>
  <path d="M9.999,9.473 C9.999,9.473 9.473,9.999 9.473,9.999 C9.473,9.999 5.000,5.526 5.000,5.526 C5.000,5.526 0.527,9.999 0.527,9.999 C0.527,9.999 0.001,9.473 0.001,9.473 C0.001,9.473 4.474,5.000 4.474,5.000 C4.474,5.000 0.001,0.527 0.001,0.527 C0.001,0.527 0.527,0.001 0.527,0.001 C0.527,0.001 5.000,4.474 5.000,4.474 C5.000,4.474 9.473,0.001 9.473,0.001 C9.473,0.001 9.999,0.527 9.999,0.527 C9.999,0.527 5.526,5.000 5.526,5.000 C5.526,5.000 9.999,9.473 9.999,9.473 Z" id="path-1" class="cls-2" fill-rule="evenodd"/>
</svg>
