<svg xmlns="http://www.w3.org/2000/svg" xmlns:xlink="http://www.w3.org/1999/xlink" preserveAspectRatio="xMidYMid" width="14" height="14" viewBox="0 0 14 14">
  <defs>
    <style>

      .cls-2 {
        fill: #ffffff;
      }
    </style>
  </defs>
  <path d="M13.999,13.262 C13.999,13.262 13.262,13.999 13.262,13.999 C13.262,13.999 7.000,7.737 7.000,7.737 C7.000,7.737 0.738,13.999 0.738,13.999 C0.738,13.999 0.001,13.262 0.001,13.262 C0.001,13.262 6.263,7.000 6.263,7.000 C6.263,7.000 0.001,0.738 0.001,0.738 C0.001,0.738 0.738,0.001 0.738,0.001 C0.738,0.001 7.000,6.263 7.000,6.263 C7.000,6.263 13.262,0.001 13.262,0.001 C13.262,0.001 13.999,0.738 13.999,0.738 C13.999,0.738 7.737,7.000 7.737,7.000 C7.737,7.000 13.999,13.262 13.999,13.262 Z" id="path-1" class="cls-2" fill-rule="evenodd"/>
</svg>
