<svg xmlns="http://www.w3.org/2000/svg" width="156" height="32" viewBox="0 0 156 32" x="0" y="0"><path fill="#67b5d2" d="M154.599 12.041c-0.066 0.451-0.492 0.814-0.949 0.807 0 0-2.163-0.033-3.623-0.033-1.669 0-2.087 0.023-2.156 0.417-0.046 0.371 0.255 0.534 1.182 0.834 0 0 1.879 0.605 1.879 0.605 0.434 0.139 1.106 0.448 1.495 0.686 0 0 2.053 1.259 1.821 3.138-0.348 2.945-2.365 3.432-5.751 3.432-1.29 0-3.912-0.192-6.136-0.256 0 0-2.334 0-2.334 0-0.455 0-0.979-0.341-1.162-0.758 0 0-1.303-2.959-1.303-2.959-0.184-0.417-0.681-0.62-1.105-0.453 0 0-0.227 0.090-0.714 0.252-0.012 0.191-0.075 0.717-0.14 1.169 0 0-0.276 1.93-0.276 1.93-0.064 0.451-0.489 0.82-0.946 0.82 0 0-2.563 0-2.563 0-0.455 0-0.776-0.369-0.713-0.821 0 0 2.042-14.59 2.042-14.59 0.064-0.451 0.488-0.821 0.943-0.821 0 0 2.564 0 2.564 0 0.455 0 0.777 0.37 0.716 0.821 0 0-0.68 4.967-0.68 4.967-0.062 0.451-0.202 1.183-0.311 1.625 0 0-0.265 1.074-0.729 2.048 1.971-1.066 3.769-4.044 3.769-4.044 0.235-0.39 0.801-0.709 1.256-0.709 0 0 3.485 0 3.485 0-0.627 2.573-2.111 4.266-3.873 5.472 0.534 0.417 0.905 0.974 1.137 1.507 0 0 0.853 1.817 0.853 1.817 1.418 0.006 3.915 0.015 4.828 0.015 2.528 0 3.038-0.117 3.107-0.556 0.047-0.372-0.511-0.554-0.511-0.554-0.433-0.141-1.14-0.378-1.571-0.526 0 0-1.79-0.612-1.79-0.612-2.063-0.696-2.713-2.017-2.458-3.803 0.278-2.063 1.6-3.083 5.379-3.083 1.786 0.023 4.244 0.231 5.589 0.51 0 0-0.251 1.707-0.251 1.707zM130.131 13.227c0 0-2.123-0.013-2.123-0.013-0.455-0.003-1.189 0.087-1.631 0.198 0 0-1.493 0.377-1.77 2.464-0.301 2.296 0.093 2.713 1.762 2.713 0.882 0 2.93-0.132 2.93-0.132 0.455-0.030 0.868 0.317 0.919 0.769 0 0 0.21 1.89 0.21 1.89-1.438 0.627-3.246 0.835-4.824 0.835-4.057 0-6.005-1.762-5.379-6.214 0.58-4.197 2.18-5.913 6.423-5.913 1.6 0 3.548 0.255 4.893 0.834 0 0-0.397 1.766-0.397 1.766-0.1 0.444-0.554 0.806-1.011 0.803zM118.957 20.852c-0.063 0.452-0.487 0.821-0.942 0.821 0 0-1.636 0-1.636 0-0.455 0-0.832-0.373-0.837-0.828 0 0-0.005-0.407-0.005-0.407-0.005-0.456-0.309-0.607-0.675-0.335 0 0-2.557 1.894-4.181 1.894-2.318 0-3.385-1.228-3.083-3.292 0 0 1.068-7.736 1.068-7.736 0.063-0.451 0.486-0.821 0.942-0.821 0 0 2.586 0 2.586 0 0.456 0 0.775 0.37 0.71 0.82 0 0-0.829 5.734-0.829 5.734-0.066 0.451-0.055 1.187 0.024 1.636 0 0 0.020 0.111 0.53 0.111 0.835 0 1.508-0.371 2.644-1.276 0 0 0.881-6.205 0.881-6.205 0.064-0.451 0.489-0.821 0.946-0.821 0 0 2.517 0 2.517 0 0.455 0 0.777 0.37 0.714 0.821 0 0-1.372 9.883-1.372 9.883zM100.597 21.951c-1.739 0-4.986-0.325-6.377-0.928 0 0 2.066-14.761 2.066-14.761 0.063-0.451 0.487-0.821 0.943-0.821 0 0 2.563 0 2.563 0 0.455 0 0.779 0.37 0.721 0.822 0 0-0.333 2.54-0.333 2.54-0.092 1.021-0.301 1.948-0.696 2.945 1.137-1.090 2.667-1.901 4.29-1.901 2.783 0 3.896 1.786 3.246 6.145-0.534 3.641-1.971 5.959-6.423 5.959zM102.034 13.162c-0.834 0-1.9 0.687-1.9 0.687-0.383 0.247-0.75 0.818-0.818 1.269 0 0-0.574 3.865-0.574 3.865 0.556 0.045 1.089 0.069 1.437 0.045 1.646-0.045 2.157-0.603 2.574-3.338 0.301-2.111 0.139-2.528-0.719-2.528zM93.41 20.073c-0.649 5.24-3.617 6.354-7.257 6.354-0.789 0-3.247-0.070-4.755-0.719 0 0 0.152-1.541 0.152-1.541 0.044-0.453 0.453-0.818 0.908-0.809 0 0 0.471 0.008 2.257 0.008 2.156 0 3.803-0.394 4.475-1.762 0.417-0.835 0.465-1.717 0.951-2.528-1.090 1.646-2.783 2.644-4.893 2.713-3.061 0.117-3.918-2.040-3.293-6.145 0.835-5.448 2.899-5.819 6.052-5.819 2.76 0 5.932 0.572 5.932 0.572 0.449 0.081 0.764 0.516 0.7 0.967 0 0-1.229 8.71-1.229 8.71zM89.429 12.709c0 0-0.61-0.010-0.61-0.010-1.878 0-2.202 0.534-2.573 2.876-0.417 2.619-0.231 3.2 0.696 3.083 0.928-0.116 1.901-0.882 2.759-2.017 0 0 0.441-3.099 0.441-3.099 0.064-0.451-0.257-0.827-0.712-0.833zM79.668 21.672c0 0-1.612 0-1.612 0-0.455 0-0.828-0.373-0.828-0.828 0 0 0-0.523 0-0.523 0-0.455-0.276-0.577-0.613-0.27 0 0-1.984 1.807-3.978 1.9-3.154 0.162-3.918-2.11-3.293-6.308 0.835-5.426 3.246-5.819 7.073-5.819 1.645 0 4.568 0.393 5.658 0.718 0 0-1.461 10.31-1.461 10.31-0.064 0.451-0.489 0.82-0.946 0.82zM76.746 12.708c0 0-0.539-0.009-0.539-0.009-1.508 0-2.204 0.301-2.574 2.876-0.372 2.643-0.324 3.13 0.649 3.083 0.882-0.046 1.878-0.882 2.737-2.017 0 0 0.44-3.099 0.44-3.099 0.064-0.451-0.256-0.827-0.712-0.834zM68.836 15.389c-0.394 1.438-0.858 2.783-1.345 3.779-0.811 1.762-1.693 2.504-4.313 2.504 0 0-0.933 0-0.933 0-0.456 0-1.174-0.141-1.595-0.315 0 0-0.417-0.172-0.417-0.798 0 0-0.186-7.055-0.186-7.055-0.012-0.455-0.090-0.828-0.173-0.828s-0.196 0.37-0.251 0.822c0 0-0.155 1.258-0.41 2.558-0.209 1.020-0.463 1.953-0.742 2.719-0.835 2.713-2.249 2.898-4.266 2.898 0 0-1.398 0-1.398 0-0.455 0-1.172-0.145-1.592-0.321 0 0-0.396-0.166-0.443-0.792 0 0-0.768-9.608-0.768-9.608-0.037-0.454 0.307-0.826 0.762-0.826 0 0 2.633 0 2.633 0 0.455 0 0.839 0.372 0.853 0.828 0 0 0.206 7.178 0.206 7.178 0.013 0.455 0.107 0.828 0.21 0.828 0.463 0 0.742-0.417 1.044-1.368 0.209-0.603 0.394-1.391 0.58-2.366 0.209-1.112 0.348-2.202 0.626-4.034 0.070-0.487 0.441-1.044 1.229-1.044 0 0 2.812 0 2.812 0 0.455 0 1.174 0.139 1.596 0.311 0 0 0.322 0.13 0.346 0.733 0 0 0.29 6.94 0.29 6.94 0.019 0.455 0.076 0.828 0.127 0.828 0.052 0 0.361-0.259 0.689-0.575 0 0 0.077-0.074 0.309-0.955 0.301-0.928 0.487-1.693 0.742-2.783 0.278-1.321 0.487-2.713 0.649-4.499 0 0 3.391 0 3.391 0 0.456 0 0.765 0.367 0.686 0.817 0 0-0.484 2.778-0.948 4.424zM48.177 12.849c0 0-2.163-0.033-3.624-0.033-1.669 0-2.086 0.023-2.156 0.417-0.046 0.371 0.255 0.534 1.183 0.834 0 0 1.878 0.605 1.878 0.605 0.434 0.139 1.107 0.448 1.495 0.686 0 0 2.053 1.259 1.822 3.138-0.348 2.945-2.366 3.432-5.751 3.432-1.786 0-3.293-0.094-5.519-0.465 0 0 0.235-1.706 0.235-1.706 0.062-0.452 0.486-0.818 0.941-0.813 0 0 1.653 0.015 2.951 0.015 2.528 0 3.038-0.117 3.107-0.556 0.046-0.372-0.511-0.554-0.511-0.554-0.434-0.141-1.141-0.378-1.571-0.526 0 0-1.79-0.612-1.79-0.612-2.065-0.696-2.714-2.017-2.458-3.803 0.278-2.063 1.6-3.083 5.379-3.083 1.786 0.023 4.244 0.231 5.589 0.51 0 0-0.251 1.707-0.251 1.707-0.066 0.451-0.493 0.814-0.949 0.807zM20.604 29.649c-0.078 0.079 0.873-0.878 0.795-0.81 0 0-0.227 0.226-0.227 0.226-3.313 3.313-6.66 3.275-10.045-0.109 0 0-8.604-8.604-8.604-8.604-3.341-3.34-3.357-6.667-0.045-9.979 0 0 6.979-6.979 6.979-6.979 0.102-0.102 0.202-0.191 0.302-0.276 0 0 0.559-0.561 0.559-0.561 3.304-3.372 6.628-3.386 9.937-0.077 0 0 2.452 2.452 2.452 2.452 1.161 1.147 1.19 2.272 0.088 3.374-1.080 1.066-2.19 1.051-3.331-0.044 0 0-2.538-2.54-2.538-2.54-1.067-1.080-2.18-1.039-3.341 0.122 0 0-0.756 0.756-0.756 0.756-0.013 0.013-0.024 0.027-0.037 0.040 0 0-7.066 7.067-7.066 7.067-1.082 1.067-1.043 2.182 0.12 3.346 0 0 8.67 8.67 8.67 8.67 1.125 1.125 2.252 1.125 3.379-0.001 0 0 0.703-0.69 0.703-0.69s8.021-8.019 8.021-8.019c1.115-1.116 1.299-2.062 0.549-2.841-0.741-0.742-1.673-0.566-2.796 0.527 0 0-4.768 4.769-4.768 4.769-3.377 3.406-6.578 3.589-9.6 0.549-2.987-2.942-2.796-6.097 0.572-9.465 0 0 2.957-2.936 2.957-2.936 1.124-1.123 2.238-1.13 3.346-0.024 1.086 1.131 1.105 2.243 0.058 3.337 0 0-2.958 2.957-2.958 2.957-1.145 1.145-1.336 2.099-0.572 2.862 0.717 0.718 1.654 0.502 2.807-0.65 0 0 4.768-4.77 4.768-4.77 3.406-3.301 6.578-3.477 9.511-0.527 2.972 3.002 2.795 6.173-0.527 9.51 0 0-9.358 9.337-9.358 9.337z"/></svg>