<svg xmlns="http://www.w3.org/2000/svg" viewBox="0 0 30 30"><circle cx="15" cy="15" r="15" fill="#69b8d6"/><path d="m15 25c-5.523 0-10-4.477-10-10 0-5.523 4.477-10 10-10 5.523 0 10 4.477 10 10 0 5.523-4.477 10-10 10m0-19.11c-5.03 0-9.107 4.077-9.107 9.107 0 5.03 4.077 9.107 9.107 9.107 5.03 0 9.107-4.077 9.107-9.107 0-5.03-4.077-9.107-9.107-9.107m6 10.11c0 0 0-2 0-2 0 0 2 0 2 0 0 0 0 2 0 2 0 0-2 0-2 0m-2.464-5.95c0 0 1.414-1.414 1.414-1.414 0 0 1.414 1.414 1.414 1.414 0 0-1.414 1.414-1.414 1.414 0 0-1.414-1.414-1.414-1.414m-3.536 9.95c-2.761 0-5-2.239-5-5 0-2.761 2.239-5 5-5 2.761 0 5 2.239 5 5 0 2.761-2.239 5-5 5m0-9c-2.209 0-4 1.791-4 4 0 2.209 1.791 4 4 4 2.209 0 4-1.791 4-4 0-2.209-1.791-4-4-4m0 7c-1.657 0-3-1.343-3-3 0-1.657 1.343-3 3-3 1.657 0 3 1.343 3 3 0 1.657-1.343 3-3 3m-1-11c0 0 2 0 2 0 0 0 0 2 0 2 0 0-2 0-2 0 0 0 0-2 0-2m-5.989 3.453c0 0 1.442-1.442 1.442-1.442 0 0 1.442 1.442 1.442 1.442 0 0-1.442 1.442-1.442 1.442 0 0-1.442-1.442-1.442-1.442m.989 5.547c0 0-2 0-2 0 0 0 0-2 0-2 0 0 2 0 2 0 0 0 0 2 0 2m2.464 3.95c0 0-1.414 1.414-1.414 1.414 0 0-1.414-1.414-1.414-1.414 0 0 1.414-1.414 1.414-1.414 0 0 1.414 1.414 1.414 1.414m4.536 3.05c0 0-2 0-2 0 0 0 0-2 0-2 0 0 2 0 2 0 0 0 0 2 0 2m4.989-2.453c0 0-1.442 1.442-1.442 1.442 0 0-1.442-1.442-1.442-1.442 0 0 1.442-1.442 1.442-1.442 0 0 1.442 1.442 1.442 1.442" fill-rule="evenodd" fill="#fff"/></svg>