<svg xmlns="http://www.w3.org/2000/svg" viewBox="0 0 40 39"><path d="m25.748 13.686c0 0-5.852 5.76-5.852 5.76-1.414 1.391-2.563 1.653-3.444.786-.937-.923-.702-2.075.702-3.457 0 0 3.63-3.572 3.63-3.572 1.285-1.322 1.261-2.664-.07-4.03-1.36-1.337-2.727-1.328-4.105.028 0 0-3.629 3.546-3.629 3.546-4.134 4.068-4.368 7.878-.703 11.43 3.71 3.672 7.637 3.451 11.781-.663 0 0 5.85-5.759 5.85-5.759 1.378-1.32 2.522-1.534 3.431-.638.92.94.695 2.084-.674 3.431 0 0-9.841 9.684-9.841 9.684 0 0-.863.832-.863.832-1.382 1.361-2.765 1.361-4.146.002 0 0-10.638-10.47-10.638-10.47-1.426-1.405-1.474-2.752-.147-4.04 0 0 8.67-8.534 8.67-8.534.016-.017.029-.033.046-.05 0 0 .926-.912.926-.912 1.426-1.402 2.791-1.451 4.101-.146 0 0 3.114 3.068 3.114 3.068 1.4 1.322 2.763 1.341 4.088.053 1.353-1.332 1.317-2.691-.108-4.075 0 0-3.01-2.961-3.01-2.961-4.06-3.995-8.138-3.979-12.193.093 0 0-.686.678-.686.678-.123.101-.246.209-.371.332 0 0-8.564 8.428-8.564 8.428-4.063 4-4.04 8.02.056 12.05 0 0 10.558 10.391 10.558 10.391 4.153 4.088 8.261 4.132 12.324.132 0 0 .28-.273.28-.273.096-.082-1.073 1.074-.976.979 0 0 11.483-11.276 11.483-11.276 4.077-4.03 4.295-7.86.648-11.486-3.6-3.562-7.491-3.35-11.67.638" fill-rule="evenodd" fill="#fff"/></svg>