<svg xmlns="http://www.w3.org/2000/svg" xmlns:xlink="http://www.w3.org/1999/xlink" preserveAspectRatio="xMidYMid" width="17" height="18" viewBox="0 0 17 18">
  <defs>
    <style>

      .cls-2 {
        fill: #69b8d6;
      }
    </style>
  </defs>
  <path d="M-0.002,14.969 C-0.002,14.657 -0.002,14.462 -0.002,14.151 C1.444,13.537 2.373,12.846 2.955,11.464 C3.827,9.393 3.201,6.032 4.149,4.049 C4.736,2.823 5.622,2.149 6.993,1.771 C6.636,-0.523 10.416,-0.659 10.023,1.771 C11.728,2.401 13.252,3.808 13.419,6.034 C13.639,8.986 13.467,12.100 15.748,13.509 C16.115,13.735 16.518,13.829 17.000,14.034 C17.000,14.384 17.000,14.619 17.000,14.969 C11.316,14.968 5.494,14.970 -0.002,14.969 ZM10.131,15.988 C10.152,16.104 10.163,16.224 10.163,16.347 C10.163,17.365 9.415,17.997 8.493,17.997 C7.571,17.997 6.824,17.364 6.824,16.347 C6.824,16.224 6.836,16.104 6.857,15.988 C6.857,15.988 10.131,15.988 10.131,15.988 Z" id="path-1" class="cls-2" fill-rule="evenodd"/>
</svg>
