<svg xmlns="http://www.w3.org/2000/svg" xmlns:xlink="http://www.w3.org/1999/xlink" preserveAspectRatio="xMidYMid" width="10" height="10" viewBox="0 0 10 10">
  <defs>
    <style>

      .cls-2 {
        fill: #cccccc;
      }
    </style>
  </defs>
  <path d="M9.942,8.699 C9.942,8.699 8.699,9.942 8.699,9.942 C8.699,9.942 4.969,6.212 4.969,6.212 C4.969,6.212 1.239,9.942 1.239,9.942 C1.239,9.942 -0.004,8.699 -0.004,8.699 C-0.004,8.699 3.725,4.969 3.725,4.969 C3.725,4.969 -0.004,1.239 -0.004,1.239 C-0.004,1.239 1.239,-0.004 1.239,-0.004 C1.239,-0.004 4.969,3.725 4.969,3.725 C4.969,3.725 8.699,-0.004 8.699,-0.004 C8.699,-0.004 9.942,1.239 9.942,1.239 C9.942,1.239 6.212,4.969 6.212,4.969 C6.212,4.969 9.942,8.699 9.942,8.699 Z" id="path-1" class="cls-2" fill-rule="evenodd"/>
</svg>
