<svg xmlns="http://www.w3.org/2000/svg" xmlns:xlink="http://www.w3.org/1999/xlink" width="48" height="48" viewBox="0 0 48 48"><defs><path id="a" d="M1033 613a23 23 0 1 1 46 0 23 23 0 0 1-46 0z"/><path id="b" d="M1052.41 620.94l-5.75-5.96a2.42 2.42 0 0 1 0-3.32 2.22 2.22 0 0 1 3.2 0l4.15 4.3 8.96-9.28a2.22 2.22 0 0 1 3.2 0c.88.91.88 2.41 0 3.32l-10.56 10.94a2.2 2.2 0 0 1-1.6.68c-.59 0-1.18-.25-1.6-.68z"/></defs><g transform="translate(-1032 -589)"><use fill="#7a69d6" xlink:href="#a"/><use fill="#fff" fill-opacity="0" stroke="#fff" stroke-miterlimit="50" stroke-width="2" xlink:href="#a"/></g><use fill="#fff" xlink:href="#b" transform="translate(-1032 -589)"/></svg>